<svg xmlns="http://www.w3.org/2000/svg" viewBox="0 0 389.63 723.8"><defs><style>.cls-1,.cls-11,.cls-12,.cls-16,.cls-2,.cls-3,.cls-5,.cls-6,.cls-7,.cls-9{fill-rule:evenodd;}.cls-2{fill:#25b8a9;}.cls-3{fill:#197c72;}.cls-10,.cls-13,.cls-14,.cls-15,.cls-17,.cls-18,.cls-19,.cls-20,.cls-4,.cls-8{fill:none;}.cls-4{stroke:#2cd8c6;}.cls-10,.cls-13,.cls-14,.cls-15,.cls-16,.cls-17,.cls-18,.cls-19,.cls-20,.cls-4,.cls-8{stroke-linecap:round;stroke-linejoin:round;}.cls-10,.cls-13,.cls-14,.cls-15,.cls-16,.cls-17,.cls-18,.cls-20,.cls-4{stroke-width:1.7px;}.cls-16,.cls-5{fill:#f77f89;}.cls-6{fill:#2cd8c6;}.cls-7{fill:#6a3416;}.cls-8{stroke:#000;}.cls-19,.cls-8{stroke-width:3.41px;}.cls-9{fill:#90415b;}.cls-10{stroke:#90415b;}.cls-11{fill:#fff;}.cls-12{fill:#f7d167;}.cls-13{stroke:#81666f;}.cls-14{stroke:#905f6f;}.cls-15{stroke:#8b5d6c;}.cls-16,.cls-18{stroke:#25b8a9;}.cls-17{stroke:#fff;}.cls-19{stroke:#c9c9c9;}.cls-20{stroke:#7c7c7c;}</style></defs><title>dr-male-ppe-teal</title><g id="Layer_2" data-name="Layer 2"><g id="Layer_1-2" data-name="Layer 1"><path class="cls-1" d="M82.92,647,77.16,676.3l32.9,15.36,13.83-30.34Z"/><path class="cls-1" d="M96.35,723.8l17-39.26s-19.22-8.81-34.77-15.2c-24.35,3.63-61.2,1.54-73.4-1C1.85,676.6,0,682.23,0,682.23Z"/><path class="cls-1" d="M321.84,650.19,336,663.29l30.6-22.5L355.8,626.51Z"/><path class="cls-1" d="M363.9,637.19l25.73,33.74-55.21,43.33H279.86l.12-14.32s38.68-7,38.56-6.89c8-9.53,14.5-32.52,14.5-32.52Z"/><path class="cls-2" d="M268.45,338.14s17.94,132.48,24.3,146.75,67.92,142.53,67.92,142.53l-44.49,31.91S217.13,510,212.64,502c-2.9-5.12-10.63-35.61-10.63-35.61L125.73,674.1,75.18,651l53.07-307.52Z"/><path class="cls-3" d="M214.72,340.2,175,341.71l.29,9.58ZM176,376.49l4.55,148.32L202,466.56Z"/><path class="cls-4" d="M202.05,466.56,172.26,362.72"/><path class="cls-4" d="M316.12,588.63l-41.46-76.7c8.1-8.19,11.49-16.94-7.08-6.56-13.77,7.69-16.07,5.08-4-8.23,16.25-17.88,13.42-20.33-2.56-17.75"/><path class="cls-4" d="M264.36,473S251,379.32,247.14,367.79"/><path class="cls-4" d="M126.26,582.44c1.47-6.29,9.43-62.3,14.38-63.68,23.52-6.54,27.77-15.69,5.3-22.1-22-6.29-21.92-8.18-2.08-14.22,20.3-6.19,16.3-9.47,3.25-21.12-4.42-3.95,15.86-53.31,17-58.12"/><path class="cls-5" d="M303.11,243c-.13-7.71,1.53-21.45-1.91-29.71s-26.15-4.7-26.15-4.7S303.23,250.67,303.11,243Z"/><path class="cls-6" d="M209.47,110.15c51.62,0,93.74,26.15,94.15,65.78.25,24.87,4.83,42.76,4.83,42.76l-45.77,11.38S278.58,339.24,273,343.83c-16.6,13.68-133.06,18.26-147.51,3.37-1.27-18.42,9.93-67.5,9.93-67.5s-35.54-83.78-16.28-123.29c18.25-37.45,66.23-44.18,87.5-44.91C207.81,111.46,208.47,110.15,209.47,110.15Z"/><path class="cls-7" d="M240.06,42c.3-17.69-17.77-42-43.79-42-20.39,0-41.22,9.7-41.75,25.48-1.06-6.52-2.07-10.55-1.33-14.15-4.4-.22-13.25,11.13-13.25,26.29,0,5.86,4.57,28,17.57,27.73s62.61,17.49,62.61,17.49,3.26,4.77,7.66,4.41,12.73-8.61,12.8-13.16-4.05-12.73-4-15.26S239.75,59.66,240.06,42Z"/><path class="cls-8" d="M177.84,161.64,168.67,195"/><path class="cls-5" d="M151.92,64.71a38.7,38.7,0,1,1,38.69,38.69A38.69,38.69,0,0,1,151.92,64.71Z"/><path class="cls-7" d="M150.06,50s5.2-1,12.85-12.32c9.54,1.8,25.24,1.72,38.62-2.32.17,8.07,6.09,21.28,14.24,19.82s11.49-21.1,11.49-21.1L208.05,14,179,14.19,158.55,28.6Z"/><path class="cls-9" d="M161.61,60.11c-.36-3.09.61-5.73,2.16-5.91s3.11,2.17,3.47,5.25-.61,5.73-2.17,5.91S162,63.19,161.61,60.11Z"/><path class="cls-5" d="M229.68,72.76c-1,6.15-3,35.4.17,41.62-7.07,7.12-27.8,10.19-38.66,7.1.85-8.44-2.65-16.69-4.52-20.06S230.65,66.6,229.68,72.76Z"/><path class="cls-9" d="M187.45,55.36c-.36-3.08.61-5.72,2.16-5.91s3.11,2.17,3.46,5.26-.6,5.73-2.16,5.91S187.81,58.45,187.45,55.36Z"/><path class="cls-10" d="M174.57,61.14c.31,3.64-2.61,17.4-3.23,19.53s2.71,2.92,2.71,2.92"/><path class="cls-11" d="M153.86,76.84c.2,3.87,9.34,23.83,14.73,26.9s46,2.67,55.33-17.43c-7.66-1.19-12.85-7.69-18.91-21.6-13.54,2-28.89,0-31.36.13C170.94,65,164.42,74,153.86,76.84Z"/><path class="cls-6" d="M234.93,150.56c21.24-.41,63.36-3,67.59,15s8.25,48.87,5.93,53.1-45.57,9.59-45.57,9.59C259.46,219.59,240.58,170.76,234.93,150.56Z"/><path class="cls-5" d="M280.26,269.89c-11.7,1.9-80.75-46.21-89.31-45.27s-30.53.1-30.53.1-12.5-47.91,14.17-49.68c1.65-.11,11.42,8.58,11.42,8.58s2.71-.86,4.6.69c3.45,2.82,14.67,15.57,20.28,17.59,9.44,3.41,86.05,17.9,89.72,24S308.33,265.34,280.26,269.89Z"/><path class="cls-12" d="M96.8,196h53.55c6.18,0,13.2,4.58,15.69,10.24l37.69,85.61c2.49,5.65-.5,10.23-6.68,10.23H143.51c-6.18,0-13.21-4.58-15.7-10.23L90.13,206.23C87.64,200.57,90.63,196,96.8,196Z"/><path class="cls-5" d="M95.49,265.56c-2.55-6.58-4.37-15.67-.79-21.49s17.36-23.74,23.07-24.07,20.37,15.56,21.94,20.71,1,16.34-1.46,21.16-12.33,14.18-17.3,14.37S97,269.58,95.49,265.56Z"/><path class="cls-5" d="M94.08,252.41c-.69-10.62-5.32-22.12-8.46-29.92-2.1-5.19-.55-9.64,3-10.65s14.56,13.51,14.88,24.74S94.78,263,94.08,252.41Z"/><path class="cls-13" d="M93.42,247a60.11,60.11,0,0,1,10.07-15.41"/><path class="cls-14" d="M107.62,248.72c0-5.71,11.64-22.36,16-24.4"/><path class="cls-15" d="M119.05,255.44c.13-2.77,9.19-17.86,14.38-20.86"/><path class="cls-16" d="M188.68,113.22c-.49,4.94-6.35,36.88,13.37,36.88,12.69,0,32.39-29.52,29.27-38.32"/><path class="cls-5" d="M210.89,60.35a14.74,14.74,0,1,1,14.74,14.73A14.74,14.74,0,0,1,210.89,60.35Z"/><path class="cls-17" d="M205.16,65S214.47,48,224.33,45.67"/><path class="cls-17" d="M223.86,86.43,231.08,74"/><path class="cls-18" d="M140.33,166.86c-1,5.86-1.94,18.39.48,29.11"/><path class="cls-18" d="M207.69,191.2l33.75.68"/><path class="cls-18" d="M257,213.12c-5.65-14.81-13.76-36.55-18.88-52.13"/><path class="cls-19" d="M155,80.93c2.64,7.21,9.31,20.37,13.6,22.81,1.71,1,7,1.6,13.74,1.35"/><path class="cls-20" d="M99.52,716.45,2.65,674.81"/><path class="cls-20" d="M279.91,708.09l51.75-1.79,53.07-41.8"/></g></g></svg>