<svg xmlns="http://www.w3.org/2000/svg" viewBox="0 0 339.23 643.48"><defs><style>.cls-1,.cls-8{fill:#e49d75;}.cls-2{fill:none;stroke:#ff8364;stroke-linecap:round;stroke-linejoin:round;stroke-width:3.01px;}.cls-3{fill:#ff8364;}.cls-4{fill:#25b8a9;}.cls-5{fill:#2cd8c6;}.cls-6{fill:#ffd98e;}.cls-7{fill:#d68f67;}.cls-8{opacity:0.99;isolation:isolate;}.cls-9{fill:#949494;}.cls-10{fill:#ffe1a5;}</style></defs><title>man-phone-sitting-teal</title><g id="Layer_2" data-name="Layer 2"><g id="Layer_1-2" data-name="Layer 1"><path class="cls-1" d="M146.72,581.58l13.09-7.2,9.67,17.6-13.09,7.19Z"/><path class="cls-1" d="M53.6,587.58H68.54v20.08H53.6Z"/><path class="cls-2" d="M145.66,448.07l-49,185.69"/><path class="cls-2" d="M61.66,448.07l-49,185.69"/><path class="cls-3" d="M114.58,382.69h145.9v68.16H114.58Z"/><path class="cls-3" d="M234.56,155l104.67.19-78.8,295.65-115.3-26.67Z"/><path class="cls-4" d="M165.07,359.81c0-7.81-27.8-14.21-45-14.21S27.59,355.91,13.21,372.17C6.13,404.82,42,581.82,50.11,592.73c3.35,2.81,14.43,3,17.42.52S79,512.32,77.73,494.38s14.08-83.22,14.08-83.22S165.07,367.58,165.07,359.81Z"/><path class="cls-5" d="M225.48,323.42c14.39,0,34.34,32.21,34.34,41.53-1.13,87.36-107.64,76.8-144.54,74.56,3.6,9.48,46,132.75,44.82,136.54-2.25,7.07-13.78,12.57-20,13-10.18.63-121.26-166.95-120.72-177.39s98.89-80,157.41-79.46S211.09,323.42,225.48,323.42Z"/><path class="cls-6" d="M265.32,310.85c.25,12.5,2,47.93-5.85,50-19.81,5.26-82.08-8.27-97.21-22.77-6.9-6.63-46-116.58-13.92-159.53,6.5-8.7,30-26.05,49.42-26C239.91,152.79,264.71,280.8,265.32,310.85Z"/><path class="cls-7" d="M213.13,105.64c-.25,3.2-1.73,54.53-1.48,57.65-6.57,7.23-35.89,5.67-38,3,.42-6.32.66-35.07-.16-38"/><path class="cls-8" d="M201.66,88.26a10.22,10.22,0,1,1,10.22,10.22h0a10.21,10.21,0,0,1-10.22-10.2Z"/><path class="cls-8" d="M143.42,76.77c0-29.63,17-53.65,38-53.65s38,24,38,53.65-17,53.66-38,53.66S143.42,106.41,143.42,76.77Z"/><path class="cls-3" d="M118.71,23.17c.43-14.63,13.54-12.83,18.75-15.79,7.58-4.33,9-7.06,16-7.37s13.3,5.49,22.11,9.05c12.23,4.94,29.67,2.44,37.6,10.21,12.09,11.87,11.44,18.8,13.68,23.59C232,53.8,237.85,60.55,238,67.43c.26,11-5.93,15.93-6.46,20.64-2,18.09-10.7,22.9-14.39,22.65-4.56-.32-5.1-3.68-5.24-6.53.4-7,9.58-8.91,9.17-18-.14-3-4.12-6.83-7.71-7.22-5.57-.62-11.25,5.27-13.27,7.43-1.94-1.81-4.07-3.55-4-6,.15-8.5-.2-14.62-4-17.41-7.53-5.51-27.17-8.18-31.15-10.8s-7.61-5.36-9.2-7.27a30.83,30.83,0,0,0-5.35,11.16C123.34,47.51,118.57,28.2,118.71,23.17Z"/><path class="cls-9" d="M184.54,71.21l25.31,15-25.27,42.7-25.31-15Z"/><path class="cls-1" d="M172.88,249.15c-3.94,2.56-61.42,40.3-82.79,9.46a31,31,0,0,1-3.65-19.46c.44-37.48,62.79-126.22,69.94-130.17s9-8.66,10.88-12S178,78.43,188.81,83.78s5.32,19,2.17,23-12.53,14.51-13.64,18.38c-5,17.41-35.37,76.39-37.6,83.23,4.6-4.61,12.49-6.84,12.49-6.84S176.82,246.58,172.88,249.15Z"/><path class="cls-2" d="M233.39,448.07l49,185.69"/><path class="cls-2" d="M134.05,448.07l49,185.69"/><path d="M68.66,603.43v22.15H0v-10l53.53-12.37Z"/><path d="M168.82,590.58,179.66,610l-59.92,33.53-4.88-8.73,40.67-36.94Z"/><path class="cls-10" d="M226.55,187.52c14.48,24.81-45,68.2-52.26,67.24s-32.86-47.38-30.14-54.18S209.66,158.58,226.55,187.52Z"/></g></g></svg>