<svg xmlns="http://www.w3.org/2000/svg" viewBox="0 0 418.91 781.13"><defs><style>.cls-1{fill:#e49d75;}.cls-2{fill:#ae1b1f;}.cls-3{fill:#dd110e;}.cls-4{fill:#ffcd8e;}.cls-5{fill:#ffd98e;}.cls-6{fill:#949494;}.cls-7{fill:#d78b60;}.cls-8{fill:#ffe1a5;}.cls-9{fill:#dfdfdf;}</style></defs><title>woman-phone-standing-red</title><g id="Layer_2" data-name="Layer 2"><g id="Layer_1-2" data-name="Layer 1"><path class="cls-1" d="M74.35,694.6h31.71v15.55H74.35Z"/><path class="cls-1" d="M267.43,628.77H295v18.58H267.43Z"/><path d="M42.4,67.39C40.88,21.74,74.28.29,117.61,0,171.19-.35,218.94,28.8,257,28.8s28.51-11.52,83-12.25c39.1-.32,57.73,23.43,57.2,60.85.41,39.07-31.7,57-64.68,57s-72.87-10.75-98.93-10.75-58.8,17.51-88.17,17.51S49.62,127.65,42.4,67.39Z"/><path class="cls-1" d="M179.47,238.47c4.25,2,64.8,17,94.54-5.22C257.2,158.8,166.59,100.12,146.44,94.6s-7.88,18.32-4.38,21.37c17.19,17.12,57.94,69,75.62,79.09,17.83,9.78,15,3.07,10.25,1.38s-21.78-7-28.57-6.73S175.22,236.48,179.47,238.47Z"/><path class="cls-2" d="M166.2,340.1c7.53-1.63,124,27.78,148.18,64.71-1,19.45-19.67,225.73-19.67,225.73l-29.07-.26L232.06,455.81c-24.5,4.69-78.59-12.18-87.48-18.46S158.66,341.72,166.2,340.1Z"/><path class="cls-3" d="M73.23,696.7c-.76-10.18-14.59-362.47-14.59-362.47l109.88,5.37L108.9,696.9S80.37,696.6,73.23,696.7Z"/><path class="cls-4" d="M116.06,183.89c11.85-28,86.37-5.16,90.19,1.64s-19.32,57.94-26.82,59.95S102.22,216.6,116.06,183.89Z"/><path class="cls-5" d="M110.25,149.15c57.71-4.05,88.09,147.25,57,191.36-26.9,3.33-103.56,2.54-107-11C26.21,197,75.17,151.6,110.25,149.15Z"/><path class="cls-6" d="M119.12,93.48,138.21,71.1,176,103.29l-19.09,22.39Z"/><path class="cls-1" d="M75,248.12c-1.49,4.68-28.39,47-34.62,52.94s-9.08-18.46-2.83-13.46,48.86,82.84,51.91,90.95c-2.44,7-4.63,14.07-12.56,20.5-6.8-3.87-70.71-71.29-76.2-92.9s24.11-85,27.92-89.69S76.47,243.45,75,248.12Z"/><path class="cls-7" d="M87.46,136.05c.42,3.29,3.16,32.39,3.23,34.38,3.23,2.33,28.76,4.32,37.61-2.68-.34-4.8-1-20.45-1-23.33S87.06,132.75,87.46,136.05Z"/><path class="cls-8" d="M90.91,166c26.19,15.48-6.4,86.29-13.65,89.16S22.42,228.3,21.43,220.6,60.31,147.93,90.91,166Z"/><path class="cls-1" d="M139.9,62.51a182.29,182.29,0,0,1-65,45.07c5.71,26.33,23.14,45,41.71,43,20.65-2.28,34.77-29.26,31.52-60.3A78.15,78.15,0,0,0,139.9,62.51Z"/><path class="cls-9" d="M220.3,681H418.91V781.13H220.3Z"/><path d="M74.47,709.6l.11,8.1,42.92,55.39,11.56-4.89-23.43-58.81Z"/><path d="M267.59,646.87v34.57h78.25v-7.55L294.7,646.6Z"/></g></g></svg>