<svg xmlns="http://www.w3.org/2000/svg" viewBox="0 0 79.94 219.4"><defs><style>.cls-1{fill:#603913;}.cls-2{fill:#181818;}.cls-3{fill:#197c72;}.cls-4{fill:#166057;}.cls-5{fill:none;}.cls-6{fill:#55c3ba;}.cls-7{fill:#deceaf;}.cls-8{fill:#3c2415;}.cls-9{fill:#25b7a8;}.cls-10{fill:#6ec9c7;}.cls-11{fill:#a7dcde;}.cls-12{fill:#45514f;}.cls-13{fill:#835126;}.cls-14{fill:#553117;}</style></defs><title>dr_female_ppe</title><g id="Layer_2" data-name="Layer 2"><g id="Layer_2-2" data-name="Layer 2"><path class="cls-1" d="M49,17.27a49.3,49.3,0,0,0-1-6.38c-.5-1.38-.22-4.57-4.79-4.85s-6.66.94-8,2.43a18.94,18.94,0,0,0-3.46,5.61c-.28,1.16.16,2.7-.39,2s.11-1.81-1.27-1.76a1.86,1.86,0,0,0-1.65,1.32c-.11.06,1.21-7.54,1.27-8.75S33.81,1.26,36.57.71s7-2,10.56,2.2S50,7.26,50.27,8.41,50.33,13,50,13s-.55,3.47-.28,3.36.28-.33-.11.27"/><path class="cls-2" d="M37.55,205.14c-2.7,4.74-4.95,10.85-4,11.59s11,3.31,13.38,1.16.33-4.63,1.07-5.45,2.31-2.15,2-3S38.69,203.13,37.55,205.14Z"/><path class="cls-2" d="M14,200.88c-4.13,3.55-9.25,5.2-9.25,7s.58,3,1.82,3.38,6.85,2.23,9.66,1.24a16.07,16.07,0,0,0,5.86-3.47c.58-.74.41-1.73,1.07-1.81s1.26,1,2.07,1.24c1.48.35.44.35,1.15.24,2.66-.41,2.23-1.15,3.39-.82s2.56-.08,2.47-.58-.66-2.89-.24-3.39a3.46,3.46,0,0,0-.66-4c-1.41-1.49-14.62-1.24-16.85.58"/><path class="cls-3" d="M13,161.52c6.56-4.1,21.05-1.4,20.89,2.64s-2.56,27.5-1.57,28.16-.83,5.86-.58,6.94-.91,3.46-2.64,3.22-8.34,2.56-9.91,1.32-4.87-.66-4.38-2.65,1.41-7.92,1.66-10.4-3.72-11.06-3.31-13.38S12.32,161.93,13,161.52Z"/><path class="cls-4" d="M23.84,178.15c-1.55.91-8.58,4.92-3.71,3.44.4-.64,2.26.44,2.5,1.15a2.72,2.72,0,0,1-.48,2.14,4,4,0,0,0-.76,2.08,3.52,3.52,0,0,1,2.05,4.27c-.17.53-.48,1.12-.18,1.6a1.8,1.8,0,0,0,.76.53c2.69,1.25,3.47,3.76,3.3,6.72a15.44,15.44,0,0,0-4.63,2.48c1.53.33,6.11-.46,7.38-1.36,2.09-1.49,2-4,2-6.57s.19-8.63-.33-11.15c-1.05-5.14,0-6.55,1.24-11.64.57-2.25,1.31-6.27.66-8.5-1.48-5.11-8.36-1.72-7.23,3.15C27.67,172.1,30.12,174.5,23.84,178.15Z"/><path class="cls-3" d="M34.66,203.1a1.7,1.7,0,0,0,1.24,1.6c4.84,1.39,14.19,5.67,15,4.16s2.56-2.64,2.64-5.7,2.26-28.26,2.34-29.67S57,163,56.6,162.71,35.47,160.55,37,162c2.28,2.24-2.84,28.61-3,32.26C33.9,196.72,34.6,200.7,34.66,203.1Z"/><path class="cls-4" d="M54.15,165.46c.75-.31,1.26-.76,1.12-1.2a1.87,1.87,0,0,0,.72-.16c-1.74.89-13.89-.77-13.47.58C43,166.24,52.3,166.23,54.15,165.46Z"/><path class="cls-5" d="M8.76,210.21c3,1.58,6.7,1,10,.25a5,5,0,0,0,2.53-1.13c.72-.71,1-1.82,1.79-2.44s2.26-.53,3.42-.32v1.33l-2.66-.4a1.33,1.33,0,0,0-.84.06,1.62,1.62,0,0,0-.53.72,6.68,6.68,0,0,1-3.38,2.8,13.61,13.61,0,0,1-13.24-1.55,1.22,1.22,0,0,1-.32-.32c-.65-1.05.75-2.49,1.77-1.56C6.93,208.74,7.85,209.73,8.76,210.21Z"/><path class="cls-6" d="M31,32.85S17.73,34,14.64,40.41,4.51,53.18,2.53,61.76-.33,81.8.11,84.88s9.76,18.54,10.8,21.68c2.54,7.59,3.07,43.94.65,52.31S28.27,163,35.2,165c5.25,1.52,25.14-.91,26.47-3,4-6.25-.28-58.07,4.79-57s5.87-1.25,5.21-6.53.12-55.06-7.58-59.25c-13.66-7.41-17.62-5.72-17.4-6.6S42,44.52,31,32.85Z"/><path class="cls-7" d="M41.9,5.82c-4.47.48-5.22,1-7.21,3.25s-3.41,4.57-3.46,5.34-1.16-.6-1.71-.66-2.15,2.2-.88,4.4,2.81,1.88,2.48,3-.06,2.2.22,2.31,1.21,8.75.27,9.36.77,3.55,2.53,4.18c1.38.5,6.06,1.82,7.21,1.16s5.4-3.58,5.12-4.79-1.32-5.29-1-5.62,3.91-10.51,3.36-12.27-.33-4.13-.45-5.29S47.13,5.27,41.9,5.82Z"/><path class="cls-8" d="M31.06,21.4c-.56,1-3.14,9.07-2.26,11.29,1.32,3.3,1.49-.77,3,.93.93,1,1.21-11.06.39-11.61"/><path class="cls-9" d="M13.25,73.14c-.25-.16-.58.07-.72.33a5.08,5.08,0,0,1-.36.82c-.28.34-.8.41-1.06.77s0,1.12,0,1.7a2.77,2.77,0,0,1-.24,1c-.3.81-.64,1.61-1,2.39A4.17,4.17,0,0,0,9.23,82c0,.54.23,1.07.24,1.61a16.74,16.74,0,0,1-.33,1.83c-.16,1.87,1.7,3.31,2.09,5.15.13.6.09,1.23.2,1.84a2,2,0,0,0,.94,1.5,1.71,1.71,0,0,0,0,1A1.08,1.08,0,0,1,11,94.71c-.22-.3-.41-.79-.78-.72a.59.59,0,0,0-.28.15,4.24,4.24,0,0,0-1.2,1.55c.5.56,1.4.15,2.14.2,1.12.07,1.93,1.24,3,1.31a.76.76,0,0,0,.53-.14.72.72,0,0,0,0-1,2.12,2.12,0,0,0-1-.53,1.35,1.35,0,0,0,1.23-.91A3.85,3.85,0,0,0,14.86,93c0-.57-.16-1.28-.71-1.42a3.7,3.7,0,0,1-.48-.08c-.47-.17-.48-.86-.21-1.27A12.79,12.79,0,0,0,14.37,89a2.94,2.94,0,0,0,.19-.79l.41-3L15.42,82c.22-1.58.4-3.34-.53-4.64l-1.37-.07a1.8,1.8,0,0,0,1.31-1.42,5.35,5.35,0,0,0-.06-2l-.55-3.55A6.73,6.73,0,0,0,14,69.25a6.43,6.43,0,0,0-2.27-2.7l-4-3.25C7.42,63,7,62.77,6.62,63c.49.87,1.62,1.08,2.45,1.64A9.22,9.22,0,0,1,11,66.94a4.58,4.58,0,0,0,1.11,1.13c.41.26,1.13.31,1.33.67s-.07,1.66-.09,2.13Z"/><path class="cls-9" d="M53.16,77.66A18,18,0,0,0,51.43,82c-.56,3,.62,6,.78,9,.12,2.46-.44,5,0,7.38.26,1.5.88,2.91,1.23,4.4a12.1,12.1,0,0,1-.74,7.62,18.94,18.94,0,0,0,3.78-5.1,6.45,6.45,0,0,0-.2-6.1c-.6-.88-1.55-1.85-1.14-2.83a1.83,1.83,0,0,0,2.57-.79,5.42,5.42,0,0,0,.33-3L57.39,85c-.26-3.16-.5-6.47.79-9.37.53-1.2,1.58-2.43,2.9-2.31-3.21-5.47.79-12-1.38-17.61-3,1.06-1.49,6.54-1.93,9A51.24,51.24,0,0,1,53.16,77.66Z"/><path class="cls-9" d="M62.11,100.23a12.94,12.94,0,0,1,4,1.07,12.44,12.44,0,0,1-2.93.78,6.79,6.79,0,0,0,2.94-.23,6.26,6.26,0,0,0-.91,2.35l.66.09-.35.68a1.6,1.6,0,0,0,2.11-.47,2.52,2.52,0,0,0,.22-2.3,2.14,2.14,0,0,0-1-1.25,3,3,0,0,0-1-.26l-2.58-.33"/><path class="cls-9" d="M45.05,90.51c-1.24,4.86-.68,10-.12,15l1.34,12c1-.63,1-2.1.69-3.24a9.9,9.9,0,0,1-.92-3.42c.14-2.16,2.49-3.6,2.88-5.72a8.44,8.44,0,0,0-.47-3.46c-2.09-8.45,1.07-16.77-3-25,.13,2.16,1.17,4.23,1.23,6.43C46.78,85.63,45.68,88,45.05,90.51Z"/><path class="cls-9" d="M24.05,81.31a36.72,36.72,0,0,1,.17,5l-.11,7.91c1.09-.52.72-2.12.54-3.32-.42-2.74,1.14-5.47.84-8.23-.27-2.59-2.14-4.8-2.37-7.39-.13-1.5.29-3,.19-4.52-.15-2-2.58-2.87-2.5-4.09.81,1.69.7,5,1.3,7.13A53.71,53.71,0,0,1,24.05,81.31Z"/><path class="cls-9" d="M58.91,44a21.12,21.12,0,0,1-.12,5.09c-.43,2.25-1.59,4.52-1,6.73a1.35,1.35,0,0,1,1.57,0,1.11,1.11,0,0,1,.22,1.5,1.35,1.35,0,0,0,1.26-.83,4,4,0,0,0,.29-1.57l.34-8.13a3.31,3.31,0,0,0-2.42,1.32,41.54,41.54,0,0,0-.25-10C58.22,39.75,58.81,42.25,58.91,44Z"/><path class="cls-9" d="M19,39c0,1.24.27,2.48.22,3.73-.1,2.3-1.34,4.38-2.53,6.36a5.94,5.94,0,0,0,1-4.39,37.87,37.87,0,0,1-.55-4.58A2.86,2.86,0,0,0,17,38.88a.81.81,0,0,0-1-.5c1.22-.59,2-2.3,3.46-2C19.36,37.18,19,38.1,19,39Z"/><path class="cls-9" d="M62.8,130.92a20.13,20.13,0,0,1-2,8.44c-1.39,2.55-4,4.64-6.86,4.75a8.48,8.48,0,0,0-2.62.19c-1.34.49-2,1.93-2.81,3.12-1.69,2.51-4.38,4.17-6.49,6.34s-3.72,5.43-2.48,8.2l-1.75-11.82a3.72,3.72,0,0,1,.09-2.12c.64-1.38,2.52-1.43,4-1.87,2.14-.65,3.72-2.44,5.18-4.14l5.49-6.44a20.75,20.75,0,0,1,5.49-5c1.15-.62,2.48-1.07,3.24-2.13a6.44,6.44,0,0,0,.82-2l2.14-7.74c-2.16,4.87-1,10.49-1.41,15.79-.13,1.65-.69,3.59-2.27,4.05"/><path class="cls-5" d="M43.34,17.72a1.82,1.82,0,0,0,.3,1.32.35.35,0,0,0-.3.18l1,.28a3.39,3.39,0,0,0-1.31.44l2.2.18a.35.35,0,0,0,.23,0c.13-.09.07-.29,0-.42a1.25,1.25,0,0,0-.81-.45.44.44,0,0,0,.28-.12,4.07,4.07,0,0,1-1.46-1"/><path class="cls-10" d="M45.77,16.1c.91.25,2.92-.06,3.14-.45s.74,1.6.66,3.22a16.47,16.47,0,0,1-2.68,6.48,32.06,32.06,0,0,1-4.75,3.14c-1.49.91-3.26.58-4.42.58s-2.56-2-4-3.55S30.91,22.88,32,22.63s-.12-1.78.46-3.26-1.63-4.88-1.21-4.79,5.36,1.54,8.1.53a15.34,15.34,0,0,1,2-.44,1.62,1.62,0,0,1,.87.14c.46.2,1.25.61,1.6.79A12.2,12.2,0,0,0,45.77,16.1Z"/><path class="cls-5" d="M2,165.46v-.11"/><path class="cls-11" d="M21.68,93.35A124.55,124.55,0,0,0,34.34,94c2.89,0,5.83-.28,8.65.36a44.29,44.29,0,0,0,4.61,1.14c2.8.31,6.17-.58,8.08,1.49-4.16-.11-8.22-1.23-12.32-2a126.49,126.49,0,0,0-17.3-1.38c-3.08-.1-6.25,0-9.31-.35C17.81,92.39,20.34,93.35,21.68,93.35Z"/><path class="cls-11" d="M39.61,15.29a7.07,7.07,0,0,1,1.87-.38,9,9,0,0,1,2.9,1A6.22,6.22,0,0,0,48,16.2a1.32,1.32,0,0,1,.65-.05c.46.12.62.67.67,1.13a9.19,9.19,0,0,1-1.1,5.51,21.77,21.77,0,0,0,1-5.69.78.78,0,0,0-.17-.6.85.85,0,0,0-.65-.14l-2,.13a5.43,5.43,0,0,1-1.56,0,9.39,9.39,0,0,1-1.59-.63,6.49,6.49,0,0,0-3.14-.45c-.8.09-1.57.32-2.35.45a7.7,7.7,0,0,1-3.51-.06,4.33,4.33,0,0,1,2.12-.07A11.07,11.07,0,0,0,39.61,15.29Z"/><path class="cls-11" d="M41.85,19.07c2-.2,4.1.85,6,.43C46.26,18.68,43.6,18.89,41.85,19.07Z"/><path class="cls-11" d="M41.5,22.37c-.14,0-.33-.08-.41.05s.19.26.18.11a19.1,19.1,0,0,1-7.65-2.3,2.17,2.17,0,0,0,1.58,1,2.18,2.18,0,0,1-1.19.3l3.18,2.12a2.28,2.28,0,0,0,.81.4c.89.17,1.74-.69,2.62-.51l-.49.25a2.79,2.79,0,0,1,1.16-.28.9.9,0,0,1,.87.68,1.67,1.67,0,0,0,1-.89c1.52.15,2.8-1.2,4.31-1.35a2.64,2.64,0,0,0-1,1.75c0,.22-.05.48-.25.59a.64.64,0,0,1-.34,0l-3-.24.72,1a8.4,8.4,0,0,0-3.77,1.88,5.48,5.48,0,0,0,4.65-1.38,1.2,1.2,0,0,1,.38-.29c1.07-.47.91,0,1.54-1.05.38-.64,1-1.08.22-1.73s-1.6,0-2.3.08A6.76,6.76,0,0,1,41.5,22.37Z"/><path class="cls-6" d="M41.08,22.28c.13.09-.08.26-.24.28a11.7,11.7,0,0,1-3-.28c-1.25-.22-2.86-.46-3.76-1.42.74-.35,2.37.54,3.2.76A24.36,24.36,0,0,0,41.08,22.28Z"/><path class="cls-6" d="M33.81,17.21A11.43,11.43,0,0,0,36.15,17a8,8,0,0,1,1.68-.2,1.85,1.85,0,0,1,1.47.69,19.72,19.72,0,0,0-3.17-.06l-3.34.11.5.59a1.51,1.51,0,0,1,.39.65.52.52,0,0,1-.32.62.59.59,0,0,0,.53.16l-.6,1.28-.15.31a3,3,0,0,1-.72,1.1c-.06,0-.13.1-.13.18a.28.28,0,0,0,.06.14l.35.48a.7.7,0,0,1-.39.15c.1,0,.16-.17.06-.21"/><path class="cls-6" d="M38.78,25.14c.4,0,.89.09,1,.47l-1.56.06.31.29a1.19,1.19,0,0,0-1.1.32.63.63,0,0,0,.23,1c-.36,0-.52-.42-.64-.76a2,2,0,0,0-.7-1,1,1,0,0,0-1.15,0,.7.7,0,0,0-.37-.74,7.67,7.67,0,0,0-.84-.32,1.76,1.76,0,0,1-1-1.23,9.3,9.3,0,0,1,2.45,1.2A8.91,8.91,0,0,0,38.78,25.14Z"/><path class="cls-6" d="M46.67,19.06a14,14,0,0,1-4.44.45c-1.48,0-3.49.11-4.84-.55,1-.63,2.66-.05,3.79.05A32.46,32.46,0,0,0,46.67,19.06Z"/><path class="cls-6" d="M47.91,17.76A9.47,9.47,0,0,1,44,17.44a1.53,1.53,0,0,1,.92-.17c1.07.08,2.14.74,3.15.4a.21.21,0,0,1-.18.25"/><path class="cls-6" d="M32,15.44a1.88,1.88,0,0,0,1.16.17A3.9,3.9,0,0,1,35,16a.18.18,0,0,1,0,.25,4.32,4.32,0,0,0-1.39.11l.22.33a2,2,0,0,1-.9.15.93.93,0,0,0-1.08-1.14"/><path class="cls-11" d="M34.57,24.11a2.46,2.46,0,0,0,1.2.75l2.46,1a3,3,0,0,1-1.39.18,1,1,0,0,1-.87-.95.46.46,0,0,0,0-.31.37.37,0,0,0-.22-.12L33.59,24"/><path class="cls-5" d="M6.87,97.8a6.59,6.59,0,0,1,.36,1.64,11.22,11.22,0,0,1,1.61-.33.41.41,0,0,0-.33.38c1.43-.1,2.87-.13,4.31-.09a7.71,7.71,0,0,1-3.31.72l1.9.16a5,5,0,0,0-2.89,1.07,1.3,1.3,0,0,0,.85.06A18.8,18.8,0,0,0,9,106.54l-.53,0"/><path class="cls-5" d="M17.77,111.17a6.77,6.77,0,0,0-3-3.33,1.4,1.4,0,0,0-.55,1.28,4.24,4.24,0,0,0,.42,1.38,4.43,4.43,0,0,0,1.12,1.74,1.36,1.36,0,0,1,.43.43c.12.27,0,.6.06.89.19.73,1.33.63,1.81,1.2a3,3,0,0,1,.39.92c.12.3.39.62.71.58l.35-.62a3.93,3.93,0,0,1-1.35-3.51,5.68,5.68,0,0,0,0-1.54,1.2,1.2,0,0,0-1-1"/><path class="cls-9" d="M17.84,106.4c-.1,1.64,1,3.1,1.21,4.73a7,7,0,0,0,.13,1,11.13,11.13,0,0,0,.48,1.06,4.68,4.68,0,0,1,.21,2.2,15.14,15.14,0,0,1-.57,3,2.46,2.46,0,0,0-.39-1.8l-1.24-2.43A7.64,7.64,0,0,0,17,113c-.43-.56-1-1-1.49-1.52a10.93,10.93,0,0,1-1.29-1.92c-.26-.45-.51-1-.2-1.46a.77.77,0,0,1,1,.21,3.77,3.77,0,0,1,.47,1,2.47,2.47,0,0,0,2.92,1.59c-.39-.66,1.17-1.34.72-2"/><path class="cls-9" d="M51.51,119.52c1-1,1.33-2.61,2.56-3.25a2.6,2.6,0,0,1-.38,2.35,14.43,14.43,0,0,0-1.3,2.11A11.56,11.56,0,0,1,52,121.9a6.33,6.33,0,0,1-1.4,1.53,2.15,2.15,0,0,0-.79,1.84,1.3,1.3,0,0,0,.94,1,4,4,0,0,1,.62.13c.2.09.37.31.29.51a3.3,3.3,0,0,1-2-.13,3.36,3.36,0,0,1-1.34-1.85l-.71-1.73C46.31,120,50.11,120.81,51.51,119.52Z"/><path class="cls-9" d="M18.71,119.11c.24.46-.34.91-.83,1.07-1,.32-2.09.53-2.65,1.39a3.62,3.62,0,0,0-.33.72l-.67,1.84a1.4,1.4,0,0,1-.36.6.46.46,0,0,1-.64,0,.67.67,0,0,1-.07-.37,35.2,35.2,0,0,0-.65-6.22c.46.61,1,.39,1.48,1a1.58,1.58,0,0,0,.7.61c.34.12.73,0,1.07.1s.5.32.78.41S18.48,119.38,18.71,119.11Z"/><path class="cls-5" d="M53.25,96A1.49,1.49,0,0,1,55,98.13a2,2,0,0,1-.12-.83,1.36,1.36,0,0,1-1.62-.71,1.58,1.58,0,0,1,1.29-.69l-.64-.41"/><path class="cls-5" d="M34.58,161.93l-.22-.22"/><path class="cls-4" d="M47.74,198.33a2.75,2.75,0,0,0-1.33,1,10.67,10.67,0,0,0,2.9.53c-.17.8.5,1.51,1,2.13s1,1.6.42,2.2c-.81.11-1.44-.63-2-1.19-2.43-2.34-6.15-2.53-9.52-2.57.08-.76-.72-1.33-.84-2.08s.35-1.38.18-2.06-1-1.07-1.79-1.19a4,4,0,0,1-2-.69C37.93,192.68,45.09,196.63,47.74,198.33Z"/><path class="cls-4" d="M50.15,183.73a3.28,3.28,0,0,0-.88-1,4.93,4.93,0,0,0-2.85-1,7.86,7.86,0,0,0-3.86.88C43.75,185.29,49.47,182.51,50.15,183.73Z"/><path class="cls-5" d="M7.59,206.31a1.19,1.19,0,0,0-.38.63.78.78,0,0,0,.11.52,1.94,1.94,0,0,0,2.2.61,10.48,10.48,0,0,1,2.36-.65c.8,0,1.57.34,2.37.34,1.13,0,2.1-.76,3.15-1.16,1.3-.5,2.73-.47,4.07-.85a7.05,7.05,0,0,0,4.5-4c-1.63-1.12-3.8-.81-5.75-.46C15.9,202.06,10.79,203,7.59,206.31Z"/><path class="cls-5" d="M28,219.4a1,1,0,0,1,.48-.86"/><path class="cls-12" d="M7.41,211.38l4.26.78c2.45.44,5.12.85,7.3-.35,1.76-.95,2.84-2.77,3.84-4.5a1.43,1.43,0,0,0-1.41.65c-.33.43-.53,1-.9,1.38a3.52,3.52,0,0,1-1.42.9,14.14,14.14,0,0,1-5.8.49,19.59,19.59,0,0,1-8.51-2.33C4.55,210.12,5.86,211.1,7.41,211.38Z"/><path class="cls-12" d="M24.79,208.34c1.7.38,3,.14,5.17-1.05.36-.2,1.57-1.17,2-1.15s.63,1.15.32,1.43c-1.68.34-3.37.93-5,1.26a2.37,2.37,0,0,1-2.72-1.12"/><path class="cls-12" d="M46.36,217a4.56,4.56,0,0,0,1.63-.69c.14-.21,0-1.1-.2-1a2.29,2.29,0,0,1-.45,2.45,3.64,3.64,0,0,1-2,.73c-1.43.16-15.09-.69-11.53-3.07,1.65-1.1,2.52.82,4,1.21C39.79,217.18,44.33,217.09,46.36,217Z"/><path class="cls-11" d="M57.79,102.43c-.65,0-1.74,3-1.33,4.21s-3.63,3.06-4.62,6.36a32.16,32.16,0,0,1-3,7c-.25.17,1.5,1.35,3.41-1.51s.84-.51,1.6-1.9c1-1.81.14,2.15-.44,2.48s-2.07,4.79-2.89,5-.58,2.14-.25,2,3,2.39,4.71.66,5.36-6.69,5.53-7.76,1.32-11.48,2-10.9,1.41-2.81,1.24-3.14A9.62,9.62,0,0,0,57.79,102.43Z"/><path class="cls-9" d="M63.73,104.36a8.75,8.75,0,0,0-.87-.27,7,7,0,0,1-1.41-.93,2,2,0,0,0-1.57-.44l-.24-1a.37.37,0,0,0-.12-.23.27.27,0,0,0-.35.15c-.06.12-.07.27-.12.4a.6.6,0,1,1-.74-.84,2,2,0,0,1,.69-.1l1,0a.87.87,0,0,1,.42.07c.47.25.1,1,.39,1.49a1.62,1.62,0,0,1,1.47.08,2.69,2.69,0,0,0,.82.47c.71.12.91-.11,1.51.4.29.26.93.63,1,1C65.94,105.78,64.05,104.5,63.73,104.36Z"/><path class="cls-6" d="M57.76,106.3a7.59,7.59,0,0,1,1.06.19c.17.05.39.19.31.35a1.37,1.37,0,0,1,.75.25,1.53,1.53,0,0,0,.18.18.81.81,0,0,0,.31.1l.65.12a3.07,3.07,0,0,1,.93.3A9.52,9.52,0,0,0,57.76,106.3Z"/><path class="cls-6" d="M57.67,103.53c-.1.69-.24,1.36-.4,2a.29.29,0,0,0,.37-.13.8.8,0,0,0,.09-.43l0-.81c0-.12,0-.27.12-.34a.29.29,0,0,1,.31,0,.8.8,0,0,1,.25.76,1.66,1.66,0,0,0,0,.83,3.05,3.05,0,0,0,.33-1.42,1.68,1.68,0,0,0,1.22.15.42.42,0,0,1,.22,0c.18,0,.18.31.14.5a4.64,4.64,0,0,0,0,1.62.79.79,0,0,0,.35-.66c0-.26,0-.52,0-.78a.38.38,0,0,1,.07-.21c.15-.16.41,0,.56.17l.33.36c.1.11.22.22.36.2s.2-.14.31-.13.25.23.4.22.25-.17.34-.09a.16.16,0,0,1,.05.1,2.67,2.67,0,0,1-.05,1.16.48.48,0,0,0,.43-.35,1.47,1.47,0,0,0,0-.59c0-.18-.07-.39-.23-.47a1.2,1.2,0,0,0-.27-.08c-.26-.1-.39-.46-.67-.47a2,2,0,0,1-.24,0,.55.55,0,0,1-.32-.14,3.94,3.94,0,0,0-1.62-.61,2.77,2.77,0,0,1-.5-.1,1.87,1.87,0,0,1-.39-.22l-.82-.57-.22.24a.37.37,0,0,0-.53.07,1.08,1.08,0,0,0-.16.57l-1.17-.29"/><path class="cls-11" d="M7.23,97.53c-.77.44.22,3.63.55,3.8s2.42,10.84,2.69,11.78,2.48,5.94,3.25,5.94,3,1.82,3.08,1.27,2-.22,1.93-1,.94-2.37.39-3-6.55-8.43-5.18-8.32,1.21-.38,2.2,1.38,2,2.26,2.21,1.65,0-3-.34-3.19-.16-1.16-.77-1.65-1.48-3.86-3.08-5.12,1.16-3.47-.16-4A6.78,6.78,0,0,0,7.23,97.53Z"/><path class="cls-6" d="M10.25,100.08a6.88,6.88,0,0,0-1.42.29,1.8,1.8,0,0,0-.86.46c.32.13.64-.31,1-.25l.16,0a.31.31,0,0,0,.16-.06,1.12,1.12,0,0,1,1.15.18.84.84,0,0,1,.67-.39c.27,0,.55,0,.82,0a2.33,2.33,0,0,1,1.2,0C12.54,99.81,11,100,10.25,100.08Z"/><path class="cls-6" d="M8.25,98.54a4.27,4.27,0,0,0,.19,1.28A.87.87,0,0,0,8.61,99a1.19,1.19,0,0,1-.11-.42c0-.28.35-.41.63-.49l1.08-.28a6.45,6.45,0,0,0,.08,1.7l.32-.32-.26-.58a1,1,0,0,1-.1-.4.59.59,0,0,1,.5-.46,1.69,1.69,0,0,1,.7.09l1.22.33c-.33.3-.7.7-.56,1.12a3,3,0,0,0,.72-.9l-.2-.09c.13,0,.22-.11.33-.17a1.18,1.18,0,0,1,.42,0c.14,0,.3-.14.23-.26a2.14,2.14,0,0,0-.56-.64,1.75,1.75,0,0,1-.46.44l-.15-.33a.44.44,0,0,1-.55.15,4.07,4.07,0,0,0-.58-.22c-.25,0-.52.09-.77,0s-.23-.12-.36-.16a.3.3,0,0,0-.35.08.51.51,0,0,0-.05.22c-.23,1.16-1.87,0-2.4.48s.33,1.82.58,2.21a.41.41,0,0,0,.18-.19C7.61,99.25,7.72,99.12,8.25,98.54Z"/><path class="cls-5" d="M4.69,104s0,0,0,0"/><path class="cls-13" d="M41,3.14a9,9,0,0,0-4.76.43l.64.19c-.3.25-.73.23-1.09.36s-.64.65-.33.88a15.71,15.71,0,0,0-2,3l1.08-.32a7.53,7.53,0,0,0-1.87,1.69c1.31-.13,1.92-1.66,2.91-2.53C37.08,5.53,39.26,5.8,41,5c-.24-.88-1.3-1.23-2.17-1.28A3.75,3.75,0,0,1,41,3.14Z"/><path class="cls-13" d="M31,23.18a34.56,34.56,0,0,0-1.59,3.64l.45-.14-.21,1.75c.91-.41.61-1.84,1.22-2.63a2.51,2.51,0,0,0,.27-.37,1.39,1.39,0,0,0,0-.76,6.82,6.82,0,0,1,.21-2.77"/><path class="cls-13" d="M44.18,4.9a.89.89,0,0,0,0-1.07,2.59,2.59,0,0,0-.89-.71,5.15,5.15,0,0,0-2.38-.9h.79A2.81,2.81,0,0,1,41.06.9l1.85.43c.09.08-.1.22-.17.12s0-.24.14-.26a.54.54,0,0,1,.34.08l1.07.54.07.92L45,2c.15.29.46.48.6.78s-.06.77-.37.68A1.82,1.82,0,0,1,45,4.93a1.08,1.08,0,0,1-1.31.4"/><path class="cls-13" d="M49.28,7.06a.9.9,0,0,0-.66.42.87.87,0,0,0,.47.25l-.33.53c.47.06.67.63.68,1.1a2,2,0,0,0,.3,1.34A2.8,2.8,0,0,0,49,7"/><path class="cls-14" d="M31.61,7.53l-1,.55a.67.67,0,0,0,.64.09L30,11.52a3.1,3.1,0,0,1,.21.45,4.83,4.83,0,0,1,2.16-1.47.54.54,0,0,1-.66-.35,1.43,1.43,0,0,1,0-.82,14.71,14.71,0,0,1,.95-2.95,5.29,5.29,0,0,1-2.26,1.38"/><path class="cls-14" d="M41,4.23l-1,0a.7.7,0,0,1-.55.61,7.92,7.92,0,0,0,2,.3l0-.59,1-.11A4,4,0,0,0,39.6,3.28l.43.18a.59.59,0,0,0,.58.88,1.22,1.22,0,0,1-.74-.61"/><path class="cls-14" d="M32.28,27.53A2.9,2.9,0,0,0,30.43,29l.64.07a1,1,0,0,1-.15,1.31l.44.3a1.87,1.87,0,0,0,0,1c.46-.15.6-.72.67-1.2a40,40,0,0,0,.35-4.76"/><path class="cls-3" d="M14.65,78.51c-.92,3.57,1.47,7.53,0,10.91A3.92,3.92,0,0,0,14,91.69a2.24,2.24,0,0,1,.14.71,2.12,2.12,0,0,1-.36.72,1.41,1.41,0,0,0,.86,1.94,2,2,0,0,0,.85-2c-.08-.78-.4-1.51-.53-2.28-.25-1.46.22-3-.07-4.44a9.64,9.64,0,0,1-.37-1.74,1.33,1.33,0,0,1,.88-1.38"/><path class="cls-5" d="M31.17,58a2.46,2.46,0,0,1,1.75.82,4.75,4.75,0,0,1,.39,1.7C33.76,62.42,36.1,63,38,63.21a81.94,81.94,0,0,1-10.51.16,13.41,13.41,0,0,0-4.69.17,3.85,3.85,0,0,0-2.94,3.3c0,1.34.93,2.63.6,3.93a3.37,3.37,0,0,1-2.21,2.09,13.88,13.88,0,0,1,.05-9.49c.68-1.82,2.29-6.15,4.14-6.75S29.08,57.69,31.17,58Z"/><path class="cls-5" d="M48.59,154.69c-1.07.88-2.64,1.67-2.53,3.05A13.43,13.43,0,0,0,54.87,156,5.52,5.52,0,0,1,56,157.56a4.25,4.25,0,0,0,1.68-1.15,8.33,8.33,0,0,0,.92-1.36l1.28-2.19c1.5-2.56,3.7-6.36,2.06-9.38-1-1.93-2.92-2.14-4.82-1.28-2.19,1-3,2.78-3.68,4.89A18.3,18.3,0,0,1,48.59,154.69Z"/><path class="cls-5" d="M79.94,147.62v-.22"/><path class="cls-10" d="M49.38,158.61a30.47,30.47,0,0,0-4.84,1.92,15.29,15.29,0,0,0,8.5-1.05,7,7,0,0,1,3.14-.91,4.48,4.48,0,0,0,1.15.05,1.71,1.71,0,0,0,1.2-1.32,7.69,7.69,0,0,0,.09-1.86c0-3.05,2.57-5.74,2.41-8.44-2.25.53-3.76,3.33-5.52,4.74-1.34,1.07-3.2,1.27-4.47,2.37C50.43,154.63,49.25,158.65,49.38,158.61Z"/><path class="cls-10" d="M62.54,54.57a38.93,38.93,0,0,1,1,14.93,8.92,8.92,0,0,1-1,3.38C61.23,75,58.52,76,57,78c-1.7,2.35-1.36,5.56-.95,8.43L57,92.91c.23,1.6.6,3.42,2,4.24a2,2,0,0,0-2,1.95A12.14,12.14,0,0,1,64.37,99l0-13.12c0-1.82.06-3.8,1.24-5.18.42-.49.95-.87,1.34-1.38,1.69-2.23-.11-5.29-.74-8-.68-2.93.1-6,.55-9s.46-6.31-1.43-8.65c-1.11-1.37-2.12-2.23-2.27-4.06C61.47,50.71,62.13,53,62.54,54.57Z"/><path class="cls-10" d="M18.36,53.61a9,9,0,0,0-5.77.11.88.88,0,0,0-.61.46c-.13.4.31.76.71.87s.88.13,1.16.45a43.54,43.54,0,0,0-4.1,2.92,2.45,2.45,0,0,1,2.4.81,7.41,7.41,0,0,1,1.28,2.32,1.6,1.6,0,0,0-.71.65c1.22.73,2,2.13,3.33,2.59a2.8,2.8,0,0,0,3.51-2.32.88.88,0,0,1,1.08-.23,1.94,1.94,0,0,0-.59,1.28l4.63.23a4.19,4.19,0,0,0-.6-2.36,9.89,9.89,0,0,1,9.51-4.49l.4-1.56a1,1,0,0,0,0-.63c-.13-.34-.55-.45-.91-.51a54.67,54.67,0,0,0-14.17-.38,3.6,3.6,0,0,0,1.13-1.93A.71.71,0,0,0,20,51.3a.55.55,0,0,0-.51-.14c-.7.08-1.17.72-1.72,1.17-2.16,1.75-5.89.65-7.69,2.76"/><path class="cls-10" d="M32.13,40l-6.3,7.72L33.28,46a.78.78,0,0,0-.18.91,1.14,1.14,0,0,0,1.54-.87,28.24,28.24,0,0,1,3.92,9.27,20.5,20.5,0,0,0,4.36-7.48l.75,1.75a2.77,2.77,0,0,1,1.25-.12,4.54,4.54,0,0,1-.13,1.68l1.91-.38a2.85,2.85,0,0,0,.49,2.84c1.41-2.1,2.89-4.59,2.13-7a25.93,25.93,0,0,0-1.23-2.55,2.88,2.88,0,0,1,0-2.72,3.67,3.67,0,0,1,1.27-1l3.69-2.08-1.29.7C51,37.53,49,37.31,47.39,37.72S44.33,39,42.7,39.12c.08.64,1.28.81,1.15,1.45-.07.4-.6.48-1,.48L38.28,41a3.23,3.23,0,0,1-1.72-.35,1.09,1.09,0,0,1-.39-1.53,21.86,21.86,0,0,0-8.8,2.7"/><path class="cls-10" d="M24,117.09c-1.55.46-1.76,2.53-1.8,4.15-.18,6.44-2.56,12.59-4.9,18.6l9.78-7.42a3.28,3.28,0,0,0,3.86.73c1.42-2.06,1.3-4.82.78-7.27s-1.39-4.87-1.28-7.37c.08-1.7.6-3.38.34-5.05-.3-2-1.61-3.46-2.63-5.09s-1.28-3.49-2-5.25c-1.63.8-1.9,5.21-2.36,6.93C23.68,110.51,22.51,117.53,24,117.09Z"/><path class="cls-10" d="M38.39,117.81c1.38,5.38.86,11.05.34,16.59a18.41,18.41,0,0,1,6.2-4l1.7,3a5.79,5.79,0,0,0,.62-3.54c-.3-4.2-2.15-8-3.59-11.91-1.54-4.17-1.54-8.17-2.39-12.4C38.05,107.27,37.63,114.87,38.39,117.81Z"/><path class="cls-10" d="M8.63,71c.63-.11,1,.74.84,1.35a10.52,10.52,0,0,1-1,1.63,4.82,4.82,0,0,0-.39,2,37.71,37.71,0,0,0,.18,5.62c.12,1.14.39,2.44,1.39,3a1.38,1.38,0,0,1,.59.4c.23.35,0,.79-.17,1.17a7.31,7.31,0,0,0-.2,4.1,2,2,0,0,1-2.27.8,4.41,4.41,0,0,1-2.08-1.47A23.89,23.89,0,0,1,2,83.48c-.23-.51-.43-1.19,0-1.56s.79-.2,1.21-.23a3,3,0,0,0,2.44-2.57,13.34,13.34,0,0,0-.11-3.78c-.21-2.43,1.58-5.73,3.19-7.43a2.83,2.83,0,0,1,1.35,1.32C9.85,69.59,9.08,70.88,8.63,71Z"/><path class="cls-5" d="M14.64,114.45a1.79,1.79,0,0,0-.68-1.72c-2.67-2.54-.46-4.35-.51-7.41-1.33.54-2.36,2.64-2.45,4.09S13.83,116.89,14.64,114.45Z"/><path class="cls-10" d="M46.22,60.81a31.89,31.89,0,0,1-3,7.91A3.35,3.35,0,0,0,45,70.6L40.54,81a12.9,12.9,0,0,0,5.1-7.39,4.54,4.54,0,0,1,.62,2l1.47-.59A10.4,10.4,0,0,1,49,79.51a15.22,15.22,0,0,0,2.18-5.22c.21-1.4,0-2.91.74-4.14-.88.07-1.47-.85-1.84-1.65a63.68,63.68,0,0,1-3.83-10.64,6.09,6.09,0,0,1-.9,3.42,3.25,3.25,0,0,0-.51.72c-.39.92.52,1.85.63,2.83"/><path class="cls-9" d="M26.25,91.37A1.22,1.22,0,0,0,28,91.13a3.69,3.69,0,0,0,.57-1.93c.24-2.41.69-4.77,1.1-7.14A28.47,28.47,0,0,0,26.25,91.37Z"/><path class="cls-9" d="M22.88,46.1a9.64,9.64,0,0,0-1.14,3.09,3.84,3.84,0,0,1-1.87,2.61,2.9,2.9,0,0,1-.23,2.27,11.83,11.83,0,0,0,3.69-3.56A2.88,2.88,0,0,0,23.91,49a4.78,4.78,0,0,0-.17-1.06,7.71,7.71,0,0,1,.89-4.17,39.45,39.45,0,0,0-2.53,4.71"/><path class="cls-9" d="M38.43,54.84c.4.38,1.12.72,1.39.24a1,1,0,0,0,.07-.45c0-1.66-.65-4.55,1.35-5.27-.9-2.06-3.82-2-5.32-.71C39.53,49.16,36.62,53.12,38.43,54.84Z"/><path class="cls-9" d="M68.47,94.41c.23.18.56.22.77.42a1.33,1.33,0,0,1,.26,1v4.13c0-1.51,1.63-3.23,1.57-5.1,0-.91-.59-4.65-1.36-5.16-1.48-1-1.35.35-1.53,1.07C68.11,91,68.2,94.2,68.47,94.41Z"/><path class="cls-9" d="M12.27,75.92a39.91,39.91,0,0,1-7.88,3A11.75,11.75,0,0,0,8,79.59c1.3,0,2.89-.39,3.67.65,1-.55,1.12-1.94,1.09-3.09a2,2,0,0,0-.18-1,.73.73,0,0,0-.87-.37l1-3,.55-.07"/><path class="cls-9" d="M50.9,126.67,53.47,128a4.32,4.32,0,0,0-.6,2.35,14.4,14.4,0,0,1,5.66,2.48A23.38,23.38,0,0,0,63.63,119c.07-2.27-.48-4.52-.5-6.79a14.46,14.46,0,0,1,1.58-6.67.93.93,0,0,0-1.28.18c-1.42,3.93-1.48,8.23-2.62,12.26s-3.84,8.12-8,8.84"/></g></g></svg>