<svg id="Layer_1" data-name="Layer 1" xmlns="http://www.w3.org/2000/svg" xmlns:xlink="http://www.w3.org/1999/xlink" viewBox="0 0 352.32 253.01"><defs><linearGradient id="linear-gradient" x1="269.64" y1="72.06" x2="187.17" y2="117.73" gradientUnits="userSpaceOnUse"><stop offset="0.01" stop-color="#fff"/><stop offset="0.13" stop-color="#fff" stop-opacity="0.69"/><stop offset="1" stop-color="#fff" stop-opacity="0"/></linearGradient><linearGradient id="linear-gradient-2" x1="162.43" y1="108.08" x2="229.25" y2="108.08" gradientUnits="userSpaceOnUse"><stop offset="0.01"/><stop offset="0.13" stop-opacity="0.69"/><stop offset="1" stop-opacity="0"/></linearGradient><linearGradient id="linear-gradient-3" x1="182.13" y1="118.58" x2="188.16" y2="136.97" xlink:href="#linear-gradient"/><linearGradient id="linear-gradient-4" x1="198.4" y1="113.67" x2="219.65" y2="134.93" xlink:href="#linear-gradient-2"/></defs><title>3</title><path d="M402.7,218.6c-.78,23.6-11.68,47.78-31.87,60-23.56,14.3-53.31,9.93-80.86,8.72-27.31-1.21-54.67,1.16-82,3.27-10.56.82-21.14,1.6-31.7,2.11-12.82.63-25.62.87-38.44.32q-5.91-.26-11.81-.74c-14.94-1.25-30-3.82-43.45-10.49S57.47,263.87,53,249.57c-2.66-8.4-2.74-17.39-2.39-26.2.63-17.07,3.06-34.93,13.07-48.76,11.22-15.48,30.37-23.7,41.68-39.11,11.16-15.24,13.39-35.76,25.13-50.56,6.31-8,14.95-13.7,23.77-18.72A206,206,0,0,1,176.28,55.3a189.44,189.44,0,0,1,34.9-11,183.72,183.72,0,0,1,68.51-1.41,202.1,202.1,0,0,1,29.78,7.34c6.61,2.16,13.21,4.71,18.75,8.9,9.95,7.49,15.47,19.28,21.3,30.28,11.05,20.86,24.46,40.43,35.18,61.47S403.48,195,402.7,218.6Z" transform="translate(-50.43 -40.34)" fill="#2cd8c6" opacity="0.18" style="isolation:isolate"/><path d="M402.7,218.6c-.78,23.6-11.68,47.78-31.87,60-23.56,14.3-53.31,9.93-80.86,8.72-14-.62-28-.3-42.05.45-13.65.72-27.32,1.85-41,2.9-10.23.79-20.46,1.53-30.68,2V55.3a189.44,189.44,0,0,1,34.9-11,183.72,183.72,0,0,1,68.51-1.41,202.1,202.1,0,0,1,29.78,7.34c6.61,2.16,13.21,4.71,18.75,8.9,9.95,7.49,15.47,19.28,21.3,30.28,11.05,20.86,24.46,40.43,35.18,61.47S403.48,195,402.7,218.6Z" transform="translate(-50.43 -40.34)" fill="#2cd8c6" opacity="0.36" style="isolation:isolate"/><path d="M305,225.05c-3.72,3.31-8.47,5.17-13,7.18a152.24,152.24,0,0,0-28.29,16.35c-2.84,2.07-5.67,4.31-7.46,7.33a28.27,28.27,0,0,0-2.76,8c-1.4,5.85-1.73,17.94-5.53,23.87-13.65.72-27.32,1.85-41,2.9,3.75-22.93,8.81-46.9,25.12-63.21,8.31-8.3,19.12-14.12,25.91-23.68,7.6-10.72,9-24.48,10.22-37.57,2-22,3.88-44.17,1.68-66.16-.78-7.65-2-15.58.4-22.88s10-13.6,17.42-11.55q-1.77,54.21-1.66,108.46c0,4.71.06,9.58,1.95,13.9.94,2.12,2.29,4.08,2.74,6.35,1.36,6.72-5.13,15.1,0,19.69l19.11-2.3C311.21,216.53,308.7,221.73,305,225.05Z" transform="translate(-50.43 -40.34)" fill="#2cd8c6" opacity="0.36" style="isolation:isolate"/><path d="M176.16,111.89h21.38a0,0,0,0,1,0,0v4.17a5.14,5.14,0,0,1-5.14,5.14h-11.1a5.14,5.14,0,0,1-5.14-5.14v-4.17A0,0,0,0,1,176.16,111.89Z" fill="#2cd8c6"/><path d="M279.69,42.89v100H211.18V44.3A183.72,183.72,0,0,1,279.69,42.89Z" transform="translate(-50.43 -40.34)" fill="#2cd8c6"/><path d="M242.89,42.89v100H218.62V44.3C226.55,39.56,234.69,39.05,242.89,42.89Z" transform="translate(-50.43 -40.34)" fill="url(#linear-gradient)"/><rect x="162.43" y="102.57" width="66.82" height="11.01" fill="#2cd8c6"/><rect x="162.43" y="102.57" width="66.82" height="11.01" fill="url(#linear-gradient-2)"/><path d="M278.6,179.46c.28-5.64.44-11.75-2.77-16.41a3.14,3.14,0,0,0-1.85-1.48c-1.85-.35-2.86,2.09-3,4-.68,8.15.9,16.78-2.44,24.24a64.68,64.68,0,0,0-.14-13.84c-.42-3.5-.55-9.35-3.43-11.81a3.24,3.24,0,0,0-3.1-.74c-1.58.57-2.11,2.5-2.41,4.16l-3.88,21.2.62-14.08c.13-3,.06-6.39-2.25-8.24a3.32,3.32,0,0,0-2.51-.79c-1.68.26-2.62,2.05-3.11,3.68-1.25,4.23-1.16,8.76-2.2,13.05A16.09,16.09,0,0,1,243,188.9a9,9,0,0,1-2,2c-1.54,1-1.48-.35-.89-1.53,2.09-4.13,4.22-8.55,3.81-13.16a2.9,2.9,0,0,0-.85-2.08,2.42,2.42,0,0,0-2.39-.13,7.88,7.88,0,0,0-3.17,3c-2.95,4.29-4.89,9.24-8.13,13.3-3.75,4.69-9.18,7.15-13.24,11.39-3.72,3.89-7,8.67-7.48,14.18a2.56,2.56,0,0,0,.41,1.93,2.7,2.7,0,0,0,1.47.67c7.08,1.55,14.41,1.42,21.66,1.42,8.09,0,16.28.17,24.12-1.79,7-1.73,16.35-6.08,19.14-13.29C278.4,197.29,278.21,187.43,278.6,179.46Z" transform="translate(-50.43 -40.34)" fill="#e26f54"/><rect x="182.95" y="121.2" width="3.9" height="11.63" fill="#2cd8c6"/><rect x="182.95" y="121.2" width="3.9" height="11.63" fill="url(#linear-gradient-3)"/><path d="M307.31,196.71A72.07,72.07,0,0,1,274,223.27c-11.91,4.63-25.52,6.34-35,14.9a53.81,53.81,0,0,0-8.72,10.91,232.86,232.86,0,0,0-19.39,36.6,14.07,14.07,0,0,1-2.84,4.85.34.34,0,0,1-.09.08c-10.56.82-21.14,1.6-31.7,2.11-12.82.63-25.62.87-38.44.32.58-.53,1.15-1.08,1.69-1.66,4.2-4.48,8.94-8.29,13.47-12.49a227.87,227.87,0,0,0,23.7-25.8c7-8.78,13.22-18,19.77-27.1,4.23-5.82,8.71-12.4,14.93-16.27,18.88-11.75,44-2.56,65.38-8.75a17.52,17.52,0,0,0,5.8-2.62c1.95-1.46,3.37-3.52,5.2-5.12,4.4-3.79,10.59-4.45,16.38-4.94a5.82,5.82,0,0,1,3.53.44C310.24,190.28,309,194.23,307.31,196.71Z" transform="translate(-50.43 -40.34)" fill="#f38a6b"/><rect x="197.54" y="112.81" width="20.02" height="20.02" fill="#2cd8c6"/><rect x="197.54" y="112.81" width="20.02" height="20.02" fill="url(#linear-gradient-4)"/><path d="M229.87,185.45c-1.11,1-2.44,1.79-3,3.15-.8,1.92.25,4.15-.19,6.18s-2.13,3.35-3.48,4.86-2.42,3.76-1.36,5.48c.86,1.4,2.79,1.76,4.4,1.44s3.08-1.14,4.66-1.6c2.34-.68,4.84-.52,7.27-.66s5-.64,6.77-2.35a1.78,1.78,0,0,0,.65-1.17,1.63,1.63,0,0,0-.37-1c-1.41-2-4.21-2.26-6.65-2.35,1-1,.38-2.81-.73-3.68A17.2,17.2,0,0,0,234,192c-1.29-.57-2.56-1.67-2.53-3.08,0-1.7,1.8-2.72,3.11-3.8s5.34-7.1,1.75-7.42C233.48,177.48,231.7,183.86,229.87,185.45Z" transform="translate(-50.43 -40.34)" fill="#fff"/><path d="M234.13,175.27a3,3,0,0,0,2,1.08,1.18,1.18,0,0,0,1.09-.39,1.29,1.29,0,0,0,.16-.64,3.39,3.39,0,0,0-.33-2,.31.31,0,0,0-.07-.09.29.29,0,0,0-.16,0h-1.65c-.35,0-1.17-.16-1.47,0C232.91,173.71,234.13,174.75,234.13,175.27Z" transform="translate(-50.43 -40.34)" fill="#fff"/></svg>