<svg id="Layer_1" data-name="Layer 1" xmlns="http://www.w3.org/2000/svg" xmlns:xlink="http://www.w3.org/1999/xlink" viewBox="0 0 386.8 298.58"><defs><linearGradient id="linear-gradient" x1="135.36" y1="182.58" x2="152.52" y2="182.58" gradientUnits="userSpaceOnUse"><stop offset="0.01" stop-color="#fff"/><stop offset="0.13" stop-color="#fff" stop-opacity="0.69"/><stop offset="1" stop-color="#fff" stop-opacity="0"/></linearGradient><linearGradient id="linear-gradient-2" x1="354.69" y1="137.69" x2="321.71" y2="187.17" xlink:href="#linear-gradient"/><linearGradient id="linear-gradient-3" x1="107.9" y1="150.21" x2="110.99" y2="150.21" xlink:href="#linear-gradient"/><linearGradient id="linear-gradient-4" x1="93.52" y1="170.32" x2="96.62" y2="170.32" xlink:href="#linear-gradient"/><linearGradient id="linear-gradient-5" x1="109.25" y1="153.3" x2="112.34" y2="153.3" xlink:href="#linear-gradient"/><linearGradient id="linear-gradient-6" x1="105.8" y1="155.89" x2="108.89" y2="155.89" xlink:href="#linear-gradient"/><linearGradient id="linear-gradient-7" x1="101.27" y1="173.42" x2="104.36" y2="173.42" xlink:href="#linear-gradient"/><linearGradient id="linear-gradient-8" x1="112.34" y1="147.63" x2="114.4" y2="147.63" xlink:href="#linear-gradient"/><linearGradient id="linear-gradient-9" x1="305.6" y1="133.86" x2="308.54" y2="133.86" xlink:href="#linear-gradient"/><linearGradient id="linear-gradient-10" x1="298.41" y1="132.38" x2="301.35" y2="132.38" xlink:href="#linear-gradient"/><linearGradient id="linear-gradient-11" x1="301.8" y1="131.59" x2="304" y2="131.59" xlink:href="#linear-gradient"/><linearGradient id="linear-gradient-12" x1="300.7" y1="135.84" x2="302.9" y2="135.84" xlink:href="#linear-gradient"/><linearGradient id="linear-gradient-13" x1="293.09" y1="132.38" x2="295.29" y2="132.38" xlink:href="#linear-gradient"/><linearGradient id="linear-gradient-14" x1="291.62" y1="134.23" x2="293.82" y2="134.23" xlink:href="#linear-gradient"/><linearGradient id="linear-gradient-15" x1="284.25" y1="140.57" x2="286.44" y2="140.57" xlink:href="#linear-gradient"/><linearGradient id="linear-gradient-16" x1="283.15" y1="152.94" x2="285.35" y2="152.94" xlink:href="#linear-gradient"/></defs><title>6</title><path d="M418.14,237c.89,6.71,3,13.23,3.72,20,2.24,20.79-9.56,41.67-27,53.15s-39.7,14.3-60.3,10.78c-16-2.74-31.17-9-46.89-13.09A174.78,174.78,0,0,0,208.26,306c-18.69,3.93-37.24,11.06-56.51,11.4-15.65.29-24.68-6.54-38.47-11.95-31-12.15-58.41-24.7-71.84-58-9.82-24.31-7.51-52.6,4.74-75.61,6.68-12.57,13.3-18.68,24.8-24.79,12.19-6.48,20.47-13.93,25.39-27.42,5.3-14.53,6.15-30.41,11.79-44.81,13-33.3,50.89-52.62,86.61-51s68.75,21,94.24,46.09c5.31,5.23,10.52,10.83,17.24,14,6.12,2.93,13,3.65,19.73,4.56,28.29,3.83,57.81,12.94,75.92,35s21.29,52.86,18.07,81.16c-1.19,10.49-3.16,21.06-1.92,31.54Z" transform="translate(-35.33 -23.75)" fill="#2cd8c6" opacity="0.18" style="isolation:isolate"/><path d="M231.18,181.12a71,71,0,0,1-16.38,45.46q-1.71,2.05-3.57,4c-.38.4-.76.79-1.15,1.17a71.31,71.31,0,0,1-22.4,15h0a69.1,69.1,0,0,1-9.15,3.17,71.43,71.43,0,0,1-18.62,2.46,72.69,72.69,0,0,1-12.69-1.12,68.94,68.94,0,0,1-7.35-1.74,71.1,71.1,0,0,1-23.81-12.22c-.34-.26-.67-.53-1-.8q-2.08-1.68-4-3.52a71.27,71.27,0,1,1,120.15-51.87Z" transform="translate(-35.33 -23.75)" fill="#2cd8c6"/><path d="M400.63,181.12a71.06,71.06,0,0,1-17,46.23c-.94,1.1-1.92,2.18-2.92,3.22-.38.4-.76.79-1.15,1.17a71.14,71.14,0,0,1-17.48,12.71q-2.42,1.25-4.92,2.31h0a69.1,69.1,0,0,1-9.15,3.17,71.43,71.43,0,0,1-18.62,2.46,72.69,72.69,0,0,1-12.69-1.12,68.94,68.94,0,0,1-7.35-1.74,71.9,71.9,0,0,1-23.81-12.22c-1.74-1.36-3.42-2.8-5-4.32a72.14,72.14,0,0,1-11.28-13.64,71.28,71.28,0,1,1,131.43-38.23Z" transform="translate(-35.33 -23.75)" fill="#2cd8c6"/><path d="M163.66,137c-1.87,11.72-8,22.37-10.59,34,0,0,0,.05,0,.08-1.18,5.26-2.94,12.9-4.28,18.12a9.38,9.38,0,0,1-1.42,3.45A7.72,7.72,0,0,1,144,194.8l-.61.23c-4.82,1.77-10.34,2.29-14.08,5.8-4.52,4.26-6.19,12.43-8.16,18.12q-3,8.78-6.07,17.56-2.08-1.68-4-3.52A71.11,71.11,0,0,1,97,214.59a224.83,224.83,0,0,0,16-32.72C119,166.24,128,151.93,137,137.76a8.11,8.11,0,0,1,1.89-2.3,2.78,2.78,0,0,1,2.81-.44,78.5,78.5,0,0,1-5.32,12.15L138.9,143c3.41-5.74,6.87-11.55,11.69-16.16a2,2,0,0,1,1.18-.69,1.43,1.43,0,0,1,1.34,1.45,4.17,4.17,0,0,1-.68,2.07q-3.47,6.45-6.94,12.91,4.38-7.62,9.37-14.87c1.12-1.63,2.92-3.46,4.74-2.68a3,3,0,0,1,1.61,2.15c.44,1.9-.36,3.84-1.14,5.63l-.76,1.74c.39-.88.89-1.87,1.82-2.12a2.22,2.22,0,0,1,2.44,1.48A6.09,6.09,0,0,1,163.66,137Z" transform="translate(-35.33 -23.75)" fill="#e26f54"/><path d="M129.06,188.76a6,6,0,0,0,2.78,3.14,36.32,36.32,0,0,0,5.63,3,6.57,6.57,0,0,0,2.8.69,7.31,7.31,0,0,0,2.52-.74l4.55-2a4.4,4.4,0,0,0,1.63-1,4.26,4.26,0,0,0,.72-2.43l1.19-13.66c.05-.55.05-1.21-.4-1.52s-1.28,0-1.8.45a10.33,10.33,0,0,0-3.55,3.89c-.52,1.25-.57,2.72-1.45,3.75-1.18,1.38-3.27,1.33-5.09,1.4C136.16,183.85,127.92,184.51,129.06,188.76Z" transform="translate(-35.33 -23.75)" fill="#cc624e"/><path d="M148.49,173.25a3.11,3.11,0,0,1-.09,1.49c-.48,1.12-2.05,1.09-3.25.88a5.43,5.43,0,0,0,.86,4.07l-1.62.27c-.34.25-.2.83.13,1.1a6.47,6.47,0,0,0,1.16.54c.38.19.73.6.6,1-.06.18-.21.35-.17.54s.28.29.46.4a2,2,0,0,1,.61,2.23,6.89,6.89,0,0,1-3.88,4.27,20.7,20.7,0,0,1-5.76,1.48,3,3,0,0,0-1.56.54,1.64,1.64,0,0,0,.77,2.73L135.36,196a4.43,4.43,0,0,0,3.83.19,21.46,21.46,0,0,0,3.49-1.9,22.32,22.32,0,0,1,6.55-2.53,3.9,3.9,0,0,0,2.26-1,3.57,3.57,0,0,0,.64-2.06c.4-4.6.71-9.45-.19-14-.14-.71-.3-1.41-.41-2.12-.14-.94.08-2.38-.3-3.23-.52-1.19-1.63-.76-2.18.18A7,7,0,0,0,148.49,173.25Z" transform="translate(-35.33 -23.75)" fill="url(#linear-gradient)"/><path d="M214.8,226.58q-1.71,2.05-3.57,4c-.38.4-.76.79-1.15,1.17a71.4,71.4,0,0,1-10.62,8.67,25.43,25.43,0,0,1-6.93-3.17,43.49,43.49,0,0,1-8-7.6C178.09,222.45,173.58,215,164,212a40.1,40.1,0,0,1-6-2c-6-3-8.7-10.21-13.94-14.45a8,8,0,0,0-.68-.51,73.88,73.88,0,0,0-7.32-4.26,41.85,41.85,0,0,1-8.58-6.57,4.29,4.29,0,0,1-1.1-1.51,3,3,0,0,1,1.5-3.29,6.92,6.92,0,0,1,3.8-.68,26.52,26.52,0,0,1,17.43,7.4c-.25-4.42-.48-9,1.3-13.09a3.34,3.34,0,0,1,1.74-2,2.32,2.32,0,0,1,.94-.11,12.82,12.82,0,0,1,2.53.81c4.29,1.39,9.1-2.28,13.3-.64.82.32,1.56.83,2.37,1.17,1.89.78,3.84,2.05,5.9,2.37,1.73.27,3.6,0,5.14.86a6.77,6.77,0,0,1,1.91,1.71,23,23,0,0,1,4.91,17.47c-.76,6.19,4.42,12.35,8.43,16.64A82.34,82.34,0,0,0,209.68,222c1.79,1.28,2.91,2.84,4.47,4.16A3.65,3.65,0,0,0,214.8,226.58Z" transform="translate(-35.33 -23.75)" fill="#f38a6b"/><path d="M134.75,147.22c-.87,1.44-1.75,2.89-2.56,4.37l-.87,1.67,2.33-2.67a17.58,17.58,0,0,0,3.21-4.67c1.34-2.54,2.87-5,4.22-7.49a8.42,8.42,0,0,0-3,3.19C137.06,143.52,135.88,145.36,134.75,147.22Z" transform="translate(-35.33 -23.75)" fill="#cc624e"/><path d="M141.57,146.74c-.87,1.44-1.75,2.89-2.55,4.37-.3.55-.59,1.11-.88,1.67l2.33-2.67a24.18,24.18,0,0,0,2-2.45c.47-.71.86-1.47,1.26-2.22,1.33-2.54,2.86-5,4.22-7.49a8.45,8.45,0,0,0-3,3.19C143.88,143,142.7,144.88,141.57,146.74Z" transform="translate(-35.33 -23.75)" fill="#cc624e"/><path d="M153.43,142.38c-.88,1.45-1.75,2.89-2.56,4.38-.3.55-4.21,7.93-4.5,8.49.78-.89,5.18-8.61,6-9.5a21.72,21.72,0,0,0,1.95-2.44,25.58,25.58,0,0,0,1.26-2.23c1.33-2.54,2.86-5,4.22-7.49a8.52,8.52,0,0,0-3,3.19C155.73,138.68,154.55,140.52,153.43,142.38Z" transform="translate(-35.33 -23.75)" fill="#cc624e"/><path d="M367.61,146.37c-1.72,5.72-6.8,11.14-10.58,15.59-4.5,5.28-6.94,12-10.94,17.68-.88,1.25-1.8,2.47-2.74,3.67-7.57,9.64-15.73,19.5-23.86,28.63s-14.55,19.66-22.32,29.12a22,22,0,0,1-2.25,2.46,70.63,70.63,0,0,1-9.42-6.21c-1.74-1.36-3.42-2.8-5-4.32a72.14,72.14,0,0,1-11.28-13.64c.4-.3.81-.6,1.22-.88,12.22-8.58,30.76-17.32,36.92-31.82,3.08-7.24,1.7-15.48,1.67-23.35a73.9,73.9,0,0,1,5.43-27.37,8.51,8.51,0,0,1,2-3.36,3.14,3.14,0,0,1,3.64-.56,3.7,3.7,0,0,1,1.41,2.18,9.34,9.34,0,0,1,0,5.11c-.49,1.75-1.49,3.31-2.07,5-1.33,3.9-.41,8.15.52,12.16a.14.14,0,0,1,0-.06c.28-.55,3.66-3.08,4.07-3.44q2.12-1.91,4.11-3.93a104.8,104.8,0,0,0,7.56-8.47c4.31-5.4,7.28-11.44,12.95-15.56.2-.16.41-.31.62-.45s.79-.47,1.15-.26a1.06,1.06,0,0,1,.41.77,7.88,7.88,0,0,1-.62,3.79c-1.74,4.86-4.48,9.28-7.21,13.65a96.69,96.69,0,0,1,13.55-15.45,14.7,14.7,0,0,1,3.26-2.46,4.15,4.15,0,0,1,2.42-.54,2.12,2.12,0,0,1,1.81,1.53,3.26,3.26,0,0,1-.58,2.17,131.35,131.35,0,0,1-11.71,17.89l7.62-8.32c2-2.13,4.11-4.38,7-4.92a4.37,4.37,0,0,1,0,3.33c-2,6.32-7,11.16-10.16,17a119.16,119.16,0,0,1,9.17-8.09,1.92,1.92,0,0,1,1.63-.6C367.82,144.33,367.87,145.52,367.61,146.37Z" transform="translate(-35.33 -23.75)" fill="#e26f54"/><path d="M328.16,161.08a7.06,7.06,0,0,0-2.61-2,2.41,2.41,0,0,0-2.91.89c-.91,1.73,1.29,3.4,2,5.21-1.17.57-1.4,2.21-.91,3.41a14.07,14.07,0,0,0,2.29,3.12,4.14,4.14,0,0,1,1.11,3.57,9.17,9.17,0,0,0-.53,1.58,3.2,3.2,0,0,0,.42,1.61l1.73,3.8a4.3,4.3,0,0,0,1.16,1.73,2.94,2.94,0,0,0,3.64-.47,8.54,8.54,0,0,0,1.94-3.45,2.64,2.64,0,0,0,3,3.25,3.76,3.76,0,0,0,2.32-3.4c.14-1.45-.18-2.9-.16-4.36a2.29,2.29,0,0,1,.31-1.32,2.42,2.42,0,0,1,1.19-.78c1.87-.72,3.86-1.11,5.67-2a6.56,6.56,0,0,0,3.89-4.29c.39-2-1-4.29-3-4.25a1.16,1.16,0,0,0-1,1.19,3.91,3.91,0,0,0-.65-4,11.39,11.39,0,0,0-3.31-2.6c-1.16-.7-2.76,1.84-2.94,2.62C339.84,157.27,327.63,156,328.16,161.08Z" transform="translate(-35.33 -23.75)" fill="url(#linear-gradient-2)"/><path d="M383.6,227.35c-.94,1.1-1.92,2.18-2.92,3.22-.38.4-.76.79-1.15,1.17a71.14,71.14,0,0,1-17.48,12.71c-.27-.75-.5-1.51-.71-2.25-3.77-13.13-9.22-23.65-21.58-30.42-2.53-1.39-5.39-2.71-6.61-5.32a11.09,11.09,0,0,1-.75-2.54c-1.67-7.69-3.34-15.39-4.7-23.14-.22-1.21-.26-2.76.83-3.31a2.41,2.41,0,0,1,1.81,0c3.26,1,5.31,4.26,6.45,7.49s1.65,6.69,3.29,9.69c1.48-1.61.75-4.17-.08-6.19q-2.88-7-6.1-13.89c-1.19-2.52-2.46-5.1-4.56-6.92a7.78,7.78,0,0,1-1.54-1.49,1.77,1.77,0,0,1-.07-2,2.15,2.15,0,0,1,1.22-.65,9.45,9.45,0,0,1,5.14.14c-.62-.37-.49-1.39.07-1.85a3.47,3.47,0,0,1,2.06-.54c2.42-.11,4.94-.19,7.15.79a9.62,9.62,0,0,0,1.91.79,11.93,11.93,0,0,0,2.6-.06c3-.08,5.54,1.94,7.82,3.85l11.28,9.5a33.34,33.34,0,0,1,6.18,6.21c3.3,4.75,3.91,10.81,4.16,16.58a78.54,78.54,0,0,0,2.8,17C381.14,219.72,382.35,223.52,383.6,227.35Z" transform="translate(-35.33 -23.75)" fill="#f38a6b"/><circle cx="109.45" cy="150.21" r="1.55" fill="url(#linear-gradient-3)"/><circle cx="95.07" cy="170.32" r="1.55" fill="url(#linear-gradient-4)"/><circle cx="110.79" cy="153.3" r="1.55" fill="url(#linear-gradient-5)"/><circle cx="107.34" cy="155.89" r="1.55" fill="url(#linear-gradient-6)"/><circle cx="102.81" cy="173.42" r="1.55" fill="url(#linear-gradient-7)"/><circle cx="113.37" cy="147.63" r="1.03" fill="url(#linear-gradient-8)"/><path d="M342.48,148.13c-.47-1.85.53-3.73,1.55-5.35a79.27,79.27,0,0,1,8-10.56c1.26-1.4,7.11-8.83,9.08-8.39,2.84.63-2.89,6-3.46,6.7-2.36,2.86-4.33,6-6.53,9C350.42,140.4,342.52,148.33,342.48,148.13Z" transform="translate(-35.33 -23.75)" fill="#f38a6b"/><path d="M351.45,152.3c-5.22-2.2-10.53-4.42-16.16-5.05a2.68,2.68,0,0,0-1.59.18,2.77,2.77,0,0,0-.94,1.09,27.24,27.24,0,0,1-12,10.56,3.51,3.51,0,0,1-.75-2.65c.28-.55,3.66-3.08,4.07-3.44q2.12-1.91,4.11-3.93a104.8,104.8,0,0,0,7.56-8.47c4.31-5.4,7.28-11.44,12.95-15.56,2.2,2.52-2.47,6.39-3.87,8a1.5,1.5,0,0,0-.44.78c-.08.88,1.36,1.55,1,2.33a1.56,1.56,0,0,0-1.88-.59,4.54,4.54,0,0,0-1.71,1.28l-2,2.08a4.61,4.61,0,0,0-1.21,1.73,1.57,1.57,0,0,0,.62,1.86,2.39,2.39,0,0,0-2.27,1.51A99.39,99.39,0,0,1,351.45,152.3Z" transform="translate(-35.33 -23.75)" fill="#f38a6b"/><circle cx="307.07" cy="133.86" r="1.47" fill="url(#linear-gradient-9)"/><circle cx="299.88" cy="132.38" r="1.47" fill="url(#linear-gradient-10)"/><circle cx="302.9" cy="131.59" r="1.1" fill="url(#linear-gradient-11)"/><circle cx="301.8" cy="135.84" r="1.1" fill="url(#linear-gradient-12)"/><circle cx="294.19" cy="132.38" r="1.1" fill="url(#linear-gradient-13)"/><circle cx="292.72" cy="134.23" r="1.1" fill="url(#linear-gradient-14)"/><circle cx="285.35" cy="140.57" r="1.1" fill="url(#linear-gradient-15)"/><circle cx="284.25" cy="152.94" r="1.1" fill="url(#linear-gradient-16)"/><path d="M342.7,170.85l3.94,3.64c2.48,2.3,5,4.6,7.22,7.12a28.79,28.79,0,0,0-3.37-5.09,56.49,56.49,0,0,0-8.63-7.85l-5.72-4.53c-.37-.3-2.5-2.39-2.53-.86,0,.79,2.31,1.84,2.89,2.26A71.16,71.16,0,0,1,342.7,170.85Z" transform="translate(-35.33 -23.75)" fill="#e26f54"/><path d="M347.58,165.7c4.12,3.83,7,8.86,11.37,12.41-2-4.93-5.84-8.83-9.6-12.58a10.3,10.3,0,0,0-1.93-1.63,5.76,5.76,0,0,0-2.57-.91A24.1,24.1,0,0,0,347.58,165.7Z" transform="translate(-35.33 -23.75)" fill="#e26f54"/><path d="M332.3,188.67a1.76,1.76,0,0,0,.88-.57,2,2,0,0,0,0-1.75l-.84-2.62a6.58,6.58,0,0,0-.71-1.71,2.35,2.35,0,0,0-1.45-1.08,10,10,0,0,1,2.26,7,.66.66,0,0,1,0,.15c-.1.23-.42.18-.65.12-.39-.08-1.78-.16-1.45.48S331.89,188.82,332.3,188.67Z" transform="translate(-35.33 -23.75)" fill="#e26f54"/><path d="M218.53,177l-3.31,6.69c1.1-6.36-.25-10.36-3.52-9.32-3.89,1.23-9,9.12-11.45,17.62s-1.25,14.39,2.64,13.15c3.24-1,7.35-6.69,10-13.47" transform="translate(-35.33 -23.75)" fill="none" stroke="#f8feff" stroke-linecap="round" stroke-linejoin="round" stroke-width="1.72"/><line x1="177.55" y1="157.27" x2="179.89" y2="159.92" fill="none" stroke="#f8feff" stroke-linecap="round" stroke-miterlimit="10" stroke-width="1.72"/><path d="M390.73,155.83l-3.08,3.34c.86-4.25-.68-8-3.95-9-3.88-1.12-8.74,2.17-10.86,7.35s-.67,10.29,3.21,11.41c3.24.94,7.16-1.2,9.6-4.94" transform="translate(-35.33 -23.75)" fill="none" stroke="#f8feff" stroke-linecap="round" stroke-linejoin="round" stroke-width="1.72"/><line x1="349.84" y1="132.16" x2="352.33" y2="135.42" fill="none" stroke="#f8feff" stroke-linecap="round" stroke-linejoin="round" stroke-width="1.72"/></svg>