<svg id="Layer_1" data-name="Layer 1" xmlns="http://www.w3.org/2000/svg" xmlns:xlink="http://www.w3.org/1999/xlink" viewBox="0 0 392.94 302.53"><defs><filter id="luminosity-noclip" x="64.81" y="-8380" width="27.94" height="32766" filterUnits="userSpaceOnUse" color-interpolation-filters="sRGB"><feFlood flood-color="#fff" result="bg"/><feBlend in="SourceGraphic" in2="bg"/></filter><mask id="mask" x="64.81" y="-8380" width="27.94" height="32766" maskUnits="userSpaceOnUse"><g filter="url(#luminosity-noclip)"/></mask><linearGradient id="linear-gradient" x1="2426.25" y1="236.44" x2="2454.18" y2="236.44" gradientTransform="matrix(-1, 0, 0, 1, 2519, 0)" gradientUnits="userSpaceOnUse"><stop offset="0" stop-color="#fff"/><stop offset="1"/></linearGradient><linearGradient id="linear-gradient-2" x1="78.8" y1="278.85" x2="86.67" y2="129.31" gradientUnits="userSpaceOnUse"><stop offset="0" stop-opacity="0"/><stop offset="0.99"/></linearGradient><linearGradient id="linear-gradient-3" x1="89.28" y1="278.58" x2="97.05" y2="130.98" xlink:href="#linear-gradient-2"/><linearGradient id="linear-gradient-4" x1="234.56" y1="66.06" x2="221.44" y2="70.26" xlink:href="#linear-gradient-2"/><linearGradient id="linear-gradient-5" x1="66.4" y1="120.02" x2="191.6" y2="120.02" gradientUnits="userSpaceOnUse"><stop offset="0" stop-color="#e5c5d5"/><stop offset="0.42" stop-color="#ead4d1"/><stop offset="1" stop-color="#f0e9cb"/></linearGradient><linearGradient id="linear-gradient-6" x1="222.97" y1="328.1" x2="253.48" y2="328.1" xlink:href="#linear-gradient-5"/><linearGradient id="linear-gradient-7" x1="284.02" y1="195.84" x2="282.45" y2="146.26" xlink:href="#linear-gradient-2"/><linearGradient id="linear-gradient-8" x1="316.27" y1="89.28" x2="330.57" y2="89.28" xlink:href="#linear-gradient-5"/><linearGradient id="linear-gradient-9" x1="151.45" y1="31.78" x2="47.56" y2="239.55" gradientUnits="userSpaceOnUse"><stop offset="0.02" stop-color="#fff" stop-opacity="0"/><stop offset="0.58" stop-color="#fff" stop-opacity="0.39"/><stop offset="0.68" stop-color="#fff" stop-opacity="0.68"/><stop offset="1" stop-color="#fff"/></linearGradient><filter id="luminosity-noclip-2" x="64.81" y="234.77" width="27.94" height="3.33" filterUnits="userSpaceOnUse" color-interpolation-filters="sRGB"><feFlood flood-color="#fff" result="bg"/><feBlend in="SourceGraphic" in2="bg"/></filter><mask id="mask-2" x="59.4" y="201.85" width="27.94" height="3.33" maskUnits="userSpaceOnUse"><g filter="url(#luminosity-noclip-2)"><g transform="translate(-5.41 -32.92)"><g mask="url(#mask)"><path d="M91.92,236c.43.17.92.51.81.95s-.61.51-1,.54c-8.43.59-16.94,1.18-25.28-.12a2.52,2.52,0,0,1-1.2-.4.9.9,0,0,1-.33-1.11,36.59,36.59,0,0,1,5.64-.48c4-.14,8.14-.11,12.18-.44A19.25,19.25,0,0,1,91.92,236Z" fill="url(#linear-gradient)" style="mix-blend-mode:multiply"/></g></g></g></mask><linearGradient id="linear-gradient-10" x1="80.21" y1="228.27" x2="74.43" y2="261.45" xlink:href="#linear-gradient-9"/><linearGradient id="linear-gradient-11" x1="97.77" y1="179.51" x2="128.08" y2="179.51" xlink:href="#linear-gradient-5"/><linearGradient id="linear-gradient-12" x1="81.03" y1="234.78" x2="89.21" y2="234.78" xlink:href="#linear-gradient-5"/><linearGradient id="linear-gradient-13" x1="60.62" y1="174.21" x2="92.62" y2="174.21" xlink:href="#linear-gradient-5"/><linearGradient id="linear-gradient-14" x1="94.48" y1="174.25" x2="97.77" y2="174.25" xlink:href="#linear-gradient-5"/><linearGradient id="linear-gradient-15" x1="100.85" y1="181.16" x2="45.06" y2="225.76" xlink:href="#linear-gradient-2"/><linearGradient id="linear-gradient-16" x1="60.38" y1="171.43" x2="64.21" y2="171.43" xlink:href="#linear-gradient-5"/><linearGradient id="linear-gradient-17" x1="93.27" y1="168.41" x2="102.78" y2="168.41" xlink:href="#linear-gradient-5"/><linearGradient id="linear-gradient-18" x1="248.44" y1="118.68" x2="180.23" y2="170.27" xlink:href="#linear-gradient-2"/><linearGradient id="linear-gradient-19" x1="199.3" y1="93.21" x2="192.87" y2="118.27" xlink:href="#linear-gradient-5"/><linearGradient id="linear-gradient-20" x1="192.09" y1="106.21" x2="172.87" y2="132.51" xlink:href="#linear-gradient-5"/><linearGradient id="linear-gradient-21" x1="207.17" y1="58.14" x2="181.29" y2="88.92" xlink:href="#linear-gradient-5"/><linearGradient id="linear-gradient-22" x1="214.95" y1="65.88" x2="192.04" y2="70.08" xlink:href="#linear-gradient-2"/><linearGradient id="linear-gradient-23" x1="165.67" y1="64.14" x2="196.01" y2="64.14" xlink:href="#linear-gradient-2"/><linearGradient id="linear-gradient-24" x1="209.16" y1="104.82" x2="329.65" y2="104.82" xlink:href="#linear-gradient-5"/></defs><title>Yoga Practices</title><path d="M110.63,101c9-17.27,13.22-37.77,27.26-51.28,13.68-13.17,34-16.8,53-16.82,13.08,0,26.61,1.55,37.93,8.09,12.71,7.35,21.18,20,31.14,30.8a132.66,132.66,0,0,0,64.81,38.35c18.49,4.61,38.83,5.58,54,17,14.64,11,21.58,30.7,19.08,48.86s-13.62,34.55-28.42,45.36c-19.28,14.08-44.57,19.63-60.93,37-13.62,14.46-19.3,35.47-34.44,48.34-18.27,15.51-45.64,14.92-68.35,7.26s-43-21.25-65.36-29.87c-20.88-8.05-43.17-11.62-64.72-17.6-6.53-1.81-13.3-4-17.95-8.95-3.19-3.39-5.1-7.76-6.91-12.05-7.6-18-14.83-36.91-13.49-56.37C40.26,145.86,92.24,136.17,110.63,101Z" transform="translate(-5.41 -32.92)" fill="#dd110e" opacity="0.18" style="isolation:isolate"/><rect x="8.26" y="220.42" width="143.24" height="75.55" fill="#dd110e"/><rect x="8.26" y="220.42" width="143.24" height="75.55" fill="url(#linear-gradient-2)"/><rect x="28.95" y="220.42" width="122.8" height="75.55" fill="url(#linear-gradient-3)"/><path d="M210.49,56.24a12.11,12.11,0,0,1,3.67-3.6,11.48,11.48,0,0,1,4.3-1c4.79-.46,9.86-.65,14.15,1.52a16.77,16.77,0,0,1,6.48,6.14,14.62,14.62,0,0,1,2.34,6.51A18.09,18.09,0,0,1,239.2,75a14.55,14.55,0,0,1-2.84,4.23c-1.13,1.08-2.56,1.88-3.39,3.19a4.7,4.7,0,0,0-.6,3.51c.07.31.16.68-.07.89a.76.76,0,0,1-.44.16,3.63,3.63,0,0,1-3.17-1.63,6.18,6.18,0,0,1-1-3.54,1.19,1.19,0,0,1-1.68.61,2.39,2.39,0,0,1-1.1-1.67c-.57-2.49.71-5.1.28-7.61a6.8,6.8,0,0,0-3.41-4.6c-1.87-1.06-4.06-1.35-6-2.18a12,12,0,0,1-5.18-4.13,9.79,9.79,0,0,1-1.52-2.5C208.74,58.52,209.84,57.1,210.49,56.24Z" transform="translate(-5.41 -32.92)" fill="#3e3e54"/><path d="M210.49,56.24a12.11,12.11,0,0,1,3.67-3.6,11.48,11.48,0,0,1,4.3-1c4.79-.46,9.86-.65,14.15,1.52a16.77,16.77,0,0,1,6.48,6.14,14.62,14.62,0,0,1,2.34,6.51A18.09,18.09,0,0,1,239.2,75a14.55,14.55,0,0,1-2.84,4.23c-1.13,1.08-2.56,1.88-3.39,3.19a4.7,4.7,0,0,0-.6,3.51c.07.31.16.68-.07.89a.76.76,0,0,1-.44.16,3.63,3.63,0,0,1-3.17-1.63,6.18,6.18,0,0,1-1-3.54,1.19,1.19,0,0,1-1.68.61,2.39,2.39,0,0,1-1.1-1.67c-.57-2.49.71-5.1.28-7.61a6.8,6.8,0,0,0-3.41-4.6c-1.87-1.06-4.06-1.35-6-2.18a12,12,0,0,1-5.18-4.13,9.79,9.79,0,0,1-1.52-2.5C208.74,58.52,209.84,57.1,210.49,56.24Z" transform="translate(-5.41 -32.92)" fill="url(#linear-gradient-4)"/><path d="M210.5,59.89A1.54,1.54,0,0,1,211.61,58a3.06,3.06,0,0,1,2.32.44,3.28,3.28,0,0,1,1,.75,2.5,2.5,0,0,1-.33,3.42,2.64,2.64,0,0,1-3.47-.26,2.79,2.79,0,0,1-.15-3.51" transform="translate(-5.41 -32.92)" fill="#dd110e"/><path d="M239.45,104.21a5,5,0,0,1,2.5,2A2.29,2.29,0,0,0,239.45,104.21Z" transform="translate(-5.41 -32.92)" fill="#fff" stroke="#dd110e" stroke-miterlimit="10" stroke-width="0.94"/><path d="M92,124.84a30.57,30.57,0,0,0,3.64.66,13.31,13.31,0,0,0,6.35-1c2.1-.88,3.41-.76,5.74-.73,4.73,0,9.46-.17,14.19-.35,9.26-.36,18.64-.62,27.74,1.42,3.55.79,7,1.93,10.55,2.88a102.32,102.32,0,0,0,23,3.48c2.37.08,5.12-.12,6.53-2.26a7.88,7.88,0,0,0,1-3.44,29.94,29.94,0,0,0-.75-10.92c-.15-.59,1.92-4.92,1.49-5.3a1.24,1.24,0,0,0-1.4-.35c-10,4.72-12.58,4.26-17.65,4.72a159.39,159.39,0,0,1-19.18,0q-8-.24-15.92-.23-14.08,0-28.17.86c-2.36.14-4.73.3-7.09.47H102l-1.56.13c-3.3.22-7,.23-8.64.38-3.25.3-6.36-.13-9.62.13a70,70,0,0,0-11.87,2A6.31,6.31,0,0,0,67,119.06a2.29,2.29,0,0,0,.13,3.28,3.56,3.56,0,0,0,2.1.34,31.81,31.81,0,0,1,9.56,1.11,17.94,17.94,0,0,0,5.13,1c1.24,0,2.44-.38,3.67-.47A15.46,15.46,0,0,1,92,124.84Z" transform="translate(-5.41 -32.92)" fill="url(#linear-gradient-5)"/><path d="M225.86,330.11a5.44,5.44,0,0,1,1.5-.27c4-.37,15.8-6,15.95-7.28s1.07.18,1.19-1.11a34.54,34.54,0,0,1,6.87-.72,2.56,2.56,0,0,1,1.37.27c.72.47.77,1.5.73,2.36q-.21,4.9-.75,9.78a2.21,2.21,0,0,1-.13.62c-.32.78-1.33.94-2.17,1-6.26.35-12.52.49-18.78.63-2.54.06-5.07.12-7.6,0a1.31,1.31,0,0,1-.65-.13c-.78-.49-.31-2,0-2.6A5.07,5.07,0,0,1,225.86,330.11Z" transform="translate(-5.41 -32.92)" fill="url(#linear-gradient-6)"/><path d="M339.6,172.24c-1.14,1.54-3.27,2-5.23,2.37a148.05,148.05,0,0,1-16.85,1.45c-9.9.47-14.95.94-24.85,1.41-7.69.36-16.05,1.59-24,1.58a9.25,9.25,0,0,1-2.68,3.5,7.58,7.58,0,0,1-1.42.84c.32,17.73-6.45,48.44-9.29,64.45-3.54,20-1.36,43.29-1.55,63.44a11.86,11.86,0,0,1,0,2.22c0,.31,0,.62,0,.93q0,3.24,0,6.48a2.88,2.88,0,0,1-.52,2c-.77.87-8.4,1.34-9.66,1.29a1.13,1.13,0,0,1-.67-.16.79.79,0,0,1-.23-.69,23.47,23.47,0,0,0-1.24-7.31c-1.67-29.31-3.33-37.71-5-54.48-.6-6-1.48-11.93-1.89-17.91-.37-5.59-1.61-11.18-1.94-16.77-.32-5.43-2.37-10.88-2-16.33.37-5.65-.87-21.3.4-28.19-2.32-1.19-4.7-3-4.9-5.41-.29-3.26,2.91-7.71,4.55-10.29q3.3-5.23,6.61-10.45c2.24-3.55,4.56-7.18,7.92-9.7,3-2.23,7-3.43,10.51-2.4a12.06,12.06,0,0,1,5.17.95c2.89,1.17,5.36,3.08,8.17,4.41,7.44,3.52,16.24,2.59,24.55,2.18,11-.54,10.6,0,21.46,1.56,2,.28,4.3.49,5.63-.91s.94-3.23.61-4.91c-2.52-12.73.13-25.6-.72-38.52-.08-1.13-.07-2.43.83-3.18a4.23,4.23,0,0,1,2.26-.68l8.09-.84c4.1,20.95,8.55,42.23,8.91,63.53A7.2,7.2,0,0,1,339.6,172.24Z" transform="translate(-5.41 -32.92)" fill="#3e3e54"/><path d="M339.6,172.24c-1.14,1.54-3.27,2-5.23,2.37a148.05,148.05,0,0,1-16.85,1.45c-9.9.47-14.95.94-24.85,1.41-7.69.36-16.05,1.59-24,1.58a9.25,9.25,0,0,1-2.68,3.5,7.58,7.58,0,0,1-1.42.84c.32,17.73-6.45,48.44-9.29,64.45-3.54,20-1.36,43.29-1.55,63.44a11.86,11.86,0,0,1,0,2.22c0,.31,0,.62,0,.93q0,3.24,0,6.48a2.88,2.88,0,0,1-.52,2c-.77.87-8.4,1.34-9.66,1.29a1.13,1.13,0,0,1-.67-.16.79.79,0,0,1-.23-.69,23.47,23.47,0,0,0-1.24-7.31c-1.67-29.31-3.33-37.71-5-54.48-.6-6-1.48-11.93-1.89-17.91-.37-5.59-1.61-11.18-1.94-16.77-.32-5.43-2.37-10.88-2-16.33.37-5.65-.87-21.3.4-28.19-2.32-1.19-4.7-3-4.9-5.41-.29-3.26,2.91-7.71,4.55-10.29q3.3-5.23,6.61-10.45c2.24-3.55,4.56-7.18,7.92-9.7,3-2.23,7-3.43,10.51-2.4a12.06,12.06,0,0,1,5.17.95c2.89,1.17,5.36,3.08,8.17,4.41,7.44,3.52,16.24,2.59,24.55,2.18,11-.54,10.6,0,21.46,1.56,2,.28,4.3.49,5.63-.91s.94-3.23.61-4.91c-2.52-12.73.13-25.6-.72-38.52-.08-1.13-.07-2.43.83-3.18a4.23,4.23,0,0,1,2.26-.68l8.09-.84c4.1,20.95,8.55,42.23,8.91,63.53A7.2,7.2,0,0,1,339.6,172.24Z" transform="translate(-5.41 -32.92)" fill="url(#linear-gradient-7)"/><path d="M327.85,85.49c-.28-2.22-.66-4.43-1-6.64-.07-.4,1.28-5.59,1-5.93-.46-.65-2.3-2.34-3-2s-2.19,1.39-2.39,2.16-1.63,6.35-1.63,7.15c0,1.76,1.76,4.83,1.1,6.47a17.77,17.77,0,0,1-2.24,3.67c-.74,1-1.47,2.11-2.18,3.19s-1.6,2.72-1.05,4.08a5,5,0,0,0,1.88,2,8.1,8.1,0,0,1,3.22,4c.19.69.23,1.41.42,2.1a2.5,2.5,0,0,0,1.22,1.68,3.42,3.42,0,0,0,1.39.18c1.46,0,3.91.41,5.23-.27s.44-2.65.16-3.79a75.1,75.1,0,0,1-1.51-11.39C328.29,89.9,328.12,87.69,327.85,85.49Z" transform="translate(-5.41 -32.92)" fill="url(#linear-gradient-8)"/><path d="M231.66,149.91c-.07,0-.07.12,0,.12A.06.06,0,0,0,231.66,149.91Z" transform="translate(-5.41 -32.92)" fill="#fff" stroke="#dd110e" stroke-miterlimit="10" stroke-width="0.94"/><rect x="17.18" y="118.5" width="114.91" height="96.02" rx="10.55" fill="#dd110e"/><rect x="26.63" y="118.5" width="114.91" height="96.02" rx="10.55" fill="#dd110e"/><rect x="26.63" y="118.5" width="114.91" height="96.02" rx="10.55" fill="#dd110e"/><rect x="26.63" y="118.5" width="114.91" height="96.02" rx="10.55" fill="url(#linear-gradient-9)"/><path d="M103.89,163a4.52,4.52,0,0,0-1.18-1.52,8.82,8.82,0,0,0-5.52-2,6.84,6.84,0,0,0-3.13.5,5.54,5.54,0,0,0-3,4.38,6.81,6.81,0,0,1-.44,2.57,7.59,7.59,0,0,1-1.06,1.2,1.65,1.65,0,0,0-.45,1.52c.27.82,1.36.88,1.81,1.59.22.36.27.86.59,1.1.51.4,1.24-.17,1.83.07a.91.91,0,0,0,.77.74,2.85,2.85,0,0,0,1.08-.12,8,8,0,0,1,4.11.21,5.5,5.5,0,0,0,1.38.36,1.38,1.38,0,0,0,1.25-.58c.32.52,1.14.07,1.25-.56a4.63,4.63,0,0,0-.32-1.85C102.2,167.89,105.17,165.86,103.89,163Z" transform="translate(-5.41 -32.92)" fill="#3e3e54"/><g mask="url(#mask-2)"><path d="M91.92,236c.43.17.92.51.81.95s-.61.51-1,.54c-8.43.59-16.94,1.18-25.28-.12a2.52,2.52,0,0,1-1.2-.4.9.9,0,0,1-.33-1.11,36.59,36.59,0,0,1,5.64-.48c4-.14,8.14-.11,12.18-.44A19.25,19.25,0,0,1,91.92,236Z" transform="translate(-5.41 -32.92)" fill="url(#linear-gradient-10)"/></g><path d="M84.79,174.79a1.25,1.25,0,0,0-.67.53A.61.61,0,0,1,84.79,174.79Z" transform="translate(-5.41 -32.92)" fill="#fff" stroke="#dd110e" stroke-miterlimit="10" stroke-width="0.94"/><path d="M124.15,179.65l-.11,0c-.35.07-.54.07-.87.15h0c-4.73.67-9.64-.56-14.32.49-.95.22-1.89.52-2.83.78a27.49,27.49,0,0,1-6.17.93,1.88,1.88,0,0,1-1.75-.61,2,2,0,0,1-.27-.92,7.75,7.75,0,0,1,.2-2.92.86.86,0,0,1,.2-.43.73.73,0,0,1,.43-.13,25.36,25.36,0,0,1,4.07.31,44.07,44.07,0,0,0,5.14,0c1.42,0,2.84-.06,4.27-.06,2.51,0,5,.08,7.54.23l1.9.13h0l.42,0c.88.06,1.86.06,2.31.11a5.57,5.57,0,0,0,1.47,0,3.11,3.11,0,0,1,1.93.12,1.17,1.17,0,0,1,.3.29,1.14,1.14,0,0,1,0,.37c0,.34-.08.75-.32.86s-.7,0-.93.29c-.08.11-.13.26-.24.3s-.2,0-.3-.09c-.45-.25-.75-.47-1.21-.33Z" transform="translate(-5.41 -32.92)" fill="url(#linear-gradient-11)"/><path d="M89.09,236.7a.33.33,0,0,1-.17,0c-.68,0-1.36,0-2,0-1.67,0-3.35-.08-5-.17-.23,0-.5-.06-.58-.27a.75.75,0,0,1,0-.16c-.09-.87-.16-1.75-.2-2.62a1.93,1.93,0,0,1,0-.24.51.51,0,0,1,.19-.4.74.74,0,0,1,.37-.07,10.35,10.35,0,0,1,1.84.19c0,.25,0,.49,0,.74a1.62,1.62,0,0,0,0,.31,1.16,1.16,0,0,0,.48.89,1.57,1.57,0,0,0,.86.13,31.44,31.44,0,0,1,3.22.19,1.39,1.39,0,0,1,.4.06,1.43,1.43,0,0,1,.66.69C89.18,236.18,89.3,236.57,89.09,236.7Z" transform="translate(-5.41 -32.92)" fill="url(#linear-gradient-12)"/><path d="M74.35,172c-4.3-1.09-7.37-2.41-11.79-2a2.72,2.72,0,0,0-1.48.45,1,1,0,0,0-.31,1.37c.31.44.95.43,1.5.43a20.09,20.09,0,0,1,4.87.64c1.58.33,4.84,1.26,6.45,1.43,4.89.52,8,2,12.66,3.53a16.37,16.37,0,0,0,3.71.54,1.64,1.64,0,0,0,2-1c.19-.39.76-1.36.66-1.79s-1.06-.36-1.54-.42c-1.36-.17-2.72-.36-4.07-.57q-4.11-.63-8.16-1.52C77.34,172.78,75.84,172.42,74.35,172Z" transform="translate(-5.41 -32.92)" fill="url(#linear-gradient-13)"/><path d="M99,182a7.64,7.64,0,0,1-.33,2.51c-.75,2.29-3.49,4.09-5.46,5.47-1.43,1-2.19,3-3.62,4a2.63,2.63,0,0,1-1.25.57h-.16a2.31,2.31,0,0,1-1.3-.73,20.93,20.93,0,0,1-4.4-6.18q-.33-.69-.57-1.35h0a1.8,1.8,0,0,1-.14-.82v0a1.78,1.78,0,0,1,.4-.77A10.57,10.57,0,0,1,84,182.83,20,20,0,0,0,86.33,181a23.56,23.56,0,0,0,1.91-2.71,6.13,6.13,0,0,1,.83-.93c.94-.85,2.21-1.26,3.21-2a3.88,3.88,0,0,0,.31-.26,3.06,3.06,0,0,1,1.26-.9,1.58,1.58,0,0,1,.65,0,2.7,2.7,0,0,1,.48.16,20,20,0,0,1,2.63,1.19,2.64,2.64,0,0,1,.29.15,1.76,1.76,0,0,1,.94,1.3c.14.74,0,1.6,0,2.46S99,181.13,99,182Z" transform="translate(-5.41 -32.92)" fill="#dd110e"/><path d="M97.44,176.37a.85.85,0,0,1-.14.34c-.22.26-.64.2-1,.08a3.48,3.48,0,0,1-1.16-.68,2.09,2.09,0,0,1-.67-1.14,3.62,3.62,0,0,1,0-.87l.17-2.34a.15.15,0,0,1,.07-.14.22.22,0,0,1,.11,0,13.16,13.16,0,0,1,2.26,1.11,3.89,3.89,0,0,1,.52.34c.14.14.12.23.12.43a10.16,10.16,0,0,1-.05,1.35A9.76,9.76,0,0,1,97.44,176.37Z" transform="translate(-5.41 -32.92)" fill="url(#linear-gradient-14)"/><path d="M88.39,194.28a1,1,0,0,1,0,.24h-.16a2.31,2.31,0,0,1-1.3-.73,20.93,20.93,0,0,1-4.4-6.18q-.33-.69-.57-1.35h0a1.8,1.8,0,0,0-.43-.44,1.85,1.85,0,0,0-1-.34,2.67,2.67,0,0,1,1.29,0,3.83,3.83,0,0,1,1.51.68,9.42,9.42,0,0,1,2.13,2.6c.58.94,1.18,1.87,1.76,2.8C87.61,192.22,88.47,193.4,88.39,194.28Z" transform="translate(-5.41 -32.92)" fill="#dd110e"/><path d="M83.45,233.73a7.41,7.41,0,0,1-2.33-.34.32.32,0,0,1-.08-.12.51.51,0,0,1,.19-.4.74.74,0,0,1,.37-.07,10.35,10.35,0,0,1,1.84.19C83.46,233.24,83.45,233.48,83.45,233.73Z" transform="translate(-5.41 -32.92)" fill="#dd110e"/><path d="M87.08,195.73c.34,1.84,0,6,.11,7.56s-.46,2.91-.54,4.37-.42,3-.52,4.49-.35,3.21-.51,4.8c-.45,4.5-.9,6.75-1.34,14.6a6,6,0,0,0-.33,2c0,.07,0,.14-.07.18a.25.25,0,0,1-.17.05h-.26c0-.25,0-.49,0-.74a10.35,10.35,0,0,0-1.84-.19.74.74,0,0,0-.37.07.51.51,0,0,0-.19.4,1,1,0,0,1-.06-.42c0-.58,0-1.15,0-1.73a2.18,2.18,0,0,1,0-.25,3,3,0,0,1,0-.6c0-5.4.53-11.65-.41-17C79.78,209,78,200.76,78.05,196q0-.42,0-.81a1.46,1.46,0,0,1,.08-.39c-.39,0-.8,0-1.21,0-2.12,0-4.36-.33-6.42-.42-2.65-.13-4-.26-6.66-.38a40.34,40.34,0,0,1-4.52-.39A2.06,2.06,0,0,1,58,193a2,2,0,0,1-.26-1.22c.09-5.7,1.29-11.41,2.39-17l.38,0c-.09.29-.19.63.11.79a3.64,3.64,0,0,0,1.4.07.78.78,0,0,0,.37,0,.66.66,0,0,0,.33-.45.29.29,0,0,0,0-.09.51.51,0,0,1,.16.09.94.94,0,0,1,.22.85c-.22,3.46.49,6.91-.19,10.32a1.46,1.46,0,0,0,.16,1.31,1.71,1.71,0,0,0,1.51.25,19.89,19.89,0,0,1,5.75-.42c2.23.11,4.59.36,6.58-.58.75-.36,1.42-.87,2.19-1.18a3.2,3.2,0,0,1,1.4-.26,1.85,1.85,0,0,1,1,.34,1.8,1.8,0,0,1,.43.44h0q.24.66.57,1.35a20.93,20.93,0,0,0,4.4,6.18,2.31,2.31,0,0,0,1.3.73h.16A2.41,2.41,0,0,1,87.08,195.73Z" transform="translate(-5.41 -32.92)" fill="#dd110e"/><path d="M87.08,195.73c.34,1.84,0,6,.11,7.56s-.46,2.91-.54,4.37-.42,3-.52,4.49-.35,3.21-.51,4.8c-.45,4.5-.9,6.75-1.34,14.6a6,6,0,0,0-.33,2c0,.07,0,.14-.07.18a.25.25,0,0,1-.17.05h-.26c0-.25,0-.49,0-.74a10.35,10.35,0,0,0-1.84-.19.74.74,0,0,0-.37.07.51.51,0,0,0-.19.4,1,1,0,0,1-.06-.42c0-.58,0-1.15,0-1.73a2.18,2.18,0,0,1,0-.25,3,3,0,0,1,0-.6c0-5.4.53-11.65-.41-17C79.78,209,78,200.76,78.05,196q0-.42,0-.81a1.46,1.46,0,0,1,.08-.39c-.39,0-.8,0-1.21,0-2.12,0-4.36-.33-6.42-.42-2.65-.13-4-.26-6.66-.38a40.34,40.34,0,0,1-4.52-.39A2.06,2.06,0,0,1,58,193a2,2,0,0,1-.26-1.22c.09-5.7,1.29-11.41,2.39-17l.38,0c-.09.29-.19.63.11.79a3.64,3.64,0,0,0,1.4.07.78.78,0,0,0,.37,0,.66.66,0,0,0,.33-.45.29.29,0,0,0,0-.09.51.51,0,0,1,.16.09.94.94,0,0,1,.22.85c-.22,3.46.49,6.91-.19,10.32a1.46,1.46,0,0,0,.16,1.31,1.71,1.71,0,0,0,1.51.25,19.89,19.89,0,0,1,5.75-.42c2.23.11,4.59.36,6.58-.58.75-.36,1.42-.87,2.19-1.18a3.2,3.2,0,0,1,1.4-.26,1.85,1.85,0,0,1,1,.34,1.8,1.8,0,0,1,.43.44h0q.24.66.57,1.35a20.93,20.93,0,0,0,4.4,6.18,2.31,2.31,0,0,0,1.3.73h.16A2.41,2.41,0,0,1,87.08,195.73Z" transform="translate(-5.41 -32.92)" fill="url(#linear-gradient-15)"/><path d="M62.26,175a1.65,1.65,0,0,1,.44.1.29.29,0,0,1,0,.09.66.66,0,0,1-.33.45.78.78,0,0,1-.37,0,3.64,3.64,0,0,1-1.4-.07c-.3-.16-.2-.5-.11-.79Z" transform="translate(-5.41 -32.92)" fill="#dd110e"/><path d="M82.48,187.61q-.33-.69-.57-1.35a3.21,3.21,0,0,1,.35.66A5.05,5.05,0,0,1,82.48,187.61Z" transform="translate(-5.41 -32.92)" fill="#dd110e"/><path d="M64.16,173a1.41,1.41,0,0,1-.51.52,2.19,2.19,0,0,0-.86,1.07c0,.15-.06.31-.09.47a.29.29,0,0,1,0,.09.66.66,0,0,1-.33.45.78.78,0,0,1-.37,0,3.64,3.64,0,0,1-1.4-.07c-.3-.16-.2-.5-.11-.79a1.23,1.23,0,0,0,.06-.22,17.52,17.52,0,0,0,.38-2.6c0-.15,0-.3,0-.45,0-.34.05-.67.08-1s0-.51.09-.77c.07-.6.17-1.19.27-1.78a.81.81,0,0,1,.1-.31c.12-.17.62-.62.81-.53s.59.38.64.58a2.73,2.73,0,0,1,.06.64c0,.45-.42,1.21-.32,1.66a.14.14,0,0,0,0,.07,5,5,0,0,0,.6,1c.2.28.4.56.58.85a2.76,2.76,0,0,1,.25.44A.84.84,0,0,1,64.16,173Z" transform="translate(-5.41 -32.92)" fill="url(#linear-gradient-16)"/><path d="M86.88,187s0,0,0,0S86.86,187,86.88,187Z" transform="translate(-5.41 -32.92)" fill="#fff" stroke="#dd110e" stroke-miterlimit="10" stroke-width="0.94"/><path d="M93.46,170.46a4.68,4.68,0,0,0,2.73,3.4,4.36,4.36,0,0,0,3.5-.42,3.34,3.34,0,0,0,1.19-1,4.93,4.93,0,0,0,.65-1.63l1-3.78a4.39,4.39,0,0,0,.19-2.12,2.73,2.73,0,0,0-1.47-1.67,5.51,5.51,0,0,0-2.24-.46,11.18,11.18,0,0,0-3,.31,4.49,4.49,0,0,0-1.81.8,2.94,2.94,0,0,0-.87,2.59A16.23,16.23,0,0,0,93.46,170.46Z" transform="translate(-5.41 -32.92)" fill="url(#linear-gradient-17)"/><rect y="215.31" width="159.77" height="7.08" fill="#dd110e"/><path d="M250.55,145.9h0a9.48,9.48,0,0,1-.35,1.11,57.43,57.43,0,0,1-2.55,6c-4,8.08-10.09,16.79-16,22.15-1.4,1.26-2.94,2.58-4.82,2.71s-3.68-1-5.26-2.11c-5.34-3.71-8.18-11.24-13.52-15-7.35-5.11-17.6-11.87-20.39-20.38a46,46,0,0,1-2-18c.35-5.44,3.85-13.82,4.92-14.77,3-2.65,7.13-3.65,10.88-5a7.71,7.71,0,0,1,4.23-.68c1.91.39,3.25,2,4.69,3.33a36.69,36.69,0,0,0,7.38,4.7,29.65,29.65,0,0,1,5.78,3.81c4.24,3.79,6.28,9.51,10.22,13.61,2.46,2.55,5.55,4.37,8.37,6.51l.49.37a37.88,37.88,0,0,1,6.67,6.72,6.6,6.6,0,0,1,1.49,2.87A4.81,4.81,0,0,1,250.55,145.9Z" transform="translate(-5.41 -32.92)" fill="#dd110e"/><path d="M249.09,151.7a5.22,5.22,0,0,1-1.44,1.29,3.34,3.34,0,0,1-1.1.42c-1.72.36-3.44-.68-4.62-2-2.92-3.2-3.6-7.79-5.41-11.73-3.11-6.72-9.44-11.32-15.78-15.13-3.44-2.07-13.14-7.33-8.25-12.32a7,7,0,0,1,5.21-2.3,29.65,29.65,0,0,1,5.78,3.81c4.24,3.79,6.28,9.51,10.22,13.61,2.46,2.55,5.55,4.37,8.37,6.51l1.87,1.7c2.3,2.11,4.55,4.39,5.79,7.25a10.57,10.57,0,0,1,.82,3.07h0A7.92,7.92,0,0,1,249.09,151.7Z" transform="translate(-5.41 -32.92)" fill="url(#linear-gradient-18)"/><path d="M192.23,110.1a3.1,3.1,0,0,0,.54,1.28c.81,1,2.38.75,3.58.3a13.15,13.15,0,0,0,4.32-2.53,7.78,7.78,0,0,0,2.49-4.28,13.25,13.25,0,0,0,0-3.21l-.65-8.73c0-.21-.06-.45-.24-.53a.57.57,0,0,0-.44,0,49.68,49.68,0,0,0-8.44,4.15,10.89,10.89,0,0,0-1.94,1.25c-.52.51-.43.85-.45,1.6a40.54,40.54,0,0,0,.2,5A39.72,39.72,0,0,0,192.23,110.1Z" transform="translate(-5.41 -32.92)" fill="url(#linear-gradient-19)"/><path d="M202.63,96.66s-4.4,10.1-8.27,10.76c0,0-2,.46-2.88-.79l-.59-5.31Z" transform="translate(-5.41 -32.92)" fill="url(#linear-gradient-20)"/><path d="M207.08,88c-1.32,5.51-4.86,10.81-10.19,12.7-4.25,1.51-9.1.64-13-1.55a13.1,13.1,0,0,1-4.46-3.8,18.83,18.83,0,0,1-2.4-6.11q-1.86-7.05-3.71-14.11c-.68-2.58-1.36-5.3-.7-7.88a10,10,0,0,1,5.49-6.24,20.42,20.42,0,0,1,8.33-1.73,42.47,42.47,0,0,1,11.18,1.16,16.33,16.33,0,0,1,6.76,3c3.21,2.64,3.19,5.94,3.22,9.67C207.61,78.19,208.27,83,207.08,88Z" transform="translate(-5.41 -32.92)" fill="url(#linear-gradient-21)"/><path d="M179.75,52.93c-1.52,1-3.13,2.56-2.67,4.32s2.41,2.31,4.08,2.69a45,45,0,0,1,10,3.17,16.17,16.17,0,0,1,7.53,7.08c1,2,1.4,4.37,2.56,6.33.92-.26,1.11-1.51,1.84-2.12a2.15,2.15,0,0,1,3,.78,4.87,4.87,0,0,1,.3,3.47c-.24,1.23-1.09,2.7-2.31,2.43A22.82,22.82,0,0,1,206,88.37a22.71,22.71,0,0,0,8.09-13.78,20.34,20.34,0,0,0-3.77-15.44,23.09,23.09,0,0,0-12.44-7.89,35.08,35.08,0,0,0-10.51-1A13.38,13.38,0,0,0,179.75,52.93Z" transform="translate(-5.41 -32.92)" fill="#3e3e54"/><path d="M179.75,52.93c-1.52,1-3.13,2.56-2.67,4.32s2.41,2.31,4.08,2.69a45,45,0,0,1,10,3.17,16.17,16.17,0,0,1,7.53,7.08c1,2,1.4,4.37,2.56,6.33.92-.26,1.11-1.51,1.84-2.12a2.15,2.15,0,0,1,3,.78,4.87,4.87,0,0,1,.3,3.47c-.24,1.23-1.09,2.7-2.31,2.43A22.82,22.82,0,0,1,206,88.37a22.71,22.71,0,0,0,8.09-13.78,20.34,20.34,0,0,0-3.77-15.44,23.09,23.09,0,0,0-12.44-7.89,35.08,35.08,0,0,0-10.51-1A13.38,13.38,0,0,0,179.75,52.93Z" transform="translate(-5.41 -32.92)" fill="url(#linear-gradient-22)"/><path d="M190.66,66.9a22.78,22.78,0,0,0-1.36,6.35,158.15,158.15,0,0,0-23,1.5,19.86,19.86,0,0,1,.78-12.28,13.18,13.18,0,0,1,2.74-4.37,14,14,0,0,1,5-3,24,24,0,0,1,14.82-.68,11.24,11.24,0,0,1,4.24,2c1.53,1.26,3.15,4.13,1.44,5.88-.59.6-1.65.78-2.33,1.34A8.41,8.41,0,0,0,190.66,66.9Z" transform="translate(-5.41 -32.92)" fill="#3e3e54"/><path d="M190.66,66.9a22.78,22.78,0,0,0-1.36,6.35,158.15,158.15,0,0,0-23,1.5,19.86,19.86,0,0,1,.78-12.28,13.18,13.18,0,0,1,2.74-4.37,14,14,0,0,1,5-3,24,24,0,0,1,14.82-.68,11.24,11.24,0,0,1,4.24,2c1.53,1.26,3.15,4.13,1.44,5.88-.59.6-1.65.78-2.33,1.34A8.41,8.41,0,0,0,190.66,66.9Z" transform="translate(-5.41 -32.92)" fill="url(#linear-gradient-23)"/><path d="M96.59,167.28a1.88,1.88,0,0,0,1.45-.63.79.79,0,0,0,.47.85c.51.25,1.29,0,1.28-.66A1.59,1.59,0,0,0,101.5,168a.84.84,0,0,0,.41-.14,1.12,1.12,0,0,0,.26-.37,6.75,6.75,0,0,0,.58-3.5,1.73,1.73,0,0,0-.1-.45,1.24,1.24,0,0,0-.4-.45,4.14,4.14,0,0,0-1.37-.62,10.54,10.54,0,0,0-3.95-.3c-1,.1-2.4.22-3.05,1.15a2.84,2.84,0,0,0,0,2.66C94.45,167.5,95.29,167.23,96.59,167.28Z" transform="translate(-5.41 -32.92)" fill="#3e3e54"/><path d="M278.41,94c16-4.09,27.5-9,44-7.49a10.36,10.36,0,0,1,5.52,1.68c1.54,1.19,2.32,3.55,1.18,5.12s-3.58,1.6-5.6,1.62-4,.08-6,.23a30.71,30.71,0,0,1-4.28.38c.74.41.6,1.62,0,2.16a4.12,4.12,0,0,1-2.42.68,152.94,152.94,0,0,0-18.87,3l-7.26,1.44c-.75.15-1.49.33-2.23.51-11,2.63-18.05,6.26-29,9.21-5.39,1.46-11.12,2.5-16.52,3.94-2.29.6-9.45.78-7.61,5.64,1.56,4.12-11.5-2-15.55-3.73a8.16,8.16,0,0,1-3.46-2.55c-1.6-2.22-1.36-5.57-.26-8s3.72-1.77,6-2c5.08-.64,10.15-1.34,15.2-2.13q15.3-2.38,30.43-5.69Q270.06,96.1,278.41,94Z" transform="translate(-5.41 -32.92)" fill="url(#linear-gradient-24)"/></svg>