<svg xmlns="http://www.w3.org/2000/svg" viewBox="0 0 255 249"><defs><style>.cls-1{fill:#214077;}.cls-2{fill:#8898b6;}.cls-3{fill:#607d9f;}.cls-4{fill:#b7c0d3;}.cls-5{fill:#836357;}</style></defs><title>dr_ppe_3</title><g id="Layer_2" data-name="Layer 2"><g id="Layer_1-2" data-name="Layer 1"><path class="cls-1" d="M9.08,249h-9Q.09,126.1,0,3.2C0,.33.8,0,3.33,0q124,.1,247.94,0c2.9,0,3.72.39,3.72,3.57q-.18,120.84-.1,241.68c-1.51.64-2.07-.69-2.56-1.52-4.33-7.4-11.63-10.39-19.17-13a9.94,9.94,0,0,1-4.2-2.11c-1.39-1.35-3.36-1.42-5.26-1.28-4.41-1.53-8.49-4-13.24-4.56-5.21-1.62-10.58-.82-15.87-1.09a4,4,0,0,1-2.47-.19c-3.71-1.19-7.4-2.48-11.41-1.89-.35.1-.7.2-1,.33-1.49.47-1.1,2.11-1.89,3-1.16,1.36-2.39,2.62-4.39,2.18a3.77,3.77,0,0,1-3.13-3.29,7.94,7.94,0,0,0-2.31-4.55,4.55,4.55,0,0,1-1.11-3.79c0-5.54,0-11.07,0-16.59,0-2.79,2.38-3.55,4.12-4.86,3.51.46,6.06-2.74,9.5-2.56a1.76,1.76,0,0,1,.95.84c0-.06,0-.09,0-.13a2.51,2.51,0,0,1,0-1.41c5-3.33,6.13-8.72,7.48-14,.83-3.23,3-6,3.33-9.4a2.74,2.74,0,0,1,2.32-2.18c3.86-.94,6.28,1.51,8.79,3.74,1.2.83,1.16,2.33,1.85,3.44a25.1,25.1,0,0,1-.11,2.74c0,.53,0,1.06-.07,1.59-.78,3.63-3.28,6.77-3,10.71-.12,1.81-1.58,2.73-2.6,3.93-1.44,1.28-2.7,2.77-4,3.31.84-.69,2.4-1.41,3.38-2.82,4.87-4.63,8.36-10.33,12.13-15.81a2.72,2.72,0,0,1,.67-.8c1.24-.54,2.69-.78,3.25-2.29a12.8,12.8,0,0,1,1.4-2.73c1.38-3.16,4.25-5.61,4.42-9.33a13.67,13.67,0,0,1,2.43-7.24c2-2.83,2.91-6.26,4.36-9.38,1.26-2.74-1.89-3.19-3.34-4.47a8.9,8.9,0,0,1-2.51-5.21c-.33-2.76-1.88-5.08-3.52-7.27a10.53,10.53,0,0,1-1.57-10.49c.25-3.68,0-7.42,1.11-11a8,8,0,0,1,1.35-2.59c2-1.26,2.08-3.09,1.52-5.12A47.14,47.14,0,0,0,208.7,78.87c-1.61-1.54-3.2-3.1-4.72-4.74a3.76,3.76,0,0,1-1-4.07,2.6,2.6,0,0,1,.57-.91c2.94-.79,3-2.77,2.09-5.12-1.06-2.71-2.78-5.12-3.69-7.91-.87-4.7-4.79-7.06-7.78-10.14-1.54-1.81-3.55-3.11-5.3-4.7-2.14-2-3-4.78-3.84-7.45-.54-1.61-1.21-2.95-3-3.35a7,7,0,0,1-1-.25,9.15,9.15,0,0,1-1.78-1.05c-2.59-3.74-6.74-5.36-10.4-7.66-.83-1-1.34-2.38-3-2.36a7.32,7.32,0,0,1-1-.19,8.82,8.82,0,0,1-1.87-.87c-4.08-2.67-8.12-5.4-12.71-7.18-2.4-.19-4.82.22-7.22-.1-6.32.17-12.59-2.36-18.93-.25-6.13.75-12.48-1.28-18.45,1.48a19.28,19.28,0,0,1-3.71.36c-5.46.3-10.47,1.79-14.57,5.58a14.46,14.46,0,0,1-4.53,2.55,15.24,15.24,0,0,0-6.72,5.12c-.64.37-1.36.55-2,.89-1.48.31-2.24,1.67-3.46,2.36-4.35,1.78-8.1,4.75-12.7,6.09-1.9.55-3.8,2.38-3.31,4.49,1.1,4.68-2.08,7.64-3.64,11.32-2.75,6.45-5.77,12.76-7.68,19.61-1.6,5.72-3,11.52-4.87,17.16a36.74,36.74,0,0,0-2,8.72,86.6,86.6,0,0,1-2.27,8.83c-.41,8-5.22,14.49-7,22.07a132.34,132.34,0,0,1-5.29,17.39c-.07.35-.14.7-.22,1-.08,1.64-1,3.27-.08,4.94,1.41,2.71,3.36,5.12,4.49,8,.75,2.12,2.14,3.95,2.78,6.12,2.54,4.53,5.61,8.61,10,11.51,3.12,2.45,5,6.48,9.26,7.45a2.31,2.31,0,0,1,.75.74,92.17,92.17,0,0,0,4.72,12.56c.35.75.53,1.85,1.68,1.69s1-1.19,1.35-2c1.81-4.45-.88-7.92-2.29-11.73-1.94-5.29-4.56-10.32-6.14-15.75a2,2,0,0,0-1.29-1.57,9.25,9.25,0,0,1-6-9.47c0-.56.62-1.15-.21-1.6-4.1-2.2-3.65-6.06-3.56-9.79-1.9-6.06-1.9-6.06,1.76-8.73a2.14,2.14,0,0,0,.56-.74,6.07,6.07,0,0,0,.2-1.41c-.12-1.37-.06-2.85-.85-4-2.43-3.45-.73-7-.32-10.47A3.46,3.46,0,0,1,42,118.46a12.1,12.1,0,0,0,7.12-2.73c1.8-1.45,4.51-.86,6.8-1.13a13.33,13.33,0,0,1,2.78-.18c-1.22.24-2.58,0-3.9.09-4.38.37-4.37.42-4.1-3.83a4.49,4.49,0,0,1,.39-2.17,6.71,6.71,0,0,0,2.55-3.85c1.68-4.91,3.23-5.48,8.1-3.58a3.21,3.21,0,0,1,.85.21c.15,0,.32.11.44.14,0-.06.12-.11.08-.15a2.57,2.57,0,0,1,.34-2.72c2.71-1.18,5.64-1.81,8.5-3.57a16.94,16.94,0,0,0-4.43,0c-2.49.22-4.89,1.76-7.45.45a2.21,2.21,0,0,1-.78-.8c-.83-2.36.62-3.67,2.26-4.92,2.05-1.57,2.49-3-.47-4-2.3-1.42-1.12-4.35-2.65-6.11-.06-1,.32-1.85.35-2.79.69-2,.6-4.38,2.64-5.77,2.43-.12,2.94,1.57,3.24,3.45-.09,1.81-.89,3.6-.27,5.23a7.39,7.39,0,0,1,.71-5.29,3,3,0,0,1,2-.8c2.39-.31,5.14-2.12,6.56,1.6a.79.79,0,0,0,1.25.34,1.32,1.32,0,0,0,.63-1.26c-.12-2.57-1.17-4.52-3.73-5.43a2.91,2.91,0,0,1-.62-.89,2.7,2.7,0,0,0-2.26-2.42c-3.27-1-3.56-3.55-1.58-6.33s4.75-3.63,8-3.3a2.48,2.48,0,0,1,2,.81c2.24,3.33,5.8,4.16,9.35,5,.48.12,1.14.27,1.28.69,1.25,3.62,5,6.21,4.45,10.57a2.33,2.33,0,0,1-1,1.28c-3.63,1-4.39,4.93-7.14,6.78-2.33,1.57-2.9,3.78-2.83,6.38.07,2.9,1.28,4.31,4.29,4.42,1.43.05,2.75,0,3.53,1.48.61,1.11.4,1.81-1.18,4,1-.86,2.26-1.61,2.67-2.71,1.91-5.16,6.74-8,9.56-12.43.8-1.24,1.9-2,3.48-1.26,2.45,3.61-.14,6.93-.83,10.24-1.69,8.08-7.24,14.34-11,21.47a4.45,4.45,0,0,0-.84,2,7,7,0,0,1,0,2.1c0,4.71-1.39,9.25-1.72,13.92a4,4,0,0,1-.5,2.14c-2.68,3.59-2.76,7.61-2.07,11.78-1.51,1.8-1.33,3.36.21,5.21a14.6,14.6,0,0,1,3.27,6.52,9.34,9.34,0,0,0,.56,3.64,68,68,0,0,1,5.38,27.23c0,5.92-1.93,11.5-3.26,17.16-.87,3.68-.56,6.49,2.38,9,1.65,1.43,3.33,3.13,2.47,5.77a2.46,2.46,0,0,1-1,.84,3.24,3.24,0,0,1-2.53.24c-5.55-.47-11.09-1.62-16.67-.29-.84.49-1.43,1.41-2.49,1.55a8.18,8.18,0,0,0-2.81.61,2.65,2.65,0,0,1-1.12.06,5.57,5.57,0,0,1-1.52-.61,2.27,2.27,0,0,0-2.88.68c-.92.92-1.91,1.91-3.44,1.64a5.56,5.56,0,0,0-5,2.29,6.08,6.08,0,0,1-2.91,2.08,48.6,48.6,0,0,0-12.41,3.63A176.43,176.43,0,0,0,15,246.4C13.26,247.8,11.13,248.31,9.08,249Z"/><path class="cls-2" d="M94.62,219.34l2.35.26c1.64-1.29,3.67-.53,5.45-1.07,5,.54,9.67.2,13.92-2.93a15.86,15.86,0,0,1,8.46-2.73c4.78-.31,9.23-2.12,13.91-2.88,2.21-.36,4.14-1.7,6-3a8.17,8.17,0,0,1,2.94-1.73c3.15.05,5.51-1.56,7.6-3.72a2.92,2.92,0,0,1,.94-.45c2.29-.23,3.23-1.65,3.33-3.8.4-1.16,1.76-2.45-.66-3.1a1.77,1.77,0,0,1-1.49-2.22c.31-1.11,1.3-1.39,2.31-1.61,1.29-.29,2.76.12,4.24-1.24-5.22-4.32-10.39-8.47-16.61-11.08-3.52-1.48-4.35-2.56-3.83-6,1.08-1.54,3-.89,4.59-1.79-.4-1.56-1.81-2.19-2.93-3a37.18,37.18,0,0,1-7.59-6.48c-2.94-3.62-7.38-3.24-11.39-3.26-2.33,0-2.13,2.34-1.86,4.09.47,3,1,5.9-.94,8.6a2.91,2.91,0,0,1-2.79.71c-2.91-1.1-6-1.45-8.89-2.67-1.82-.79-3.44-1.88-3.43-4.37,0-7,0-7-6.31-8.8-2.66-1.43-2.49-3.75-2-6.18.66-1.22,3.11-1.59,1.79-3.8-.15-.25.17-.69.31-1,.83-2.13,3.61.19,4.27-1.74s1.63-2.67,3.57-2.28c5.08,1.45,10.14.17,15.17-.27s9.92-2,15-2.6c1.19-.13,2.55-.25,3-1.76.88-1.66,2.41-2.07,4.1-2.12a102.87,102.87,0,0,0,16.69-2,8.07,8.07,0,0,1,3-.05,2.19,2.19,0,0,1,2,1.87,2.23,2.23,0,0,1-1.47,2.38,18,18,0,0,1-5.82,1.27c-5.12.3-9.92,1.17-14.53,4-5.7,3.49-12.11,5.75-18.26,8.42-1.48.64-2.34,1.79-3.46,2.72-2.69,1.71-5.82.64-8,1.06,1.65-.66,4.18-.07,6.63-.37,5.73-.71,11.38-2.2,17.19-2.13,1.8,0,3.8-.43,5.17,1.33.18.59.43.58.74,0a3.57,3.57,0,0,1,3.58-.72,29.79,29.79,0,0,0,10.91,3.38c2.69.26,4.48,1.87,4.41,4.61-.07,2.93,1.34,5.19,2.56,7.59a8.35,8.35,0,0,1,.62.93c.55,1.51,1.33,3.06.2,4.62s-2.69.77-4,.61c1.32,1.28,4.95-1.33,4.85,2.11-.07,2.65-3,2.83-5.3,3,1,1.4,4.64,1.38,2.19,4.73,2.71-1.16,4.11-3.65,6.67-4.51,1.71-.58,3.42-2.35,5.08-.51a6.8,6.8,0,0,1,1.31,6.29c-1.05,4.92-4,8-8.51,9.84l-3.87,2.59a3.36,3.36,0,0,0-.45.86,6.47,6.47,0,0,1,.08,1.52,5.53,5.53,0,0,0-.24,1.07c0,4.66-.27,9.33.16,14,.17.35.35.7.53,1,1.7,2.17,4.61,3.58,4,7.13-.17,1,1,1.81,1.85,2.15,1.24.47,1.73-.77,2.13-1.58a11,11,0,0,0,1.14-3.52c.21-1.87,1.26-1.46,2.38-1.12a1.92,1.92,0,0,0,1.36,1.89,1.57,1.57,0,0,1-1.18-1.85,34.83,34.83,0,0,1,13,1.81c.61,4.84,4.28,7.32,7.83,9.68a52.12,52.12,0,0,1,15.36,15.83c.78,1.23,1.37,2.41.11,3.67H147c-.28-.45-.46-1.09-.13-1.4,4.31-4,1.72-9.39,2.72-14,.72-3.35-3.51-5.9-6.65-4.24-2.51,1.32-4.6.33-6.83-.1a2.29,2.29,0,0,1-1.89-2.8,2.42,2.42,0,0,1,2.58-2.22,14.85,14.85,0,0,0,2.75-.28c-3.41,0-7.15,1.34-10.42.7.29-.13,1.47-.49,2,.49,1.22,2.21,3.35,3.19,5.23,4.58,2.06,1.53,2.61,3.58.77,5.81-2.38,2.89-3.75,6.07-2.9,9.92a3.45,3.45,0,0,1-1.47,3.59H84c-1-1-2.37-1.05-3.69-1.18-3.53-1-2.85-4.3-3.83-6.71.76-2.32.67-4.45-1.33-6.17-3.11-2.95-3.36-7-4.12-10.85.52-2.1,3.1-2.14,4-3.93.28-.7.86-.55,1.41-.49C82.47,219,88.56,220,94.62,219.34Z"/><path class="cls-2" d="M69,249H27.81a2.25,2.25,0,0,1,.46-3.8c2-1.2,3.84-2.86,6.11-3.56,3.51-1.09,5.89-3.62,8-6.29,3.16-4,6.45-5,10.82-2.41a37.23,37.23,0,0,0,5.14,2.25,9.58,9.58,0,0,0-1.54-.89c-1.76-1.07-4.45-1.86-3.73-4.43.66-2.35,3.43-2,5.42-2.18,2.83-.22,5.77.21,8.18-1.85,4.6-.09,5.14.68,5.67,5a31.42,31.42,0,0,0,3.72,12.06c1,1.76,3.07,3.63,1.2,6.08h-3c-1.37-1.05-2-2.87-4.12-3.58C69.55,246.52,70.06,248.07,69,249Z"/><path class="cls-3" d="M132.74,249c.17-1.8-.63-3.38-1.06-5.05-1-3.85,1.46-6.67,3.41-9.49,1.5-2.18,1-4.1-1.76-4.77-1.3-.32-2.73.21-3.93-.5-.49-1.44,2-1.4,1.31-2.71-.84-1.48-2,0-3,.05-2,0-3.1-1.45-4.68-2.07.11-.26.2-.65.28-.64,6.37.1,12.62-1.08,18.93-1.7.74-.07,1.9-.67,2.23.57s-1.11,1.1-1.62,1.7c-1.63,1.93-3.79,1.55-5.86,1.41-.82-.06-1.6-.19-1.65.83s.8,1.05,1.6,1c2.37-.2,4.81.45,7.07-1.08,1.58-1.08,2.44,1.88,4.71.93,3.13-1.32,1.58,1.91,2.18,3.16,2.36,4.89-1.21,9.64-.22,14.57.41,2-2.74,2.22-3.72,3.8Z"/><path class="cls-4" d="M66.68,227.43c-.87,1.77-2.53,1.26-4,1.34-2.82.16-5.73-.4-8.89,1.34l9.92,6.82c-4,.16-7.7,0-11.08-2.06-4.62-2.76-5.66-2-9,2-2.12,2.51-3.68,5.92-8.12,6.61-2.73.43-6.52,1.78-7.72,5.51h-15c-.58-1.41.84-2.46.7-3.79,8.06-4.65,16-9.38,24.69-13a136,136,0,0,1,14.86-4.92,3,3,0,0,1,2.46,0c1.56-.43,3-1.46,4.67-1.29C62.3,226.76,65.1,224.4,66.68,227.43Z"/><path class="cls-2" d="M223.78,225.24q10.2,4,20.4,8c4.16,1.62,5.63,5.75,8.25,8.8.88,1,1.65,2.17,2.46,3.25-.49,1.2,1,2.79-.75,3.75a8.26,8.26,0,0,1-2.94-3.33c.48.88,1.36,2.08,0,3.33H238.41a25.78,25.78,0,0,1-4.75-7.91,14.1,14.1,0,0,0-3.55-5.54c-2.69-2.22-3.07-6.15-6.26-8C223.13,227.18,223.15,226.06,223.78,225.24Z"/><path class="cls-2" d="M194,220.23c4.4,1.14,8.88.37,13.32.54a34.67,34.67,0,0,1,4,.6c4.71,2.93,8.61,6.88,12.92,10.32,2.37,2.7,3.62,6.23,6.38,8.63,1.45,2.72,4.56,5,2.49,8.68H222.67a19.23,19.23,0,0,1-5.32-6.55c-2.15-4.66-6.23-7.94-8.89-12.27a9,9,0,0,0-5.82-3.73,47.5,47.5,0,0,1-7-2.55C194.12,223.26,192.8,222.25,194,220.23Z"/><path class="cls-3" d="M194,220.23c.72,2,2.6,2.28,4.26,2.55,8.83,1.43,13.75,7.75,18.12,14.6,2.36,3.7,5.47,7.05,6.27,11.62h-6.75c-4.57-8.45-11.3-14.81-19.36-19.83-2.43-1.51-3.55-4-5.18-6.18-1.3-1.72-.39-2.59,1.24-3.17Z"/><path class="cls-3" d="M223.09,232.57c-4.06-2.41-7.23-5.91-10.86-8.84-.55-.45-.59-1.56-.86-2.36a70,70,0,0,1,12.41,3.88,127.21,127.21,0,0,1,13,17.77,9.52,9.52,0,0,1,1.64,6h-5.25l-3.81-8.08C229.29,237.86,225.87,233.29,223.09,232.57Z"/><path class="cls-3" d="M66.68,227.43l-6.76-.07c-1.3-3.12,2.12-3.05,3.13-4.61,2.42-1.17,4.19-3.93,7.45-3A17.09,17.09,0,0,1,72,224.65c.7,1.29,1.66,2.43,1.61,4.07s0,3,2.09,3.34c1.45.24.48,1.67.77,2.51.92,2,.51,4.33,1.55,6.3,1.74,1.59.21,4.63,2.62,5.92a.55.55,0,0,1,.82.07,2,2,0,0,1,.29.91A2,2,0,0,1,81,249H77.28c-.54-2.36-2.15-4.16-3.31-6.19a22.09,22.09,0,0,1-3.08-11.76C71,227.44,69.3,227.21,66.68,227.43Z"/><path class="cls-3" d="M69,249c-.78-2.2-1.78-4.37-1.14-7.07,2.68,2,7.19,2,6.39,7.07Z"/><path class="cls-1" d="M251.15,249c-.66-2.71-2.68-5.05-2.51-8.89,2.22,3.4,5.11,5.35,5.5,8.89Z"/><path class="cls-2" d="M13.53,245.21c1.2,1.53.14,2.64-.7,3.79H9.08C10.67,247.86,12.7,247.25,13.53,245.21Z"/><path class="cls-4" d="M81,249l-.22-1.77h0a.35.35,0,0,1-.17-.43c3.75-3.29,1.9,2,3.39,2.21Z"/><path class="cls-4" d="M123.27,151.37c5.08-4.6,11.48-6.8,17.54-9.6a49.75,49.75,0,0,0,7.61-3.92c3.56-2.47,7.81-2.27,11.84-2.74a29.37,29.37,0,0,0,7.21-1.6c-3-.9-5.85.58-8.78.73-3.85.21-7.7.5-11.55.74-1.25.08-2.53.05-3.33,1.28-.24,1-1,.94-1.76,1s-1.28-.93-2-.91c-7.41.19-8.85-5.42-10.4-10.79-.44-1.54-1.07-2.19-2.54-1.9a30.49,30.49,0,0,1-5.95.41c-2.89,0-5.15-.93-6.05-3.93-.52-1.75-1.61-2-3.16-1.44-1.75.61-3.19-.27-4.48-1.25-1.11-.84-1.51-3-.62-3.18,3.18-.66.18-2.2.7-3.12,1.72-2.61,4.59-3.15,7.21-3.18,7.65-.09,15-2.33,22.64-2.51,2.84-.45,5.84.67,8.57-.87,1.8-.72,3.81-.49,5.61-1.22,3.71-.08,4.3-.61,3.66-4.06-.54-2.93-.46-5.22,1.75-7.84,3-3.51,1.88-8.18,1.31-12.41-.2-1.46-1.59-2.21-3.1-2.22a6.42,6.42,0,0,1-2.89-.37c-4.57-2.14-6-6.06-2.85-10.66,3.69-5.37.5-10.34-2.85-13.9-1.12-1.19-2.68-1.22-4.19-1.25-2.24,0-4.49.08-6.73-.13-1.48-.13-3.11-.19-3.21-2.31,1.13-1.23,2.7-1.72,4.12-2.46,2.27-1.09,4.47-2.31,6.79-3.27,2.2-.42,4.42-.7,6.15-1.14-1.69.29-3.8.82-5.95,1.1-2.46.9-4.71,2.25-7.06,3.36-1.83,1-4,1.46-5.15,3.5a2.57,2.57,0,0,1-.92.6c-1.07.38-2.12,1-3.3.29a2.65,2.65,0,0,1-1.16-2c.14-1.66,1.33-2.4,2.64-3a7.35,7.35,0,0,0,3.71-1.57c12.84-10,29.82-7.9,41.55.45.91.65,1.81,1.3,2.73,1.93.31.2.61.41.91.64,1.34,1.48,2.65,3,4.1,4.39a99,99,0,0,1,7.73,13,99,99,0,0,1,5.42,14.13c.51,1.69.31,3.54-2,4.13-2-.37-2.68-2-3.09-3.63a22.25,22.25,0,0,0-1.17-4.19,7,7,0,0,0-.61-.92c-.61-1.73-.75-3.66-2.17-5-2.07-4.34-5.25-7.92-8.23-11.82.06,4.16-1.23,8.33.94,12.22,1.22,2.19.67,4.31.07,6.48a3.49,3.49,0,0,1-.74.84,2.3,2.3,0,0,1-1.51.74c-.57,0-1.14.1-1.71.15-8.41,1.32-8.27,1-7.34,10.72q.51,5.3,1,10.59c.28,3,1.71,4.81,4.59,4.67,6.37-.32,12.34,2.93,18.77,1.85,1.9-.32,3.52,1.17,5.41,1.24,3.35.39,2.56,3.37,3.37,5.35a47.68,47.68,0,0,1,2.27,8.75,25.73,25.73,0,0,0,3.62,11.87c-.87,3.46,1.64,6.49,1.27,9.89a15.3,15.3,0,0,1,.15,4.48c-.45,2.58-1.62,4.44-4.54,4.56a9.85,9.85,0,0,1-1.8.13,23.07,23.07,0,0,0-9.78-2.68,17.58,17.58,0,0,1,8.65,2.39c.76,1.06.34,2.21.28,3.34a17.77,17.77,0,0,1-5.69,10c-1.87,5.34-4.36,10.57-5.42,16.07a12,12,0,0,1-7.35,9.43,1.07,1.07,0,0,1-1.37.68c-3.12.82-5.58,3.33-9,3.5,3.66-2.51,5.09-6.45,6.72-10.3.76-1.81-1.26-3.22.42-5.43-5.6,1.65-9,6.9-14.75,4.57.46-1.19,2-.61,2.81-1.76-3.5-.29-4.33-3.46-6.4-5.53,2.92-1.75,6.2,3.38,8.87-.88-2.75-1.38-6,.36-9-1.19,1-1.14,2.85-1.57,2.28-3.41,1.44,0,1.52,1.27,2.34,1.54,1,.34,2.14,1.38,3.06.26s.12-2.29-.65-3c-2.08-2-1.77-5.48-4.52-7a.87.87,0,0,1-.11-1.33c4.13-3.48-.63-3.63-1.88-4.13-3.54-1.43-7.31-2.27-11-3.35,1.21-2.36,3.53-1.83,5.53-2.15,4.38.79,8.84.38,12.86.65-3.86-4.78-9.53-2.14-14.6-2.75-8.08.89-16.12,2-24.12,3.47C127.51,152.43,125.22,152.91,123.27,151.37Z"/><path class="cls-5" d="M127.56,49.66c1.19.44,1.91-.74,2.95-.84a11.63,11.63,0,0,0,8.89,3.75c3.71-.07,6.8.72,7.84,5.87.7,3.49,1.67,6.48.36,9.94-1.77,4.7-2.57,5.38-7.58,5.44a20.91,20.91,0,0,1-3.49-.21,21,21,0,0,0,8.52.87c4-.57,7.46,2.23,11.29,3.12a1.54,1.54,0,0,1,.95,1.11c1,3.75,3.1,7.7.45,11.31-2.41,3.29-2.65,6.7-2.37,10.43.16,2.16-.14,4.1-3,4-2,1.6-4.32,1-6.54,1.26-2.46-.51-2.45-.54-1.91-3.12.42-2.05,1.53-4.37-1.72-5.22-1.43-.55-2.2-2.24-3.94-2.26a5.61,5.61,0,0,0-1.87-.87c-6-4.63-10.37-.3-15.06,2.81,2.1-1.18,3.63-3,5.85-3.78,2.73-1,4.28-.35,4.37,2.52.09,2.51,1.18,3,3.25,2.79,1.7.72,3.4.33,5.09,0,1.47-.35,2.45.57,3.5,1.32,1.24,2.28-.24,3.55-1.77,4.85-.94.79-2.33.72-3.11,1.75-.66.55-1.19,1.44-2.17,1.31-6.42-.84-12.52,1.8-18.88,1.65a24.17,24.17,0,0,0-9.69,2.27,2.26,2.26,0,0,1-2.5,2.19,4,4,0,0,0-4.21,3.34c-.7,2.5-2.33,3.09-4.84,1.65-2.23-1.27-4.32-2.89-6.87-3.57.07-3.83,2.47-6.73,4.46-9.54a49.76,49.76,0,0,0,7.39-14.85c.95-3.27,1.51-6.64,2.24-10l0-.49c.25-1.65,1.87-2.77,1.76-4.56.11-1.15,1-1.75,1.69-2.55,4-6.71,7.78-13.62,14.29-18.43,1.5-1.1,2.34-2.85,3.54-4.26a4.37,4.37,0,0,1,2.38-.94Z"/><path class="cls-5" d="M146.61,207.62c-2.69,2.76-6,4-9.75,4.93-8.05,2.07-16.69,2-23.91,7.33-3,2.21-7.26.2-10.94.38a11.93,11.93,0,0,0-4.52-1c-.82-1.25-1.36-2.88-2.49-3.67-5-3.51-5.1-7.74-3.23-13.1,4.5-12.87,3.19-25.72-.94-38.48-.85-2.63-2.32-5.31-1.22-8.28,2.69,0,3.16,2.6,4.49,4.07,1.84,2,3.57,4.15,5.39,6.2a7,7,0,0,0,3.44,2.56,14.67,14.67,0,0,1,6.76,4.69c1.22,3.65,4.24,6,7,8.07,5.5,4.17,11,8.46,17,11.86a16.72,16.72,0,0,1,4.23,1.47,9,9,0,0,1,1.35.77,3.08,3.08,0,0,1,1.24,1.74c.65,3.09,1.55,6,4.68,7.59C146.37,205.34,146.5,206.49,146.61,207.62Z"/><path class="cls-2" d="M126,51.48c.26,1.94-1.4,2.58-2.53,3.33C116.16,59.6,112,66.88,107.76,74.12c-2.42.47-3.44-.34-2.51-2.2,2.22-4.44,4.17-9.12,8.11-12.42,1.71-1.42,2.51-3.38,3.62-5.16.77-1.25,0-1.81-1.09-2.17a2.61,2.61,0,0,1-.91-.5c-.58-.58-.45-1.4-.72-2.07-1.72-4.29-1.74-4.29,2.12-6.93a1.3,1.3,0,0,0,.3-2.18,6.14,6.14,0,0,0-2.05-1.33,4.63,4.63,0,0,0-.91,0l-.44.09c-.3.09-.6.16-.91.23a2.69,2.69,0,0,1-1,0,7.55,7.55,0,0,1-2.82-1.22,2.71,2.71,0,0,1-.6-.92c1-2.35-1.8-4.54-.32-6.93a2.84,2.84,0,0,1,.95-.73c3.36.3,6.78.25,10,1.47.39.26.5.76.84,1-.23-1.46-2.4-1.3-2.33-2.95a2.11,2.11,0,0,1,.35-1c4.41-1.27,5.48-.86,8.4,3.25.95,1.28,2.71,2.15,2.16,4.19.11,1.3.07,2.61.15,4,.41-1.94,2.84-1.76,3.45-3.45.62-2-1-2.38-2.2-3.11a16.45,16.45,0,0,1-1.81-.34,3.29,3.29,0,0,1-2-1.52,7.7,7.7,0,0,0-5.38-3.67,15.81,15.81,0,0,1-11.41-9.82c-.14-1.32-1.58-2.54-.35-4,.06-.07.16-.14.23-.23a4.4,4.4,0,0,1-.52.39c-2.59.2-3-1.66-3.38-3.53a30.34,30.34,0,0,1,10.05-1c2.81.26,5.79-1.5,8.89-1.08,4.22.7,8.57.51,12.69,1.89.7.24,1.45.41,1.82,1.15,0,1,.73,1.93.56,2.84-.61,3.2,1.26,4.39,3.78,5.06,0-.05,0-.05,0-.09-3.18-1.42-3.22-4.55-4.14-7.19.56-2.6,3.18-1.78,4.69-2.82,2.75-.55,5.51-.1,8.28-.1,1.47,2.72,3,5.41,5.51,7.34a5.71,5.71,0,0,0,1.33.54,2.7,2.7,0,0,1,.85.42,3.13,3.13,0,0,0,3,.94,44.29,44.29,0,0,0,12.37,6.43c2.52.8,4.1,3.17,5.87,5,1.5,1.55,1,3.32-1.29,4.38-3.21,1.48-3.71,3.6-1.78,6.44,2.32,3.4,2.22,4-1,6.66-5.47-3.14-10.74-6.41-17.13-7.87-10-2.29-18.65,0-26.74,5.7a16.26,16.26,0,0,1-3.56,1.95c-1.4-1.12-2-.67-2.08,1l.83,1.61v-.09A5.92,5.92,0,0,0,126,51.48Z"/><path class="cls-3" d="M192.76,81.45a3.54,3.54,0,0,0,.12-2.9c-2.89-9-5.54-18.09-11.75-25.56a8.27,8.27,0,0,1-.87-1.64,4.17,4.17,0,0,1-.4-2.83c.7-2.25,7.61-7.82,10.2-8.13,1.88,1.23,4.11,2.09,4.9,4.51,1.91,4.22,5.33,7.24,8.4,10.53,2,2.9,2.82,6.29,3.78,9.61.86,3-.09,4.58-3.26,4.68-1-1.69-2.19-2.47-4.12-1.2a2.92,2.92,0,0,1-3.61-.34c1.15,1.56,2.33.94,3.48.45a3.27,3.27,0,0,1,4.23,1.13c.22,3.24,2.64,5.21,4.86,6.75,5.22,3.61,7.71,9.34,11.57,14,1.12,1.35,1,3.74,1.43,5.65-2,1.78.15,4.38-1.26,6.27L219,103.63c-1.41.72-2.87.11-4.33,0a9.17,9.17,0,0,0,.39,5.86c1,2.76-.25,3.9-3.15,3.48-1.84-.26-3.33-1.37-5.17-1.78-2.39-.52-4.25-.3-6,1.24a2.3,2.3,0,0,1-1.48-.57c-.78-1.62-.39-3.93-2.74-4.61-2.88-1.9-2.38-5.07-3-7.83-.51-2.11.62-4.12.35-6.25a8.15,8.15,0,0,0-1.56-4.46,12.82,12.82,0,0,1-.44-6.33A2,2,0,0,1,192.76,81.45Z"/><path class="cls-4" d="M104.85,10.43c2.22-.09,2.18,2.63,3.91,3.15l0,0c0,1.45,1,2.49,1.51,3.74-1.2,2.29-3.13,3-5.59,2.64-1.48.27-2.45-.75-3.54-1.44a6.73,6.73,0,0,0-3-.74c-.62,0-1.23,0-1.85-.07-5.29-.31-5.48-.05-3.76,5a3,3,0,0,1,0,1.46c-.23,2.3-2.34,2.48-3.87,3.31-.4.28.37.52,0,.15-.11-.13,0-.22.22-.3,2.56-.75,5.26-.66,7.82-1.42,1.59-.47,3.52-.41,4,1.55s-1.31,2.69-2.87,3.25a9.21,9.21,0,0,1-2.57.26,58.67,58.67,0,0,1-9.07,2.79c-1,.17-2,.74-2.87.4-3.48-1.37-6,.68-8.75,2.16-1.29.87-2.54-.08-3.8-.09-2-.23-2,2.33-3.63,2.76,1.68-.23,2.74.93,4,1.59,2,.44,4,1,6.08,1.25a3.63,3.63,0,0,1,1,.09c.5.17,1,.31,1.53.45,1.82.71,3.85.88,5.47,2.11,1,1.16,2.29,2.23,1.32,4s-2.83,2.44-4.71,2.91a10.28,10.28,0,0,1-1.11,0c-5.51-1.87-10.28-5.49-16-6.9-1.52-.38-3.29-1.43-4.52.12s-.63,3.68.64,5.13c2.14,2.42,2.14,5.14,1.69,8a3.21,3.21,0,0,1-.42,1c-.22.28-.46.55-.7.81-2.35,2.4-2,5-.5,7.64a2.41,2.41,0,0,1-.64,1.65,3.21,3.21,0,0,1-1.72.69c-1.6-.21-3.47,0-3.73-2.34a47.9,47.9,0,0,0-1.33-13.35c-2.84,1.25-2.31,4.54-1.88,5.86,1.07,3.23,0,5.71-1,8.43a2.05,2.05,0,0,0,.08,1.09c.12.33.22.66.32,1a3.47,3.47,0,0,1-.42,2.52c-1.68,2.16-1.49,4.46-1.21,7,.38,3.42,0,6.31-3.94,8.56-2.74,1.57-6.54,3.13-7.64,7.12-.34,1.23-1.75,1.73-3,.62,1.44-5.93,3.07-11.82,4.27-17.8C41.21,67.64,45.73,58,50.58,48.42c1.27-2.5,3.07-4.58,1.5-8.29C50.75,37,54.15,34.06,57.29,33c4.56-1.49,8.65-4,13.22-5.43a2,2,0,0,1,1.57,2.16c0-.08.09,0,.1,0,.39-1.06-.15-2.4,1.12-3.08.76-.42,1.1-1.26,1.75-1.79,1.17-3,3.53-4.36,6.37-5.58,3.91-1.67,7.73-3.5,10.92-6.63,2.13-2.09,5.57-1.45,8.45-1.93C102.12,10.5,103.5,10.52,104.85,10.43Z"/><path class="cls-3" d="M116.26,51.05a18.64,18.64,0,0,1,2.24.08c2.62.38,2.8,1.33,1,3.31A76.28,76.28,0,0,0,107,72.05c-.59,1.21-1.33,2,.75,2.07l-1.54,2.2c-1.42,1.26-1.91,3.07-2.74,4.68l-.06,0c-2.72,2.69-3.52,7-7.87,8.51-1,.34-1.6,3.66-2.55,5.53-1.34,2.61-6.14,4.44-8.6,3.43-.83-.34-1.79-.52-1.36-1.75s1.06-.81,2-.43,2.27.54,2.86-.85c.18-.43.4-1.1.2-1.39-.75-1.08-1.84-.29-2.72-.2a5.44,5.44,0,0,1-5.51-8A26.43,26.43,0,0,1,90.75,73.53l.51.28a2.6,2.6,0,0,1,.51,2.69,4.53,4.53,0,0,1-.48,1c-1.48,1.9-3.3,3.55-4.76,5.6,4.94,1.34,5.6.91,5.87-3.65.11-1.82.11-1.82,2.14-4.11-.37-1.44-2.24-.86-2.81-2l-.21-.49C92,71,90.31,70.23,89.45,69.1S86.58,67.21,87.53,65a1,1,0,0,0-.94-1.33c-4.2-.07-6.87-2.77-9.6-5.43-1.49-1.44-6.15-.43-6.91,1.42-.13.33-.21.68-.35,1-.43,1-3-.17-2.2,2.06.59,1.59,2.13,1.45,3.49,1.56.85.06,1.93-.08,2.17,1a1.88,1.88,0,0,1-1.46,2.26c-2.81,1.68-5.42.61-8-.61a13.78,13.78,0,0,1,1.76-13.53c.38-1.39-.43-2.26-1.36-3.08-1.11-1-1.54-2.1-.68-3.47,2.74-2.11,4.89-.69,6.83,1.28,1.6,1.63,3.15,3,5.74,2.78,1.6-.16,2.72.9,3.46,2.38,2.47,4.95,2.49,4.94,7.78,2.76a9.49,9.49,0,0,1,1.08-.28c4,.47,7,2.76,10,5.23.9-3.22.81-3.07-1.67-4.64-2.09-1.33-5.41-.82-6.2-4.1a6,6,0,0,1,.18-2.88,2,2,0,0,1,1.88-1.15c1.21.1,1.45,1.17,2,2,.71,1.06,1.88,1.59,2.86.85,2.16-1.63,3.86-.56,5.72.48a15.67,15.67,0,0,0,5.37,2.16,3.88,3.88,0,0,1,3.16,4,2.16,2.16,0,0,1-.05.25s.07,0,.1,0c.49-.66.91-1.32,1.37-2C113.45,53.9,114.06,52,116.26,51.05Z"/><path class="cls-3" d="M202.22,150.45c4.08-1.65,3.44-5.51,4.08-8.76,2-2,3-3.84,0-5.89-1.24-.85-.67-2.89-2.06-3.79-1.36-3.69-2.77-7.37-3.19-11.32a8.05,8.05,0,0,0,1.9-5.14c.06-1.51.22-3,1.6-4,2.14-.49,4.25-1,6.23.56a3.57,3.57,0,0,0,2.84.51c2.48-.48,3.63.73,4.33,2.82-1.38,4.24.38,7.56,2.95,10.77s2.62,7.34,4.06,11c1.05,1.33,3,2.57,2.22,4.42-1.3,3.19-2.7,6.55-6,8.24s-6,4.22-9.46,5.63a9.89,9.89,0,0,1-.81.64c-2.59,1.67-3.49,5.36-6.88,6.16,1.91,3.39,1.81,4.1-1,5.86-3.15-.47-5-3.59-8.21-4,.3-3.81,2.7-6.61,4.63-9.64C200.83,153.47,200.89,151.53,202.22,150.45Z"/><path class="cls-2" d="M89.33,115.32c3.14-.85,5.1,1.6,7.43,2.81,2,1,2.95,0,2.64-1.34-1.35-5.73,3.25-4.12,5.81-4.89.74-.22,1.71.24,2.54-.19,1.79.88,3.71-.37,5.52.32.8.3,1.86.47,1.78,1.58s-1.1.68-1.78.77c-1,.11-2,.23-2.94.38s-2.25-1.35-2.38.35c-.11,1.53,2,1.85,2.84,1.66,2.86-.65,5.42-.53,7.79,1.39.45,1.63-2.47.09-1.83,1.86a3.5,3.5,0,0,0,3.18,2.24c3.4.47,6.7-.68,10.07-.56,2,.06,4.37-.15,1.92,2.92-.41.51-.73,1.76-.45,2,2.64,2.79,2.61,8.14,7.93,8.35a2.25,2.25,0,0,1,2.31,1.56c0,1.52-1.27,1.32-2.16,1.4-9.27.88-18.4,2.85-27.67,3.71a5.69,5.69,0,0,1-4.93-5.54,6.5,6.5,0,0,0-3-5.3c-2-1.16-3.24-2.52-3.13-4.89.07-1.49-1-1.77-2.11-2.13a27.8,27.8,0,0,0-3.7-2.44,10.54,10.54,0,0,1-5.4-5.14Z"/><path class="cls-5" d="M89.65,116.25a47.47,47.47,0,0,1,10.27,6.13c1.79,5.87,2.9,11.83,2.29,18a17.71,17.71,0,0,0-.37,6.84,2,2,0,0,1-.2,1.19c-.58,2.25-.47,4.37,1.18,6.2a2.54,2.54,0,0,1,.48,1,27.37,27.37,0,0,1-2.23,9.5,2,2,0,0,1-1,.52c-2.92-.78-4.15-3.46-5.79-5.5-3.7-4.59-7.72-9.06-9.08-15.09.63-2.67-1.09-5.06-.94-7.65.07-1.2-1.06-3.1,1.72-3.1,1.35,0,1.23-1.72,1.4-2.72C88.21,126.51,88.9,121.38,89.65,116.25Z"/><path class="cls-3" d="M38.54,146.53c1.61,1.82-.11,4.22,1,6.08.83,1.37,1.16,4,3.88,1.89.69-.53,2-1,2.55.28s-.65,1.78-1.58,2.11c-3,1.07-2.33,3-1.21,5,.6,1.07,1.55,2,2,3.1.76,1.73,2,1.86,2.56.34.84-2.17,2-.35,3.56-1.54-1.62,2.77-.37,5-.61,6.22-.76,3.92,4.67,5,3.12,9.25-.78,2.16,1.5,5.45,2.45,8.2.26.76,1,.45,1.59.51,1.8.15,2.05.91,2,2.89-.09,2.46-1.62,4.41-1.47,6.92.13,2.22-2.05,3.53-3.92,3.92-2.06.43-1.92-1.71-2.31-3.09-1.34-4.72-4.28-9-4.15-14.12,2.59-2,1.54-4-.38-5.38-3.81-2.79-6.55-7.06-11.57-8.21-1.63-.38-2.2-2-1.89-3.62.43-2.26,1.87-3.35,4.49-2.82-2.13-2.27-6.7-2.88-6.41-4.92.64-4.47-4.13-8.43-.76-12.81a3,3,0,0,1,.91-.83C34.55,145.29,36.7,144.29,38.54,146.53Z"/><path class="cls-2" d="M209.91,153.79c4.31-.61,6.45-5.18,10.84-5.89a3.55,3.55,0,0,0,2.57-3.66c0-.45,0-1.28.15-1.33,3.62-1.12,2-3.58,1.51-5.73,4.94,1.77,5,2.85,3.35,7.5-1.72,5-5.27,9.1-6.08,14.39-.89.26-1.21,1.35-2.16,1.51-.34.16-.74-.26-1,.12,0,0,.27.3.41.5.79,2.44-1,4.11-1.76,6.1-.82,1.27-2.38,1.73-3.27,2.92-1.2,1.39-3.72,2-2.73,4.66a20.27,20.27,0,0,1-4,6.83c-2.76,3-5.5,6-8.24,9a1.6,1.6,0,0,1-.89-1.77l2.24-3.8c1.66-3.27,2.57-6.9,4.69-9.94a.71.71,0,0,1,.6-.33.53.53,0,0,0-.59.26c-.69.43-1.35.61-1.93-.15l.21-1.86c1.31-.92,1.58-1.79-.13-2.55-.69-.71-1.32-1.43-.6-2.48,1.94-3.35-1.62-6-1.12-9.72,1.59,2.45,2.78,3.32,4.08,0,.72-1.8,2.59-3.14,3.94-4.69Z"/><path class="cls-2" d="M56.33,66.86C56,69,57.71,68,58.56,68.35c.59,3.05-1,4.21-3.72,4.37,0,0-.19,0-.19,0s.05.19.1.21c1.94,1.88,2,3.66-.14,5.38A5.37,5.37,0,0,0,53,80.94c2.86-4.28,4.17-5,7.06-3.63l-.58,2.2a16.46,16.46,0,0,1-2.63,7.16c-1,1.67-.6,2.7.7,3.76,1,3-.72,5.56-1.8,8s-5.5,1.17-7.48-1.75c-.69-1-.94-2.31-2-3.09a3.78,3.78,0,0,0-.74-.07c-1.47,1.78-1.78,3.28.83,4.23,2.85,1,3.88,3.18,3,5.94s-3.09,3.67-5.91,2.53c-2.48.24-4.78,1.64-7.38,1.16a3,3,0,0,1-1.11-.23,3.91,3.91,0,0,1-1.85-2.09c-.54-3.2.9-6,1.68-9,.74,0,1.6,0,1.82-.93.69-2.93.92-6.15,5.33-5.74.73.07,1-1.28,1.31-2.09.46-1.11.75-2.21,2.63-1.77s2.4-1.82,2.07-2.67c-1.81-4.72-.13-8.87,1.58-13.07l0,0c-1.07-2-1.59-3.94.66-5.59a1.71,1.71,0,0,0,.5-2c-1.76-5.12.39-9.3,3.15-13.43,1.14.89.55,2.13.85,3.13C54,57,54.14,62.05,56.33,66.86Z"/><path class="cls-2" d="M32.29,147.76c.06,3.26-.36,6.58,2.49,9.2,1.18,1.09-.69,1.7-1.29,2.8,5.09-.19,6,4.34,8.51,7.08a.87.87,0,0,1-.14,1.32,2.3,2.3,0,0,1-2.45.35c-1.27-.44-.87-2-1.75-2.7-2.73,2.17-2.62,2.47.26,3.94,2.52,1.29,5.11,2.09,7,4.92,1.56,2.3,5.49,3,6.32,6.47a14.43,14.43,0,0,0,2.74,6c-2.66-.69-3.89-2.72-6-2.58h0c-2.15-2-4.86-3.3-6.53-5.87a2.61,2.61,0,0,0-3.22-1.21c-5-2.84-9.34-6.29-10.51-12.41.08-1.75,1.69-3,1.57-4.83,0-.49-.09-1-.11-1.47-.42.23-.48.71-.74,1-1.66,2.19-2.67.09-3.9-.58L20,151.12C22.82,146.25,28.88,144.59,32.29,147.76Z"/><path class="cls-4" d="M32.29,147.76c-4.84-1.62-8.15,2.33-12.27,3.36a5.89,5.89,0,0,1,.28-5.6c.06-.48,1.41-.2.67-1.14.55-5.68,3.2-10.81,4.34-16.3a57.71,57.71,0,0,1,5.3-15.29c1.37-2.59.64-5.53,2.5-7.73.84-.07,1.67-.09,2.21.74l0,0a15.14,15.14,0,0,0,7.87-1.43c1.21-.77,1.43,0,1.5,1,.08,1.15-.72,2-1.05,3-2.48,2.34-3.54,6.69-8.56,5.92,1.52,5.63-3.22,9.46-4.06,14.47-1.24,1.52-1.44,3.38-1.73,5.21-.84,1.28-.68,2.88-1.29,4.23,2.88-.65,4.57.78,4.71,3.47.09,1.8.59,3.69-.07,5.51C32.52,147.37,32.41,147.57,32.29,147.76Z"/><path class="cls-3" d="M27.38,133.28c.42-2-.14-4.44,2.6-5.28.65-.23,1.89.3,2-.33.58-5.85,4.38-9.94,7.57-14.38,1.34-1.87,3-3.14,5.36-2.17s4.5-1.77,6.79-.12c.24,1.83-.86,4.56,3.22,2.43,1.84-1,5.09-.16,7.68-1.09a4.92,4.92,0,0,1-5.16,3.26c-3.1-.15-6.14-.36-8.35,3-.77,1.17-3.68,1.11-5.64,1.29-2.69.26-4.65.81-3,4.08.43.83.38,1.38-.35,1.89a2.09,2.09,0,0,0-.29,3.3c2,2.3,1.42,4.88,1.25,7.45a10.61,10.61,0,0,1-12.31.51C27.2,136.2,27.07,134.84,27.38,133.28Z"/><path class="cls-3" d="M42.07,108c.3-1.24,2.81-1.83,1.1-3.68,2.15-2.71,2.51-.28,3.14,1.49,1.72-1.69,2.17-3.31,1.26-5.24s-2.29-.89-3.56-.68c-1.93.32-2.57-.49-2-2.32.22-.71.82-1.47.68-2.09-.72-3.3,1.4-4.11,3.86-4.72l0,0c2.64,1.53,2.33,5.6,5.68,6.57.69.2,1.26.8,2.38.49-1-2-2.84-4.48,1.52-4.76.36,0,.62-1.52.93-2.33.14-.1.27-.21.4-.32,2.69-.31,1.33,2.25,2.25,3.18l.34.93c.55,1.06,1.86,1.43,2.32,2.56a3.63,3.63,0,0,0,.54.76,2.94,2.94,0,0,1,.65.62c.05.14.1.28.14.43l1.59,5.36,0,0c-1.14-.22-2.32-.34-3-1.48h0A25.67,25.67,0,0,1,59.5,102c-1.87-.76-2.81-.47-3.41,1.74s-1.6,4.44-4.24,5.12C48.75,111.84,46.14,111.63,42.07,108Z"/><path class="cls-3" d="M176.24,47.27c.22-1.72,2-3-.77-5.1-2.41-1.84-1.43-6-.6-9.18.45-1.69,1.75-.81,2.75-.45.75.27,1.5.41,2-.38a1.55,1.55,0,0,0-.38-2c-1.48-1.3-2.63-3.46-4.59-3.65-5.51-.53-9.3-4.12-13.57-6.91l-.44-.15c-.44-.18-.9-.29-1.33-.49a5.49,5.49,0,0,1-1.11-.86l0,0a1,1,0,0,0-1.49-.24c-2.17-.26-5.51-3.81-5.46-5.84,0-1,.11-1.94.17-2.91l12.87,7.31c.22.77.92,1.1,1.45,1.6l0,0c1,1.39,2.82,1.44,4.15,2.29,4.05,1.89,7.15,4.95,10.06,8.23.41.48,1.11.36,1.55.79l0-.07c4.68,2.54,2,6.6,1.75,9.93-.18,2.61-1.61,5.14-3.23,7.38-.81,1.13-1.75,1.76-3.11.84Z"/><path class="cls-2" d="M42.07,108a5.87,5.87,0,0,1,6.8,2.16,6.92,6.92,0,0,0,.58-.79c.55-1.21-1.57-3.32.79-3.69s-.39,2.77,1.61,3.11c-.07.73-.13,1.45-.19,2.18-2.77,1-5.33,3.36-8.62,1.38a1.38,1.38,0,0,0-1.25.53c-1.14,3-4.29,4.72-5.27,7.85A6,6,0,0,1,34.74,124c-1.68,1.26-1.59,2.63-.61,4.2.52.84,1.18,1.67.83,2.75-.22.67-.17,1.61-1.07,1.78-.7.12-1-.56-1.37-1.07L30,128c2.6-6.18,2.6-13.41,7.69-19.58.38,2.42-1.59,3-1.27,4.75C39.33,112.51,40.12,109.58,42.07,108Z"/><path class="cls-2" d="M176.87,47.4c3.55-3.43,5.12-9.51,3.06-12.24,5.39-.74,1.54-3.79,1.53-5.91,2.86.3,4.6,1.65,5.24,4.67a14.81,14.81,0,0,0,3.36,6.47c-2.86,4-7.61,6.34-9.8,11A5.71,5.71,0,0,1,176.87,47.4Z"/><path class="cls-2" d="M218,115.44c-4-2.81-8.44-3.34-13.12-3-1.45.5-2.92,1.08-3.84-.83,1.4-2.19,6.55-2.81,9.4-1,1.06.7,2,1.46,3.55,1.09-.06-2.47-3.08-4.21-1.8-7.08.36-.81-2.81-1.91-.46-3,1.54-.73,3.64-2,5.23.44.44.67,1.37,1,2.07,1.52Q218.49,109.53,218,115.44Z"/><path class="cls-2" d="M27.38,133.28c.48,1.56,1.65,2,3.11,2.61,3.54,1.54,7.07.36,10.57.74,0,.48.09,1,.13,1.43a2,2,0,0,1-.57,1.55c-3.33.62-3.84,2.45-2.31,5.25.24.46,1.61.93.23,1.66l-5.92.65c-1.27-1.38-4.7-1.92-1.72-4.93.76-.76,0-1.86-.82-2.55-1.31-1.1-1.9.11-3,1.35C27.46,138.11,25.54,135.72,27.38,133.28Z"/><path class="cls-3" d="M53.29,72.06c2.48-.2,3.85-2,5.27-3.71l1.48,0a2.36,2.36,0,0,1,2.05,1.54,1.52,1.52,0,0,1-.52,1.47,8.22,8.22,0,0,1-1.55,6c-3.07.16-4.61,2.47-5.64,4.77a6.43,6.43,0,0,1-3.16,3.29c-1.07-3,0-7.16,2.34-8.64,2.8-1.78-.69-3.1-.25-4.68Z"/><path class="cls-4" d="M61.57,71.34,61.2,70c-.71-2.39-.23-4,2.63-4.12,2.66.47,5.37.67,7.9,1.71l.33.77c1.31,1.58,1.13,3.19-.66,4C69.86,73,69,74.45,67.53,75l-2.18.13a1.23,1.23,0,0,1-1.57-.09C63.05,73.83,62.31,72.59,61.57,71.34Z"/><path class="cls-3" d="M67.53,75c-.09-1.72,1.41-2.22,2.41-3,1.19-1,2.26-2,2.12-3.67,3-1.9,4.25-1.38,4.65,2.47.23,2.18,1.22,4.12-.12,6.3s-4.12,1.21-4.16.44C72.22,73.37,69.74,74.68,67.53,75Z"/><path class="cls-3" d="M57.05,90.78c-1.43-.09-2.76,1-4.46.5,1.58-4.49,3.26-8.68,6.85-11.77,3.72.6,1.45,3.59,2.15,5.39,1.75,3.34.75,5.31-2.85,5.54a2.65,2.65,0,0,0-1.72.37Z"/><path class="cls-2" d="M85.2,145.09c4.07,7.26,8.6,14.18,14.52,20.1.12.91-.33,1.31-1.21,1.3q-4.44-5.37-8.89-10.75c-1.5-2.25-2.45-4.81-4.32-6.89C84.66,148.15,82.79,146.37,85.2,145.09Z"/><path class="cls-3" d="M24.6,159.21c1.36.33,2.56.67,3.06-1.34.37-1.47.72-3.13,2.55-4.18.93,2.85.31,6,2.15,8.45.46.63-.3,1-.91,1.25-1.24.51-2.45,1.1-3.67,1.65Z"/><path class="cls-3" d="M94.62,219.34c-6,4.51-12.13.85-18.21.33C82.45,217.73,88.53,218.32,94.62,219.34Z"/><path class="cls-3" d="M67.61,93c2.55.23,5.25-.46,7.58,1.11a2.29,2.29,0,0,1,1,1.4c0,.65-.69,1-1.3,1.06-3.8.54-7.3,2.5-11.24,2.36l-.27-.31a2.13,2.13,0,0,1,1.47-2.86A6.3,6.3,0,0,0,67.61,93Z"/><path class="cls-2" d="M57,90.81c2.33-1.35,4.84-2.55,4.57-5.91.53-.6,1.64-1.09,1.79-.38.65,2.89,2.95,2.74,5.62,2.86-2.83,3.25-7.73,2.34-9.3,6.27C57.48,94,59,90.76,57,90.81Z"/><path class="cls-3" d="M38.29,177.45c2.36-2.8,3.8-3,4.83,0s4.61,3.83,4.92,7.07C43.52,183.92,41.15,180.34,38.29,177.45Z"/><path class="cls-2" d="M203.36,55.43c-1.49.77-2.33-.13-2.94-1.27a3.56,3.56,0,0,0-2.07-2c-4.37-1-3.47-4.3-3.39-7.29C198.83,47.55,201.21,51.4,203.36,55.43Z"/><path class="cls-2" d="M67.61,93c.29,3.13-2.17,4.21-4.19,5.62l-.83.37a.62.62,0,0,1-1,0c-.28-.41-.55-1.17-.83-1.18-4.73-.15-1.85-1.85-.68-3.2Z"/><path class="cls-4" d="M143.17,9.22c-1.07,1.61-3.19,1.58-4.45,2.88-.34.47-.58.42-.73-.14-4.47-2.25-9.54-2.09-14.2-3.58A35.77,35.77,0,0,1,137,9.56C139.21,10.17,141.09,8.62,143.17,9.22Z"/><path class="cls-3" d="M203.56,175l2.63-1h0c-.86,4.17-1.78,8.31-5.38,11.16a7,7,0,0,1,1.5-7.5A11.08,11.08,0,0,0,203.56,175Z"/><path class="cls-3" d="M198.55,189l.89,1.77c-2.57,2.51-5.6,4.31-9.57,6.62C191.49,192.21,196.37,192,198.55,189Z"/><path class="cls-3" d="M69.71,103.44c2.16-.39,1.84,1.43,2.37,2.54.73,1.53-.55,1.34-1.25,1.42a3,3,0,0,1-3.55-2.46C67,103.31,68.9,104,69.71,103.44Z"/><path class="cls-3" d="M63.78,75.08l1.57.09c-.75,2.45-1.29,4.76,1.41,6.58a1.83,1.83,0,0,1,.12,2.92c-1.22.78-2-.47-2.44-1.52C63.4,80.54,63.63,77.8,63.78,75.08Z"/><path class="cls-2" d="M63.05,222.75c.13,2.33-2.92,2.51-3.13,4.61l-4.38-.1c2.05-1.68,3.76-3.79,6.27-4.86A.93.93,0,0,1,63.05,222.75Z"/><path class="cls-4" d="M217.55,167l1.53-5.51c-.14-.85,0-1.52,1-1.72l2.16-.74c-.92,3.58-3.7,6.37-4.3,10.09C216.1,168.78,217,167.88,217.55,167Z"/><path class="cls-3" d="M217.55,167c.13.7.27,1.41.4,2.12-.08,1.36-1.11,2-2.11,2.54-.88.21-1.75.38-2.45-.42a1.54,1.54,0,0,1-.1-1.51C213.4,166.81,215.17,166.45,217.55,167Z"/><path class="cls-4" d="M72,224.65c-2.8-.93-3.33-2.55-1.49-4.89a1.06,1.06,0,0,1,1.22.54h0a5.16,5.16,0,0,1,3.27-.14C74.81,222.2,73.38,223.41,72,224.65Z"/><path class="cls-3" d="M74.42,27.07c-1.11,2.05-1.75,4.42-4,5.66a1.42,1.42,0,0,1,.18-1.84c1-1.12.47-2.2-.08-3.29C70.8,26,72,25.67,73.34,25.4,74.2,25.63,74.27,26.37,74.42,27.07Z"/><path class="cls-5" d="M167.94,214.91l-.86-.51a114.53,114.53,0,0,1-.06-15.61l0-.8a1.14,1.14,0,0,1,.08-1.41,2.9,2.9,0,0,0,.71-.15Q167.9,205.67,167.94,214.91Z"/><path class="cls-3" d="M179.65,218a8.8,8.8,0,0,0,2.45,1.56c2.66.61,2.18,2.1,1.07,4.48-.69-2.75-4-3.1-3.7-6.08Z"/><path class="cls-2" d="M220.46,102.4c-.28-1.45-.63-2.89-.82-4.35s.29-2.47,2.08-1.92C222,98.37,223.18,100.77,220.46,102.4Z"/><path class="cls-4" d="M213.29,169.77l-.21,1.23a2.59,2.59,0,0,1-.87,3.07l-.5.81c-.86.25-2.44,1-2-.64C210.17,172.47,210.57,170,213.29,169.77Z"/><path class="cls-3" d="M190.5,186c1.7-.8,3-2.82,5.72-1.75C194.35,185.79,192.89,187.19,190.5,186Z"/><path class="cls-3" d="M203.64,170.61c1-.21,2.09-2.38,2.84-.49.69,1.73-1,2.69-2.7,3C203.73,172.31,203.69,171.46,203.64,170.61Z"/><path class="cls-2" d="M212.21,174.07c0-1.1-.37-2.32.87-3.07l2.76.7A4.86,4.86,0,0,1,212.21,174.07Z"/><path class="cls-3" d="M86.28,100.53l-2.67,3c-.79-3.13-.54-3.38,2.64-3Z"/><path class="cls-2" d="M21,144.38a12.31,12.31,0,0,1,2.16-.24c1.23.08,1.3.92.92,1.84-.53,1.31-1.08.15-1.63,0-.7-.19-1.41-.31-2.12-.46Z"/><path class="cls-2" d="M169.89,20.3c-1.78,0-3.66.11-4.15-2.29A5,5,0,0,1,169.89,20.3Z"/><path class="cls-3" d="M180.69,190.34a1.39,1.39,0,0,1,1.37-.68c.78,1.44,1.38,2.86-.47,4-.46.15-.59,0-.42-.45Z"/><path class="cls-3" d="M97.49,219.27c1.6-.11,3.29-.6,4.52,1l-5-.67A1.17,1.17,0,0,1,97.49,219.27Z"/><path class="cls-2" d="M74.42,27.07,73.34,25.4c.36-.86,1.08-.56,1.71-.54Z"/><path class="cls-3" d="M181.59,193.65c-.2.58-.36,1.2-1.08,1.32-.11,0-.39-.28-.4-.45,0-.73.5-1,1.06-1.32Z"/><path class="cls-2" d="M165.77,18c-.88-.18-2-.12-1.45-1.6C165.07,16.72,166,16.86,165.77,18Z"/><path class="cls-3" d="M40.62,139.61l.57-1.55C42.17,139,41.66,139.4,40.62,139.61Z"/><polygon class="cls-3" points="201.62 174.53 201.62 174.28 201.88 174.41 201.62 174.53"/><path class="cls-2" d="M181.5,29.32,180,28.53Z"/><polygon class="cls-3" points="71.73 220.3 71.68 220.53 71.72 220.3 71.73 220.3"/><polygon class="cls-3" points="65.28 104.3 65.39 104.43 65.3 104.28 65.28 104.3"/><polygon class="cls-3" points="86.25 100.56 86.38 100.64 86.28 100.53 86.25 100.56"/><path class="cls-3" d="M90.75,73.53l.77-.72h0c.26.64-.07.82-.65.82Z"/><path class="cls-3" d="M98.51,166.49c.4-.44.8-.87,1.21-1.3l.82-.2c2.44-2.9,2.4-6.36,2.23-9.85a1.91,1.91,0,0,1,0-.53,27.49,27.49,0,0,1,3.74,0,4.77,4.77,0,0,1,4.09,6.62c-.8,2.28-1.25,4.53,1.77,5.4,3.55,1,7.17,1.79,10.76,2.66.66-.58,1.34-1.31,2.26-1.15,5.15.9,10.44.72,15.53,2,1.35.34,2.61.94,2.92,2.54a5.43,5.43,0,0,0,3.52,3.58,51.77,51.77,0,0,1,16.91,11.06c1.22,1.2,2.6.33,4,1.18-2.63,2.69-5.57,4.14-9.49,3.56.69,1,1.48.69,2.12.74,1.54.12,3.23.26,3.6,2,.43,2.15-1.79,1.54-2.78,2.24l-1.21.86c-.38,1-.77,2-2,2.25a59.93,59.93,0,0,1-12.56-.42c-2.32-.24-4.76-.33-6.31-2.55l-1.57-.85-.49.55-.11-.73c-1.39-.49-2.86-.8-4-1.87-1.67-2.72-4.51-4.33-7-5.76A56.41,56.41,0,0,1,111.08,176a14.64,14.64,0,0,0-2.31-1.85c-3-1.87-5.72-4.18-9.36-4.79C97.38,169,98.32,167.61,98.51,166.49Z"/><path class="cls-4" d="M143.89,172.66c-6.79-1.85-13.82-2.19-20.71-3.4-.3-3.47-.58-6.94-.9-10.41-.24-2.61,1-3.72,3.51-3.43,5.65.62,11.21.7,15.22,6.25,2.3,3.18,6.43,5,9.66,7.55.92.73,2.38,1.56,1.83,2.95s-2,.38-3,.41C147.62,172.65,145.76,172.64,143.89,172.66Z"/><path class="cls-3" d="M108.76,232.51c1.06,1.53,1.06,9,0,10.14-.58.62-1.08.53-1.51-.11-2.19-3.28-6.7-4.06-8.6-7-1.6-2.49-4.17-4.45-4.91-7.49v-.27l.08-.24-.24-.07.08-.24c1.73-2.9,4.06-.38,6.08-.69h0c.6.85.45,2.42,2,2.33.47,0,1-.66,1.32-1.15.85-1.51-.75-2.11-1.45-3.24,2.5-.8,4.71.51,7,.57.51,0,1.22.56.9.85-2.22,2,.57,4.57-.76,6.63Z"/><path class="cls-3" d="M123.27,151.37c8.13-.73,16-2.84,24-4.17a22.51,22.51,0,0,1,7,.07c1.74,1.34,3,2.84,1.73,5.19l-6.15.37a2.2,2.2,0,0,0-2.53.17c-.53.39-.92.28-1.18-.32-5.33-.56-10.66-.74-15.9.57a32.12,32.12,0,0,1-7.44.53c-2.38,0-4.8-.06-6.89,1.3a2.58,2.58,0,0,1-3.1-.17c-.69-.42-2-.35-1.82-1.49s1.3-1.25,2.38-1.37C116.69,151.66,120.1,153.13,123.27,151.37Z"/><path class="cls-4" d="M101,140.94q-.54-9.28-1.09-18.56c.5.35,1.42.68,1.44,1.06.18,3.67,3.12,5.2,5.43,7.2,1.57,1.36,1.59,3.27,1.86,5.07.3,2,.65,3.9,2.31,5.28a1,1,0,0,1-1.36.17c-.62.28-2.56-.62-1.3,1.33.44.69,1.52,1,.6,2.06a2.37,2.37,0,0,1-2.69.72c-1.13-.37-2.64-2.22-3.23.07s2.13,1.23,3.45,2.39l-4.79.69c0-.28.09-.56.14-.84C100.61,145.47,101.21,143.16,101,140.94Z"/><path class="cls-1" d="M139.65,197.19c6.29.91,12.73.64,18.94,2.27,1.75-.49,1.39.57.8,1.3-.74.93-2.11,1-3,1.79h0c-2.66,1.68-5.69,2.66-8.3,4.45l-1.48.62a12.08,12.08,0,0,0-1.88-1.14C140.48,204.75,138.69,201.72,139.65,197.19Z"/><path class="cls-3" d="M109.6,141.16,111,141c10.32-1,20.52-2.81,30.75-4.41l2.1-.32,2.56.66c-5.48,2-10.65,2.11-15.59,3-6.18,1.16-12.5,1.56-18.76,2.32C110.94,142.4,110,142.36,109.6,141.16Z"/><path class="cls-5" d="M148.07,207c2-3,5.22-3.55,8.3-4.45C154.29,205.32,151.35,206.47,148.07,207Z"/><path class="cls-4" d="M167,198.79l.06,15.62A43.39,43.39,0,0,1,167,198.79Z"/><path class="cls-4" d="M78,240.87c-1.41-1.88-2.56-3.82-1.55-6.3C79,236.18,78.46,238.53,78,240.87Z"/><path class="cls-3" d="M165,226.41l-9.5.45,0-.9A25.29,25.29,0,0,1,165,226.41Z"/><path class="cls-5" d="M156.36,202.55c0-1.53,2.87-1.07,2.23-3.09l2-1.55C162.16,202.17,158.87,202,156.36,202.55Z"/><path class="cls-3" d="M119.8,227.46c2.33-.53,4.48,1,6.81.69-2.2.73-4.4,1.19-6.61-.06-.22-.08-.32-.21-.31-.36S119.75,227.46,119.8,227.46Z"/><path class="cls-1" d="M119.8,227.46a1.72,1.72,0,0,0,.2.63c-2.28-.33-4.74,0-6.7-1.63l0,0C115.53,226.2,117.6,227.33,119.8,227.46Z"/><path class="cls-3" d="M97.73,223.15a2.64,2.64,0,0,1-3.23-.67C96,221.42,96.86,222.57,97.73,223.15Z"/><path class="cls-4" d="M157.52,172.74c-.22,0-.47.19-.64.13s-.15-.37-.22-.57c.22-.06.47-.2.64-.14S157.45,172.53,157.52,172.74Z"/><path class="cls-1" d="M113.3,226.46l-1.35-.18c0-.1.07-.28.14-.3a.92.92,0,0,1,1.17.53Z"/><path class="cls-4" d="M167.15,196.58c0,.47-.06.94-.08,1.41C166.63,197.49,166.8,197,167.15,196.58Z"/><path class="cls-4" d="M146.19,152.68l1.18.32Z"/><path class="cls-3" d="M99.76,226.5h0Z"/><path class="cls-3" d="M93.75,228a5.1,5.1,0,0,1-.19-.55c0-.08.08-.18.12-.27l.14.17a.37.37,0,0,1,.12.42c0,.14-.11.2-.16.2Z"/><path class="cls-4" d="M66.18,238.31c0,.08.1.18.08.25s-.13.11-.2.17l-.15-.41Z"/><path class="cls-1" d="M223.09,232.57c.33-.8-.63-1.91.25-2.41,1-.58,1.75.49,2.49,1.07,2.42,1.87,3.08,5,4.94,7.26.88,1.08-.32,2-1.42,2.43Z"/><path class="cls-3" d="M205,222.82c.63.16,1.15.3,1.07.91,0,.14-.64.39-.87.3a4.28,4.28,0,0,1-1-.86Z"/><polygon class="cls-2" points="80.8 247.22 81.03 247.18 80.8 247.23 80.8 247.22"/><path class="cls-2" d="M152.35,104.48c2.23-2.37,1.58-5.51,2.05-8.3.28-1.72.24-3.43,1.25-5,2.24-3.44,1.58-7,.48-10.67a3,3,0,0,0-2.51-2.46c-3.47-.46-6.61-1.8-10.48-1.45-4.39.39-9.22-1.22-13.37-5.15,3.9-.65,6.93.85,10.07.67,2.14-.12,4.58.19,5.3-2.41.84-3,3.56-6.11.4-9.38-.5-.52-1.31-1.28-1.21-1.79,1.11-5.91-3.75-3.92-6-4.1A17.27,17.27,0,0,1,132,53c-2.21-1-2.29-2.29-1.44-4.14h0c.64-.32,1.16-1.13,2-.48,3.43,1.14,6.95.49,10.4.38s5.78,1.41,7.45,4.33c2.9,5,2.95,5,2.59,9.37-.06.73,0,1.91-.44,2.11-3.19,1.62-.41,5.45-2.85,7.38-.57.46,3.27,3.41,4.62,3.32,5.34-.36,7.7,2.94,6.5,8.45-.84,3.82-.91,7.72-4.22,10.67-1,.89-.55,3.19.31,4.61s1.88,2.78.52,4.21S154.4,105.51,152.35,104.48Z"/><path class="cls-2" d="M195.28,98.42l1.2,8.79c-7.81-.09-15.44-1.8-23.19-2.48-5.39-.48-5.4-.63-5.87-6s-.89-10.69-1.7-16c-.61-4,1.95-5.83,4.5-7.57,1.25-.86,2.75,1.28,4.4.84.85,2.89-1.38,3.84-3.24,4.64-2.64,1.14-3.51,2.59-1.87,5.11a5.81,5.81,0,0,1,.59,4.3,7.51,7.51,0,0,0,.66,4.81,2.65,2.65,0,0,1,2.29-2.23c2.43.68,1.79,3.85,3.9,4.76a5.19,5.19,0,0,1,.88.24,6.13,6.13,0,0,1,1.76.61c2.2,1.49,4.6.91,6.83.35,2.71-.67,3.88-3.6,2.84-6.28a11.41,11.41,0,0,0-2.15-3c-.94-1.14-1.77-2.78-3.4-2.47-1.35.26-.32,2.33-1.41,3.16-3,1.15-5.91,2.33-9.16,2.39-.49.06-1,.29-1.45,0-2.76-2-1.27-5-1.42-7.55-.12-2,1.42-3.1,3.34-3.33,1.61-.19,3.21-.3,4.52-1.4,2.52-.94,5.25-1,7.8-1.78,3.65-.72,4.58,2.74,6.71,4.35q.77,2.56,1.55,5.11C193.72,91.43,195.4,94.83,195.28,98.42Z"/><path class="cls-2" d="M177.76,74.78a132.32,132.32,0,0,1-3.1-18.45c-.16-1.29-.57-2.54.73-3.3,1.55-.91,2.41.2,3.34,1.35a70.72,70.72,0,0,1,8.67,13.13c.84,1.81,1.07,3.87,2.32,5.5l0,.15c.71,4.17.14,4.77-3.47,3.29a7.75,7.75,0,0,0-5.74-.14C178.5,77,178.45,76.82,177.76,74.78Z"/><path class="cls-5" d="M177.76,74.78c.79,1.41,1.9.37,2.55.06a6.54,6.54,0,0,1,6.92.17c2.35,1.49,2.66.14,2.45-1.85,1.49,2.59.8,6,3.08,8.29l-.12,1.25c-2.82.08-4.35-3.15-7.26-2.84-1.38-.58-2.86-.35-4.29-.44s-1.61.79-1.27,1.94c-1.7,1.53-3.81,1.49-5.91,1.64-2.87.21-2.39,2.58-2.15,4.2.22,1.45-1.52,4.39,2.18,4.09A2.07,2.07,0,0,1,173.6,93c-1.89,1.45-1.47,3.5-1.46,5.46,0,.74-.07,1.69-.93,1.85a1.54,1.54,0,0,1-1.75-1.55c0-3.07-2.32-5.85-1.05-9.08.42-1.09-.09-2.16-.43-3.25-1.5-4.82-.6-6.3,4.18-7.92A3.17,3.17,0,0,0,174.62,76l1.69-.65.27,0,0-.27Z"/><path class="cls-2" d="M156.05,152.46a8.46,8.46,0,0,1-1.73-5.19c1.72-.19,3.46-.31,5.17-.59,3.14-.53,5.92-.57,8.49,2.08,1.62,1.68,4.17,2.46,6.28,4C168.18,153.07,162.11,153.54,156.05,152.46Z"/><path class="cls-2" d="M138.49,106.48c1-1.74,1.28-4,3.79-4.68,1-.27,1.16-1.49.9-2.54-1.1-.5-1.59-1.19-.68-2.29,3-.83,2.66,1.42,3,3.16s-1.47,3.84.29,5.61C143.66,108.8,140.94,106.34,138.49,106.48Z"/><path class="cls-2" d="M170.88,61.28c0,1.24.08,2.49,0,3.72-.08.83.53,2.27-1,2.21a2.16,2.16,0,0,1-1.91-2c-.25-3.26.64-6.58-.7-9.82-.27-.66.81-1.49,1.72-1.64A1.36,1.36,0,0,1,170.48,55c.29,2.08.42,4.18.62,6.27Z"/><path class="cls-1" d="M201,111.64c1.27.32,2.72-.22,3.84.83-.09,1-.49,2.06-.2,2.9,1.21,3.5-.7,4.7-3.58,5.32-.66-3-1.77-5.8-1.85-8.87Z"/><path class="cls-2" d="M201.32,138.32c-7.46-1.54-14.8-3.58-23.44-3.57C183.9,132.64,195,134.38,201.32,138.32Z"/><path class="cls-3" d="M200.32,151c-4.76-1.22-9.81-.39-14.88-2a4.66,4.66,0,0,1,4.41-2.54c3.73.2,7.12,1.87,10.65,2.93.21.07.2.88.3,1.34A.37.37,0,0,1,200.32,151Z"/><path class="cls-1" d="M204.26,132a24.52,24.52,0,0,0,5,4.28c1.06.62,2.85.92,2.15,2.85a3.64,3.64,0,0,1-3.29,2.58c-.61.05-1.23,0-1.84,0C204.8,138.63,205.26,135.17,204.26,132Z"/><path class="cls-2" d="M171.55,160.49c.74-1.72,6.28-2.67.47-5,2.55-2.1,3.94-.28,5.18,1.37,1.08,1.42,1.05,3.44-.26,4.33A3.85,3.85,0,0,1,171.55,160.49Z"/><path class="cls-2" d="M190.06,168.23c-2.19,3-4.84,4.8-6.34,7.52a.87.87,0,0,1-1.29.3.79.79,0,0,1-.25-1.27C184.46,172.55,185.69,169.07,190.06,168.23Z"/><path class="cls-5" d="M143.08,42.15c3.45-.67,6.84-2.34,10.66-.46l-11,1.76A2,2,0,0,1,143.08,42.15Z"/><path class="cls-1" d="M200.32,151l.48-.28,1.42-.22c1,3.3.13,4.61-2.76,4.07C199.59,153.29,199.33,152,200.32,151Z"/><path class="cls-3" d="M126.73,48.05c-1.17.25-2.28.26-2.74-1.1a1.43,1.43,0,0,1,.31-1.3c.91-.76,1.86,0,2.79.16a2.17,2.17,0,0,1,1.72,1.24Z"/><path class="cls-2" d="M143.08,42.15c-.09.43-.19.86-.29,1.3-2,1-3.89,2.25-6.22,2.35l-.06,0C138.08,43.42,140.67,43,143.08,42.15Z"/><path class="cls-5" d="M132.49,48.34l-2,.48c1.83-1.39,3.48-3.13,6-3l.06,0C135.5,47.12,133.8,47.4,132.49,48.34Z"/><path class="cls-5" d="M189.72,73c-1.88-1.37-2.27-3.36-2.31-5.5C188.9,69,189.19,71.07,189.72,73Z"/><path class="cls-2" d="M172.56,174.37l-.3-.53c.2-.09.41-.25.59-.23s.2.31.3.48Z"/><path class="cls-2" d="M176.55,75.16v.23a1.77,1.77,0,0,1-.23,0Z"/><path class="cls-1" d="M128.92,76.88c5-.8,9.07,1.77,13.46,3a1.81,1.81,0,0,1,1.44,1.92,2,2,0,0,1-1.57,1.88,8.56,8.56,0,0,1-6.22-.11c-6.61-2.68-12.93-1.53-19.15,1.3-.57.26-1.15.47-1.74.69-1.23.45-2.71.77-3.32-.57-.54-1.17.81-2,1.72-2.55C118.41,79.7,122.85,75.73,128.92,76.88Z"/><path class="cls-1" d="M135.35,100.15a22.33,22.33,0,0,1-2.57.47,4,4,0,0,1-4.11-2c-1.09-1.81.4-2.62,1.46-3.86-5-1.25-7.1,5.51-12.13,3.69a27.87,27.87,0,0,1,12.19-7.76c3.19-1.06,5.62-.27,7.18,2.79C139.22,97.51,138.81,98.85,135.35,100.15Z"/><path class="cls-2" d="M135.35,100.15c2.46-1.67,2.38-4.11,2-6.63.81-.18,1.15.42,1.56.92,2.42,1.26,2.55,2.8.57,4.61C138.29,100.09,137.15,101.34,135.35,100.15Z"/><path class="cls-1" d="M139.5,99.05c-.17-1.54.13-3.15-.58-4.62,2.3-.72,2.5,1.52,3.58,2.53.23.79.45,1.56.68,2.31C141.88,100.39,140.68,99.89,139.5,99.05Z"/><path class="cls-1" d="M103.48,81c-.27-2.25-.12-4.26,2.74-4.68A4.76,4.76,0,0,1,103.48,81Z"/><path class="cls-4" d="M126,51.48c.28-.84.58-1.66,1.57-1.91C127.72,50.78,126.74,51,126,51.48Z"/><path class="cls-2" d="M108.77,174.17c1.54-.15,2.52.71,3.5,1.77,4.3,4.64,8.61,9.11,15,11.3,2.41.83,4.21,3.6,6.66,5.06.61.36.12,1.38-.37,2C124.22,188.86,115.36,182.91,108.77,174.17Z"/><path class="cls-1" d="M137.48,196.16a2.78,2.78,0,0,0,.6.19l-.7.37Z"/><path class="cls-3" d="M95.39,29.5l4.34-1.44c-5.26-.65-10.06.87-15,2,1.76-2.75,5.37-3.35,6.41-6.54a15.83,15.83,0,0,1,6-1.41,10.59,10.59,0,0,0,7.24-3.18c2.3.65,3.59-2.4,5.93-1.63,3.2,3.92,6.28,7.81,11.79,8.91,1.92.38,3.25,2.57,3.95,4.66.1.65-.09,1-.8.7-1.86-2.91-4.92-2.24-7.65-2.53l.06-.05c1.09,1.06,2.62,1.7,3.14,3.31a1.4,1.4,0,0,1-1.88.35c-3.26-2.24-7.28-.48-10.67-2l-.28-.09-.19.21.07.28c.89,2.09,4.24,3.82.94,6.51l-.21.14c-.07.05,0,0,.23-.1,1.44-.64,2.8-.85,3.76.79,1.21-.13,2,.82,3.1,1.07a2.37,2.37,0,0,0,.84,0,1.66,1.66,0,0,0,.7-.41c1.34,0,2.84.53,2.67,1.86s-1.3,3.41-2.16,3.49c-3.79.33-4,1.67-2,4.45.33.46-.05,1.43-.1,2.16-3.62,1-7.48-1.08-10.16-5.45-1.9-3.14-4.7-5.75-5.22-9.69-.23-1.75-1.94-1.08-3.09-1.26C93.8,34.05,93.23,32.3,95.39,29.5Z"/><path class="cls-1" d="M106.48,45.44c2.79,2.23,5.61,4.41,9.07,5.53l.71.08L114,57c-.18.18-.53.43-.59.36-2.64-3.06-7.06-3.44-9.7-6.5-.57-1.57-.67-3.28-2.06-4.6-1-.93-.78-2.26.43-3.19C104.13,42.78,105.37,44,106.48,45.44Z"/><path class="cls-3" d="M138,12l.73.14c2.24,1.29,2.7,4,4.42,5.67.94.92,1.55,2.22,3,2.48l.16.16c-.45.57-.82,1.53-1.37,1.64-2.78.56-7.1-2.2-8.42-4.77C135.29,14.88,138.2,13.91,138,12Z"/><path class="cls-3" d="M142.7,35.81c-1.26,1.23-2.46,5.11-3.84.08a1,1,0,0,0-.17-1.33l0,0c-.69-1.54-.83-3.36-2.28-4.51h0c-.25-.29-.28-.86-.88-.73-.56-1.36-1.14-2.7-1.68-4.07-.32-.83-.59-1.79.34-2.32s1.53.42,2.05,1.07,1.16,1.59,1.74,2.39C139.94,29.38,142.47,32,142.7,35.81Z"/><path class="cls-1" d="M125.19,31.57c.27-.23.54-.46.8-.7l2.17.54c.64-.68,1.25-1.49,2.3-.6,1.18,1.2,2.46,2.31,3.52,3.6,1.37,1.67,1,2.6-1.3,2.31-2.05,1-4.07,1.76-5.68-.72C127.64,34,125.17,33.3,125.19,31.57Z"/><path class="cls-3" d="M127,36c1.91.07,3.86-.1,5.68.72-.11.73-.16,1.59-1,1.86-1.51.52-1.51,1.13-.62,2.35.53.72.9,1.94-.2,2.61-.9.55-1.68-.18-2.23-.8C127,40.81,125.31,38.81,127,36Z"/><path class="cls-1" d="M142.7,35.81c-1.8-3-4.21-5.7-4.68-9.37,3.93,1.61,4.32,6.05,6.93,8.74a1,1,0,0,1-.34,1.59C143.56,37.33,143,36.83,142.7,35.81Z"/><path class="cls-3" d="M163.37,34.09A13.35,13.35,0,0,1,158.49,26c-.1-.62-.28-1.36.32-1.71.92-.54,1.3.38,1.69.94A13.81,13.81,0,0,1,163.37,34.09Z"/><path class="cls-1" d="M118.86,32.65l1.88-.35a12.38,12.38,0,0,1,1.48,2c.3.6.68,1.5.07,2-.77.65-1.55.2-2.25-.44a10.75,10.75,0,0,0-1.79-1.24C115.65,33.14,118.28,33.2,118.86,32.65Z"/><path class="cls-3" d="M170.94,31.36a2.6,2.6,0,0,1,2.46,2.75c0,1.08-.42,2.82-1.46,2.66-1.92-.31-1.58-2.44-1.93-3.9C169.83,32.14,169.74,31.31,170.94,31.36Z"/><path class="cls-3" d="M147,27.05c0-1.26-.87-2.17-1.61-3.21,2.07-.88,3.4-.58,4,1.39.34,1.13,1.06,2.58-.18,3.34-1.06.64-1.44-1-2.18-1.49Z"/><path class="cls-4" d="M131.17,18c.72.77.35,1.56.07,2.36a1,1,0,0,1-1.51,0l0,0c-.24-.23-.5-.45-.77-.67.06-2.2-3.66-2-2.91-4.66C128.92,14,129.8,16.41,131.17,18Z"/><path class="cls-3" d="M131.17,18l-5.09-3a3.45,3.45,0,0,1,4.63-.7C131.77,15,131,16.71,131.17,18Z"/><path class="cls-1" d="M117.15,39,117,40.56l0,0a5,5,0,0,1-4.51-2.19l0-.06a1.93,1.93,0,0,1,1.46-.75C115.27,37.57,116.15,38.43,117.15,39Z"/><path class="cls-3" d="M149.42,33.83c-1.5-.85-1.73-1.84-1.16-3a1,1,0,0,1,.92-.24C150.15,31.46,150.09,32.51,149.42,33.83Z"/><path class="cls-4" d="M108.76,13.58c.42-2.15,1.94-2.3,4-2-1,1.64-2.5,1.8-4,2Z"/><path class="cls-3" d="M147,27.08c0,1.14-.27,2-1.67,1.46-.83-.3-1.17-.87-.64-1.66.84-1.27,1.58-.53,2.3.17Z"/><path class="cls-3" d="M124.3,21.28a5.08,5.08,0,0,1-4.62-1.9c2.29-.4,3.8,0,5,1.5C124.84,21.28,124.7,21.41,124.3,21.28Z"/><path class="cls-1" d="M136.44,30.09c2.35.7,2.28,2.62,2.28,4.51A11.47,11.47,0,0,1,136.44,30.09Z"/><path class="cls-1" d="M158.18,18.07l1.36,0a3,3,0,0,1,1.65,1.51l-.13,0C159.23,20.74,158.43,19.94,158.18,18.07Z"/><path class="cls-3" d="M130.46,30.81l-2.3.6c.11-.67.08-1.46.89-1.71S130.22,30.14,130.46,30.81Z"/><path class="cls-3" d="M155.23,28.55l1.4,3.79c-1.82-1.27-1.24-2.62-1.44-3.75Z"/><path class="cls-1" d="M156.74,17.87c.1-.29.2-.82.32-.83.67,0,.9.58,1.17,1.07Z"/><path class="cls-3" d="M152.22,24.07c-.49-.32-1-.65-.93-1.32,0-.09.31-.16.48-.25l.46,1.56Z"/><path class="cls-3" d="M126,12.8c-.26.39-.45.9-1.08.65a.35.35,0,0,1-.12-.31c.26-.64.78-.36,1.22-.31Z"/><path class="cls-3" d="M126,12.83l1.59-.53.1.29L126,12.8Z"/><path class="cls-3" d="M146.16,20.25l.58-.8.37.36-.79.6Z"/><path class="cls-3" d="M114,37.54a1.38,1.38,0,0,1-1.46.75c.23-.48.46-1,.7-1.44a9,9,0,0,0,.78.73Z"/><path class="cls-1" d="M138.69,34.56c.74.35.7.81.17,1.33Z"/><path class="cls-1" d="M135.57,29.37c.88-.47,1.06-.08.88.73Z"/><path class="cls-3" d="M149.9,20.41c-.15-.23-.56-.41-.13-.73l.31.55Z"/><path class="cls-3" d="M129.73,20.28l1.51,0A.93.93,0,0,1,129.73,20.28Z"/><polygon class="cls-3" points="150.08 20.23 150.17 20.5 149.9 20.41 150.08 20.23"/><path class="cls-3" d="M129,19.65l.77.67Z"/><path class="cls-3" d="M124.7,20.88c.15.41.11.63-.4.4Z"/><polygon class="cls-1" points="161.54 21.3 161.63 21.54 161.4 21.52 161.54 21.3"/><polygon class="cls-3" points="152.23 24.06 152.37 24.2 152.22 24.07 152.23 24.06"/><polygon class="cls-3" points="155.19 28.59 155.06 28.43 155.23 28.55 155.19 28.59"/><path class="cls-4" d="M117.6,29l-.06.05Z"/><path class="cls-1" d="M114,37.58l-.78-.73Z"/><path class="cls-2" d="M203.86,69.76c-3.81-.47-7.89,2-11.48-1-.26-.22-.47-.51-1.06-1.16,4.62.39,1.53-2.33,1.78-3.86.54.11,1.05.06,1.17.26,2,3.41,4.41,4.37,7.79,1.58.53-.44.88-2.26,2.21-1.16.93.77.37,1.85.16,2.8s-.37,1.68-.55,2.52Z"/><path class="cls-2" d="M190.59,62.28c-3.59-3.56-4.72-10.23-2.38-13.39.64-.87,1.37-2.16,2.62-1.72,1.69.59.43,1.85.27,2.84C190.48,54,191.53,58.1,190.59,62.28Z"/><path class="cls-1" d="M197.26,85.68a24.27,24.27,0,0,1,8.4.48c.82.21,1.86.37,1.7,1.53s-1.11,1.1-2,1.1C202.42,88.8,200,87.61,197.26,85.68Z"/><path class="cls-4" d="M195.28,98.42c-.69-3.51-2.4-6.9-1.09-10.61A30.38,30.38,0,0,1,195.28,98.42Z"/><path class="cls-2" d="M209.38,106.77c-.07.93-.73.86-1.33.7s-1.73,0-1.78-1,.85-1.16,1.61-1.17S209.16,106,209.38,106.77Z"/><path class="cls-2" d="M183.63,51.7c-.06.51-.3,1-.85.74a1.69,1.69,0,0,1-.66-1.09c0-.14.44-.58.7-.59C183.37,50.73,183.58,51.19,183.63,51.7Z"/><path class="cls-2" d="M185,51.64l.31-3.11a2.92,2.92,0,0,1,0,3.43Z"/><path class="cls-2" d="M185.33,52c-.38.17-.51.09-.33-.32Z"/><path class="cls-2" d="M63.83,65.85c-.9,1.36-2.7,2.14-2.63,4.12A1.87,1.87,0,0,1,60,68.33c0-.56,0-1.12,0-1.67-1.72-1.92.07-3.89-.08-5.82a7.13,7.13,0,0,1,.38-1.37,2.49,2.49,0,0,1,.45-.79l.14-.76c.21-.35.15-.44-.21-.21-.41-.31-2.08-.22-.8-1.14,2.46-1.76,1.62-3.43.47-5.38a35.08,35.08,0,0,1-2.69-5.29C56.6,43,58.06,41,61.07,41.62a40,40,0,0,1,10.61,3.3c2.26,1.15,4.1,3.2,7.09,2.76,1.56-.23,1.48,1.74,2.25,2.62.77,1,2.15,1,3.08,1.7a7.81,7.81,0,0,0,3,2c1.41.59,2.21,1.47,1.73,3.1a12.26,12.26,0,0,0-1.59.89c-4.08,3.12-7.4,2.12-9.13-2.69-.51-1.42-.27-4.55-3.2-1.58-1,1-1.62-.56-2.38-1-2.87-1.74-4.32-5.7-8.48-5.41-2.1,1.53-1,2.79.35,4a4.12,4.12,0,0,1,2.29,2.34c0,.16,0,.32.07.47-1.29,2.58-3.33,5-1.69,8.18C66,63.89,64.07,64.58,63.83,65.85Z"/><path class="cls-2" d="M106.48,45.44c-1.58-.5-2.77-1.93-4.56-1.92a2,2,0,0,1-1.47.7c-3.18-1.24-6.66-1.95-8.73-5.07a2.82,2.82,0,0,1-.45-.74,2.18,2.18,0,0,1-.27-.63,4.17,4.17,0,0,1-.41-.43A2,2,0,0,1,90,37c-2-.83-4-1.22-6-.26a3.8,3.8,0,0,1-1.61-.11,10.81,10.81,0,0,0-5,.36c-1.37.33-2.65.47-3-1.42a5.56,5.56,0,0,1,5.3-2.74c5.28.74,9.57-1.88,14.25-3.17a10.17,10.17,0,0,1,1.47-.14c-.82,3.33.63,4.23,3.5,3,3.11-1.31,3.76.08,3.32,2.73-.53,3.19,2.44,4.87,3.11,7.56C105.54,43.66,106.44,44.39,106.48,45.44Z"/><path class="cls-1" d="M92.31,38.21c2.21,2.81,6.56,2.14,8.56,5.29-.59,2.16,2.55,3.74.95,6.06-3,.9-6.2,3.59-8.81-.7l-1.52.29c-2.63,2.23-3.92,2-5.88-1.18.59-1.21-1.42-1.74-.79-3,.08-.15.16-.31.23-.47,2.26-1.12,5.24-1.43,5-5.12A1.48,1.48,0,0,1,92.31,38.21Z"/><path class="cls-2" d="M104.32,18.93c-.52,1.65,1.47,1.81,1.81,3.29-4.31.29-8.44,1.49-12.66,2.28-.69.12-1.55-.63-2.34-1-.63-1.94-4-2.89-2.34-5.55,1.54-2.5,4.2-2.54,6.84-2.31a3.68,3.68,0,0,1,2.38.78c.9,1.44,2.36.48,3.52.82C102.84,17.17,103.53,18.13,104.32,18.93Z"/><path class="cls-1" d="M82.78,35.6l1.27-.15a11.56,11.56,0,0,1,5.86,3.27c1.47,1.43,0,3.48-1.6,4.51-1.09.71-2.43,1.09-3.55,1.84l.06-.07c-2.17,1-3.68-.38-5.26-1.49-.36-.33-.66-.74-1-1-1.35-1.08-3.79-1.75-2.47-4.07,1-1.82,2.56-3.72,5.31-2.51C81.83,36.09,82.32,35.74,82.78,35.6Z"/><path class="cls-3" d="M82.78,35.6c-1.79,1.45-4.41,1.7-5.87,4.24,2.31.21,2.89,1.69,2.65,3.67L78,43.56a.42.42,0,0,0-.72,0c-2.46.44-4.5-1.12-6.81-1.44-1.21-2.5-2.83-5,.08-7.46a9.1,9.1,0,0,1,3.79.91C77.17,36.36,80,33.67,82.78,35.6Z"/><path class="cls-2" d="M70.58,34.63c-.31,2.48,1.28,5-.08,7.46a9.62,9.62,0,0,0-6.68-1.47c-.79.1-2,.24-2.24-.77-.32-1.16.9-1.28,1.64-1.57,1.84-.71,4-.69,4.33-3.61C67.63,33.77,69.51,34.49,70.58,34.63Z"/><path class="cls-3" d="M56.33,66.86c-2.53-1.62-4.39-7.79-3.28-11.29a31,31,0,0,1,1.68-3.67C55.51,56.86,56.44,61.8,56.33,66.86Z"/><path class="cls-2" d="M85.61,48c1.88.77,3.62,2.26,5.88,1.18,0,1.19.07,2.37.11,3.56a2.54,2.54,0,0,1-2.25.93C87,52.2,84,52.22,81.79,50.32,82.18,48.1,84.91,49.7,85.61,48Z"/><path class="cls-3" d="M60.78,58.68a4.31,4.31,0,0,0,.09.71l.23.28-.22.29c1.15,2.41-.58,4.46-.85,6.7C57.25,64.84,57.55,61.69,60.78,58.68Z"/><path class="cls-3" d="M81.79,50.32c2.61.29,5.35.12,7.55,2-2,3.28-4.17.21-6.27.28a2.54,2.54,0,0,1-2-2.28Z"/><path class="cls-2" d="M70.59,30.89l-.18,1.84c-1.29.44-2.8.5-2.66-1.19C67.92,29.37,69.62,31.14,70.59,30.89Z"/><path class="cls-3" d="M101.53,17.26c-1,.34-.59,2.21-1.87,1.89S98.29,17.52,98,16.44C99.19,16.68,100.75,15.26,101.53,17.26Z"/><path class="cls-1" d="M77.31,43.53a1.47,1.47,0,0,1,.72,0l-.36,0Z"/><path class="cls-1" d="M90.86,73.62l.65-.82c4.17-1.34,5.42-.48,6.27,4.38-1.22.83-3-.42-4.25,1.37,3.19.9,1.08,3.61,1.83,5.48.3.75-1,1.33-1.9,1.35-3,.07-6,.14-9,0-.93,0-3-.64-1.73-1.83,2.4-2.25,4.44-4.83,6.91-7,.2-.18.72,0,1.09,0l.26.23-.28-.21Z"/><path class="cls-1" d="M83.07,52.58c2.06-.92,4.21.38,6.27-.28l2.26.41c3.27,1.47,6.84,2.24,9.91,4.17.72.45,1.72.8,1.64,1.83s-.89.86-1.69,1c-2.35.26.76,1.27-.22,1.94s.81,2-.18,2.6-2.11-.14-3-.91a54.07,54.07,0,0,0-9.19-6.24Z"/><path class="cls-2" d="M93,48.86c2.8.64,5.61,1.49,8.41,0,1.94-1.39,2.25,1.15,3.49,1.45,1,.78,1.33,2.1,3.27,1.79s3.27,1.49,4.12,3.19c.4.82.66,1.61,1.69,1.73a3.41,3.41,0,0,1-2.6,1.48c-.25,0-.4.37-.72.27l.36-.64A5.69,5.69,0,0,0,107,54.73c-2.06-.57-4.29-.47-5.73-2.62-.73-1.09-1.92-.27-3,.09C95.15,53.22,93.33,52,93,48.86Z"/><path class="cls-1" d="M63.76,52.68c-.88-.37-1.11-1.25-1.61-1.94-2-2.72-.67-3.42,1.94-3.5-.23,1.72,1.54,2,2.15,3s3.58,2.19.56,3.87l0,0C65.87,53.36,65.52,51.45,63.76,52.68Z"/><path class="cls-1" d="M106.21,69c.11.57-.65.74-1.41.85-1.89.27-2.19-1.3-2.71-2.5-.37-.85.3-1.11,1-1.11C104.61,66.29,105.68,67,106.21,69Z"/><path class="cls-1" d="M109.06,61c-.65.56.14,2.32-1.4,2-1.25-.26-.81-1.85-1.29-2.78-.37-.72.59-1.37,1.3-1.41C109.23,58.69,108.76,60.08,109.06,61Z"/><path class="cls-1" d="M111.39,58.52l-.65.81c-.6-.56.12-.81.29-1.18A1.06,1.06,0,0,1,111.39,58.52Z"/><path class="cls-2" d="M210.63,126.71c-3.29.84-5.54,1-7.15-2.27C205.91,125.24,208.09,125.16,210.63,126.71Z"/><path class="cls-2" d="M211.69,123c-.41-.21-.73-.26-.79-.41-.53-1.31-1.82-2.42-1.28-4a.75.75,0,0,1,1.22-.25A4.84,4.84,0,0,1,211.69,123Z"/><path class="cls-2" d="M102.77,155.14c2.24,5.27,1.63,7.93-2.23,9.85C101.13,161.67,101.32,158.26,102.77,155.14Z"/><path class="cls-2" d="M101,140.94c1.13,1.12,2.88.34,4.56,1.68-3.77.08-3.89,2.46-3.8,5C99.77,145.57,101,143.19,101,140.94Z"/><path class="cls-3" d="M220.09,159.81c-.34.57-.68,1.14-1,1.72a2.44,2.44,0,0,0-.72,0c-1.12.38-2.3,1.23-3.28-.13-.5-.69,0-1.42.43-2,1-1.28,2.1-.86,3.24-.2A11.51,11.51,0,0,0,220.09,159.81Z"/><path class="cls-3" d="M206.19,174h0Z"/><path class="cls-3" d="M209.91,153.79l0,0Z"/><path class="cls-4" d="M39.38,100c.43,1.29,2.69,2.13.92,3.74-.57.51-1.53.92-2,.36C37,102.46,38.43,101.25,39.38,100Z"/><path class="cls-4" d="M49.57,69.83l.19-1c.6.48-.11.66-.23,1Z"/><path class="cls-3" d="M46.56,90.79l-.24-.44.22.46Z"/><polygon class="cls-3" points="53.31 72.05 53.16 71.93 53.29 72.06 53.31 72.05"/><path class="cls-2" d="M35.3,105.78l0,0Z"/><polygon class="cls-2" points="36.34 134.33 36.46 134.14 36.55 134.35 36.34 134.33"/><path class="cls-1" d="M62.29,102.79h0Z"/><path class="cls-1" d="M61.55,99l1,0Z"/><path class="cls-2" d="M161.19,19.61a2.61,2.61,0,0,1-1.65-1.51A1.7,1.7,0,0,1,161.19,19.61Z"/><path class="cls-2" d="M93.78,228c0-.21,0-.42,0-.62A.4.4,0,0,1,93.78,228Z"/><polygon class="cls-2" points="108.76 232.51 108.63 232.62 108.75 232.5 108.76 232.51"/><path class="cls-5" d="M181.11,89.31c-.23-.57-.47-1.12-.66-1.7-.64-1.85.68-3.25,1.65-4.24,1.22-1.25,2,.65,3,1.28a24.55,24.55,0,0,1,4.45,4.43c2.2,2.48,3,5.13,1.42,8.17s-3.79,4.7-7.25,3.43c-1.58-.59-4.31,1.58-4.71-1.9a2.22,2.22,0,0,1,.63-.76c2.39-.77,2.2-3.06,2.88-4.84C183.52,91.36,180.8,90.87,181.11,89.31Z"/><path class="cls-1" d="M181.11,89.31c1.12.68,2.44,1.09,3.22,2.25s.59,1.81-.89,1.86a2.37,2.37,0,0,0-1.53,2.22c0,1.88-1.29,2.69-2.75,3.36l-.17-.21-1.64.24a1.37,1.37,0,0,1-1.55,0c-2.42-1.38-2.56-3.6-2.2-6l.33-1.75C176,89.51,178.52,89.24,181.11,89.31Z"/><path class="cls-1" d="M179.82,81.36a3.66,3.66,0,0,1-1.07-.27c-1.17-.7-3.57,1.24-3.64-1.08-.09-2.61,2.51-1.65,4-1.89,2.29-.36,4.63-.51,6.25,1.73Z"/><path class="cls-5" d="M175.8,99h1.55A1.06,1.06,0,0,1,175.8,99Z"/><path class="cls-2" d="M168.84,82.4l.18.28-.49,0Z"/><path class="cls-2" d="M168.53,82.71l-.17-.28.48,0Z"/><path class="cls-2" d="M108.75,37.56a18.7,18.7,0,0,1-2,1c-1,.37-1.63-.18-2-1.09a1.31,1.31,0,0,1,.29-1.67c.9-.61,1.58-.09,2.21.61a9.83,9.83,0,0,0,1.41,1.13Z"/><path class="cls-4" d="M115.71,28.57c-1.5.08-2.78.26-3.83-.74-.13-.12.14-.92.19-.92C113.36,27,114.73,27,115.71,28.57Z"/><path class="cls-4" d="M109.92,26.2c-.44-.09-.7-.34-.56-.76a.71.71,0,0,1,.57-.34.51.51,0,0,1,.53.72C110.4,26,110.1,26.08,109.92,26.2Z"/><path class="cls-1" d="M117,40.56l.39.49c-.58.16-.24-.34-.36-.51Z"/><path class="cls-2" d="M107.07,30.27l-.51-.58.8.29Z"/><path class="cls-2" d="M107.36,30l.83.63c-.13.13-.26.27-.4.4l-.72-.74Z"/><path class="cls-3" d="M104.91,50.33c-1.43.16-2.29-1-3.49-1.45-.07-1.8-2.5-3.37-.55-5.38l1,0C102.46,46,105.07,47.55,104.91,50.33Z"/><path class="cls-3" d="M63.76,52.68c0-.73-.17-1.87.69-1.84,1.87.08,2.21,1.64,2.33,3.2C66,53.16,64,54.88,63.76,52.68Z"/><path class="cls-1" d="M62.7,46.19a3.87,3.87,0,0,1-.61.19c-.06,0-.15-.14-.23-.22a3.37,3.37,0,0,1,.59-.19C62.52,46,62.61,46.11,62.7,46.19Z"/><polygon class="cls-4" points="60.71 57.71 61 57.62 60.92 57.92 60.71 57.71"/><path class="cls-4" d="M60.88,60c0-.19,0-.38,0-.57a2.14,2.14,0,0,1,.2.4S61,59.9,60.88,60Z"/><path class="cls-3" d="M84.76,45.07c.34-2.73,3.7-2.89,4.76-5.58-3.1.15-5.08-1-5.47-4,2.54-1,5.07-1.67,7.46.35.56.45.26,1.25.73,1.73a2.22,2.22,0,0,1,.07.68c-.37.64-1.1,1.31-1,1.91C91.69,45.26,88.51,45.5,84.76,45.07Z"/><path class="cls-3" d="M92.27,36.08l.73.43-.48.38C92,36.76,91.9,36.49,92.27,36.08Z"/><path class="cls-1" d="M92.27,36.08c.08.27.17.54.25.81a4.59,4.59,0,0,0-.28.64c-.24-.58-.48-1.15-.73-1.73Z"/><path class="cls-3" d="M90.75,76.56l.54.29c-.1,0-.21,0-.28,0a1.05,1.05,0,0,1-.24-.27Z"/><path class="cls-2" d="M179.16,99a6.69,6.69,0,0,0,2-4.85c-.07-3.43,1.28-1.36,2.31-.72C182.83,95.91,183,99,179.16,99Z"/></g></g></svg>