<svg xmlns="http://www.w3.org/2000/svg" viewBox="0 0 255 249"><defs><style>.cls-1{fill:#214077;}.cls-2{fill:#98a4bc;}.cls-3{fill:#5b6c80;}</style></defs><title>dr_ppe_1</title><g id="Layer_2" data-name="Layer 2"><g id="Layer_1-2" data-name="Layer 1"><path class="cls-1" d="M9.07,249c-9,0-9,0-9-9Q.07,121.55,0,3.07C0,.5.5,0,3.07,0Q127.48.14,251.9,0c2.56,0,3.07.5,3.06,3.07q-.12,121.1-.07,242.18c-1,.76-1.55.12-2.06-.68-4.74-7.56-12.21-10.93-20.2-13.94-3.15-1.18-6.5-1.46-9.49-3-4.32-1.67-8.17-4.7-13.09-4.71-5-1.55-10-1.89-15.06,0-1.14.45-1.84-.21-2.47-1-5.73-2.32-11.13-3.09-15.83,2.39-2.05,2.39-4.75,2.18-5.87-.59-1.54-3.8-4.27-7-5.39-10.92,0-5.3-.56-10.6.49-15.8.42-1,.61-2.24,1.79-2.66,4.3-1.51,7.93-4.53,12.42-5.56a1.1,1.1,0,0,1,.65.23c-.05-.11.12,0,.07-.09a.73.73,0,0,1,.11-.68c3.73-2.32,5.72-5.72,6.87-9.82.42-1.47.48-3.72,3.11-3.32,2.9-.27,4.47,1.25,5.22,3.86a4.17,4.17,0,0,1,.26,1.15c-.34,1-.11,1.28.89,1.35,1.64.11,2.79.94,2.66,2.71a17,17,0,0,0,.55,3.7c-.38.32-.29,1-.8,1.2a21.52,21.52,0,0,1-4.44,3.69c-.4.3.32.55,0,.18a48.53,48.53,0,0,0,3.95-3.35c3.39-4,7.12-7.65,9.1-12.61,1.15-2.89,3.79-4.26,6.12-5.93a8.94,8.94,0,0,1,1.76-2.81c1.69-3.61,4.63-6.7,4.61-11a9.17,9.17,0,0,1,2-5.51,23.16,23.16,0,0,0,3-6c.92-2.65.9-5.1-1.57-7.07a5.1,5.1,0,0,1-2.18-4.52c-.32-3-1.86-5.4-3.48-7.75a15.72,15.72,0,0,1-3-11.9c2-2.27.63-5.11,1.31-7.64.5-1.85.6-3.71,2.49-4.78,1.73-1,1.54-2.66,1.22-4.18A37.77,37.77,0,0,0,219.39,93a89.06,89.06,0,0,0-14.3-17.57c-3.77-3.49-3.58-3.64.23-7.11a2.37,2.37,0,0,0,.68-2.73c-1.07-2.74-1.4-5.77-3.23-8.22a28.82,28.82,0,0,0-6.09-9.4,3.75,3.75,0,0,0-2.73-1.1c-1.71-1.89-3.15-4-5.28-5.54-2.17-2.08-3.07-4.84-3.77-7.61-.51-2-1.48-3.16-3.54-3.32a5.59,5.59,0,0,1-1.46-.64,3.58,3.58,0,0,1-.87-.61c-2.57-3.73-6.41-5.56-10.48-7-1.21-.19-1.88-1.45-3.15-1.56a8,8,0,0,0-.87-.52c-.57-.5-1-1.13-1.56-1.66A107.73,107.73,0,0,0,150.53,11c-7.22-.13-14.44.45-21.66-.7-3.91-.62-7.89.34-11.86.94-4.63.69-9.4.55-14.11,1.19a40.39,40.39,0,0,0-12.3,4C81,21.09,73.34,28.76,63.55,33c-1.49.64-3,1.21-4.48,1.88-2.5,1.12-4,3-4,5.8A16.93,16.93,0,0,1,53,48.52c-1,2-2,4-3.09,6-5.53,10.33-8.28,21.58-11,32.85-1.27,5.34-3.32,10.57-3.92,16-1,9.16-6.3,16.78-8.23,25.52-1.26,5.71-3.4,11.16-4.62,16.88A9.91,9.91,0,0,0,23.29,153c1,1.74,2.05,3.43,3.07,5.15,1.85,1.72,1.66,4.26,2.53,6.38,3.27,5.08,6.87,9.85,12.46,12.67.32.21.62.43.92.66a1.36,1.36,0,0,1,.37,1.08c.63,2.9,2.87,3.88,5.4,4.52a1.31,1.31,0,0,1,1,.45c1.12,5.25,3.7,9.93,5.83,15.31,1.8-2.56,2.27-5.35,1.46-7.34-1-2.45-.84-5.13-2.14-7.46a20.56,20.56,0,0,1-2.72-7.55,3.2,3.2,0,0,0-1.75-2.72c-.8-.42-1.81-1.46-1.45-2.58,1.34-4.13-1.21-4.15-4-4a1.35,1.35,0,0,1-.53-.86c.57-2.19-1.5-3.32-2.22-4.95-1-2.2-1.23-4.61-2.43-6.76a2.9,2.9,0,0,1,1.66-4.3c2.37-.86,4-2.33,4.32-4.63-2,1.52-3.87-.07-5.48-1.33-1.36-1-.56-2.25.42-3.45.75-.93-.21-2.06-.67-3,0-.52.23-1,.27-1.53A4.46,4.46,0,0,0,39,133c-2.05-3.41-1.76-7-1.08-10.67.45-2.39,1.73-3.74,3.92-4,2.55-.35,4.53-1.67,6.73-2.79,2.39-1.2,5.39-.67,7.83-.89-1.15-.75-2.48.45-3.9.38-1.65-.08-3.68.24-2.07-2.55.35-.6.1-1.42.18-2.14s-.09-1.62.6-2.23c2-.53,1.78-2.26,2.22-3.7,1.57-5.06,3-5.66,7.82-3.4a.92.92,0,0,0,.85,0,3.07,3.07,0,0,1,.35-.24c.06-.14.12-.28.17-.42,0-.81,0-1.63.89-2.1C69,96,74.83,95.24,80.45,93.64a4.5,4.5,0,0,1,3.44.82c3.56,2.06,6.43,1.67,7.85-2.22,1.79-4.93,6.93-6.66,9-11.08.54-1.13,1.72-.76,2.66-.35a2.41,2.41,0,0,1,1.67,2.94c-1.52,6.55-3.09,13.12-6.87,18.81C96,106,94.24,109.73,91.8,113a3.5,3.5,0,0,0-.33,2.5,3.41,3.41,0,0,1,.12,1.1c-.72,4.27-1.12,8.58-1.83,12.85-.42,2.56-.65,5.16-2.15,7.38-1.81,2.67.29,5.6-.6,8.32-1.61,1.5-1.27,2.76,0,4.44a15.42,15.42,0,0,1,3.38,7c-.33,2.29,1,4.07,1.76,6,4.56,12.63,5.86,25.46,1.88,38.47-1.64,5.34-1.32,10,3,14,1.79,1.67,2.87,4-.26,5.64a18.22,18.22,0,0,1-2.85-.37,51.87,51.87,0,0,0-14.82-.69,3.78,3.78,0,0,0-1.78.68c-1.7,1.72-4.19.86-6.09,1.87-3.19-2.44-5,1.66-7.63,1.66-2.31,0-4.21.56-5.2,3a3.58,3.58,0,0,1-2.8,1.9c-14.32,2.78-26.83,9.76-39.24,16.93C14,247,11.45,247.77,9.07,249Z"/><path class="cls-2" d="M51.86,108.93l-.07,1.9a9.24,9.24,0,0,1-6.67,4.75c-5.88,1.18-10.5,9.38-7.14,16.09.9,1.79,2.14,3.39,3.09,5.15l.09,1.14a3,3,0,0,1-.73,2.85c-1.55,1.59-2.13,2.82.15,4.47,1.51,1.11.16,2.06-1,2.68-5.17,2.8-5.89,6.89-1.17,10.53,2.77,2.15,3.69,5.46,6.28,7.52a2.64,2.64,0,0,0,.1.74c2.9.22,4.46,1.42,3.5,4.62a1.93,1.93,0,0,0,.47,1.44c3.72,3.27,3.21,8.57,5.85,12.4a2.38,2.38,0,0,1-.27,3.4c-1.33,1-2.39.21-3.48-.7s-1.71-2.26-2.74-3.24l-.23-.26c-2.26-1.72-4.36-3.7-7.1-4.71l-.67-.62L40,179c-5-4-11.16-7-12.43-14.31.86-1.48.76-3.22,1.39-4.74-1.92,3.83-2.85-.07-4.18-.52-7.58-7.8-4.66-16.31-1.64-24.79,3-8.28,6.25-16.7,8.38-25C34.17,99.53,37,89.22,38.8,78.74c1.88-11,6.79-20.93,11.92-30.75,1.21-2.32,2.55-4.29,1.3-7.72-1.36-3.69,2.39-6.35,5.69-7.64C65,29.79,72.11,27.1,77.88,21.26c2.9-2.94,7.88-3.72,11.31-6.3,7.73-5.81,16.65-4.62,25.34-5.33,4.17-.34,8.28-2.11,12.48-1.47,8.24,1.26,16.51.79,24.77,1.07,1.89,3.93,4,7.59,9.21,7.36.76,0,1.08.63,1.26.89,2.44,3.61,6.22,5.07,10.08,6.28,3.37,1.06,5.65,3.55,7.9,5.91,1.06,1.12,2.09,3.3-1.18,4.33-2.68.85-2.69,3.27-1.44,5.76a2.22,2.22,0,0,0,.25-2.62c-.65-1.82.08-3,1.72-3.38s1.62-1.27,1.36-2.42c-.19-.9-.67-1.77.33-2.49,4.25.83,5,4.49,6.36,7.72a25.11,25.11,0,0,0,2.63,4c.74,2.75-1.4,4-3,5.35-4.83,4.15-4.92,4.12-2.16,9.76,2.55,5.21,5.58,10.21,7.54,15.67.88,2.45,1.72,5,2.47,7.46.35,1.2.65,3-1,3.59-1.4.45-2.75-.58-3.64-1.74C186.19,75,180,74,174.65,78.37c-1.58,1.28-2.53,3.26-4.71,3.9-.62.18-1.34,1.44-1,1.82,2.52,3.28,0,7.38,1.92,10.64-.17.56.17.23.13.11-.57-1.8,1-1.85,2-2.4,2.77-.16,2.21,3.34,4.31,3.91l.89.44a6,6,0,0,1,1.7,1.06c2.63,1.48,6.33,1.13,8.05-.85s1.32-4.11,0-6.16c-1.88-2.89-3.07-3-5.66-.44-3.52-.59-6.12,2.79-9.63,2.19-1.17.52-2.37.57-2.35-1,0-2.53-.57-5,.21-7.62,1-3.41,3.91-3.44,6.44-4.3,3,.32,5.78-.78,8.63-1.42a4.5,4.5,0,0,1,5.13,2.13c.11.16-.05.63.08.68,6.73,2.55,5.09,9.54,7.58,14.32.4.77-.08,1.44-.34,2.13a5.33,5.33,0,0,0-.32,3.31c1.4,4.25,1.88,8.75,3.48,13a7.52,7.52,0,0,1,.73,2.07c.55,8.54,4.8,16.19,5.86,24.61a16.7,16.7,0,0,1-.24,7.41c-1.15,3.53-3.71,4.42-7.06,2.78a29.58,29.58,0,0,0-7.14-2.07c2.09.19,4,1.07,6,1.52s2,2.18,1.6,3.81a25.19,25.19,0,0,1-4.19,8.71,11.75,11.75,0,0,0-2.06,5.92,10.92,10.92,0,0,1-4.12,8c-1.68,5.06-1.78,11.13-8.33,13.09-.37.63-.84,1.08-1.66.87-4.55,1.16-7.8,5.22-12.66,5.7-.82,5.75-.1,11.53-.41,17.28,1.2,3.36,4.66,5.34,5,9.48.17,2.16,3.19,1.7,3.42-.43.67-5.94,4.77-4.64,8.29-4.31a85.44,85.44,0,0,1,8.73,1.66c-.25,1.78.4,3,1.7,4.39,4.35,4.7,10.34,7.37,14.55,12.23a79.4,79.4,0,0,1,7.16,9.06c.93,1.46.9,2.44-.46,3.43H144c-1-1.34-2.7-2-3.61-3.41a3.23,3.23,0,0,1-.12-1.07,7.25,7.25,0,0,1,2-3.53,6.11,6.11,0,0,0,1.35-6.58c-.61-1.91-.8-4-3.88-3.64-1.38.16-2.9-1.05-4.29-1.75-1.24-.62-2.62-1.25-1.93-3.19.6-1.66,1.87-1.81,3.31-1.82.45,0,.84.41,1.27.2-3-.87-5.87,2-8.39.17a2,2,0,0,1,2.36,1c1,2.12,2.91,3.21,4.68,4.56,2.72,2.08,2.79,3.45.59,6.14a11.14,11.14,0,0,0-2.84,8.62,4.29,4.29,0,0,1-1.73,4.3H81c-4.92-3.34-6-8.76-7.51-13.92-.09-.35-.19-.69-.28-1-.47-1.6-1.29-3.09-1-4.89s-1-2.21-2.12-3.09c-3.55-2.91-3.45-3.95.28-6.43l5.74.05c6.19-.65,12.41.2,18.6-.35l1.8.17a9.54,9.54,0,0,1,6-1.07,19.18,19.18,0,0,0,13.27-2.75c3-2,6.44-2.49,9.89-3.17,6.59-1.29,13.46-1.82,19.23-5.85.85-.74,1.64-1.52,2.47-2.26,2.33-1.65,5.09-2.45,7.59-3.79a2.36,2.36,0,0,0,.84-.34c3.65-1.66,4.1-3.19,1.43-5.82-.83-.82-1.69-1.56-1.24-2.73s1.63-1.41,2.79-1.55,2.52.17,2.93-1.14c.46-1.49-1-2.1-1.92-2.89-5.64-4.81-12.54-7.61-18.72-11.57-2.36-1.5-5.23-1.48-8-1.68a84.3,84.3,0,0,1-20.86-4.11c-4.16-1.41-4.43-2-4.11-6.48.27-3.84-.83-5.32-4.58-6.48-2.34-.73-4.13-2-4.56-4.78a38,38,0,0,1-.41-5.2c-.1-6.12.27-12.24-.74-18.33-.48-2.93-1.62-5.26-4.22-6.68a6.23,6.23,0,0,1-3.59-4.55l0,0c-.49-2.27.65-3.49,2.91-2.69s4.1.9,5.4-1.49a2.43,2.43,0,0,1,1.82-1.22c5.68-.77,11.08-3,16.88-3.2a97.34,97.34,0,0,0,16.28-2.41c3.49-.72,5.63-3.19,7.21-6.22,1.07-1-.63-2.73.88-3.66,1.67-1.31,3-.82,4.59.42,2.53,2,3.8,1.59,4.91-1.45A36,36,0,0,0,152.44,87c.28-1.93-.92-3.19-2.24-4.46-4.38-4.24-10.36-4.47-15.66-6.35-1.94-.69-3.92-1.11-5.4-2.65a2.81,2.81,0,0,1-.7-3.41c.6-1.2,1.7-1.32,2.88-1.16a26,26,0,0,0,3.72.41c3.35,0,4.64-2.27,3.08-5.28-3.84-7.42-12.52-8.76-18.55-3.13-3.83,3.58-5.93,8.29-9,12.38-.91,1.22-1.58,2.86-3.59,2.22-1-.31-2.35.11-2.73-1.4-.29-1.16.16-1.87,1-2.77a14.49,14.49,0,0,0,2.13-4.25,20.81,20.81,0,0,1,5-6.67c4.27-4.09,4.62-7.22.48-11.42-2.28-2.32-.62-3.78.52-5.41,2.22-3.18,2.26-3.21-1.41-4.95-2.29-.62-3.28-3-5.35-3.9-1.38-.81-3.25-1-3.72-3-2-1.46-1.16-3.89-1.93-5.79-.31-.77.77-1.33,1.48-1.26a10.74,10.74,0,0,0,6.26-1.41c1.31-.69,8.28,2.63,8.75,3.94.65,1.77-.94,3.11-3.86,3.13,2.58.2,5.57-1.15,6.38,3,.33,1.72,2.06.11,3.16.06,2.14.72,2.39,3.1,3.86,4.39.31.16.48.62.94.5a2.53,2.53,0,0,1,.5-.53c.86-1,2.81.3,3.13-1.62,1-2.41-1.36-1.87-2.24-2.61a10.1,10.1,0,0,1-1.36-.53c-.9-.07-1.47-.86-2.26-1.18-1.66-2.94-4.42-4.19-7.52-4.91s-5-4.88-8.09-4.5c-2.51.31-5,1.74-7.78,2.41-3.79.92-7.82.4-10.83,2,1.2-.35,3-.67,4.81-1.07,3.6-.8,4.69-.05,5.22,3.67.17,1.16,1,1.64,1.49,2.45a6.09,6.09,0,0,1,.62,3.85c-.28,2.44,1.91,3.88,3.09,5.7.94,1.45,2.23,2.67.41,4.3-1.88,1.22-3.49-.25-5.22-.55-.57-.13-1.1-.4-1.67-.56-1.79-.8-3.23-2.37-5.37-2.39A4.21,4.21,0,0,1,93.16,41c-3.8-6.07-9.56-3.81-14.82-3.51-1.28.08-3.09.39-2.92,2.21s1.91,1.72,3.26,1.9a10.46,10.46,0,0,0,4.73-.85c4-1.31,5.39-.4,5.91,3.65.36,2.84,4.58,4.32,7.76,2.72,1.43.06,2.7,1.61,4.25.43,1.62-.29,3,.66,4.45,1,2.72,2.13,6.23,3.09,8.51,5.84,1.35,3.45,1.09,4-2.53,5.73a9.43,9.43,0,0,1-1.09-.47c-1-1.82-2.75-2.48-4.71-2.84-1.52-.28-3.07-.45-4.33-1.65a1.51,1.51,0,0,0-2.63.38,2.26,2.26,0,0,1-1,.46c-2.84,1.14-5-.3-7.28-1.73-1.08-.68-2.19-1.82-3.66-.78.2,1.85,2.1,1.48,3,2.36-.5,5.08-5.61,7.67-9.53,4.83a10.54,10.54,0,0,1-3-3.18c-.34-.57-.78-1.64-1.1-1.56-4.33,1.17-5.89-3.31-9.55-4.48,1.12,2.9.42,5.56,0,8.26a4.21,4.21,0,0,0,2.91,5,6.6,6.6,0,0,1,3.64,3c.24.34.46.68.67,1a4.77,4.77,0,0,1-2.78,3.93A5.93,5.93,0,0,0,68,76.32a2.73,2.73,0,0,1-2.46,1q-.93-.28-1.89-.48C62,76.27,61.12,74.34,59.31,74c-1.66.64-7.17,7.06-6.8,8.31A11.58,11.58,0,0,0,56,87.94c.75.63,1.66,1.07,1.78,2.19C59,93.26,56.31,95.82,56.49,99c.08,1.34-2.52,1.24-4.12.86-2.7-.64-4.25-2.84-6.16-4.48a2.58,2.58,0,0,0-.38.1c-.57.82.08,1.17.54,1.5,4.1,3,4.45,4.79,1.7,8.78,0-.08.09,0,.08-.06.9-1.35,1.71-3,3.69-1.76C54.46,105.53,52.48,107.25,51.86,108.93Z"/><path class="cls-2" d="M9.07,249c9.66-9.14,22.2-13.3,33.65-19.31a18.92,18.92,0,0,1,9.43-2.13c4.72.27,6.52-5,10.9-4.82a18.6,18.6,0,0,0,6,2.87c2.23.52,3.55,1.87,3.56,4.78a23.91,23.91,0,0,0,3.08,11.28c.81,1.5,1.41,3.11,2.28,4.56.76,1.26.23,2-.66,2.77h-3c-1-1.25-2-1.41-3,0Z"/><path class="cls-3" d="M132.73,249c-1.25-5.48-1.37-10.45,2.93-15.19,2.12-2.33-1-3.62-3.25-4.17-1.23-.29-4,.6-1.76-2.45.76-1-.52-1.43-1.46-1.14-2.22.7-3.78-.71-6-1.76l21.34-2c-1.83,3.22-4.31,3.7-7.08,3.54-.71,0-1.74-.42-1.86.59-.14,1.24,1,1,1.82,1.18,2.61.74,4.95-.19,7.36-.93-1.47,5.91,5.66,12.86-2.28,17.88h0c1.5,1.16,1.25,2.92,1.5,4.5Z"/><path class="cls-2" d="M223.35,225.11q10.22,4,20.43,8c5.68,2.24,7.08,8.4,11.11,12.14-.49,1.2,1,2.79-.75,3.75-.9-.88-2.12-1.47-2.55-2.78.64,1.05.69,2-.44,2.78H238.4a20.51,20.51,0,0,1-4.89-8.12,14.58,14.58,0,0,0-4.12-6.25c-2.46-2.17-2.73-6.07-6.26-7.36C222.22,226.94,222.6,225.78,223.35,225.11Z"/><path class="cls-2" d="M193.53,220c6,2.22,12.3-.11,18.32,1.45.81,2.12,3.06,2.27,4.64,3.27,3,1.92,4.68,5.37,8.06,6.84,1.94,2.91,3.22,6.32,6.21,8.5,1.8,1.65,2.28,4,3.33,6.09.67,1.32-.1,2.06-.93,2.83H222.67a21.93,21.93,0,0,1-6.27-7.68c-2.23-4.2-5.85-7.35-8.54-11.23-1.38-2-3.64-2.94-5.93-3.63s-4.65-1.71-7-2.55C192.93,223.18,192.4,221.9,193.53,220Z"/><path class="cls-3" d="M193.53,220a6.3,6.3,0,0,0,4.63,2.8c8.09,1.45,13.29,6.61,17.32,13.3,2.53,4.21,6,7.91,7.19,12.88h-6.75a42.87,42.87,0,0,0-14.57-16.63c-3.54-2.39-6.89-4.86-9.34-8.44-1.25-1.81-1.3-3.15,1-4A.38.38,0,0,1,193.53,220Z"/><path class="cls-3" d="M233.16,249c-1.24-2.64-2.48-5.27-3.71-7.91.19-2.88-3.67-8.07-6.4-8.62-4.24-3.16-9.22-5.56-11.21-11l11.52,3.64c4.29,5.74,8.62,11.47,12.87,17.25A10.87,10.87,0,0,1,238.4,249Z"/><path class="cls-3" d="M77.27,249c-2.63-6.56-7-12.47-6.6-20.16.09-1.75-3-1.91-4.8-1.81-3.64.21-6.87.43-2.82-4.29,2.2-1.65,4.26-3.63,7.38-3.11-2,1.83-1.94,3.6.35,5,3.42,2.16,2.53,6.62,5.06,9.22-.38-.15-.5,0-.31.33.26,5.51,3.73,9.83,5.48,14.78Z"/><path class="cls-1" d="M251.15,249l-2.94-7.68c2.9,2,5.6,4,5.93,7.68Z"/><path class="cls-3" d="M71.27,249c-.49-1.38-.22-3.35.84-3.42,1.84-.13,1.89,1.95,2.16,3.42Z"/><path class="cls-3" d="M146.12,207.72c-4.68,5.57-11.66,5.09-17.81,6.48A51,51,0,0,0,114,219.27c-5.6,3.16-11.61.85-17.45.23.53-2.35-1.08-3.69-2.53-5-3.11-2.77-4-5.79-2.6-10,4.58-13.29,4.15-26.63-.3-39.92-1-2.93-2-5.91-1.66-9.12,3.07.71,3.24,4.31,5.08,5.24-3.37-4.59-7.7-9.38-9.58-15.71-2.22-8,3.61-14.62,3.76-22.24,0-2.18.87-4.35,1.34-6.52,7.63,2.26,10.57,7.43,10.37,15.26-.16,6.33.64,12.67.94,19,.12,2.78,1.38,3.91,4.2,4,4.17.17,6.23,2.45,5,6.68-1.22,4,.85,5.22,4.24,6.13,7.46,2,15.12,2.79,22.64,4.36s13.46,6.18,19.69,10.19c2.36,1.51,5.7,1.95,6.87,4.85.47,1.16,2.92,1.11,1.76,3.08-1,1.59-2.46,2-4.14,2.1l-2.53.17c2,1.39,6.25,1.58,5,2.8-2.53,2.51-2.41,7.86-7.52,7.68-1.35-2.49-3.95-1.73-6-2.28a25.92,25.92,0,0,0-5.44-.5c-1.83-.52-4-.4-4.57-3-.1-.53-.69-.78-1.35-1-4.57-1.35-8.14-4.37-12.06-6.92-4.32-2.81-8.65-5.51-12.36-8.94.09,0,0,0,0,0a132.92,132.92,0,0,0,22.48,15.35,3.24,3.24,0,0,0,1.55.39c.78.09,1.46.32,1.71,1.18.69,3,2,5.65,4.63,7.34C146.65,205.24,146.63,206.35,146.12,207.72Z"/><path class="cls-3" d="M83.16,52.64c-2-2.37.44-1.81,1.29-1.71,4.43.53,8.8,1.38,12.75,3.65,1,1.7,3.49,3.17.84,5.43-.31.39-.46-.29-.16.11.08.1.14,0,.34-.15,2.63-1.78-.56-3.55,0-5.31.21-3.12,1.66-3.87,4-1.84,2.65,2.25,7.31,1.11,8.75,5.3l-.46,1,.89-.57c2.5-.79-.32-2.91,1-4a5.3,5.3,0,0,0-2.9-3.8c-2-1.22-3.62-2.49-3-5.16a30.71,30.71,0,0,0-4.18-8c-1.06-1.63-.61-4,.44-6l0,.06,4.49,1.79a66.19,66.19,0,0,0,6.45,3.41c7.49,2.82,7.22,2.72,1.7,8.15-2.19,2.15,0,5.14,2.71,6s2.74,1.69,1,3.72c-4.79,5.76-9.71,11.47-13.13,19.63a16.9,16.9,0,0,0,5.89-7.13,27,27,0,0,1,9-10.25,10.37,10.37,0,0,1,12.63-.06c3.46,2.48,7.62,4.63,7.81,10.14.13,4.12-1.36,5-5,4.55-1.77-.24-4.77-1.81-5.17.44-.37,2,2.89,2.51,4.93,3,3.39.83,6.76,1.73,10.17,2.42,6.54,1.31,9.57,5.94,8.08,12.38-.74,3.16-1.08,6.42-3,9.2-.93,1.36-1.78,2.9-3.7,2.72s-1.67-1.91-2.07-3.16a2.5,2.5,0,0,0-3.1-2c-.53,0-1,.48-1.57-.29-1-1.47-1.77-3.47-4-3.48-11.23-.06-9.6,0-13.87,3.28-.35.36-.38-.48-.08-.08,0,.06.15,0,.25-.1C124.67,94,127,93.44,129,92.58c1.9-.78,3,.25,3.22,2.1s.85,3.12,2.78,3.48c1.65.92,3.34.45,5,.14,1.36-.06,2.07,1.07,3.07,1.67-3.33,4.94-7.54,7.73-13.91,8a110.26,110.26,0,0,0-26.67,4.37c-1.19.36-2.82.28-2.78,1.87.17,6.71-3.11,3.79-6,2.31-1.13-.57-2.35-1.7-3.69-.29-4.9-2.13-.89-2.67.36-4.68,4.36-7,9.64-13.74,11.31-22.2a47.26,47.26,0,0,0,1.07-6.66c-2.1,4.34-7.07,5.92-9,10.63-2.45,6-6.75,6.73-11.8,2.8-1.44-1.13-2.88-.45-4.3-.15-4.62,1-9.23,2.07-13.84,3.11L63.22,99c-1.13-1.36-.81-2.62.77-3,1.91-.48,2.3-1.83,2.68-3.34,1.82-1.87,4.07-1.41,5.94-1.09a2.24,2.24,0,0,1-2.28-2.64c.13-1.85-.19-4.27,2.35-4.83,6-1.31,9.63-5.77,13.38-10,1.69-1.93,3.29-3.12,5.37-.54A5,5,0,0,1,93,75.88a1.35,1.35,0,0,1-.34,1.1c-.66,1.72-2.46,2.36-3.5,3.73-.38.49-.71,1.12-.2,1.68a1.07,1.07,0,0,0,1.64-.08c1.57-1.65.86-4.19,2.42-6,.8-.94-1-2-1.72-2.92-5.14-3.71-9.12-8.71-14-12.65-1-.78.09.53-.22.72a2.44,2.44,0,0,1,.4,1.11c-1.42,2.2-2.39,4.89-5.55,5.25-6.26-1.59-8.5-5.31-6.51-11.64.83-2.64-3.2-2.27-3.39-4.56-.11-1.36-2.08-2.7-.46-4a3.93,3.93,0,0,1,4.58-.09,64.18,64.18,0,0,1,5.31,4.05c1.36,1.07,2.19,2.91,4.68,1.48,1.5-.86,1.62,1.33,2.07,2.36,2.37,5.37,6.52,5.84,10,1.11C87.89,53.42,85.25,53.4,83.16,52.64Z"/><path class="cls-3" d="M173.58,93a19.28,19.28,0,0,1-1,2c-1,1.5.63,4.69-1.72,4.72-2.79,0-1.62-3.22-2-4.9a83.65,83.65,0,0,1-1.16-11.76c-.26-4.76,4-4.69,6.83-5.89,4.46-1.88,8.86-4.7,14.07-1.61A4.87,4.87,0,0,1,191,78c.42,1,0,3.11,1.84,2.44,1.07-.38.14-2-.18-3-2.59-8.57-5.27-17.12-10.83-24.35-1.74-2.26-.43-3.67,1-5.13,2.44-2.48,4.93-4.93,7.4-7.38,1.92,1,3.9,2,4.62,4.35a4.55,4.55,0,0,1,1.33,2.78c.29,1.74-.23,2.7-2.32,2.57-1.25-.08-2.62-1.64-3.85.07-1.07,1.5-1,3.25-1,5a2.07,2.07,0,0,0,.15,1,8.5,8.5,0,0,1,.16-4.39c.27-.67.4-1.43,1.11-1.84l7.3-.53c1.85,1.7,4.16,3.42,3.9,6.1s.36,5.32.66,8c.43,3.75-.41,4.86-4.43,5.39,4.22.12,5-2.36,4.36-5.76-.28-1.61-.32-3.27-.71-4.84-.23-1-.27-1.72.64-2.1s1.33.43,1.87.92c1.69,4.27,6.05,8.24.94,13.18-1.55,1.5.42,3.08,1.55,4a65.42,65.42,0,0,1,12.88,14.79c.78,1.17,1.76,2.15.84,3.64a7,7,0,0,0,0,4.06c1.12,3.06.31,5.46-2.81,6.71-2.71,1.09-2.88,3-2.19,5.43,1,3.48.21,4.24-3.33,3.56a3.4,3.4,0,0,1-1-.23c-1-.55-1.73-2-3.23-1.14,1.37-.69,2.12.4,3,1a3.48,3.48,0,0,0,2.87.46c3.2-1.2,3.74.94,4.38,3.11-1.13,3.86.36,7,2.59,10,1.79,2.47,3.42,5.19,2.94,8.53-1.91,2.79-2,5.11.53,7.86,2.23,2.43,1.84,4.12-.39,6.08-3.56,3.12-7.74,5.25-11.78,7.6l-.8.67c-2.55,1.55-3.31,4.64-5.61,6.48-1,.8.2,2.24.9,2.81,2.76,2.27,2.62,5.15,2.16,8.19a11.67,11.67,0,0,1-.27,1.17c-.38,5-3.87,8.27-6.7,11.87-.58.74-1.27,2.1-2.58.74.15-3.13-.82-4.08-3.8-2.27-1.19.72-2.71,2.17-4.31.41,2.38-1.17-1.44-5.83,3.22-5.72l.29.14c.06,0,.08,0,.08-.08s-.07-.29-.14-.29a3.83,3.83,0,0,0-3.69-3.4c1.83-6.58,3.86-13.06,7.26-19.07,3.17-5.59,2-7.48-4.47-7.89-2.2-.14-4.48.27-6.73-1.1,2.48-3,5.29-1.32,7.87-.76a53.43,53.43,0,0,1,5.31,1.79c4,1.31,6.23-.37,6.2-4.35,0-7.92-2.67-15.39-4.41-23-2.28-10-6.82-19.52-6.4-30.18.25-6.53-3.61-10.43-9.77-12.16-2,.37-4.79-2.29-5.78,1.61-1.37,1.24-3.1,1.41-4.81,1.53s-3.26.69-3.11,2.75-1.54,4.84,2,5.74A1.07,1.07,0,0,1,173.58,93Z"/><path class="cls-2" d="M209.9,153.78c4.25-.95,6.36-5.45,10.84-6.34,1.9-.38,3.72-2.55.61-4.54a3.35,3.35,0,0,1-1.57-3.87c.67-2.68-1.14-4.3-3.42-6.9l7.12,2.16c.53,3,3.4,3.61,5.3,5.16,1.36,1.1,1.67,1.88.78,3.37-5.05,8.48-7.92,17.92-11.7,27-1.28-.14-1.7.64-1.85,1.72-6.7,5.6-10.21,13.95-16.82,19.64-.89-.5-.89-1.29-.72-2.15l.48-1.23c4.38-3.53,5.32-8.88,7.21-13.72v0l-1.07.29c.45-5-2.53-9.2-3.18-13.94a3.61,3.61,0,0,1,.17-1.06c5.18,1.73,4.62-4.59,7.85-5.6Z"/><path class="cls-3" d="M51.86,108.93c-1.62-.45.87-3.12-1.51-3-2.59.15,0,2.62-1.51,3.52l-4.41-2.1,0,0v-3.53c1.47-.41,1.14,2.14,2.31,1.24a4.62,4.62,0,0,0,1.26-2.89,2.51,2.51,0,0,0-1.71-2.62c-1.58-.56-4.64,1.83-4.44-2.2.16-3,1.22-5.6,4.55-6.49l0,0C49,93,49.7,97,54,97.61c-2.75-4.06,3-4,3.06-6.87,0-.18.09-.37.14-.55,2-.21,4,.23,5.72-1.85.94-1.13,3.45-.56,5,.83a2.16,2.16,0,0,1-.1,3c-.3,3.17-3.83,3.08-5.22,5.15a1.34,1.34,0,0,0,.38.87l.34.35.57.61q.73,2.58,1.49,5.16l-.21.21c-1.09-.32-2.3-.45-2.85-1.69v0c-3.3-1.23-5.87-1-6.94,3C54.91,107.5,53.44,108.39,51.86,108.93Z"/><path class="cls-3" d="M48.11,184.67c1.81-.42,2.9,1.18,4.8,1.85-2.82-6.85-5.47-13.31-8.13-19.76,5.6-2.47,4.62-1.39,7,4.52,2.27,5.65.54,13.26,7.38,17.19,2,1.17.54,4.24.07,6.33-.73,3.22-2.78,6.15-1.64,11.35C51.11,199.2,49.23,192.11,48.11,184.67Z"/><path class="cls-3" d="M44.68,166c-2.22.54-4,.3-4.38-2.45-.21-1.39-1.28-1.92-2.45-2.53-4.48-2.33-6.7-8.17-4.56-10.62,3.08-3.53,2.83-8.76,7-11.29.4-.24.62-.77.92-1.16a7.47,7.47,0,0,1,.38,2c-.11,1.44-2.38,2.82-.41,4.27,1.72,1.28,3.57.32,5.26-.53,1-.51,2.24-1.14,3,.07.88,1.41-1.26,1.32-1.4,2-.77,3.84-3.27,6-6.67,7.38-.21.08-.34,1-.15,1.28.59.82,1.33.16,2,0s1.77-.74,2.35.24c.23.39.11,1.46-.18,1.61-4.2,2.22-2.67,4.82-.69,7.61C45,164.4,44.69,165.31,44.68,166Z"/><path class="cls-3" d="M181.27,28.85c2,6.55-.31,12.14-3.65,17.92-1.45-4.28-4.57-7.59-3.05-12.19.55-1.69.88-2.88,2.93-2.12.88.32,1.87.54,2.14-.62a2.59,2.59,0,0,0-.7-1.95c-1.62-1.73-3.31-3.54-5.82-3.81-3.49-.38-6.16-2-8.85-4.22s-7-1.92-9.71-5.1c-2.06-2.39-3.4-4.44-2.79-7.53l12.39,7.08c0,1.05,1.15,1.09,1.64,1.71l-.08,0c1.05,1.38,2.81,1.49,4.16,2.34,4.15,1.73,7.15,4.88,10.05,8.15.18.31.4.34.67.11Z"/><path class="cls-3" d="M41.07,136.82c-7.82-4-9.35-12.25-3.34-18.68a12,12,0,0,0,3-4.16c.39-1.15,1.49-2.31,2.47-1.77,3.35,1.85,5.85-.24,8.6-1.38-.1,2.63.56,3.39,3.43,2.32,2-.76,4.58-.15,7-.15,0,1.13-1.27,2.32-2.14,2.24-5.52-.5-9.67,3.05-14.51,4.45s-7.25,5-5.31,9.49A14.47,14.47,0,0,1,41.07,136.82Z"/><path class="cls-2" d="M204,57.13c-2.38,1.94-1.1,4.07-.19,6.07,1,2.3,1.39,4.83-1.1,5.84a12.28,12.28,0,0,1-10.08-.82c-.12,0,1.52-2.34.18-4.28,6.73,3.66,6.93,3.68,7.75-3.63.31-2.79.75-6.05-2.42-8.07-1.91-1.21-4-1.74-6-.8-1.65.8-1.41,2.54-.91,4.27.59,2.07-3.06,3.18-1.19,5.84a10.53,10.53,0,0,1-2.94-10.45c.56-2.48,1.12-5.47,5.4-2.93,2.44,1.45,1.59-2.07,2.29-3.3C199.16,48,201.93,52.33,204,57.13Z"/><path class="cls-2" d="M218,115.73c-4.37-4.42-10.85-2.3-16.76-5.27,3.94-.81,6.86-1.21,9.66.5.87.53,1.8,1.35,2.67.58s-.17-1.57-.53-2.3c-2.86-5.91-2.25-6.91,4.27-7.68,2.4-.28,1.91-2.29,1.57-3.82-.43-2-1.28-4,1.42-5,1.47,3.76,3,6.86-.68,11.07C217.37,106.33,218.38,111.66,218,115.73Z"/><path class="cls-2" d="M85,145c2.2,3.61,4.22,7.35,6.66,10.79s5.18,6.35,6.82,10.29q-4.48-5.3-9-10.6a76.39,76.39,0,0,1-4.41-7.07C84.66,147.61,83.13,146.2,85,145Z"/><path class="cls-3" d="M24.82,159.45c3.87.8,2.58-4,5.53-4.81-.79,3.54,4.55,8.28-2.74,10.07Z"/><path class="cls-3" d="M94.77,219.33c-6.11,4.78-12.38,1-18.6.35C82.34,217.71,88.55,218.22,94.77,219.33Z"/><path class="cls-3" d="M198.47,189l.72,2.15c-1.89,1.38-3.73,2.82-5.68,4.1-.8.53-1.91,1.93-2.72.53-.57-1,.73-1.92,1.65-2.57C194.44,191.78,196.46,190.39,198.47,189Z"/><path class="cls-3" d="M40.78,179.7c3.69-.42,6.14,1,7.1,4.71C44.54,184.31,42.72,181.91,40.78,179.7Z"/><path class="cls-3" d="M216,171.5a2.49,2.49,0,0,1-2.06-3c.08-.55.85-1.44,1.3-1.43,1.61,0,2,1.48,2.61,2.66Z"/><path class="cls-3" d="M69.72,107.36c-1.21-.61-2.72-1.2-2-2.89a2.17,2.17,0,0,1,2.89-.93c2.27,1.4-1.06,2.22-.59,3.55Z"/><path class="cls-3" d="M167.53,213.49c-.38-5.77-1-11.54.41-17.27Q167.73,204.85,167.53,213.49Z"/><path class="cls-3" d="M80.16,109.43c.23-1.34.32-2.8,1.87-3.31.74-.24,1.12.4,1.12,1.09,0,1.82-1.62,1.9-2.78,2.45Z"/><path class="cls-3" d="M82.38,138c-2.88-2.29-2.15-4.36-1.93-6.31Z"/><path class="cls-3" d="M86.17,100.66c-.92.74-1.07,2.39-2.64,2.28-.17,0-.52-.87-.4-1.19a2.29,2.29,0,0,1,3.31-1.37Z"/><path class="cls-3" d="M66,120.79l2-3.3c.43,1.92-.55,2.77-1.94,3.3Z"/><path class="cls-2" d="M169.88,20.32c-1.85.05-3.51-.25-4.16-2.34A5.7,5.7,0,0,1,169.88,20.32Z"/><path class="cls-3" d="M180.6,190.51l1.66-.87c.72,1.5.85,2.93-.48,4.19-.59.18-.88,0-.87-.65Z"/><path class="cls-3" d="M80.37,109.66c-.42.23-.83.46-1.27.65,0,0-.2-.27-.31-.42l1.37-.46Z"/><path class="cls-2" d="M165.8,18c-1.15,0-1.9-.38-1.64-1.71C164.86,16.73,165.89,16.84,165.8,18Z"/><path class="cls-3" d="M181.78,193.83c-.4.53-.66,1.43-1.53.68-.09-.08.43-.87.67-1.33Z"/><path class="cls-3" d="M40,179l.07.06Z"/><path class="cls-3" d="M66,120.79l-.77.73,0,0,.73-.76Z"/><path class="cls-3" d="M86.44,100.38l0,.25-.24,0Z"/><path class="cls-2" d="M180.6,28.58l-.23-.52-.44.41A2.54,2.54,0,0,0,180.6,28.58Z"/><path class="cls-3" d="M70,107.09l0,.26h-.26Z"/><polygon class="cls-3" points="65.33 104.26 65.35 104.47 65.12 104.47 65.33 104.26"/><path class="cls-3" d="M65.26,121.52l0,0Z"/><path class="cls-1" d="M66.86,92.63l-.2-3.47c-1.77-1.37-4-1.77-5.86-3-1.73-.37-1.82-1.72-1.65-3a5.67,5.67,0,0,0-.9-3.54,21.45,21.45,0,0,0,.2-2.88c1-1.75.18-4.66,3.23-5.1l2,3.57c1.56.85,0,2.18.5,3.08.12-1.06-.22-2.44,1.43-2.9l1.87-.07c2-1.46,3.7-4.63,6.84-1,.92-3-1-4.46-2.28-6.12l-.09-.29c2-1.61,3-3.87,3.94-6.17.29-.4,0,.22.17-.24,0-.09,0,0-.28.14-1.18-1.73-3.44-1.66-5.27-2.83,6.11-1.46,17.81,6.6,21,14.13l.09.34a.51.51,0,0,1-.47.47l-.34-.09c-5,1.37-6.47,6.52-10,9.51-1.58,1.34-2.84,2.56-5,2.63-1.47,0-3.26.13-3.26,2.2,0,1.73,1.7,1.81,2.92,2.35s3.91-.27,3.21,2.39c-.59,2.24-2.63,1.11-4.13,1l-7-.68-.67.7Z"/><path class="cls-3" d="M96.93,49.57c-2.44.07-4.87.11-7.31.2a4.11,4.11,0,0,1-3.72-2.12,2.3,2.3,0,0,1,1-3.43c.4-.24.46-1,.68-1.59-.69-.08-1.84-.45-2-.2-3.21,5.13-7,.45-10.49.61s-4.42-2.29-4.22-5.41c.08-1.35.47-2.06,2-2.12,4.29-.16,8.63,0,12.83-.74,5.36-.93,7.82,2,9.87,6-.15.22-.29.5-.16.64.92,1,3.5.41,3.19,2.29S98.84,48,96.93,49.57Z"/><path class="cls-3" d="M102.78,31.53a21.53,21.53,0,0,1-2.18.52c-1.23.16-2.77,1.79-3.62,0s1.1-1.81,2.15-2.33c.86-.41,1.52-1.15,1-2.08s-1.49-.71-2.36-.53c-4.14.83-8.46.81-12.43,2.66,4.14-2.9,7.41-6.93,13.44-6.43,2.6.21,6.25-.48,8-3.78,1.41-2.59,3-2.28,5-.24,2.76,2.94,5.66,5.58,9.89,6.65,2,.49,3.62,2.6,4.27,4.92a1.3,1.3,0,0,1,0,1.43c-.53.82-2.58-.59-2.23,1.53a2.37,2.37,0,0,1-.73.56c-.14,1.06.09,2.55-1.6,2.37-1.94-.2-4.48-2-4.33-2.91.65-3.91-2.22-2.37-3.59-2.58-2-.3-4-.18-5.66-1.94,2.39-2.07,5.29.29,7.67-1.3-2.64.56-4.2-6.46-7.53-.79-.1.18-.73.22-1,.1-4.78-2-4.6,1-4.28,4.19Z"/><path class="cls-3" d="M59.47,79.46c3.48.69,2.13,3.3,2.14,5.37,1.92,2.78.93,5.27-2.2,5.56A5.2,5.2,0,0,0,57,90.8l.07-.06c-1.56-.19-5.43,2.77-3.31-2.43-6-5.09-1.08-9.55.77-14.23a8.87,8.87,0,0,1,4.32-4.87c1.41-.68,1.89,1.5,2.85,2.34A7.82,7.82,0,0,1,60,77.42a10.72,10.72,0,0,0-3.9,3.9C57.25,80.92,56.91,77.54,59.47,79.46Z"/><path class="cls-3" d="M110.57,153c11.77-.35,22.41-2.77,33.13-4.73a72.65,72.65,0,0,1,7.34-1,3,3,0,0,1,3.42,3.14c.06,2.52-2.17,1.6-3.39,1.56-10.22-.33-20.32,1.38-30.49,1.8C117.52,153.93,114.43,157.42,110.57,153Z"/><path class="cls-1" d="M143.12,100l-3.65-.84c-1.68-.79-2.59,1.35-4.13,1.09-2.22.59-4.45,1.13-6.23-1-1.22-1.42-1.18-2.87.53-4.29-4.71-1.17-6.5,5.33-11,3.52,5.29-9.54,17-10.48,23.8-1.93C142.65,97.71,142.89,98.84,143.12,100Z"/><path class="cls-3" d="M181.62,89.34c-1-1.79-1.36-3.74.41-5.07S184.87,85,186,86a26.67,26.67,0,0,1,3.87,4c2.54,3.36,2,6.77-1.1,9.24s-6.46,2.1-9.58-.31l.06-.52c2.64-1,2.66-3.23,2.66-5.49C182.62,91.65,181.18,90.56,181.62,89.34Z"/><path class="cls-1" d="M146.12,207.72c-4-2.43-7.9-4.86-6.34-10.59,2.2-1.38,4.08,0,6,.69,3.07.33,6.14.65,9.2,1,1.18.14,2.84-.26,3.19,1.16.17.71-1,1.75-1.63,2.64l-.29,0c-2.62,1.61-5.62,2.5-8.12,4.33Z"/><path class="cls-3" d="M93.74,227.27c4-3.36,5.09,1.25,7,2.79,3.91,3.13,5.9,7.67,9,13.13-7.67-4.23-12.5-9-16-15.18l.07-.36h.37l-.37,0Z"/><path class="cls-1" d="M181.62,89.34c1,1,2.87,1.26,2.77,3.1,0,.27-1.21.49-1.85.73l-.21.09a1.51,1.51,0,0,0-.11.22l0,.26s0,.28,0,.29a1.55,1.55,0,0,1,0,.31,2.93,2.93,0,0,1-.2.7,3.76,3.76,0,0,1-2.79,4v-.1l-1.89.17a1.29,1.29,0,0,1-1.4,0c-2.73-1.27-2.55-3.65-2.29-6l.15-1.59C176,89.28,178.75,89.14,181.62,89.34Z"/><path class="cls-3" d="M132.75,24.09c.58-1.87,1.66-2,3-.82a40.5,40.5,0,0,1,8.61,10.07c.71,1.25,2.35,3.3-.28,3.78-1.48.27-4.63,3.42-5.24-1.25a1.05,1.05,0,0,0-.15-1.37l0,.13c-.66-1.57-.74-3.43-2.31-4.53l.05,0c-.25-.25-.14-.92-.8-.67l-2.91-5.43Z"/><path class="cls-3" d="M72,68.08c1.41.22,3.38-2.85,4.16.29s3.37,6.91-.66,9.76a2.2,2.2,0,0,1-3.41-1.08c-.78-3-2.75-2.12-4.65-1.82C68,72.2,72.91,72,72,68.08Z"/><path class="cls-3" d="M111.21,141.35,145,136.47l.17,1.15-33.7,4.86Z"/><path class="cls-1" d="M123.07,34.45a1,1,0,0,0,.1-.48c0-.53-.08-1.14.68-1.33a.76.76,0,0,1,.4-.15,10,10,0,0,0,1-.9l.79-.66,2,.48c.81-.35,1.36-1.93,2.53-.52a40.32,40.32,0,0,1,3.58,3.58c1.4,1.77.85,2.62-1.41,2.23-1,1.28-3.18.44-3.86,2.24h0c-.65,1.44-1.44.68-2.2.13Z"/><path class="cls-1" d="M98.22,54.66a18.32,18.32,0,0,0,2.26,1.88c4.13,2.44-1.48,5,.11,7.44-1.14.35-1.9-.33-2.63-1-1.67-1.58-4.23-2.25-5.08-4.61-.23-.63.84-.81,1.44-.6,3.56,1.28,2.83-1.29,2.88-3.18Z"/><path class="cls-1" d="M106.52,45.54c2.29,2.77,6.39,4.36,5.93,9-1.82-2.54-5.64-1.44-7.41-4.07-1.63-1-2.11-2.92-3.4-4.15s-.41-2,.35-2.79Z"/><path class="cls-1" d="M96.93,49.57c-2.43-2.6-2.09-5.65-1.42-8.75,2.14.09,4.15.45,5.29,2.58-.37,1.94,2.56,3.6.49,5.68C100,50.21,98.37,49.31,96.93,49.57Z"/><path class="cls-3" d="M146.2,20.3c-.35,1.46-1,2.29-2.63,1.37-2-1.18-4.08-2.35-6.08-3.6-.83-.52-1.62-1.14-1.45-2.38.22-1.54,1.57-1.87,2.61-2.34s1.91.33,2.39,1.26a13.19,13.19,0,0,0,5.18,5.71Z"/><path class="cls-3" d="M34.57,135.76c-3.49.27-7,.58-6.51-4.69a2,2,0,0,1,3.7-.86l2.79,5.57Z"/><path class="cls-3" d="M54.68,53c.47,3.84.9,7.13,1.24,10.44.07.66.26,1.68-.75,1.8a1.62,1.62,0,0,1-1.27-1C53.65,60.64,51.42,57,54.68,53Z"/><path class="cls-1" d="M179.67,81.42c-1.15-1.06-4.11.27-3.85-1.7s3.08-1.75,4.78-1.55,3.7-.23,4.86,1.63Z"/><path class="cls-3" d="M145.52,28.59c-3-1.95,2.15-3,.52-4.79a3.59,3.59,0,0,1,1.41-.21c1.64.44,1.77,1.88,1.84,3.23s0,2.67,0,4C147.29,31.29,147.21,28.59,145.52,28.59Z"/><path class="cls-3" d="M163.44,33.65c-3.64-2.25-4.68-5.28-4.86-8.73,0-.12,1-.51,1.12-.37C162.21,26.86,163.23,29.81,163.44,33.65Z"/><path class="cls-3" d="M65.57,75.3c-.8,2.23-.81,4.3,1,6.19.76.8,1.47,2.16.16,2.84-1.55.81-2.19-.78-2.54-1.89a15.36,15.36,0,0,1-.51-7.32Z"/><path class="cls-3" d="M58.93,65.78a6.24,6.24,0,0,1,1.13-6.37C61.62,61.86,61.86,63.88,58.93,65.78Z"/><path class="cls-3" d="M101.29,49.08c-.38-1.87-2-3.64-.49-5.68l1.19.09c1.19,2.24,2.94,4.23,3.05,6.94Z"/><path class="cls-3" d="M171.72,31.56c1.24.13,1.65,1.22,1.61,2.38s-.25,2.7-1.54,2.58c-1.7-.15-1.51-2-1.69-3.29C170,32.2,170.31,31.5,171.72,31.56Z"/><path class="cls-3" d="M113.4,226.06l12.69,2.13a22.08,22.08,0,0,1-13.1-1.32C112.57,226.32,112.7,226.05,113.4,226.06Z"/><path class="cls-3" d="M126.59,39.07l2.2-.13c1.16,1,2.84,1.73,2.6,3.7-.08.69-.62,1.2-1.3.9A5.66,5.66,0,0,1,126.59,39.07Z"/><path class="cls-3" d="M145.12,42.61a7.8,7.8,0,0,1,7.82-.89Z"/><path class="cls-1" d="M83.16,52.64c2.83-.22,6-.91,5.09,3.84Z"/><path class="cls-3" d="M128.8,38.94c-.63-.62-1.5-1.43-.63-2.17,1.34-1.14,3-.84,4.49-.07C132.24,38.94,130.59,39.06,128.8,38.94Z"/><path class="cls-3" d="M127.6,46.43a1.55,1.55,0,0,1-1.8,1.39c-.92,0-1.81-.24-1.87-1.37s.79-1.19,1.55-1A13.66,13.66,0,0,1,127.6,46.43Z"/><path class="cls-3" d="M126.86,15a3.2,3.2,0,0,1,4.39-.31c.28.19.16,1.84-.18,2C129.36,17.49,128.58,15.7,126.86,15Z"/><path class="cls-3" d="M148.16,207c2.11-2.56,5.08-3.5,8.12-4.33A11.64,11.64,0,0,1,148.16,207Z"/><path class="cls-3" d="M156.18,226h8v.45h-7.94Z"/><path class="cls-3" d="M101.28,224.39c3.5-.37,5.75.23,9.35,1.6C106.77,226.29,104.47,226.08,101.28,224.39Z"/><path class="cls-3" d="M130.45,48.83l4.39-2.75.29.49-4.64,2.3Z"/><path class="cls-1" d="M113.67,36.79a8.83,8.83,0,0,1-6.45-3.41A8.15,8.15,0,0,1,113.67,36.79Z"/><path class="cls-3" d="M130.49,48.87,127.65,52l-.57-.58,3.37-2.58Z"/><path class="cls-1" d="M145.52,28.59l3.74,2.24.1,1.36a.71.71,0,0,1-.5.79Z"/><path class="cls-3" d="M124.16,21.5c-1.42.21-2.71,0-3.5-1.33-.1-.19.12-.82.28-.85a3.37,3.37,0,0,1,3.8,1.5C124.9,21.34,124.71,21.57,124.16,21.5Z"/><path class="cls-3" d="M99.47,16.86c.5.69.81.93.86,1.22.1.61-.26.92-.83.66a1.12,1.12,0,0,1-.52-.8C99,17.65,99.24,17.34,99.47,16.86Z"/><path class="cls-1" d="M136.38,30.1c2.13.81,2.13,2.72,2.31,4.53Z"/><path class="cls-3" d="M188.94,72.94c-.86-2.25-1.14-3-1.54-4C188.91,69.39,188.81,70.36,188.94,72.94Z"/><path class="cls-3" d="M97.37,223.44c-1.2.16-2.13.15-2.7-1.12C96,221.67,96.83,222,97.37,223.44Z"/><path class="cls-3" d="M130.49,30.89l-2.53.52C128.52,29.84,129.18,28.78,130.49,30.89Z"/><path class="cls-3" d="M152.2,24.07l-.6-1.14.31-.08.26,1.27Z"/><path class="cls-3" d="M155.21,28.56l.47,1.6-.24.05-.19-1.69Z"/><path class="cls-3" d="M146.22,20.32l.37-.46-.39.44Z"/><path class="cls-3" d="M125.79,12.67l-.48.5.53-.46Z"/><path class="cls-3" d="M125.84,12.71l1-.25-1,.22Z"/><path class="cls-3" d="M122.49,38.22c0,.1-.07.26-.15.29s-.2-.08-.31-.13c0-.1.08-.27.16-.29S122.39,38.17,122.49,38.22Z"/><path class="cls-3" d="M124.05,40.16l.28,1.15-.66-.71C123.51,40.21,123.64,40.06,124.05,40.16Z"/><path class="cls-3" d="M113,226.87c-.54-.08-1.25,0-1.08-.84a8.69,8.69,0,0,1,1.49,0Z"/><path class="cls-3" d="M44.43,107.37l-.59.31.64-.27Z"/><path class="cls-3" d="M62.13,45.72l.5.44c-.17.15-.34.41-.51.41s-.34-.26-.5-.41Z"/><path class="cls-3" d="M150,20.32l-.21-.19.23.18Z"/><polygon class="cls-3" points="46.45 90.92 46.42 90.72 46.47 90.97 46.45 90.92"/><path class="cls-3" d="M34.55,135.78a.92.92,0,0,1,.24.19c0,.06,0,.16,0,.24l-.19-.45Z"/><polygon class="cls-3" points="96.86 22.22 96.64 22.3 96.67 22.08 96.86 22.22"/><path class="cls-1" d="M135.63,29.48c.26.23.53.45.8.67C136.16,29.93,135.89,29.71,135.63,29.48Z"/><path class="cls-1" d="M138.71,34.5l.15,1.37Z"/><path class="cls-3" d="M175.87,99.08h0Z"/><path class="cls-3" d="M123.67,40.6c.13-.14.25-.29.38-.44C123.93,40.31,123.8,40.46,123.67,40.6Z"/><path class="cls-1" d="M149.36,32.19l.2.92-.7-.13Z"/><path class="cls-3" d="M155.25,28.52l0,.05Z"/><path class="cls-3" d="M152.17,24.12l0-.05Z"/><polygon class="cls-3" points="132.72 24.05 132.62 24.14 132.75 24.09 132.72 24.05"/><path class="cls-3" d="M93.76,228c0-.25,0-.5,0-.74h0c.18.17.24.33.18.49s-.13.25-.19.25Z"/><path class="cls-3" d="M161.54,21.26c.06.07.17.15.17.22s-.14.12-.21.18-.17-.16-.17-.23S161.47,21.31,161.54,21.26Z"/><path class="cls-3" d="M124.74,20.82c.22.57.06.83-.58.67C124.35,21.27,124.54,21,124.74,20.82Z"/><path class="cls-3" d="M150,20.31h0Z"/><path class="cls-2" d="M142.47,244.5h0Z"/><path class="cls-1" d="M223.05,232.47c.33-.75-.41-2.25,1.37-2,2.83.44,6.47,8.13,5,10.59Q226.26,236.79,223.05,232.47Z"/><path class="cls-3" d="M206,223.48c-.18.24-.33.54-.41.53a4.92,4.92,0,0,1-.89-.37c.15-.22.33-.61.45-.6A2.56,2.56,0,0,1,206,223.48Z"/><path class="cls-2" d="M75.53,234.22l.31-.33Z"/><path class="cls-2" d="M145.81,197.82l-6-.69-1.4-.65c-.59.48-1,.35-1.16-.39-9.52-5-18.47-10.72-25.45-19.08l0,0c8.57,5.7,17.22,11.28,25.66,17.15C140,196,143.28,196,145.81,197.82Z"/><path class="cls-2" d="M104.25,159.54c-.08,1.8-.6,3.57-2.2,4.38-.93.47-1-.82-.8-1.48.6-1.77-.34-4.28,1.81-5.19C104,156.87,104.21,158.54,104.25,159.54Z"/><path class="cls-2" d="M111.77,177l-2.22-1.91c1.57.27,2,1,2.17,2Z"/><path class="cls-1" d="M137.22,196.09l1.16.39Z"/><path class="cls-1" d="M138.07,84.26c-7.45-3.24-15.53-2.24-23.51,1.2a1.73,1.73,0,0,1-2.35-.5c-.53-1,.38-1.56,1-2.14,6.94-6.5,20.61-7.85,29.1-2.91,1,.57,1.73,1.27,1.17,2.36C142.55,84.09,140.69,84.11,138.07,84.26Z"/><path class="cls-1" d="M90.75,76.56c0-1,0-2,0-3l0,0c.28-.25.54-.51.79-.78l0,0c2.19-.89,4.29-.79,5.5,1.41,1.31,2.4-.65,2.66-2.33,3.67-1.36.82,1.85,3.59-.93,5.41-1.65,1.08-8.49,2.9-9.89,1.51a2.44,2.44,0,0,1-.47-1.55c3-1.65,3.64-5.93,7.39-6.73.38.32-.17-.16.2.17Q91.07,76.8,90.75,76.56Z"/><path class="cls-2" d="M66.86,92.63a3.42,3.42,0,0,1,.65.27c.2,3.08-2.06,4.31-4.24,5.59l-.6.59a.79.79,0,0,1-1.13-.1c-.07-1.8-3.48-.75-2.68-2.7.67-1.65,2.84-1.73,4.58-1.87C64.85,94.3,66.15,94.06,66.86,92.63Z"/><path class="cls-2" d="M135.34,100.22c1.84-1.18,2.25-3.1,2.58-5.21,1.62,1.06,1.46,2.64,1.55,4.13C138.24,100.06,137,101.09,135.34,100.22Z"/><path class="cls-2" d="M90.4,65.36c2.56-1.74,4.29-1.55,7.06.7Z"/><path class="cls-1" d="M105.67,68.53a1.17,1.17,0,0,1-1.51,1.15c-1.21-.17-1.52-1.16-1.64-2.14-.11-.81.55-1,1.2-.89C104.73,66.87,105.57,67.33,105.67,68.53Z"/><path class="cls-2" d="M106,35.07a13.33,13.33,0,0,1,1.5,2.44c.07.22-.71,1-1.14,1.05-1.14.11-1.46-.81-1.37-1.72C105.06,36.36,105.52,35.91,106,35.07Z"/><path class="cls-1" d="M105.73,60.08c.82-.39,1.51-1.71,2.5-.8a2.93,2.93,0,0,1,.26,2.34c-.26,1.11-1,1.72-2.06.61,0-.48-.52-.45-.73-.73l.08.11A1,1,0,0,1,105.73,60.08Z"/><path class="cls-1" d="M106.17,77.37c-.61,1.59-.79,2.54-1.84,2.58-.21,0-.61-.69-.64-1.09a1.46,1.46,0,0,1,1.46-1.71A2.47,2.47,0,0,1,106.17,77.37Z"/><path class="cls-2" d="M105.73,60.08c0,.51,0,1,0,1.53C105.77,61.1,105.75,60.59,105.73,60.08Z"/><path class="cls-1" d="M111.44,58.5l-.43-.38A.57.57,0,0,1,111.44,58.5Z"/><path class="cls-2" d="M105.7,61.5c.85-.35.89.09.73.73C106.19,62,105.94,61.75,105.7,61.5Z"/><path class="cls-2" d="M198.71,81.05c-.45-1.66-.87-3.33-1.34-5-.21-.72-1.69-1-.77-2.09a2.23,2.23,0,0,1,1.59-.73c1.11.1,2.17,1.34,1.81,2-1.1,1.86,1.67,4.53-1.32,5.83Z"/><path class="cls-1" d="M197.37,85.78c1.95-.1,2.79-.22,3.62-.16,1.93.14,3.95,0,5.57,1.35.17.14,0,1.14-.21,1.21a6.93,6.93,0,0,1-6.26-.94C199.58,86.92,199,86.67,197.37,85.78Z"/><path class="cls-2" d="M203.06,124.6l6.27,1.33C207.33,127.31,205.59,127.31,203.06,124.6Z"/><path class="cls-1" d="M198.07,168.79c-1.5-.07-2.27-.7-2.34-1.82,0-.39.72-1.19,1.06-1.16a2.4,2.4,0,0,1,2.29,2.05C199.13,168.15,198.31,168.58,198.07,168.79Z"/><path class="cls-2" d="M211.66,122.86c-1.44-1.32-2.48-2.37-2-4a1.44,1.44,0,0,1,1.2-.43C212,119.46,212.33,120.83,211.66,122.86Z"/><path class="cls-2" d="M209.12,106.43c-.15,1.15-.82,1.07-1.42.95s-1.47-.1-1.16-1a1.76,1.76,0,0,1,1.4-.92C208.37,105.48,208.79,106.14,209.12,106.43Z"/><path class="cls-2" d="M197,97.17l1.65,2.15c-.37.16-.83.54-1.1.43C196.52,99.35,196.59,98.52,197,97.17Z"/><path class="cls-2" d="M182.94,52.93c-.43-.76-.84-1.16-.78-1.48s.57-.58.94-.71c.11,0,.6.47.58.7C183.65,51.82,183.34,52.17,182.94,52.93Z"/><path class="cls-2" d="M184.68,51.6c.15-.77.31-1.54.52-2.57,1.23,1.2.79,2.1.21,3C185,52.23,184.73,52.09,184.68,51.6Z"/><polygon class="cls-2" points="197.92 81.79 197.85 81.95 197.94 81.81 197.92 81.79"/><polygon class="cls-1" points="194.28 179.95 194.29 180.18 194.05 180.18 194.28 179.95"/><path class="cls-2" d="M185.41,52c-.47.24-.84.31-.73-.43Z"/><path class="cls-2" d="M198.68,81l-.76.77,0,0,.77-.76Z"/><polygon class="cls-2" points="168.66 82.61 168.57 82.45 168.75 82.53 168.66 82.61"/><polygon class="cls-2" points="168.75 82.53 168.82 82.68 168.66 82.61 168.75 82.53"/><path class="cls-3" d="M216.77,161.94c-1.24-.17-1.64-.68-1.4-1.55a1.65,1.65,0,0,1,1.87-1.35c.82.08,1.49.64,1.09,1.44S217.19,161.56,216.77,161.94Z"/><polygon class="cls-3" points="206.17 174.06 206.25 173.94 206.16 174.04 206.17 174.06"/><path class="cls-3" d="M209.9,153.78l0,0Z"/><path class="cls-2" d="M57,90.8c2.48-1.27,4.9-2.57,4.63-6C64.52,84.26,65,88.7,68,88l-1.3,1.2A5,5,0,0,0,62,90.75C60.34,92.46,58.67,93.6,57,90.8Z"/><path class="cls-1" d="M61.54,99l1.13.1Z"/><polygon class="cls-1" points="62.28 102.81 62.43 102.67 62.27 102.78 62.28 102.81"/><polygon class="cls-2" points="160.56 18.33 160.56 18.56 160.33 18.44 160.56 18.33"/><path class="cls-2" d="M59.47,79.46c-1.9,1-2.56,3-3.42,4.75-.46.94-1.22,1.86-2.33,1.39-1.94-.82.12-1.51.27-2.24.67-3.29,2.46-5.54,6-5.94C59.83,78.1,59.65,78.78,59.47,79.46Z"/><path class="cls-3" d="M75.74,61.52l.44-.34-.33.44Z"/><path class="cls-3" d="M91.53,72.78l-.79.78Z"/><path class="cls-2" d="M125.2,31.59l1,2.07c.24.72,0,.92-.67.59L123.17,34l-4.87-4.24C120.89,30.17,123.92,28.52,125.2,31.59Z"/><path class="cls-2" d="M181.73,92.2l.21.12c.34.17.72.3.72.78l-.12.07c.39,2.82.37,5.4-3.38,5.83,1.59-1.54,1.85-3.61,2.28-5.62C181,92.86,181.13,92.47,181.73,92.2Z"/><path class="cls-2" d="M93.75,228c0-.25,0-.49,0-.74C93.76,227.53,93.76,227.77,93.75,228Z"/><path class="cls-3" d="M181.73,92.2c-.1.39-.19.78-.29,1.18-.25-.6-.49-1.21-.74-1.81l0,0Z"/><path class="cls-3" d="M180.7,91.57l0,0Z"/><path class="cls-3" d="M182.66,93.1l-.72-.78Z"/><path class="cls-2" d="M126.15,33.66c.59.36.94.81.31,1.4a8,8,0,0,1-1-.81Z"/><path class="cls-3" d="M90.75,76.56l.31.06-.3-.08Z"/></g></g></svg>