<svg xmlns="http://www.w3.org/2000/svg" viewBox="0 0 255 249"><defs><style>.cls-1{fill:#214077;}.cls-2{fill:#8598b5;}.cls-3{fill:#b5bdd1;}.cls-4{fill:#617d9f;}.cls-5{fill:#3d4e67;}.cls-6{fill:#192a31;}.cls-7{fill:#8d6e5c;}</style></defs><title>dr_ppe_4</title><g id="Layer_2" data-name="Layer 2"><g id="Layer_1-2" data-name="Layer 1"><path class="cls-1" d="M9.21,248.56c-7.64,1.65-9.24-1.34-9.21-9C.35,160.74.23,81.9.14,3.07.14.5.65,0,3.21,0Q127.58.14,251.93,0C254.5,0,255,.5,255,3.07q-.13,120.5-.07,241c-1.15.61-1.92,0-2.5-.88-5-7.61-12.77-10.94-21.15-13.21a29.61,29.61,0,0,1-3.11-1.24c-4.37-1.09-8.23-3.43-12.42-5a15.29,15.29,0,0,0-5.39-1.32c-5.17-.34-10.29-1.22-15.48-1.08a4.47,4.47,0,0,1-2.38,0,7.34,7.34,0,0,0-6.81-.69c-3,1.19-5.54,1.19-7.61-1.66-.36-.49-1.13-.45-1.75-.57-4-1.07-6.77-4.11-10.31-5.91a15.77,15.77,0,0,1-.22-7.54c.73-1.89,2.77-2.19,4.1-3.35.28-.26.58-.5.88-.73.69-.62,1.09-1.57,2.1-1.82,1.42,0,2.67-.43,3.24-1.88a3.07,3.07,0,0,1,3-2.2c1.43-.4,3-.9,4.35-.37,4.42,1.7,7.45-.81,10.49-3.24,2.27-1.81,5.29-2.73,6.72-5.56a9.11,9.11,0,0,0,1.84-1.88,10.64,10.64,0,0,0,5.79-7.14,7.4,7.4,0,0,1,3.9-5.09,9.27,9.27,0,0,0,4.24-5.39,27.9,27.9,0,0,1,4.91-9.17c-.24-3.78,2.75-6.21,3.92-9.39a11.23,11.23,0,0,1,1-3.52c1.73-4.21,1.75-4.2-2.18-6.67-3.65-8.36-10.27-15.72-8.63-25.83a40,40,0,0,0,1.59-7.83c0-.24,0-.56.18-.7,5.95-4.84,1.91-9.5-.35-14.07-3.09-6.24-8.54-10.49-13.36-15.25-1.43-1.42-2-2.74-1-4.58a2.58,2.58,0,0,1,.84-.63c2.81-.2,3.24-1.79,2.48-4.15a7.28,7.28,0,0,0-1.43-3c-3.6-3.5-5.45-8.21-8.52-12.08-2.23-2.8-3.74-6.18-6.93-8.16-2.26-2.1-3.14-4.94-4-7.75-.58-1.86-1.5-3.06-3.62-2.91A2.3,2.3,0,0,1,179,29.41c-2.18-3.59-5.49-5.8-9.15-7.67a171.85,171.85,0,0,1-16-9.3A6.73,6.73,0,0,0,150.15,11c-2.39-.25-4.77.29-7.16,0-6.17-.22-12.29-2.35-18.49-.34-5.76-.41-11.44,1.17-17.22.87-.62,0-1,.66-1.37,1.14a3.07,3.07,0,0,1-3.43.8c-5.22-1.43-9.6.71-13.59,3.49C84,20.33,78.3,22.42,74,26.66a6.09,6.09,0,0,1-.87.64c-5,2.12-9.17,5.87-14.53,7.45-2.55.75-4.19,2.77-3.15,5.83a5.12,5.12,0,0,1-1.19,5.17C51.43,49.23,50,53.4,48.1,57.43c-3,6.39-4.61,13.1-6,19.87-.82,4.07-1.24,8.17-3.3,11.86.1,4.68-2.9,8.5-3.66,13a10.32,10.32,0,0,0-.12,3.95c-.59,3.88-3,7-4.29,10.63a249.56,249.56,0,0,0-7.18,24.11c-.69,2.93-1.21,6-1.84,8.95-.18,2.08,1.71,2.82,2.7,4.14,1.74,3.44,3.15,7,4.68,10.57,2.94,4.28,5.52,8.87,10.37,11.43,2.52,3.79,6.54,6.23,9,10.06,2.2,4.69,5.56,8.85,6.07,14.33.16,1.69,2,2.88,3.32,3.89,5,3.87,7.91,9.43,11.91,14.1.71.84.43,1.9.47,2.89a3.8,3.8,0,0,1-1.2,1.79c-1.18.66-2.44.32-3.66.35-.7-.19-1.34-.74-2.16-.53A6.18,6.18,0,0,0,60.9,224l-.81.52a2.86,2.86,0,0,0-1.06,1,3.4,3.4,0,0,1-2.65,2.34c-12.51,2.84-24.06,8-35,14.55-2,1.19-4.26,2-6,3.63A26.8,26.8,0,0,1,9.21,248.56Z"/><path class="cls-2" d="M167.34,204.65c0,2.6.07,5.2.1,7.79,1.2,1.77,3.28,2.58,4.61,4.16,1.55,1.85,3.1,2,4.92.5,4.75,4.1,10.79-.52,15.72,2.33.7,5,4.61,7.36,8.21,9.84A53,53,0,0,1,216,244.92c.79,1.27,1.29,2.43,0,3.64H144.05c-1.06-1.23-2.53-2.16-3-3.89a2.8,2.8,0,0,1-.08-1.11,3.77,3.77,0,0,1,1.3-2.6c2.58-2.12,2.32-4.7,1.41-7.47-.74-2.22-1.57-4.12-4.51-3.84a8.45,8.45,0,0,1-2.52-.6,2.84,2.84,0,0,1-2.11-3.12c0-1.76,1.2-2.23,3.47-2.21-3.67.28-4.52,1.92-2.91,4.29.49.72,1.32,1.11,1.92,1.75,1.55,1.68,2,3.41.36,5.29a11.68,11.68,0,0,0-3.08,9.94,3.63,3.63,0,0,1-1.53,3.57H81.87c-4.32-3.75-6.68-8.61-7.9-14.09a4,4,0,0,1-.11-1c-.15-4.2-2.57-7.23-5.28-10.1a3.48,3.48,0,0,1-.24-1l.84-1.27c.75-1.18.72-2.88,2.31-3.5a7.46,7.46,0,0,1,4.66-.43c4.66,2.88,9.65,2.46,14.7,1.38,1.33-.28,2.42-1.29,3.84-1.33a5,5,0,0,0,2.17,0c1.88-.49,3.62.49,5.45.48,2.87.78,5.9.78,8.75,1.77a3.16,3.16,0,0,0,4-1.23c1.14-2.16,3.1-2.6,5.11-3.33,4.3-1.59,8.52-3.39,12.86-4.9,2.35-.82,5.13.7,7-1.6,1.3-1.5,3.65-.42,4.92-2,3.41-2.72,7.44-4.44,11-6.91a6.24,6.24,0,0,0,1.91-1.7c1.22-1.46,2.55-2.71.07-4.48-1.5-1.08-.6-2.48.86-3.18,2.33-1.12,2-2.2.45-3.94a31.65,31.65,0,0,0-12.41-8.61c-2.48-1-4.79-2.48-3.46-5.89,4.61-2.65,4.6-2.64-.08-6a24.57,24.57,0,0,1-5.31-4.67c-3.1-4-7.73-3.69-12-3.79-2.32-.06-2,2.12-1.69,3.73.71,3.11,1,6.15-.72,9.07-5,1.54-9.47-.19-13.84-2.23-1.92-.9-1.74-2.78-1.52-4.59.59-5,.3-5.43-4.52-6.86-3.93-1.31-4.91-4.18-2.88-8.23a5.09,5.09,0,0,0,.74-1.23,9.39,9.39,0,0,1,9.14-7.27c6.3,1,12.5.13,18.71-.74,3.27-.46,6.38-2.17,9.81-1.34,2.45,2.89,2,5.28-1.35,6.38a10.68,10.68,0,0,1-4,.59c-2-.1-3.81.54-4.51,2.54-.76,2.17-3.79,2-4.1,4.42,4.94.81,9.62-1.25,14.46-1,2.2.14,4.43-.54,6.6.13a9.59,9.59,0,0,0,1.25.13,4.83,4.83,0,0,1,3.33,0c3.82,1.53,7.21,4,11.51,4.54,2.15.28,3.83,1.92,4,4.71s1.75,5.08,3,7.49c1.88,3.57.66,5.33-3.21,5.16,1.29.88,3.8-1,4.34,1.44.6,2.69-2.5,2.63-3.8,4.13a10.7,10.7,0,0,1,2.09,3.19c1.91-1.56,3.38-3.4,5.78-4.08,1.55-.44,3.11-1.74,4.4-.16s2.29,3.85,1.41,6.22c-.13.35-.24.85-.5,1-4.36,2.12-4.62,7-7,10.4-2.51,1.6-5.2,3-4.17,6.86C169,202.7,167.9,203.7,167.34,204.65Z"/><path class="cls-2" d="M77.38,248.56H75.13c-.42-.44-1-.68-1.44-1.1-2.25-2.49-3.6-1.59-4.55,1.1H27.93c-1.49-1.57-1-2.88.55-4a13.55,13.55,0,0,1,1.64-.88c4.85-2.52,9.41-5.26,12.35-10.25,1.67-2.85,6.4-3.12,10.46-1.19,1.42.67,2.64,1.79,4.22,1.94-1.6-1.3-4.71-1.77-4.07-4.57s3.74-2,5.71-2.27c2.7-.35,5.4-.33,7.77-1.95,4.88-.12,7.43,1.93,7.25,7.23-.15,4.3,1.28,7.74,3.23,11.26C77.84,245.3,79.17,246.86,77.38,248.56Z"/><path class="cls-3" d="M66.78,227c-2.2,2.53-5.15.89-7.71,1.4-1.53.3-3,.81-4.53,1.22,1.11.88,2.2,1.78,3.33,2.62a29.91,29.91,0,0,1,6.21,5.63c-17.58-12.84-25,4.41-36.15,10.67H13c-.59-1.41.87-2.44.69-3.78,13.42-7.9,26.71-16.07,42.67-18,.91-.11,1.61-1.88,2.41-2.87a1.69,1.69,0,0,1,.72-.63l.77,0,.5.16c1.15,1.06,2.14,2.41,4,2.05A2.05,2.05,0,0,1,66.78,227Z"/><path class="cls-2" d="M194.05,219.81,211.43,221c4.75,2.89,8.68,6.83,13,10.25,2.26,2.81,3.5,6.35,6.39,8.69,1.43,2.71,4.44,5,2.37,8.64H222.71a19.69,19.69,0,0,1-5.55-6.83c-2.16-4.53-6.12-7.74-8.8-11.9-1.37-2.14-3.73-3.23-6.18-3.87a49.48,49.48,0,0,1-6.61-2.47C193.94,222.8,192.76,221.78,194.05,219.81Z"/><path class="cls-4" d="M132.82,248.56c-1.44-5.77-1.91-11.29,3.49-15.61.27-.21-.54-2.26-1.26-3.11-5.84-6.9-1-7.72,4.54-7.85,1.6,0,3.59-1.56,4.93.67-1.65.92-3.34,1.77-4.93,2.79-1.29.82-3.26-1.46-4.11,1,1.77.44,3.57,1.26,5.33,1.2,1.34-.05,2.64-1.22,4.47-2.16-2.79,6.23,5.89,13.47-2.72,18.62h0l1.5,4.49Z"/><path class="cls-2" d="M228.72,227.31c10.81,2.35,20.24,6.86,26.21,16.76l-.75,4.49c-.61-.76-1.7-1-2-1.88.07.12-.08,0-.06.12a2.29,2.29,0,0,1-.9,1.76H238.45a19.15,19.15,0,0,1-4.26-6.84,29.73,29.73,0,0,0-5.88-8.78C226.08,230.51,226.25,229.27,228.72,227.31Z"/><path class="cls-4" d="M194.05,219.81c1.29.84,2.49,2.1,3.9,2.45,14,3.43,19.25,15,24.76,26.3H216c-4.75-11-16.05-15.78-23.38-24.34-1.14-1.34-3.49-3.29.1-4.79Z"/><path class="cls-4" d="M228.72,227.31c-2.13,4.93,3,6.46,4.6,9.62,1.93,3.79,5.36,6.89,5.13,11.63H233.2l-3.8-8.06c-.1-3.07-3.5-7.6-6.27-8.36-4.18-3.42-9.34-5.83-11.7-11.16Z"/><path class="cls-4" d="M66.78,227l-2.86-.21a2.39,2.39,0,0,1,.15-4.12,2,2,0,0,1,1.17-.1c1.3-.3,2.65.41,3.94-.21,4.45,2.38,5,7.15,6.76,11.13l-.26-.15c-.05,0-.07,0-.06,0s.09.27.15.27l6.1,14.88H77.38c-3.15-5.89-6.38-11.66-5.87-18.81C71.71,227,69,226.91,66.78,227Z"/><path class="cls-4" d="M69.14,248.56c-.56-2.19-1.11-4.39-1.79-7.1,3.92,1.75,7.37,2.83,7.78,7.1Z"/><path class="cls-1" d="M249.61,242.63c3.55.42,3.59,3.54,4.57,5.93h-3l-1.52-6Z"/><path class="cls-2" d="M13.64,244.78c1.16,1.52.14,2.63-.69,3.78H9.21Z"/><path class="cls-4" d="M203.48,70c5.35,6.37,11.24,12.38,15.84,19.26,3,4.48,6.15,10.39-1,14.83-.59,2.14-4.33.09-4.09,2.89.15,1.76,2.39,2.75,2.65,4.69-.67,9.5,6.13,16.59,8.17,25.22,1.12,1.54,3.28,2.81,2.23,5.11-1.29,2.81-3,5.91-6.17,6.4-4.32.68-6.74,3.32-9.08,6.41a6.4,6.4,0,0,1-.7.77,49.34,49.34,0,0,0-5.61,6.3,4.63,4.63,0,0,0-1.17,3.74c.18,1.38-.09,2.43-1.46,3-3.68.43-6.35-1.35-8.64-3.91-1.58-1.61-1.13-3.38-.35-5.16.5-1.14,1.31-2.12,1.77-3.28,1.12-2.81.31-4.28-2.72-4.64-2.21-.27-4.49,0-6.6-1-2.61-1.2-2.83-3.44-.47-5.1a6.09,6.09,0,0,1,4.59-1.17,34.3,34.3,0,0,1,5.46,1.18c6,2,7,1.48,9-4.28,3.56-2.86,3.55-4.26-.17-7-.7-.5-1.55-.79-2-1.61-2-3.86-2.59-8-2.86-12.28,1.76-1.37,3-3,2.87-5.43a4.77,4.77,0,0,1,1.31-3.63c.87-.42,2,0,2.47-.52-1.72.52-4.25-.41-5.84,1.68a4,4,0,0,1-1.72,0c-2.47-.83-2.74-3.28-3.79-5.15,0-8.37-3.06-16.28-3.74-24.56a6.86,6.86,0,0,1-.12-1.12c1.35-4.11-.55-7.7-2.05-11.26-1.15-2.71-2.11-5.51-3.37-8.19a1.76,1.76,0,0,1,.33-2A6.38,6.38,0,0,0,189,54.49c0,.15,0,.3,0,.46a6.92,6.92,0,0,1-2.47,5.21c-.36.18-.84.4-1.08.18-2.75-2.57-5.49-5.16-6-9.2.51-4.31,6.42-10.33,10.64-10.84a61.64,61.64,0,0,1,17.08,24.94c1.05,2.81-.41,4.24-3.28,4.36-1.64-2.33-3.61-1.52-5.37-.65C200.22,68.56,202.38,66.67,203.48,70Z"/><path class="cls-2" d="M104.93,11.86c5.62-4.91,12.75-1.66,18.94-3.51,4.18.77,8.51.45,12.59,1.9a3.37,3.37,0,0,1,1.87,1,27.2,27.2,0,0,0,2.51,6.45c-.06-.13,0,.06,0-.1A21.91,21.91,0,0,1,138.57,12c.6-2.55,3.19-1.72,4.67-2.76l8.28-.11c2.6,4.19,5.17,8.4,9.61,11l1-.1A25.52,25.52,0,0,1,178,27.39c1.72,1.73,1.82,4.26,1.12,6.65-.39,1.24-1.75,1.78-2.2,3a4.71,4.71,0,0,0-.25,1.63c0,.41,0,.82.05,1.23l.12.82c.06.28.1.56.14.85A16.5,16.5,0,0,0,178,44.07a3.43,3.43,0,0,1,.05,1,5.32,5.32,0,0,1-1.46,2.79c-1.76.94-3.12-.09-4.48-.94-4.19-2.59-8.36-5.17-13.61-3-.44.18,0,.25-.35,0-3.93-2.76-9.09-2.71-12.9-5.69-2.08-3.76-3.71-7.86-7.6-10.22a1.86,1.86,0,0,1-.49-.29l-.09-.06s-.05,0,0,.07a1.29,1.29,0,0,1,.16.09,1.14,1.14,0,0,1,.37.48c.11.27.2.51.3.79.84,2,2.26,3.44,2.13,6-.19,3.87-.45,4.48-4.42,3.74a10.86,10.86,0,0,1-1.58-.43,3.34,3.34,0,0,1-.82-.67,7.35,7.35,0,0,1-.51-.85c-.16-.23-.32-.49-.51-.73a1.12,1.12,0,0,0-1.25,0c-1.28.67-2.29,1.52-1.78,3.12.44,1.38,1.61,1.67,2.91,1.62a5.26,5.26,0,0,1,1.8.21c2.3,2.79,1.74,4.94-1.95,6.24-2.5.88-4.28,2.22-5,4.77-.32,2.61-1.75,4.22-3.89,5.87-5.14,4-8.42,9.64-12.22,14.82-.65.88-1,2-2.21,2.36-3.76-.21-4.64-1.28-3-4.52,1.89-3.67,4.52-6.94,6.92-10.31,1.13-1.58,2.69-2.9,3.83-4.53,1-1.43,1.24-2.72-.55-3.74a4.24,4.24,0,0,1-.84-.68,13.57,13.57,0,0,0-1.59-2.5A2.94,2.94,0,0,1,113,45.1c.84-1.49,2-2.19,3.66-1.48a7,7,0,0,0,2,.49h0c-.5,0,.15,0-.36,0a12,12,0,0,1-1.42-.4,2.52,2.52,0,0,1-1.72-1.75c-.19-1,.45-2.26-.77-3-.3-.12-.59-.22-.9-.32a2.69,2.69,0,0,0-1.43-.2,3.57,3.57,0,0,1-4.35-1.16c-.51-.61-1-1.73-2-.93-.86.69-.12,1.6.13,2.39a18.07,18.07,0,0,0,1.42,3.44,2.56,2.56,0,0,1-.43,3.4c-1.78,1.05-3.15-.64-4.75-.69-.53-.13-1.06-.25-1.59-.39-1.47-1.05-3.21-.85-4.87-1-1.3-.11-2.69.22-3.76-.87C92,37.23,88.09,36,84,34.92a2.17,2.17,0,0,1-1.16-.87c0-4,2.55-6.11,6.2-5.06.22.07.47.39.64.33C93,28.09,96.66,29,99.9,27.61c.55-1.18,2.34-1.83,1.53-3.61a2.23,2.23,0,0,1,.26-1,3.47,3.47,0,0,1,2.42-1.23c1.54.64,3.27.59,4.76,1.38,1.2.93,2.82.74,4.06,1.54a3.22,3.22,0,0,1,1.21,1.83,2.3,2.3,0,0,1-.17,1.07,5.81,5.81,0,0,1-2.1,2c2.3.91,4.76,3,6.08-1.34.29-.92,1.75-.51,2.65,0,.13.16.27.32.4.49l-.4-.5a55.33,55.33,0,0,0-9.5-5.67c-.24-.25-.47-.51-.7-.77-.68-1.65-2.23-2.59-3.22-4-.42-.74-.92-1.42-1.38-2.13a5.1,5.1,0,0,1-.71-1.32A4.22,4.22,0,0,1,104.93,11.86Z"/><path class="cls-3" d="M108.08,14.28l.28,3.14A3.56,3.56,0,0,1,106,22a2.29,2.29,0,0,1-1.07-.08l-.92-.43-.46-.11a2.82,2.82,0,0,1-.84-.35,1.75,1.75,0,0,1-.46-.7,2.45,2.45,0,0,1,0-.81s0,0,0,0a4,4,0,0,0-.07.85c0,1.32-.52,2.07-2,1.52-.88-1.12-1-2.75-2.32-3.53-.15-.15-.33-.33-.5-.48,0,0-.28-.17-.29-.14s-.31-.09-.33-.07a2.32,2.32,0,0,1-.37,0,2.82,2.82,0,0,0-.39,0c-3.64.8-3.64.8-3.24,6.29-.45,1.81.1,2.71,2.07,2.23.85-.21,1.68-.49,2.53-.66,2.68-.52,4.08.52,4,3.31-3.6,3.11-8,.55-12.15,1.61-2.64.68-4.16,1.44-5.58,3.35.47,2.56-1.27,2.4-2.89,2.36-1.73-.81-3.5-1.38-5.38-.38-1.45.93-3-.05-4.52.34-2.08.47-3.18,2.44-4.2,3.76a12.06,12.06,0,0,1-5.54,4.12C58.4,45.15,60,47.43,61.52,49a15,15,0,0,0,2.42,1c2.13,1.29,2.34,3.3,2.21,5.52A19.58,19.58,0,0,0,66.26,60c0,.72.27,1.41.31,2.13,0,.36-.07.72-.11,1.08a3.3,3.3,0,0,1-.33,1A3.87,3.87,0,0,1,65,65.34a19.37,19.37,0,0,0-5.3,2.35c-3,0-4.08-1.78-4.62-4.51s-.21-5.62-1.26-8.23c-.1-.06-.2-.17-.3-.24s-.34-.11-.34-.11-.36,0-.38.06c-.87,2.32-1.78,4.55-.54,7A3.91,3.91,0,0,1,52,64.94a9.26,9.26,0,0,0-.84,6.75c.54,1.94-1.86,3.36-2,5.43a23.31,23.31,0,0,1-4,10.94,5.2,5.2,0,0,1-7.68,1.07c3-16.08,7.57-31.44,15.4-46.07,1.62-3,.22-8.33,5.09-10.58s9.74-4.49,14.6-6.74c.2.44.62.76.65,1.28a4.53,4.53,0,0,1-.64,1.23c.07-.12,0,.08,0-.06a4.8,4.8,0,0,0,.37-.52c.62-.81-.12-1.34-.32-2,4.8-4.75,11.08-7.14,16.69-10.62,4.9-3,9.81-5,15.61-3.22l2.61,1C107.66,13.36,107.53,14,108.08,14.28Z"/><path class="cls-2" d="M37.48,89.13c6.07.06,8-4.3,9.28-9a100.22,100.22,0,0,0,3.89-24.76c0-2.21,1.19-3.07,3.24-3.07,1.66,2.49-.2,5.38.92,7.93,0,.34.11.67.16,1,.56,1.48.11,3-.11,4.42a10.71,10.71,0,0,0,.68,6.14c.8,1.87,1.78,3.92.62,6.09a1.4,1.4,0,0,0,0,1.45c2.09,2.55,2.4,4.94.07,7.65-1.1,1.28.72,2.1,1.37,3.06,1.29,3.13-.62,5.79-1.69,8.34-1,2.31-5.5,1.28-7.57-1.57-.65-.88-.88-2.07-1.94-2.59a4,4,0,0,0-.76,0,2.51,2.51,0,0,0-1,3c1.22,2.5.64,5.25,1.4,7.76.22.23.42.47.64.71.54.52,1.15.93,1.72,1.39a5.62,5.62,0,0,1-.6,9.44,2.27,2.27,0,0,1-3-.42c-1.29-1.27-2.33-1.22-3.1.53a10.52,10.52,0,0,1-1.71,2c-1.17,1.71-1.87,3.68-2.94,5.44-1.24,2.06-2.72,3.86-5.57,2.67-1.52-.79-1.44-2-1.08-3.46a25.12,25.12,0,0,0,1.13-7.2,13.19,13.19,0,0,1,.19-2.08c.77-2.14,2.42-3.81,3.18-5.91l.1-.4A3.24,3.24,0,0,0,35,107a1.51,1.51,0,0,0-.3-.67,3.18,3.18,0,0,0-.83-.67c-2.06-4,.52-7.23,1.63-10.71C36.09,93,36.81,91.06,37.48,89.13Z"/><path class="cls-2" d="M203.14,167.84c-.47-3.5-.94-7-1.31-9.78,5.51,4.1,5.12-3.9,8.16-4.57l0,0a23.72,23.72,0,0,1,10.7-6.57c3.35-1.06,6-5.32,4.37-10,8.8,2.72,3,7.34,1.49,11.41-3.85,1.8-4.7,4.94-3.94,8.8-3.89,11.15-11,20.1-19.35,28.21-1.76-1.47-1.58-3.23-.31-4.73a5.2,5.2,0,0,0,1.17-4.67l-.32-.39a2.35,2.35,0,0,1-.78-1.29,2.7,2.7,0,0,1,.15-1.49c.34-.9,1.54-.9,1.86-1.71-.06.07-.11-.18-.2-.15a3.21,3.21,0,0,1-1.34-.19C202.33,169.87,201.49,169,203.14,167.84Z"/><path class="cls-5" d="M203.14,167.84c.19.81.38,1.62.58,2.43,1.25.81,1,1.71.15,2.64-.06.58-.13,1.17-.19,1.75a3.78,3.78,0,0,1,.09,4.63c-1.75,2.31-1.61,4.87-2,7.39.17,5.14-5.4,4.41-7.69,7.38-3.81,4.95-9.56,4.46-15,2.12-2.23-2.51.14-4.54.71-6.76.21-.31.37-.72.68-.88,5.8-2.93,7.15-8.52,8.49-14.13.74-3.13,3-5.67,3.27-9a1.93,1.93,0,0,1,2.6-1.48Z"/><path class="cls-2" d="M38.28,176.86c-5.17-2.57-9.18-6.14-10.39-12.11.37-1.18.6-2.4,1.09-3.55.41-1,.25-2.28-.78-2.6-2.22-.69-3.3-3-5.47-3.62l-2.36-4c-.64-3.56,3.21-2.18,4.25-3.88.1-.14.21-.26.31-.4,3.67-3.62,3.68-3.63,1.71-8.44a3,3,0,0,1,.09-3.13,8.82,8.82,0,0,1,7.77-.76c2.44.82,5.4-.78,7.58,1.52a2.55,2.55,0,0,1,.57,1.56c-.06.74-.18,1.48-.17,2.22-.71,1.82-1.76,3.57-1.44,5.66a2.26,2.26,0,0,1-1.79,1.87c-5.66,2.86-5.8,8.45-.07,12,2.24,1.38,3.46,3.29,3,5.47-1,4.91,2.32,7.24,5.5,9.09a8.53,8.53,0,0,1,4.52,5.4,32.41,32.41,0,0,0,2.26,5.51c.74,1.47.63,2.63-1,3.42a3.19,3.19,0,0,1-3.07-.94C46.34,183.78,43.24,179.22,38.28,176.86Z"/><path class="cls-3" d="M27.94,149.76c-2.47.74-5.33-1-7.57,1.19-.65-7.48,2.75-14.06,4.56-21,2.19-8.4,4.51-16.73,8.91-24.31l1.78.07.23.17.18-.21a.94.94,0,0,0,.39-.22c1.29.21,1.93.89,1.6,2.25l-4.58,7a2.29,2.29,0,0,1,.43,1.46c-.79,3.21-1.58,6.43-2.36,9.64a1.53,1.53,0,0,1,.43,2.49c-2.18,2.07-2.93,5-4.79,7.26,6,4.42,1.87,9.39.77,14.19Z"/><path class="cls-5" d="M51.17,185.73l2.24,1.47c2,1.28,4.08,2.42,6.12,3.62,2.27,1,2.82,2.49,1.92,4.82-1,2.56-1.09,4.71,2.82,4.34,1.24-.12,2.33.77,3.24,1.67s4.65,9.89,4.25,11c-.73,2,1.64,4.16-.36,6l-2.22,2.34c-3.27-7-10.13-11.3-14-17.78C52.09,198,50,192.19,47.49,186.61,48.39,184.93,49.84,185.58,51.17,185.73Z"/><path class="cls-4" d="M177.73,34.66c-.16-7.7-10-15.31-15.7-12.13h0c-4.69-3.55-11.25-5.63-10.52-13.43,9.71,6.15,20.69,10.43,28.5,19.38a.43.43,0,0,0,.68.12l.84.33c1.92,2,4.16,4,2.33,7.25,0,.17-.07.35-.1.53-.6,3.63.14,7.69-3.45,10.38-1.06.79-2,1.49-3.32.9a1.79,1.79,0,0,1-.69-.82l.7-2.93.16-.19c.05-.07,0,0-.14.2l-1.5-2.63a.88.88,0,0,1,0-1.18l-.05.08a1.42,1.42,0,0,0,.58-1.64c-1.17-.25-1.91-.77-1.3-2.12A32.5,32.5,0,0,0,177.73,34.66Z"/><path class="cls-2" d="M177,47.3c3.87-2.81,6.51-5.9,2.39-10.53-.62-1,.37-1.15.89-1.53,5.34-1.1.87-4.21,1.31-6.32,6.49,1.06,4.83,8.27,8.6,11.38l-9.84,11C176.73,51.62,176,50.8,177,47.3Z"/><path class="cls-2" d="M216.86,111.71c-4.59-1.35-7.27-5.44-5.69-9,1.9-4.3,4.32,2.4,7.13,1.41C217.88,106.67,220,109.68,216.86,111.71Z"/><path class="cls-4" d="M22.73,155c2.76,1.13,5.42,1.14,7.88-.78-1.66,3.12,5.15,7.43-1.39,9.87a13.88,13.88,0,0,0-1.33.68Z"/><path class="cls-2" d="M203.48,70a10.42,10.42,0,0,0-3.29-.3c-5.14,1.19-8.29.34-6.6-6.95,2.77,5.34,5.91,4.94,9.55,1.8,1.27-1.1,1.92-.13,1.35,2.5-.18.83-.37,1.67-.55,2.51A.68.68,0,0,1,203.48,70Z"/><path class="cls-6" d="M181.47,190.8l-2.4,5.37c-1.23,2.43-2.07,5.34-5.79,4.66a10.65,10.65,0,0,1-1.51,1.34c-.25,0-.5.05-.74.09-3-1.74-3.27-3.87-.38-5.77a11.84,11.84,0,0,0,4.51-5.19C177.12,189.18,179.18,188.58,181.47,190.8Z"/><path class="cls-6" d="M177,217.1c.28,2.63-.16,5.92-2.49,6.46-2.85.66-2-2.85-2.62-4.63-.86-2.6-4.6-3.21-4.42-6.48Z"/><path class="cls-5" d="M175.59,192.62c1.78,4.77-7.38,4.38-4.56,9.64l-3.69,2.39c-.27-4.42-1.29-9.14,4.45-11.18C173,192.69,174.07,191.77,175.59,192.62Z"/><path class="cls-4" d="M51.17,185.73l-3.68.88-9.21-9.75C46.22,174.54,45.81,184.32,51.17,185.73Z"/><path class="cls-3" d="M222.58,157.14l-3.27-6.72c3,1.47,3.95-4.36,7.21-2.08Q224.56,152.75,222.58,157.14Z"/><path class="cls-4" d="M201.78,186.68c-3.7-4.69,1.6-8,1.9-12l2.56-.94h0l-3,11.64Z"/><path class="cls-3" d="M143.24,9.2l-4.45,2.89c-.32.45-.57.41-.72-.13l-14.2-3.6Z"/><path class="cls-2" d="M65.3,223.16a2.73,2.73,0,0,1-.57,0,2.86,2.86,0,0,1-1.88.55,1.57,1.57,0,0,1-.75-.62,1.92,1.92,0,0,1,.28-1.44l3.67-1.4-.66,2.2Q66.16,222.88,65.3,223.16Z"/><path class="cls-3" d="M65.3,223.16l.09-.75,3-.08.84,0Z"/><path class="cls-3" d="M62.38,221.61,62,222.75c-.37,1.22-1.1.79-1.83.39l0,.08Z"/><path class="cls-5" d="M171.77,202.17l1.51-1.34Z"/><path class="cls-2" d="M180.7,28.59a1,1,0,0,1-.69-.12A2,2,0,0,1,180.7,28.59Z"/><path class="cls-2" d="M59.44,223.26l-.72.63Z"/><path class="cls-3" d="M175.59,192.62l-3.8.85c-1.1-5.5,3.77-7.12,6.44-10.25.74-.88,0-3-.08-4.59-1.61.58-3.44.84-4.78,1.79-2.78,2-5.57,3.18-9.47,2l3.28-1.79c-3.7-.47-4.67-3.34-6.43-5.55,2.83-1.63,6,3.3,9-1.36-2.57,0-4.66.1-6.73-.06-.74,0-1.43-.73-2.15-1.12.87-.93,2.05-2.79,2.57-2.63,1.56.5,3.83,3.26,4.38,1.2s-2.24-4.92-2.83-7.58c-1.81-8.25-9.21-8.5-15.09-11,1.25-2.2,3.4-1.9,5.39-2,3.95.94,7.93,1.76,12,.22a7.82,7.82,0,0,0-8-2.37c-1.83.46-3.7-.19-5.59,0-7.81.88-15.48,2.57-23.3,3.2-2.18.17-4.46,1-6.58-.38,3.1-4.2,4.36-10.75,12.17-8.73,2.09.54,3.65-1.26,3.66-3.72a1.22,1.22,0,0,1,1.2-.8c1,0,1.53,1.19,2.58.87s1.68-.65.23-1.34a12,12,0,0,1-2-.21c-.47-.19-.86-.83-1.19-.82-5.71.07-8.44-4.14-11.52-7.87a5.87,5.87,0,0,0-4.55-2.25c-3.36,0-6.54-1.43-9.95-1.13A3.23,3.23,0,0,1,111,123a3.31,3.31,0,0,1,1.37-4.22c2.62-1.79,2.15-3.62.06-5.42-1.16-1-1.77-2.06-1-3.59a2.22,2.22,0,0,1,1.46-1.09c9.07-1.14,18-3.14,27-4.48,2,.16,4.08,1.47,6.18.16,1.87-.75,3.91-.68,5.85-1.13,2.51-.57,3.79-1.62,2.89-4.42a8.84,8.84,0,0,1,0-5.5c3.7-2.92,5.44-9.87,3.56-14.2-.48-1.08-1.27-2.22-2.33-2.2-4.31.09-6.69-3.23-9.82-5.2-1-1.41-.52-2.71.06-4.17,1.14-2.91,3-5.74,1.53-9.15-.24-.53.19-1.19.58-1.68,1.3-2.84-.35-6.38-3.27-6.29a51.73,51.73,0,0,1-11.73-.54A3,3,0,0,0,130.76,51c-1.57,1.66-3.11,3.44-5.48,1.13.26-4.28,4.14-5,6.79-6.91,1-.75,2.52-1.45,1.51-3.22-1.31-2-.12-3.47,1.64-3.14,3,.56,4.78-1.27,7-2.38,1.42,0,3-.48,4,1,5.4-.83,9,4.76,14.94,3.53s10.22,3.68,15.11,6.21l.64.14,3.35,4L186.75,60,186.7,60c1.49,7.34,7.27,13.52,5.78,21.65-3.22-.18-2-3.09-2.9-4.69-2.34-5.45-4.35-11.09-8.48-15.57-.25-.28-.52-.53-.75-.83-.72-.94-.74-3.09-2.08-2.7-1.74.51-.79,2.56-.88,3.93a14.26,14.26,0,0,0,1,6.59c1.85,4.38,1.63,5-2,8.35-.53.12-1.07.18-1.61.25-.25,0-.5.07-.74.12-8,1.46-7.38,1-6.9,9.51.22,4,.68,8.06,1.27,12.08.37,2.51,1.46,4.11,3.94,4.08,6.38-.08,12.49,2.32,18.89,1.89a6.58,6.58,0,0,1,5.27,2.39c2.33.7,2,2.94,2.71,4.62,2.39,2.44,3.17,6.16,1.86,8.84l3.22,11.35c1.61,3,4.11,5.79,2,9.56.21,9.1-4.68,8.7-11,6a21.78,21.78,0,0,0-4.35-1.07c-2-.41-4.65.12-4.78,1.73-.16,2.06,2.7,1.72,4.16,1.64,8.71-.44,12.09,1.89,5.86,10.08-.84,1.12-1,2.77-1.44,4.17-1.41,3.9-3.4,7.7-4.1,11.72a22.8,22.8,0,0,1-9.25,15.2Z"/><path class="cls-7" d="M142,209.6c-13.79,1.54-24.46,15.12-39.89,10.32-1.5-1.1-3.51-.46-5-1.49-2.45-1.12-4.11-3.16-6-5a5.9,5.9,0,0,1-1.75-5.78c1.09-5.22,1.37-10.57,2.79-15.76,1.55-5.65.33-11.35-.53-17-.46-3.07-1.44-6-1.8-9.11-.46-2.83,2.65-3.48,3.43-5.55-.93-3.66-3.82-6.18-5.51-9.39-1.19-2.27-2.8-4.31-3-7a2.27,2.27,0,0,1,.66-.93c1.85-1,2.07-2.85,2.39-4.73.84-4.86.33-9.85,1.38-14.69,1.09-5,2-5.68,7.35-5.47,2.14,1.47,5.22,2.23,4.46,5.88-.36,4,1.63,7.56,1.58,11.56-.06,4.28-.16,8.55-.48,12.81-.88,2.76-1.17,5.34,2.1,6.82,1.59,3.38.73,6.35-1.52,9.06-1.52,1-4.52-.6-4.85,1.63-.28,2,2.13,3.82,3.82,4.59,3.93,1.79,5.92,6.09,10.16,7.34a3.73,3.73,0,0,1,1.67,1.47c3.46,4.93,9,7.57,13.06,11.8,2.18,2.26,5.32,2.31,7.82,3.83a5.59,5.59,0,0,1,2.42,3C138.46,201.76,140.7,205.46,142,209.6Z"/><path class="cls-6" d="M91.42,164.57c5.08,14.29,3.59,28.54-.11,42.82-1.46,5.64,5.11,7.05,6.4,11.3a1,1,0,0,1-.77.37l-2.25-.2c-6,.51-12.11.16-18.16.15l-5.13-.29c-1-4.64-5.06-8.26-4.28-13.57.13-.91-1.79-3.1-2.59-3-9,1-6.79-3.42-4.14-8.23.65-1.17-.29-1.49-1.31-1.46-1.82-2,.05-3.34.92-4.84,1.41-1,2.76-1.94.15-3.23a3,3,0,0,1-1.5-2.83,10.89,10.89,0,0,0-2.38-6.94c-3-3.85-2.22-8.69-3.74-12.94-1.2-3.36,2.33-5.82,5.77-4.33,2.15.93,4,.64,5.31-1.1,1.39-1.9,3.21-2.57,5.3-3.06a22.42,22.42,0,0,0,10.54-5.27c1.33-1.23,2.85-2.48,5-2,2.54,2.75,4.16,6.07,5.94,9.28C90.14,158.38,91.78,161.36,91.42,164.57Z"/><path class="cls-4" d="M101.42,163.36l2.76-8.26c5.43-.22,6.93,1.26,6.52,7.58-.57,8.67,8.25,4.17,12.56,6.29.65-.57,1.31-1.3,2.22-1.16,5.2.8,10.53.68,15.66,2,1.32.34,2.56.95,2.82,2.55,4.33,5.83,12.39,6.44,17,12.19,1.31,1.64,3.52,2.47,3.14,5-.45,3-3.21,1.57-5,2.4,1.86,1,5.49-.18,5.25,2.2-.18,1.79-3.28,3.29-5.08,4.91-6.47,1.91-12.62-.79-18.92-1.32-2.53,0-3.82-2.62-6.18-3a35.57,35.57,0,0,0-10.36-7.75c-4.74-2.22-8.64-6.15-12-10.32-1-1.24-1.88-1.85-3.39-1.56-3.09-2.64-7.12-4-9.88-7.06a4.55,4.55,0,0,1-.47-1.52,3.92,3.92,0,0,1,.14-1,3,3,0,0,1,1.34-1.49C100.18,163.88,100.81,163.65,101.42,163.36Z"/><path class="cls-3" d="M144,172.39,123.26,169a39.26,39.26,0,0,1-.15-4.84c.27-3.07-3.65-7.8-1-8.45,5.27-1.29,11.44-1.14,16.29,2.9,3.42,2.86,6.85,5.71,10.15,8.7a54.6,54.6,0,0,1,4,4.53c-1.77.13-3.54.27-5.31.39C146.2,172.28,145.08,172.33,144,172.39Z"/><path class="cls-5" d="M99.21,166.89c1.84,4.08,6.8,3.85,9.44,6.83,3.5,2.35,5.75,6,9.08,8.59,5.32,4.14,11.33,7.26,16.62,11.44l6,2.5c5,2.44,6.46,5.49,5.31,11.06L142,209.6c-4.75-.4-3.76-5-5.35-7.61-6.74-11-19.49-15-27.72-24.29-3.7-4.17-8.79-7.1-13.15-10.71-.62-.51-1.23-2.14-.93-2.49,1.79-2.15,4.3-1.25,6.61-1.14l-1.5,1.45c-.83.17-1.33.52-.86,1.45h0a.4.4,0,0,1,.24.4C99.29,166.81,99.26,166.89,99.21,166.89Z"/><path class="cls-4" d="M108.85,232.11c2.91,3.13,1,7-.1,9.46s-2-1.57-3.44-2.06c-5.84-2-8.41-7.19-11.46-11.91v-.27a2.58,2.58,0,0,1-.08-.26l0-.27c1.73-2.75,4-.46,6.06-.69h0c.65.78,1.38,2.26,2,2.2,2.18-.21,1.15-2.53,1.88-3.74l3.65,1.53h0c2.22,1.57,1.86,3.77,1.48,6Z"/><path class="cls-3" d="M102.08,148.28l-2.07-24c.31-.88.28-2.09,1.73-1.93a1.92,1.92,0,0,1,1.77,1.64,3.86,3.86,0,0,0,2.16,2.75c5.4,3.25,5.42,8.73,5.64,14.11a1.34,1.34,0,0,1-1.6,0c-4,0,2,3.71-1.44,4,1.35,2.79-7.15-3.95-2.3,2.61Z"/><path class="cls-4" d="M123.88,151.18c10.26-.71,20.05-4.85,30.5-4.14,1.76,1.32,3.08,2.79,1.69,5.15l-6.13.32-2.48.24c-.56.38-1,.25-1.19-.38H119.14Z"/><path class="cls-6" d="M145.69,207.31c-5-2.14-.16-9-5.31-11.06l18.87,2.87A43.11,43.11,0,0,1,145.69,207.31Z"/><path class="cls-4" d="M109.71,140.93l1.34-.17a3.26,3.26,0,0,1,2.3-1.71c8.93-1.7,17.78-4,27-3.08a6.13,6.13,0,0,1,1.43.41l2.08-.36c1.14-.33,2.65-1.05,3,.61.27,1.18-1.36,1.47-2.29,1.93a4.36,4.36,0,0,1-3.52-.08l-1.38.25c-8.93,1-17.86,2-26.79,3.1C111.68,142,110.44,142.45,109.71,140.93Z"/><path class="cls-4" d="M76.53,219c6-1.54,12.1-1.24,18.16-.15C88.67,223.31,82.59,220.22,76.53,219Z"/><path class="cls-4" d="M123.46,222.93c2.19.39,5.93.26,6.27,1.28,1,2.88.19,5.79-4.15,3.65C128,224.72,125.17,224.61,123.46,222.93Z"/><path class="cls-4" d="M96.94,219.06l.77-.37,4.37,1.23Z"/><path class="cls-4" d="M97.7,223.15l-2.83-.52.2-1,2.8.67Z"/><path class="cls-3" d="M157.6,172.22c-.15.14-.3.38-.45.37s-.28-.25-.43-.39c.15-.13.29-.38.44-.37S157.45,172.07,157.6,172.22Z"/><path class="cls-3" d="M146.27,152.37l1.19.38Z"/><path class="cls-4" d="M99.85,226.11h0Z"/><path class="cls-4" d="M107.34,226.1h0Z"/><path class="cls-4" d="M93.85,227.6a3.24,3.24,0,0,1-.16-.53c0-.08.06-.18.1-.27l.12.16c.15.15.19.29.13.42s-.12.2-.17.2Z"/><path class="cls-3" d="M66.09,238.3,66,238l.38.18Z"/><path class="cls-2" d="M60.17,223.14l1.83-.39.8.63c.4.14.93,0,1.14.58,0,.95,0,1.9,0,2.85C59.76,228.56,60.24,225.57,60.17,223.14Z"/><path class="cls-1" d="M223.13,232.14c.12-.81.23-1.62.35-2.43.75.34,1.88.48,2.18,1,1.64,3.08,6.89,4.84,3.74,9.74Z"/><path class="cls-2" d="M142.55,244.07h0Z"/><path class="cls-1" d="M249.66,242.6l-.46-.9.51-.06c0,.33-.06.66-.1,1Z"/><path class="cls-3" d="M63.94,224l-1.15-.58,1.94-.26Z"/><polygon class="cls-2" points="75.77 233.68 75.71 233.45 75.94 233.51 75.77 233.68"/><path class="cls-2" d="M196.52,107c-6.48-.75-13-1.35-19.42-2.3-3.21-.47-9.09,1-8.95-2.86.3-8.56-6.78-17.56,1.19-25.85,2.18-2.27,3.55.88,5.24-.09.89,2.69-1.1,3.91-2.87,4.74-2.73,1.28-3.65,2.74-1.85,5.42.79,1.19.56,2.62.61,4,.07,1.84,1,2.67,2.86,2.54.24.05.58.11.64.29,1.48,4.5,4.77,4.75,8.63,3.69,1.88,1.23,3.8,2.74,5.79.31,1.8-2.2,1.3-4.33-.57-6.26a9.61,9.61,0,0,1-.74-.82c-2.43-3.09-2.43-3.08-4.11.32a5.57,5.57,0,0,1-.86,1.21c-3.17,1.26-6.49,1-9.8,1-2.5-2.92-1.95-6.38-1.54-9.7.18-1.46,1.66-2.09,3.18-1.83s2.85-.5,4.14-1.2c2.37-1.09,5.12,0,7.46-1.32,2.22-.5,4.07-.17,5,2.24a2.87,2.87,0,0,0,2.1,1.83C193.92,90.58,198,98.35,196.52,107Z"/><path class="cls-7" d="M192.64,82.37c-3.24,1.49-3.75-3.92-6.88-2.71-2.34-.5-5.09-2.41-6.06,1.77-7.06.4-9.15,3.87-6.37,10.32a1.22,1.22,0,0,1,.14,1.08c-1.14.83-1.06,3.46-3.47,2.42-2-.87-1.62-2.7-1.93-4.41-1.16-6.5-.75-12.17,6.51-14.94l1.78-.76a11.09,11.09,0,0,0,2.1-.65c6.62-3.51,7.19-3.43,12.17,1.7.62,1.8,1.23,3.6,1.85,5.41C192.53,81.85,192.58,82.11,192.64,82.37Z"/><path class="cls-2" d="M186.75,60c.18-2.46.37-4.91.55-7.36-.17-.41,0-.52.37-.37,1.84-.76-.39-4.74,2.49-3.92,2.58.73,1.79,3.5.74,5.39-1.21,2.18,4.72,9.28-4.2,6.2Z"/><path class="cls-5" d="M201.09,120.46a11.21,11.21,0,0,1-1.86-8.84l1.89-.19a2.16,2.16,0,0,1,3.44.28C203.93,114.84,207.51,119.63,201.09,120.46Z"/><path class="cls-5" d="M206.33,141.37c-.67-3.19-1.35-6.37-2-9.56,1.38,1.19,2.81,2.33,4.12,3.6,1.1,1.08,3.76,1.08,3,3.5S208.62,141.77,206.33,141.37Z"/><path class="cls-2" d="M204.56,111.71l-3.44-.28c4.33-5.37,8-2,12.85,1.62Z"/><path class="cls-1" d="M197.07,85.43c4.26.08,7.71-.57,10.7,1.7.09.07-.22,1-.48,1.11C203.76,89.34,200.83,87.83,197.07,85.43Z"/><path class="cls-2" d="M187.3,52.65c.12-.12.24-.25.37-.37Z"/><path class="cls-7" d="M149.53,57.19c2.88,5.3-1.59,9.54-2.09,14.35,2.16,2.09,3.94,4.84,7.26,5.18,2,.2,2.71,1.47,3.22,3,1.5,4.64,1.33,9.12-1.39,13.33-.12.84-.58,1.81-.32,2.51,4.33,11.51-4.91,8.81-10.43,10-.42.37-1.15.43-1.26.06-.92-3.07-2.2-.4-3.3-.26l-29.85,5.33a4.23,4.23,0,0,1-.68,1.4,7.12,7.12,0,0,1-2.15,1.48c-3.65-.27-6.59,1.36-9.34,3.53-3.46-.41-4.55-1.58-3.75-4.75,1.35-5.35,1.15-11.11,4.36-16,1.06-1.59-.28-3.38-.12-5.09.14-1.2.82-2.25,1-3.44,3.76-3.54,4.55-8.61,6.64-13a5.52,5.52,0,0,0,.51-.92C112.4,65.68,119,59,125.28,52.11l5.65-2.5c4.6.35,9.11,1.49,13.83.83C147.77,50,149.64,53,149.53,57.19Z"/><path class="cls-4" d="M107.83,74a5.35,5.35,0,0,1,.08.7c-2.11,2.8-2.26,6.52-4.4,9.3A50.55,50.55,0,0,1,92.19,96c-1.65,1.24-3.33,1.6-5.14.31a3.72,3.72,0,0,0-1.76-.58c-4.71-.64-7-2.25-7.75-6.65a9.76,9.76,0,0,1,3.29-9.32,23,23,0,0,0,3.82-4.06c2.64-3.8,5.92-5.5,10.63-3.69,1.56.59,2.5-.28,1.22-2a4.18,4.18,0,0,0-.5-.46,1.79,1.79,0,0,1,.45.56c0,.39,0,1-.27,1-2.21-.09-4.66,1-6.52.08s-4.07-2.09-4.11-4.78c0-2.11-2.12-2-3.2-2.57-3.65-2-7.14-5.53-11.91-1.82-1.72,1.33-3.73-.28-5.45-1.21-.68-3.24-1.35-6.48-2-9.72-.33-.9-1.48-1-1.87-1.8.5-3.38,3.5-4.77,6.77-3.09,1.45.74,2.46,2.47,3.83,2.85,4.51,1.23,7.88,3.25,10.32,7.6,1.35,2.41,4.75,1.09,7.16-.13,4,.89,7.94,1.73,11.23,4.48,1.29,1.08,2.73,2.62,4.83,1.7l.57-.54L106,62c-.07.08,0-.06,0-.05a1.63,1.63,0,0,0-.17.18c-.27.25-.48.44-.71.63-2.39.34-4.38-.53-4.83-2.83s-2.85-5.18.87-7.08c1.08-.87.92-2.53,2.09-3.36a4.24,4.24,0,0,1,2.35-.71,3.44,3.44,0,0,1,1,.15l.47.13c.32.06.63.15,1,.24a10.36,10.36,0,0,1,1.85.78,2.35,2.35,0,0,1,.66.78,3.74,3.74,0,0,1,.21,1.51c-.1.88-.66,1.86.51,2.46l.42,0A3.78,3.78,0,0,0,113.1,54a11.72,11.72,0,0,1,1-1.52,3.84,3.84,0,0,1,.93-1.08c.43-.21,1-.12,1.34-.48l4.22,1c-.71,1.2-1.35,2.45-2.13,3.59-3.67,5.35-7.4,10.66-11,16C106.86,72.35,105,73.64,107.83,74Z"/><path class="cls-4" d="M106.66,45.4c-1.06-2.19-1.75-4.7-3.27-6.5-1.8-2.12-.91-4.15-.77-6.25a3.07,3.07,0,0,1,1.77-.49c1.28,2.2,6.3-.81,5.74,4,0,0,2.05.35,3.14.53.28.26.57.51.85.78l0,0c.08,1.65,2.79,1.76,2.23,3.79l.74,1.85c.53.32.55.68.07,1.07-5.76,1,.16,4.71-1.49,6.67l-.34.45A5.12,5.12,0,0,1,113,52.8,5.33,5.33,0,0,1,109.61,51l0,0C108.36,49.23,105.82,48.21,106.66,45.4Z"/><path class="cls-5" d="M106.66,45.4c1.87,1.38,4.42,2.4,2.92,5.55l-2.31.12c-.51.23-1,.52-1.41-.22l-2-.82c-3.51.75-6.9,2-10.67.94-2.59-.71-5.42.11-8.13-.15-.62-2-1.92-3.89-.83-6.11,2.81-1.14,5.55-2.47,8.37-3.62,2.77.84,6.32-1.2,8.38,2.25l0,.34.28.18.33,0a.55.55,0,0,0,.42-.47Z"/><path class="cls-4" d="M142.55,37.64c-1.64,4.23-6.92,1-9,4.34-1.39.73-2.38,2.62-4.46,1.05a7.49,7.49,0,0,1-2.75-6.46c0-.72,2.79-1.41,4.31-2.12l.39-.12a2,2,0,0,1,.81,0,2.12,2.12,0,0,1,.68.43c.15.22.31.44.46.67a3.38,3.38,0,0,0,.59.54h0a3.05,3.05,0,0,0,.75.77l0,0c.43.44.88.61,1.39.13l2.56.85a40.25,40.25,0,0,0-.13-5.61,15.39,15.39,0,0,0-1.52-3.63,2.1,2.1,0,0,1,.3-.22,2.13,2.13,0,0,1,3.4,1.57C140.74,32.53,145.85,33.93,142.55,37.64Z"/><path class="cls-4" d="M92.61,41.09C91.46,45.37,88,45,84.7,45c-.11-.13-.23-.26-.34-.4-.14-4.85-.14-4.82-5.52-5.29-2.6-.23-3.91-1.42-2.77-4.19,1.34-.58,2.59-1.74,4.15-.57,1.34.75,2.7,1.63,3.36-.73C87.13,35.6,95.43,31.41,92.61,41.09Z"/><path class="cls-4" d="M121.39,29.47l-3.24-.94A30,30,0,0,1,121,32.45a3.8,3.8,0,0,1-.21,2.34c0,.17-1.1.32-1.15.22-2.68-5.48-8.08-2.61-12.09-4-.52-.18-1-.46-1.52-.69a8.74,8.74,0,0,1,2.06-1.68c1.7-.69,3.49-1.12,5.25-1.66l.22.07-.17.17-.07-.23-.77-1.09c-.47-1.64-2-3.18-.48-5,3.1,2.88,8.69,2.78,9.71,8.14C121.94,29.49,121.81,29.62,121.39,29.47Z"/><path class="cls-4" d="M101.31,28.9c-1.91-3.15-4.82-1.34-7-.9C89,29.14,90,26.51,91.22,23.48a12.67,12.67,0,0,1,8.68-1.07,4.5,4.5,0,0,1,2.19,1.52l7.14,3.17C105.71,27.3,102.57,24.92,101.31,28.9Z"/><path class="cls-4" d="M138.07,12l.72.13,7.45,8.13.16.15c-1.8,3.93-4.55-1-6.59.71Z"/><path class="cls-5" d="M142.55,37.64c-1-3.71-1.85-7.48-5.92-9.2,0-.22-.08-.44-.11-.66-.19-.14-.24-.27-.15-.38a.31.31,0,0,1,.23-.14c6.44.33,7.21,6.05,9.66,10.16Z"/><path class="cls-4" d="M105.1,21.8l3.26-4.38c2.22,0,2.64,1.51,2.79,3.27-.2,1.89.57,4.48-2.91,4l-3.89-2.13.1-.37A.94.94,0,0,1,105.1,21.8Z"/><path class="cls-5" d="M158.66,23.94c3.46,2.59,4,5.82,5.24,10.28A13.9,13.9,0,0,1,158.66,23.94Z"/><path class="cls-5" d="M108.24,24.65l2.91-4,.93.24c.89,1.59,2.45,3.13.48,5Z"/><path class="cls-4" d="M147.05,27c-.26-1.19-.51-2.38-.77-3.57,1,.37,2.43.49,2.74,1.16.51,1.09.27,2.53.34,3.82L147.05,27Z"/><path class="cls-3" d="M132.74,25.64c-2.78,1.46-4.31-1.4-6.53-2.44h4.46a1.33,1.33,0,0,1,1-.18C132.71,23.63,133.3,24.41,132.74,25.64Z"/><path class="cls-5" d="M133.61,36l-.83.09c-.39.12-.63,0-.7-.43a.39.39,0,0,0-.34-.35,2,2,0,0,1-1.15-.8h.09c.5-.93-2.2-2.57.13-2.7C132.94,31.63,133.76,33.8,133.61,36Z"/><path class="cls-4" d="M118.6,43.24c3.41-1.36,3.85.94,4.37,3.27l-4.07-1.44C118,44.59,118.16,43.94,118.6,43.24Z"/><path class="cls-5" d="M116.33,41.25c-1.1-1.06-3.54-1.33-2.23-3.79C116,38,118.44,38.31,116.33,41.25Z"/><path class="cls-4" d="M102,43.41l.87,3.81,0,0c-1.92-.69-3-1.77-1.83-3.92Z"/><path class="cls-4" d="M132.74,25.64l-1.44-2.21a4.77,4.77,0,0,1-.77-1.81l1.13-.63c.87.81,2.77,1,1.92,2.9Z"/><path class="cls-4" d="M147.05,27c0,1.22-.48,2-1.76,1.35a1.51,1.51,0,0,1-.52-1.41c.7-1.36,1.52-.67,2.28.05Z"/><path class="cls-5" d="M133.58,23.89,131.66,21a2.72,2.72,0,0,1,3.2,2.11C134.89,23.23,134,23.62,133.58,23.89Z"/><path class="cls-5" d="M176.05,38.87l2-.89-2.6,2.53C175.67,40,175.86,39.42,176.05,38.87Z"/><path class="cls-5" d="M129.83,21.76l-4.73-3.3c3.77.57,4.93,1.21,4.68,3.38Z"/><path class="cls-4" d="M149.17,33.57c-.25-1-.49-2-.73-2.94l.92-.24.65,3Z"/><path class="cls-5" d="M177.73,34.66l-3,2.09Z"/><path class="cls-4" d="M102.81,20.78l.69-.63a1.92,1.92,0,0,1,.84,2.38h0l-2.31.83-.32-.42A1.88,1.88,0,0,1,102.81,20.78Z"/><path class="cls-4" d="M136.6,27.26a1,1,0,0,1-.08.52l-1.32-.58,1.37-.92,0,0Z"/><path class="cls-4" d="M162,22.53l1.09.86-.45.38L162,22.52Z"/><path class="cls-4" d="M146.24,20.22l.66-.74.22.21-.72.68Z"/><path class="cls-5" d="M130.53,21.62c.26.6.51,1.21.77,1.81a4.29,4.29,0,0,0-.63-.23l-.84-1.44-.05.08Z"/><path class="cls-5" d="M118.6,43.24l.3,1.83-1.76-.9c0-.35,0-.71-.07-1.07Z"/><path class="cls-5" d="M108.08,14.28l-.54-1.41Z"/><path class="cls-3" d="M102.09,23.93l-2.47-.67a1.63,1.63,0,0,1,2.4.09h0C102.06,23.55,102.08,23.74,102.09,23.93Z"/><path class="cls-5" d="M135.72,36.83c-.58,1.2-1,.73-1.39-.13Z"/><path class="cls-4" d="M137.32,25.52l.09-.27-.1.26Z"/><path class="cls-4" d="M136.57,26.28l.75-.76h0l-.76.75Z"/><path class="cls-4" d="M121.79,29.07l-.4.4Z"/><path class="cls-5" d="M175.52,40.43v0Z"/><path class="cls-5" d="M134.36,36.73l-.75-.77Z"/><path class="cls-5" d="M116.37,50.94l-1.05,1.63a2.51,2.51,0,0,1-.17-1.55.91.91,0,0,0,.5-.17C115.89,50.87,116.13,50.91,116.37,50.94Z"/><path class="cls-5" d="M114.12,37.51l-.85-.78Z"/><path class="cls-5" d="M96.1,69.7c2.22-.75,4.42-2.65,6.71-.35.23.24-.44,1.38-.7,2.11C99,70,97.37,79.09,93.57,72.61a1.54,1.54,0,0,0-1.23-.42c-5.57.47-14.23,14.88-11.43,19.43,2.42,3.93,7.46,1.41,10.76,3.55,3.08.53,3.37,2.44,2.4,4.92-1.16,3-3.42,5.37-4.56,8.43-1.4,3.74-3.16,7.37-4.27,11.2-1.34,4.61-2,4.92-5.73,1.87-.28-.24-.56-.49-.84-.72A3.15,3.15,0,0,1,78,120c-.73-1.65.27-2.83,1.11-4.08a2,2,0,0,0,.25-2.43c-.72-.94-1.76-.83-2.74-.55a7.8,7.8,0,0,0-4.82,3.93,22.07,22.07,0,0,1-10.06,9.56c-3.55,1.8-6.49,4.64-10.3,6.06a17.93,17.93,0,0,1-10.58,1c-4.76-5.12-5.24-9.34-1.8-15.93l1.56-1.69c1.54-.8,3.18-1,4.33.43s3.22.17,4.15,1.75a2.49,2.49,0,0,0,2.21,1.54,2.46,2.46,0,0,1-1.84-1c-1.29-2.3-.58-3.64,2-3.72,2.07-.06,4.05-1.12,5.73-.41a5.12,5.12,0,0,1-1.4-.15c-1.68-.28-4.35,1.78-4.85-.73-.46-2.3-1-5,1.46-7.49s3.26-6.37,6.76-8a8.92,8.92,0,0,1,3-1.17A8.27,8.27,0,0,1,65.22,96a2.84,2.84,0,0,1,1,.2,16.94,16.94,0,0,0,2.53.81c1.07.52,1.79,1.73,3.09,1.77.88,0,1.86,1.36,2.57.19.58-1-.39-1.76-1.1-2.42-1.41-1.2-3.29-.4-4.82-1.11s-3.13-.12-4.68.12-2.89.7-4.16-.49a2.94,2.94,0,0,1-.53-.92c-.42-2.12.87-3.28,2.27-4.6,1.68-1.58,2.12-3.33-.84-4.21a13.45,13.45,0,0,1,.13-14.22,2.16,2.16,0,0,1,3.24.43c1,1.14,2.34,1.22,3.7,1.22,2.32-.38,5.21.54,6-3.09.25-1.21,1.78-1.11,2.8-1.45a12.44,12.44,0,0,0,2.5-.35,10.05,10.05,0,0,1-2.39.33,7,7,0,0,1-2,.32c-.52,0-1,0-1.57,0a14.46,14.46,0,0,1-3.13-.48c-1.06-.11-2.18,0-2.9-1.06s-.33-2.37-.84-3.47c-.24-.42-.3-1-.78-1.23-.1-.48-.2-1-.31-1.44,3.63,1.49,5-3.46,7.08-3.16,6.32.89,12,3.51,15.68,9.42,1.72,2.72,4.81,4.25,8.37,2.54Z"/><path class="cls-2" d="M85.52,50.14c6.11-1.57,12.23-.85,18.35-.11-.53,1.3,2.13,3.93-1.63,3.87l-.47-.11c-1.32-.37-2.12.51-3,1.25-1.32.85-2.63.31-3.87-.12-2.82-1-4.72-.46-5.2,2.8C84,61.84,80,60.9,77.83,53.82c-.77-2.51-14.52-6.07-16.08-4.45l0,.36a.83.83,0,0,1-.52.45l-.35,0c-2-1.86-5.14-3.68-4.28-6.59s4.29-2,6.91-2l-1.87-2.39c3.84.06,4.73-5.63,9-4.65a19.2,19.2,0,0,0,3,3.37,3.54,3.54,0,0,1,.31,1.5,18.55,18.55,0,0,1,.12,3.07c0,2.61,2,2.72,3.83,3.1C81,46.24,84.09,46.82,85.52,50.14Z"/><path class="cls-4" d="M61.63,71.11a28.39,28.39,0,0,0,.1,13.68c1.93,3.5.74,5.3-3.94,5.95l-.63-.12-5,.31c3.24-3.3-.31-5.32-1.47-7.79a5.41,5.41,0,0,1,2-.08c1.12.38,1.08,3.73,3,1.64s-1.71-2.8-1.74-3.94c-.18-6.68.11-13.38.25-20.07v0c-3.37-2.7.25-5.63-.27-8.42.09-.19.19-.38.29-.57s.44-.25.61.06c.72,4.18,1.29,8.4,2.27,12.53.24,1,.84,3.12,3,2.12A1.71,1.71,0,0,1,61,67C61.21,68.34,63.37,69.41,61.63,71.11Z"/><path class="cls-2" d="M102,23.35l-2.4-.09c-2.83-1.16-5.54,2.48-8.4.22-6.6-8.21.72-7,5.22-7.72a2.37,2.37,0,0,1,2.63,0l.05,1c2.14,1.21-.7,3.83,1.44,5L102,18.7c.35.24.74.43.9.86l-.06,1.22C102.55,21.64,102.28,22.49,102,23.35Z"/><path class="cls-2" d="M60.08,66.43c.84-2,2.19-2.82,4.32-2.06a2.27,2.27,0,0,1,1.5,2.83c-2.56,2.43-3.29,2.38-5.63-.44A.61.61,0,0,1,60.08,66.43Z"/><path class="cls-4" d="M73,38.22c-3.29.37-2-2.14-2.27-3.63l4.49.09c1.36-.51.94.53,1,1.15C75.43,37,74.88,38.55,73,38.22Z"/><path class="cls-4" d="M100.56,21.78c-5.27-.32.76-3.85-1.44-5C102.32,17.64,99.71,20.21,100.56,21.78Z"/><path class="cls-2" d="M75.86,36c-.22-.45-.44-.9-.67-1.34,1.67-.46,3.31-3,5-.09l-3.69,2.19A1.43,1.43,0,0,1,75.86,36Z"/><path class="cls-4" d="M72.92,27.79a4.22,4.22,0,0,1-2.41,4.87,1.39,1.39,0,0,1,.19-1.81l2-3.22Z"/><path class="cls-2" d="M70.7,30.85c-.07.6-.13,1.2-.19,1.81-1.28.42-2.45.48-2.61-1.23A24.73,24.73,0,0,1,70.7,30.85Z"/><path class="cls-2" d="M76.77,27.74c1.13,1.33.6,2.35-1.75,4.69l1.59-4.62Z"/><path class="cls-4" d="M66.33,62.94l1.16,3.14a1.28,1.28,0,0,1-1,0c-1-.58-1.13-1.6-1.23-2.62l-.09-.81A1.19,1.19,0,0,1,66.33,62.94Z"/><path class="cls-5" d="M65.28,63.51l1.58,2.36c-.23.75-.64,1.18-1.48.83l-1-2.33Z"/><path class="cls-2" d="M54.13,49.55l-.35-.5a4.85,4.85,0,0,1,.49-.29s.19.2.17.26A3.3,3.3,0,0,1,54.13,49.55Z"/><path class="cls-2" d="M61.75,49.37,63,51.15l-2.06-.94,0,0a6.67,6.67,0,0,0,.59-.6Z"/><path class="cls-2" d="M104.34,22.53l-.84-2.38.07.09a1,1,0,0,1,1.45,0l.09,1.55Z"/><path class="cls-4" d="M105,20.24h-1.45l1.22-1Z"/><path class="cls-4" d="M99.07,15.77H96.44a1.51,1.51,0,0,1,.29-.63l.18-.14Z"/><path class="cls-4" d="M96.73,15.13c-.21-.37-.43-.74-.61-1.12a4,4,0,0,1,.43-.28L96.91,15Z"/><path class="cls-4" d="M102.47,18.36l.74-.68-.2,1.25C102.47,19.08,102.29,18.9,102.47,18.36Z"/><path class="cls-4" d="M76.81,27.19c0,.18,0,.36,0,.55l-.15.07c-1.08-.13-1.4-.47-.33-1.19C76.9,26.39,77.08,26.58,76.81,27.19Z"/><path class="cls-4" d="M72.73,27.63l-.15-1.88s0,0,0,0c.09.69.19,1.38.29,2.08Z"/><path class="cls-4" d="M77.53,26.4l-.72.78c-.18-.18-.35-.37-.53-.56l.81-.69C77.52,25.82,77.67,26,77.53,26.4Z"/><path class="cls-4" d="M77.09,25.93l.44.47C77.38,26.25,77.23,26.09,77.09,25.93Z"/><path class="cls-4" d="M102.87,19.56l-.9-.86a1.81,1.81,0,0,1,.5-.33l.54.56A1.92,1.92,0,0,1,102.87,19.56Z"/><path class="cls-2" d="M66.33,62.94l-1.14-.24a.5.5,0,0,1,.11-.39Z"/><path class="cls-2" d="M54.79,51.78a2.11,2.11,0,0,1-.61-.06Z"/><path class="cls-4" d="M59.71,93.44l.4,1c1.06,1.61.16,2.84-.79,4.06l3.33,4.57c-1.4-.57-3.81-1.93-4.06-1.61-2.47,3.19-5.79,6.41-6.52,10.09-1.21,6.06,3.67-.88,5.16,1.6.32.54,3.37-.54,5.37-.91-2.51,6.21-10.69-.25-13,6-.23.3-.47.33-.74.06-2.39,1.19-5.49-4.58-7.45,1.39-.37-1.69-.6-2.77-.83-3.85l2.09-3.67a20,20,0,0,1,2.69,2.1c.66.71,1.17,1.59,1.84.23.85-1.71,3.83-3.28.72-5.48a33.61,33.61,0,0,0-3.54-2h0c-.36-5.64-6.35-12,2.25-16.48l0,0c2.8,2.12,3,7.06,8.3,7.07-4.77-4.39,2.81-4.16,2.21-7.1l0,0C60.4,89.34,58.85,92.51,59.71,93.44Z"/><path class="cls-4" d="M39.05,117.55c-.88,5.36-.29,10.46,2.62,15.16,1,1.33,1.1,2.57-.39,3.64l-14.13-.77c-.6-4.17,1.54-7.11,4.36-9.75C36.52,125.34,35.65,119.51,39.05,117.55Z"/><path class="cls-4" d="M38,107.69l-1.6-2.25,2.72,1.31Z"/><path class="cls-4" d="M44.41,107.1c-.58.35-1.16.69,0,0-1.28.29-.61.14.05,0Z"/><path class="cls-4" d="M33.87,116.19c-.15-.49-.29-1-.43-1.46C33.58,115.21,33.72,115.7,33.87,116.19Z"/><path class="cls-4" d="M46.67,90.63l-.19-.24.17.26Z"/><path class="cls-4" d="M36,105.66l-.41,0A1.84,1.84,0,0,0,36,105.66Z"/><path class="cls-4" d="M203.87,172.91l-.15-2.64a4.63,4.63,0,0,0,2.53-4.8l0,0C208,168.78,207.48,171.33,203.87,172.91Z"/><path class="cls-4" d="M206.24,173.72h0Z"/><path class="cls-4" d="M206.25,165.47l0,0Z"/><path class="cls-4" d="M210,153.52l0,0Z"/><path class="cls-5" d="M84.11,146.72c-6.36,7.26-16.31,7.72-24,12.6-2.39,1.52-1.31,4.5-1.63,4.76-4.83,3.93-2.18,7.64.4,10.56,2.27,2.54-.86,9.2,6.12,8.13.25,0,1.37,2.07,1.07,2.72-1,2.14-2.93,2.91-5.29,2.47-2.88,2.36-4.58,2-5.54-1.29-.77-2.61-2.26-4.92-3.1-7.49-.08-.34-.13-.69-.18-1a5.49,5.49,0,0,0-1.79-3.95,4.82,4.82,0,0,1-1.8-3.52,3.72,3.72,0,0,0-2.16-3.12c-3.74-2.26-5.39-5.9-5.35-10.2,0-1.14.33-2-.85-2.85-3.72-2.78-3.84-4-1.28-8.29l1.06-1.61c2.11-2.74,5.45-3.25,8.39-4.13A18.28,18.28,0,0,0,57.34,135c2.91-3.48,7.12-4.9,10.52-7.56a2.91,2.91,0,0,1,2.83-.3c1.59,1.3,2.91,3,5.24,3.19a2.18,2.18,0,0,1,2,1.91c0,3.9,2.7,3.25,5.1,3.26,2.4,2.61,1.72,5.81,1.81,8.87C84.88,145.26,84.93,146.13,84.11,146.72Z"/><path class="cls-6" d="M84.11,144.47l-2.17-8.16c-2.64-1.08-2.51-3.45-2.49-5.64.06-4.55-1.2-5.42-5.48-3.59-1.08.47-1.9,1.75-3.34,1.06-8.95,3.46-13.93,13.31-24.06,14.91-2.27.36-4.5,1-6.75,1.55-2.58-2.24.28-3.54.89-5.23a2.57,2.57,0,0,0,.74-1.6c-.05-.47-.11-1-.17-1.42l.39-3.64c12-2,21.84-7.43,29-17.51a12.12,12.12,0,0,1,4.86-3.87c2-.87,4.79-2.44,6.44-.13,2.77,3.88-1.88,5.79-3.06,8.65a4,4,0,0,1-1.6.92,3.41,3.41,0,0,0,1.56-1c7.5,4.17,5.85-3.55,6.64-5.93,2-6.23,8.47-11.09,6.17-18.7l11.18-12.36c1.05,1.77.12,3.27-.63,4.8l-.49,3.73a74.84,74.84,0,0,1-8,16.1,41.82,41.82,0,0,0-6.34,18.26c-.58,5.28-2.11,10.45-.65,15.8.25.93-.36,1.65-.85,2.38L85.72,145A1.73,1.73,0,0,1,84.11,144.47Z"/><path class="cls-4" d="M54.65,179c.87,3.8-1,9.45,6.16,9q-.86,2.23-1.73,4.48c-2.57-1-4.73-2.47-5.67-5.24-.65-7.82-6.66-11.67-12-15.94-1.78-1.43-2.74-2.63-1.44-4.95,1.17-2.11,1-4.31-1.71-5.09-5-1.44-4.76-6.34-5.75-9.75-1.24-4.28,2.72-5.14,6.25-5.27.67,3.5-.09,8.07,6,7.21a1.3,1.3,0,0,1,.74,2.4c-2.34,1.42-4.57,2.75-2.33,5.62,1.42,1.83,1.55,6.52,6.41,3,1.34-1-.71,2.6.32,4.25a91.87,91.87,0,0,1,4.68,9.62l.68.29Z"/><path class="cls-4" d="M41.45,137.77c1.45,1.31,0,1.28-.74,1.6Z"/><path class="cls-3" d="M27.92,149.77h0Z"/><path class="cls-2" d="M161.81,19.33a3.41,3.41,0,0,1-1,.37c-.16,0-.47-.34-.44-.45a2.74,2.74,0,0,1,.49-.71Z"/><path class="cls-2" d="M177,44.24l.19-.94-.21.93Z"/><path class="cls-5" d="M180.23,35.24l-.89,1.53Z"/><path class="cls-2" d="M99.75,116.47c-1-7.64,5.41-3.29,8.11-5a5.25,5.25,0,0,0,2.87-.7.64.64,0,0,1,.65-.09c4.12.77,4.66,5,7.13,7.39-6.19,2.8-7.5,4.4-4.52,5.06a28,28,0,0,0,7.55.8c6.62-.36,10.11,3.53,13.47,8.47,1.32,1.94,4.46,2.66,6.77,3.93l-30.73,4.38c-1.93-6-5.27-11.14-8.93-16.18-1-1.32-1.28-1.14-2.11-.26,0-2.8-2.19-4-4-5.47C96.3,116.57,98.52,117.32,99.75,116.47Z"/><path class="cls-2" d="M190.63,76.19c-4.52-3.63-9.51-.77-14.28-1,1.81-6.39-1.75-12.36-1.52-18.66,0-1.34-.76-2.95.88-3.48.79-.26,2.33.55,3,1.33C184.05,60.85,188.83,67.72,190.63,76.19Z"/><path class="cls-2" d="M156.07,152.19q-.85-2.58-1.69-5.15c7.74-2.81,13.77,1.1,20.85,6.09C168.13,151.69,162.12,155.7,156.07,152.19Z"/><path class="cls-2" d="M156.53,93.1c.26-2.75.47-5.51.77-8.25.75-6.85-6.36-7-9.23-10.78-.69-.9-2-1.27-.64-2.54,3.24,4.81,13.23,0,13.21,8.91C160.63,84.82,162,90.22,156.53,93.1Z"/><path class="cls-2" d="M149.53,57.19c-2.68-8.6-11-2.24-15.57-5.83a23.86,23.86,0,0,0-3-1.75c6.58-.46,13.67-3.87,19.06,2.91C151.58,54.52,151.24,55.77,149.53,57.19Z"/><path class="cls-2" d="M171.11,61.13c-.9,1.88,1.27,4.8-1.44,5.69-1.26.41-2.14-2-1.58-3.5,1.17-3.15-2.78-8,1.2-9.14C171.73,53.5,170.26,58.67,171.11,61.13Z"/><path class="cls-2" d="M178.59,134c7.93-.74,15.58,0,22.71,3.8C193.7,136.7,186.31,134.27,178.59,134Z"/><path class="cls-2" d="M141.22,105.4c-.15-2.57,3-4.47,1.54-7.37-.07-.15.81-.77,1.24-1.17.47.66,1.25,1.27,1.34,2,.28,2.24.32,4.52.44,6.78C144.17,107.57,142.65,107.54,141.22,105.4Z"/><path class="cls-2" d="M177.75,157.24c-.17,1.63.47,3.75-1.75,4.35a9.28,9.28,0,0,1-4.12-.13c-.56-.11-1-1-1.44-1.58l7.34-2.61Z"/><path class="cls-2" d="M141.08,138.48l4.48-1.88-1.7-.58a3.86,3.86,0,0,1,5.06-.6c.17.09-.14,1.78-.54,1.94C146.05,138.27,144.07,142,141.08,138.48Z"/><path class="cls-2" d="M190.39,168.06c-3,3-5.37,5.33-7.72,7.67-.17-.29-.56-.77-.48-.86C184.28,172.37,185.45,168.82,190.39,168.06Z"/><path class="cls-2" d="M174,154l1.36,1.21a25.26,25.26,0,0,1-2.72,1.54c-.15.07-.66-.67-1-1Z"/><path class="cls-2" d="M172.37,173.58l.57-.25a2.56,2.56,0,0,1,.1.54s-.23.17-.27.14A1.83,1.83,0,0,1,172.37,173.58Z"/><path class="cls-2" d="M177.78,157.27l0,0Z"/><path class="cls-5" d="M99.75,116.47c-.33,2.27-2.61,1.45-3.78,2.38-9.56,4.58-4.23,13.59-5.86,20.49-.68,2.86-1,4.68-4.22,4.54-4-10.28-.71-20.34,2.55-29.66,2.87-8.17,8.75-15.29,13.3-22.88-1.41,6.9-2.57,13.85-4.34,20.65C96.68,114.75,97.12,115.93,99.75,116.47Z"/><path class="cls-2" d="M84.11,144.47l1.61.57,9,15.54c-1.49,1.48-2.59,1.42-3.63-.41a12.77,12.77,0,0,1-1.4-4.42l-5.61-9Z"/><path class="cls-5" d="M89.72,155.75c2.15,1.12,1.92,4.72,5,4.83,1.25,3.29-2.87,2.11-3.33,4C90.31,161.73,88.53,159,89.72,155.75Z"/><path class="cls-5" d="M72.88,162.51c1.75.15,1.57-3.7,3.51-2,.81.69.66,3.43,0,4.75-2.33,4.61-.79,11.32-7.28,13.69-.76.27-1.51.58-2.26.88a7.29,7.29,0,0,1,.59-2.55c3.1-4.46,6.49-8.77,5.47-14.75Z"/><path class="cls-5" d="M76.87,157.9c-.25-.82-.56-1.31-.43-1.55a6.9,6.9,0,0,1,1.19-1.3c.23.36.72.82.63,1A8.27,8.27,0,0,1,76.87,157.9Z"/><path class="cls-5" d="M72.9,162.48l-.6-.34.23-.23c.12.2.23.4.34.6Z"/><path class="cls-2" d="M134.35,193.75c-10.43-4.29-18.63-11.43-25.7-20Z"/><path class="cls-7" d="M99.06,166.26l-.74-1.63,1.6.18Z"/><path class="cls-7" d="M99.21,166.89c0-.21-.1-.43-.14-.64A.53.53,0,0,1,99.21,166.89Z"/><path class="cls-2" d="M93.87,227.58c0-.21,0-.41,0-.62A.47.47,0,0,1,93.87,227.58Z"/><path class="cls-2" d="M108.85,232.11l0,0Z"/><path class="cls-7" d="M180.93,90.57c.51-2.6-1.86-7.43,1.71-7.34,4.17.1,6.82,4.88,8.74,8.7s-.55,6.77-3.46,8.5c-2.64,1.55-5.37.69-6.17-2.94C178.57,95.53,180.88,92.91,180.93,90.57Z"/><path class="cls-5" d="M180.93,90.57c5.58,1.66-.35,4.72.83,6.92a4.82,4.82,0,0,1-6.17,1.72c-3-1.19-2-4.06-2.12-6.38-.05-.35-.1-.71-.14-1.07C175.51,89.11,178.18,89.61,180.93,90.57Z"/><path class="cls-5" d="M179.7,81.43c-1.39-1.18-4,1.15-4.7-1.59-.12-.49,1-1.66,1.76-1.91,3.27-1.11,6.53-1.54,9,1.72Z"/><path class="cls-7" d="M172.61,98.8c-.76.66-1.35,1.48-1.71,1.39-.58-.15-1-.89-1.5-1.39.45-.43.88-1.2,1.34-1.22S171.79,98.23,172.61,98.8Z"/><polygon class="cls-7" points="192.98 94.35 193.19 94.36 193.09 94.55 192.98 94.35"/><path class="cls-2" d="M168.69,82.51l-.17-.19h.34Z"/><polygon class="cls-2" points="168.87 82.33 168.95 82.59 168.69 82.51 168.87 82.33"/><path class="cls-5" d="M141.85,83.45c-1.34,3.42-4.15,2.44-6.4,1.75-6.6-2-13.08-2.74-19.6.19-1.39.62-3.21,1.21-3.93-.43-.29-.65,1.13-2.61,2.21-3.22,5.74-3.27,11.48-7,18.57-3.75a7,7,0,0,0,5.24,3.48C139.35,81.72,141.27,81.41,141.85,83.45Z"/><path class="cls-6" d="M137.89,93.73c.46,1,1.53,2.17,1.27,2.89-.91,2.51-3.64,2.06-5.64,2.69-1.32.42-2.86.13-4.3.16-1.68-1.8-3.62-2.52-6-1.49l-5,.59c.88-1.38,1.49-3.12,2.7-4.08,4.95-3.89,10.11-7.35,16.18-1.79C136.82,93.46,137.88,93.16,137.89,93.73Z"/><path class="cls-6" d="M141.85,83.45c-3.75.25-7.55.31-10.42-2.59-1.44-1.45.73-2,1.27-2.87,3.79-.95,7,.31,9.85,2.7C142.87,81,142.11,82.5,141.85,83.45Z"/><path class="cls-5" d="M102.22,87.61l.63-4.8c.9-3.2,1.73-6.45,5.06-8.15C107,79.4,106.21,84.21,102.22,87.61Z"/><path class="cls-5" d="M123.22,98a7,7,0,0,1,5.61-3.82l.39,5.31Z"/><path class="cls-3" d="M110.73,110.82l-2.87.7Z"/><path class="cls-5" d="M137.89,93.73c-.28-.35-.56-.69-.85-1C137.33,93,137.61,93.39,137.89,93.73Z"/><path class="cls-5" d="M89.72,57.72l-3.23-5.55c2.41.14,4.83.18,7.22.47a52.29,52.29,0,0,1,5.35,1.21c1-.42,2.11-1,3.15,0l0,0c-.25,3.17-.94,6.51,3,8.2a1.18,1.18,0,0,1,1,.68l1.15,2.37c-1.32-.16-2.8,0-3.94-.53C98.77,62.44,94.26,60,89.72,57.72Z"/><path class="cls-5" d="M93.85,83.14l1.59.59c-.35.44-.71,1.27-1,1.26-3.49-.09-6.92,2.15-10.43.25-.56-.35-1.12-.7-.62-1.5,2.46-2,4.8-4.14,7.44-5.86,1.87-1.22,3.46-.59,4.89,1.48,1.92,2.78-2.3,2.06-1.81,3.8Z"/><path class="cls-5" d="M109.61,51l3.66.76a3.79,3.79,0,0,1,2.09.79l-.12,2.89c-2.84.76-5.13.54-5.58-3.05Z"/><path class="cls-2" d="M109.66,52.37l5.58,3.05-3.41,2.29h0C110.41,56.21,107,55.53,109.66,52.37Z"/><path class="cls-5" d="M108.75,59.87c.86,2.42.07,3.46-2.52,3-.16-.88-.42-1.76.22-2.56S107.82,59.19,108.75,59.87Z"/><path class="cls-2" d="M106.68,60.62c-.14.75-.29,1.5-.44,2.25l-.07-.09-1-.68.6-2.08a.92.92,0,0,1,.72.24Z"/><path class="cls-2" d="M115.36,52.53l-2.09-.79,1.88-.73c0,.52.11,1,.17,1.56Z"/><path class="cls-5" d="M96.12,69.67c-.59-.52-1.19-1-.07-.06-.69-1.31-.32-.61,0,.09Z"/><path class="cls-6" d="M108.75,59.87l-2.07.75,0,0c-.4-.54-1-1.11.23-1.38C107.81,58.59,108.63,58.23,108.75,59.87Z"/><path class="cls-5" d="M106.89,59.22c-.08.46-.16.92-.23,1.38l-.87-.58c-.05-.42-.09-.84-.14-1.25Z"/><path class="cls-6" d="M83.35,83.74l.62,1.5C82.57,85.23,82.09,84.85,83.35,83.74Z"/><path class="cls-5" d="M110.91,59.24l-.23.24c-.05-.09-.17-.19-.16-.28s.14-.16.21-.24Z"/><path class="cls-2" d="M105.86,50.85l1.41.22-1.3.77-.28-.24Z"/><path class="cls-2" d="M106,51.84l-.42.35c0-.2.09-.39.14-.59Z"/><path class="cls-2" d="M111.83,57.71l.31.08-.3-.09Z"/><path class="cls-3" d="M85.52,50.14c-3.8-3-11.46.81-12.58-7,1.33-2.9,3.63,0,5.29-.87,2.67-.17,5,.5,6.59,2.83l-.12,0C85,46.74,85.25,48.44,85.52,50.14Z"/><polygon class="cls-4" points="102.86 47.22 102.98 47.4 102.82 47.26 102.86 47.22"/><path class="cls-2" d="M130.59,34.46l1.15.8Z"/><path class="cls-2" d="M132.08,35.61l.7.43Z"/><path class="cls-5" d="M84.82,45.07l-6-1.55c-1.6-2-5-1.05-6.16-3.75.09-.52.18-1,.28-1.55L75.86,36l.67.76c2.54,2.67,5.2-1,8.42.52C92,40.64,85.32,42.57,84.82,45.07Z"/><path class="cls-2" d="M115.58,27l-.42,1.9L113.35,27h2.23Z"/><path class="cls-2" d="M115.59,27l.23-.23-.24.22Z"/><path class="cls-3" d="M65.38,66.7l1.48-.83a1.19,1.19,0,0,0,.63.21l3,.71c.56,1.17,1.4,1.09,2.34.53l1.49.22c-.31,2.24-1.06,4.2-3.48,4.94-1.36.42-1.85,2-3.22,2.36-4.23,2.34-4.28-2.07-6-3.73-.45-1.45-.91-2.9-1.36-4.35C62,66.92,63.7,68.59,65.38,66.7Z"/><path class="cls-6" d="M73.63,95.12,78,97.26c-1.4,2.58-2.78,5.18-4.25,7.72a3.88,3.88,0,0,1-1.4-.48c.51-3.21-2.19-4.39-3.87-6.2C69.44,96,71.27,95.12,73.63,95.12Z"/><path class="cls-4" d="M67.66,74.84q3.34-3.65,6.7-7.3l2.45-.09a1.14,1.14,0,0,1-.12,1.44c-3.39,1.2-1.31,2.61-.58,4.49.34.88-1.38,3.24-2.69,3.9-1.84.93-1.06-1.28-1.39-2.07C70.75,72.23,69,75.7,67.66,74.84Z"/><path class="cls-2" d="M59.71,93.44l-2.58-2.8c2.33-1.32,4.78-2.56,4.6-5.85,3.23-1.53,2.93,5.34,7,2.31C65.85,90.08,61.42,89.76,59.71,93.44Z"/><path class="cls-2" d="M59.32,98.55c-1.53-1.7-.77-3,.79-4.06,3,.22,6-3,8.94.07,1.19,3.14-1.22,2.65-2.91,2.88l-.65,0c-.75.46-1.2,1.47-2.32,1.21Z"/><path class="cls-6" d="M48.89,118.33l.74-.06a30.49,30.49,0,0,0,3.68.26c1.71-.07,4.1-2.45,4.82.66.44,1.92-2.2,2.6-3.52,2C52.69,120.35,48.53,123.56,48.89,118.33Z"/><path class="cls-6" d="M76.69,68.89l.12-1.44a2.34,2.34,0,0,0,2.73-1.85c.63-1.8,2.15-1.42,3.38-.66s2,1.48,1.39,3.28c-.79,2.21-1.89.59-2.88.59C79.85,68.8,78.27,68.86,76.69,68.89Z"/><path class="cls-4" d="M66.14,97.44l2.91-2.88c1.63-.67,3.22-.93,4.58.56,0,3.89-3.67,1.72-5.14,3.18Z"/><path class="cls-2" d="M72.87,67.32l-2.34.93V66.79Z"/><path class="cls-4" d="M63.17,98.67l2.31-1.21C65.18,98.76,65,100.22,63.17,98.67Z"/><path class="cls-4" d="M72.69,39.77c2.89-.12,5.88-.4,6.16,3.75l-5.91-.41C72.59,42,68.79,41.19,72.69,39.77Z"/><path class="cls-4" d="M102.21,53.86H99.06l2.9-1.91Z"/><path class="cls-3" d="M61.46,49.65l-.59.6Z"/><path class="cls-2" d="M55.72,67.79c.09,0,.22.07.27.14s0,.19,0,.29L55.52,68Z"/><path class="cls-2" d="M54.16,60.71l.24-.46a.56.56,0,0,1,0,.23,1.39,1.39,0,0,1-.21.21Z"/><path class="cls-6" d="M77.43,143.51c-1.77.89-3.39,2.09-5.2,2.54-5.06,1.27-10.92,1.46-9.65,9.27,0,.25-.86.65-1.32,1-2.74-4.71-7.8,1.48-10.69-2.3a1.84,1.84,0,0,1,.16-1.5c4.34-1,5.63-5.5,8.84-7.65,1.72-1.15,2.21-1.74,1.09-3.43-.31-.46-.46-1.6-.26-1.72,1.33-.79,3.88-2.17,4-2C67.6,142.26,74.09,138.76,77.43,143.51Z"/><path class="cls-1" d="M70.63,128.14c.44-7.79,6.74-3.28,9.89-3.93s.54,3.29.85,5.16c.37,2.28.39,4.62.57,6.94-.86,1.79-1.63,4.21-4,3.69s-1.19-2.94-1.26-4.52c-.1-2.4-.88-4.07-3.48-3.59C69.16,132.63,69.48,130.75,70.63,128.14Z"/><path class="cls-6" d="M54.65,179a5.19,5.19,0,0,0,0-.68l1.24-.33Z"/><path class="cls-5" d="M78.86,119.8c-.77.71-1.55,1.42-.1.1-1.84.63-.85.29.14-.05Z"/><path class="cls-4" d="M93.85,83.14l0,0Z"/></g></g></svg>