<svg xmlns="http://www.w3.org/2000/svg" viewBox="0 0 255 249"><defs><style>.cls-1{fill:#214077;}.cls-2{fill:#8193ae;}.cls-3{fill:#b7c0d3;}.cls-4{fill:#5b6577;}</style></defs><title>dr_ppe_2</title><g id="Layer_2" data-name="Layer 2"><g id="Layer_1-2" data-name="Layer 1"><path class="cls-1" d="M9.21,248.57c-7.62,1.63-9.24-1.33-9.21-9C.35,160.79.24,82,.13,3.19.13.35.87,0,3.46,0Q127.37.13,251.28,0c2.9,0,3.72.39,3.72,3.56q-.18,120.63-.09,241.26c-1,.72-1.57.12-2.08-.7-4.24-6.87-10.72-10.68-18.19-13-5.9-1.8-11.1-5.19-16.94-7.08-5-1.61-10.1-1.92-15.24-2A73,73,0,0,1,190.21,221c-5.05-1-9.85-.84-13.85,3.34-1.89,2-4.27,1.54-5.54-1-1.56-3.11-2.95-6.26-5.36-8.84-.32-.34-.09-1,.08-1.45,1.91-2.49,1.2-5.41,1.33-8.18a50.06,50.06,0,0,0-.44-8.47c-.07-2.93,2.83-3.07,4.3-4.54,2.69-.84,5.25-2.07,7.92-3,2.24.05,2.67,1.48,2.66,3.07.76-1.18-1-2.2-.75-3.56a18.52,18.52,0,0,0,7.58-11c.34-1.35.72-3.05,2.87-2.57,2.82-.24,4.41,1.2,5.16,3.76a3.77,3.77,0,0,1,.29,1.13c.73.26-1.35,1.58.7,1.61,1.87,0,2.52,1.71,2.65,3.4a24,24,0,0,1,.44,3.14,12.25,12.25,0,0,1-3.88,3.87c.11,0,0,.07.06,0,4.85-3.1,6.91-8.41,10.3-12.6,2.41-3,3.3-7.27,7.76-8.34a15.14,15.14,0,0,1,1.58-2.8c.59-1.48.65-3.08,2.31-4.2,1.87-1.26,1.3-3.37.55-5.24a5.07,5.07,0,0,1,.94-2.33c1.78-2.74,4.09-5.13,5.26-8.26-.17-1.41.52-2.64.89-3.94.46-1.65.43-3.39-.91-4.5-2.71-2.26-3.37-5.32-4-8.5-.43-2-.36-4.45-3.24-5.12-.81-.19-.65-1.49-.81-2.32-1-2.67-.68-5.41-.44-8.15s-.37-5.73-.21-8.62c.1-1.88.37-3.35,2.24-4.29,1.72-.87,2.21-2.32,1.75-4.29-.61-2.55-1.11-5.12-2.51-7.37a86.09,86.09,0,0,0-15.34-18.78,1.23,1.23,0,0,1-.24-1.58c2.51-3.76,1.57-7.27.61-11.54-1.66-7.32-7.33-10.8-11.73-15.55-2.12-2.3-4.51-4.29-5.57-7.36a5.3,5.3,0,0,0-1.47-2.58C179.48,30,175.36,26,170.9,22.31s-9.8-4.9-14.31-7.9a16.16,16.16,0,0,0-14.83-2.11c-2.07-.55-3.88-1.8-6-2-1.87-.21-3.55-1.17-5.54.68-1.49,1.38-4-.2-6.13-.08a18.25,18.25,0,0,0-5.57.22c-1,.19-2,.66-2.89.18-3.41-1.92-6.48-.37-9.61.73a38.84,38.84,0,0,1-9,1c-4.23-.12-6.56,3.33-9.79,5-5.94,3.14-10.77,8-16.93,10.92-4,1.91-7.64,4.7-11.85,6.4a4.79,4.79,0,0,0-3,4.41c0,3.46-1.62,6.09-3.23,9a89.17,89.17,0,0,0-8.45,21.95c-1,4-2.47,7.81-3.64,11.73-1.38,4.63-2.39,9.12-1.82,13.92a25.13,25.13,0,0,0-4,8.77c-.22,7.5-4.7,13.68-6.58,20.71-1.47,5.48-3.39,10.87-4.33,16.47-.4,2.44-1.9,4.58-1.69,7.12,2.66,4.15,4.6,8.69,6.91,13,3.11,5.86,6.67,11.22,12.81,14.35.31.21.61.44.91.67a1.32,1.32,0,0,1,.43,1c.68,2.85,2.72,4.08,5.4,4.56a1.32,1.32,0,0,1,1,.43,46.53,46.53,0,0,0,4.19,11c.37.76.88,1.64,2,1.32.8-.25.91-1.11,1.11-1.82a4.62,4.62,0,0,0,.17-2.21C55.3,186,52.84,180.58,50.86,175c-.77-2.17-3-3.82-2.26-6.65.23-.88-.42-1.23-1.31-1.12a9.19,9.19,0,0,1-3,0,1.29,1.29,0,0,1-.53-.85c.57-1.77-1-2.71-1.68-3.9-2.51-4.44.27-8.24,1.2-12.25a19.5,19.5,0,0,1,1-2c.44-1.18,1.67-2.73-1.26-2.08-1.39.31-2.5-1-3.46-1.84-1.39-1.19-.34-2.22.57-3.36s-.38-2.05-.79-3c0-.53.16-1,.17-1.56,0-2.36,0-4.62,2.44-6.14,2-1.21,1.41-2.64-.29-3.79-.62-.41-1.3-.76-1.88-1.22-2.48-1.93-2.15-5.86.82-6.74a37.84,37.84,0,0,0,8.64-3.53c1.65-1,4.55-.33,6.88-.6-.49.11.19.18-.3.11-1.79-.26-3.85,1.15-5.21.16s-.08-3.24-.94-4.78a5.19,5.19,0,0,1,1.42-1.89,3.65,3.65,0,0,0,2.27-3c1.16-5.68,2.82-6.42,7.92-4.23a1.18,1.18,0,0,0,.92,0,4.16,4.16,0,0,0,.36-.29c0-.14.09-.29.13-.45a11.61,11.61,0,0,0,0-2,1.78,1.78,0,0,1,.45-1.17,2.8,2.8,0,0,1,3.52-.57C69.23,97.62,71,95,73.3,94.87c1.77,0,3.69.1,5.21-.67a5.62,5.62,0,0,1,6,.36C87.55,96.34,90.2,96,92,94c.67-1.2,1.5-2.35,1.3-3.85.78-4.19,4.83-4.93,7.6-6.9,1.41-1,2.65.49,2.93,2.1a13.47,13.47,0,0,1-.47,5.9c-2.06,7.75-7.14,13.94-10.73,20.89-.33.66-.88,1.22-.86,2a15.65,15.65,0,0,0,.06,2.27c-.9,4.23-1.16,8.55-1.9,12.8-.45,2.56-.69,5.15-2.12,7.4-1.69,2.67.22,5.6-.66,8.31-1.61,1.51-1.24,2.74.05,4.41,1.57,2,3,4.29,3.34,7-.17,2,.69,3.63,1.38,5.4,4.37,11.38,6.28,23,3.15,35.07-.47,1.8-.66,3.68-1.2,5.46A11,11,0,0,0,96.57,214c1.73,1.8,3.85,4,.52,6.39-.94.15-1.83-.32-2.76-.29-4.56-1.08-9.2-1-13.82-1-1,0-2-.08-2.44,1.06a3.34,3.34,0,0,1-2.41,2c-3-.89-6.08-1.59-8.81.84-.9,1.2-2.09.64-3.2.53-3.58-.55-4.85,3-7.43,4.23-3.84.24-7.25,2.08-10.69,3.45-9,3.58-18.09,7-26.15,12.56A14.31,14.31,0,0,0,15.8,247C13.64,247.65,11.28,247.5,9.21,248.57Z"/><path class="cls-2" d="M94.87,218.87l1.75.08a11.5,11.5,0,0,1,6.41-.89A19.2,19.2,0,0,0,116,215.27c3-1.91,6.45-2.46,9.9-3.14,6.58-1.3,13.44-1.82,19.19-5.89a24.53,24.53,0,0,1,2.44-2.23,4.33,4.33,0,0,1,4.07-1.44c2.24.65,3.73-.34,5.44-1.36,3.86-2.3,4-3.85.48-7.06-.77-.7-1.68-1.14-1.36-2.53.4-1.75,1.79-1.07,2.56-1.42-1.84-.24-5.23,1.11-3.73-3.37.32-1-.77-.66-1.24-.72-1.11-.15-2.24-.15-3.36-.19-2.05-.07-4.87-.67-5.53,1.71-1,3.53,1.4,6.23,5,6.93,2.6.49,5.23.36,7.83.63,2,.21,2.14,1.91,2.28,3.21.22,1.93-1.19,2.08-2.72,1.74-4.91.54-9.75-1.35-14.67-.3-.62.13-1.18-.26-1.77-.38-13-5-23.85-13.22-33.27-23.38-2.1-2.26-.35-8.92,2.43-8.63,3.09.31,6.33.23,9.47,1.62a30.82,30.82,0,0,0,11.77,3c1.39,0,2.73-.31,2.68-2.19,2.4-2,4.93-.57,7.45-.3,1.62.18,3.87,1.57,4.69-.47.7-1.72-1.73-2.39-2.93-3.36a34.73,34.73,0,0,1-5.08-4.38,10.87,10.87,0,0,0-8.3-3.68c-3.82-.15-5,1-4.84,4.78.09,2.69.48,5.42-1.39,7.74a10.44,10.44,0,0,1-4.59-1.26c-2.58-1.68-5.84-.65-8.67-1.65-.46-.17-1,.36-1.26,1-1.41,3.09-3.54,2.47-6.24,1.53-7.11-2.47-11.93-6.77-13.21-14.44-.27-4-6.42-5.7-4.18-10.67,2-.91,2.94.13,3.76,1.8a51.81,51.81,0,0,0,5.5,8.89c.94,1.24,2,3.12,3.78,2.48,2.1-.75,1.63-2.94,1.26-4.57a40.67,40.67,0,0,1-.86-10.77c0-1-.11-2,.78-2.76a39.83,39.83,0,0,1,4.08-.14c2.19-.13,3.24,1.19,3.09,2.95-.21,2.4-2.2,0-3,.82,2.73.21,2.73.21,2.53-2.69a17.5,17.5,0,0,1,.41-2.8c.17-1.94,0-4-1.59-5.12-2-1.51-3.68-3.07-4-5.74-.17-1.42-1.64-1-2.48-1.45-1.13-1.62-2.14-3.45-3.95-4.36a10.8,10.8,0,0,1-4.91-5.17L89.39,115a3.06,3.06,0,0,1,3.9-1.62c1,.28,2.2.72,2.83,0,3.22-4,8.06-3,12.19-4.18a9.73,9.73,0,0,1,9.37,4.4c1.27,2.25,4,3.72,3.21,7.09-.25,1,1.6,1.5,2.67,1.5,5.73,0,9.39,3.43,12.6,7.55,1.85,2.38,4.29,3.21,7.18,3.3A93.51,93.51,0,0,0,163,131.1a15.2,15.2,0,0,1,4.45-.35c1.25.15,2.56.35,2.77,1.93s-1,2.36-2.19,2.89a9.25,9.25,0,0,1-4,.9c-8.71-.37-16,4-23.8,6.83a14.17,14.17,0,0,1-4.28,1.27c-5.25.1-7.87,3.64-10.34,7.36a13.12,13.12,0,0,1-5.4.86c6-.11,12.37-2.07,19-2.35,2.66-.11,5.33-.94,7.8.58.1.12.24.14.45-.06a4.4,4.4,0,0,1,3.17-.56c.84.17,2-.35,2.49.35,2.77,3.75,7.3,3.74,11.06,5.35,1.05.45,2.34.81,2.35,2.09,0,4.05,2.23,7.33,3.55,10.92.79,2.17.5,3.8-2.27,3.83,1,.36,2.87-1.55,3.28.81.58,3.3-2.69,3.27-4.34,4.61,2.89,1.39,2.89,1.39,5.68-.25a9.26,9.26,0,0,1,1.69-.79c1.62-.55,3.08-2.6,5-.57s2.33,6.19.68,8c-1.91,2.05-4.11,3.75-4.86,6.71-.33,1.28-2.35.92-3.11,2.07l-3.78,2.35-.59.92c-.08.56.22,1.09.1,1.65a5.47,5.47,0,0,0-.27,1.13c.07,4.61-.14,9.22.1,13.83.18.36.38.72.59,1.07,1.83,2.23,4.66,3.85,4.2,7.49-.05.45,2.38,1.79,2.57,1.61,12.9-12.62,27.33-2.81,39.94-.82,14.91,2.35,31.65,6.09,40.22,22.09l-.75,3.75c-2-1.66-2-1.66-3,0h-167a3.6,3.6,0,0,0-1.51-1.08l-.47.08c-.35.32-.68.66-1,1H30.18c-1.79-1.58-2.28-3.19.48-4,5.56-1.68,8.28-6.56,11.84-10.38,2.77-3,4.21-3.9,8.3-2.83a13.1,13.1,0,0,1,3.45,1.4,14.59,14.59,0,0,0,2.92,1.39,13.6,13.6,0,0,1-4.28-2.75c-.58-.56-1.33-1.21-.78-2.18a2.81,2.81,0,0,1,2-1.24c2.62-.73,5.54-.25,7.91-1.92,1.87-1.08,4.12-1.72,4.91-4.11a7.42,7.42,0,0,1,4.31-.48,3.37,3.37,0,0,0,3.81-1.72l1.3-.63C82.55,218.93,88.71,219.38,94.87,218.87Z"/><path class="cls-3" d="M63.7,226.66l1.36,1.08c-1,.26-2,.59-3.07.77-2.27.39-4.56.71-6.83,1.06,1.6,1.37,3.22,2.72,4.81,4.1,1.09.94,2.15,1.92,3.23,2.88-1.5,0-3.37.64-4.43,0-15.41-9.75-18.65,9.08-28.59,12H13c-.78-1.46,1-2.44.7-3.8,13.19-7.87,26.4-15.68,42-17.93,1.53-.31,2.8-1.4,4.41-1.45C61.3,225.72,62.79,225.36,63.7,226.66Z"/><path class="cls-1" d="M251.16,248.57l-2.61-7.35,1.06-.54q2.26,3.94,4.55,7.89Z"/><path class="cls-3" d="M81.12,248.57c.24-2,.49-4,.73-6l0,0,2.22,6Z"/><path class="cls-2" d="M13.65,244.77l-.7,3.8H9.21Z"/><path class="cls-3" d="M171.83,193.5c-1-5,3-6.83,5.68-9.65.85-.89.39-3,.53-4.57-1.43.29-3.25.12-4.24.95-6.62,5.52-9.25.21-12.26-4.27.51-.34,1.1-1,1.52-1,2,.43,3.94,2,5.82-.22-1.87-.37-3.76-.63-5.58-1.13a7.53,7.53,0,0,1-2-1.39c1-.69,1.88-1.75,2.95-2s2.22.49,3.34.78a32.4,32.4,0,0,1-1-3.68c-1.45-9.58-9.27-12.19-16.65-15.29,1.21-2,3.54-1.31,5.23-2.12,3.82,0,7.54,1.61,11.35.67-2.82-2.49-4.31-2.72-13.81-2.12-8.5,1-17,2.21-25.42,3.31a11.57,11.57,0,0,1-4-.35c10.63-15.06,28.59-12.67,42.18-18.19-4.56.39-10.25.47-15.79,1.45-8.33,1.47-14.44-.72-19.55-7.86-3-4.23-9.08-3-13.85-3.92-1.06-.2-2.11-.43-3.16-.64,2.55-2.6,6-5.18.13-7.91,1.08-2.31,1.08-2.31-5.55-2.82-1.31-1.6.06-2.17,1.14-2.53a25.75,25.75,0,0,1,7.93-1.67c3.72,0,7.42-.39,10.75-2.26.44-.19,1-.52,1.41-.34,6.65,2.83,12.92-.8,19.37-1.19,5.18-.31,5.7-1.3,6-6.6.11-1.77.28-3.76,1.34-5.12,2.25-2.86,2.22-6.2,2.6-9.47.3-2.55-.71-4.45-3.46-4.85-3.14-.47-5.31-2.59-7.69-4.32-2-1.46-2.12-3.44-1.15-5.66,1.4-3.19,2.58-6.41,2.38-10-.24-4.32-1.91-6.35-6.26-6.82-2.35-.26-4.73-.07-7.09-.18-1.15-.05-2.69.25-3-1.34-.28-1.36,1.09-1.65,2-2.19a17.85,17.85,0,0,1,2.66-1.33q3.3-1.68,6.64-3.27a17.43,17.43,0,0,1,4.26-.56c-1.51.23-2.86,0-4.1.52q-3.66,1.65-7.21,3.53c-1.71,1-3.8,1.29-4.74,3.66a2.84,2.84,0,0,1-4.05,1,3.16,3.16,0,0,1-1-.75c-1.61-1.38-1.45-3.06.35-3.6,5.24-1.58,8.81-5.95,14.12-7.61,12.77-4,24.08-1.83,34.43,6.41a11.6,11.6,0,0,0,1.32.67l1,.62a52.75,52.75,0,0,1,8.46,10.55c.74,3.1,2.71,5.39,5,7.51a6.27,6.27,0,0,1,1.12,1.7c.32,4.74,2,9.24,2.45,14,.08.9.43,2.1-1,2.41-1.08.24-1.7-.46-2.44-1.18-1.07-1-1.4-2.59-2.7-3.39-.3-7-4.26-12.29-8.47-17.44-.45-.56-.84-1.41-1.73-1.08s-.82,1.17-.86,1.91a11.58,11.58,0,0,0,.66,5.53A12.77,12.77,0,0,1,178.54,77l-3.19,1.54c-1.93.31-3.76-.66-5.78-.35-1.81.28-2.48,1-2.58,2.74a73,73,0,0,0,1.16,14.78c1,7,1.37,6.68,8.43,7.39,6.79.68,13.6,1.33,20.34,2.44,3.25.53,3.91,3,4,5.73a35.78,35.78,0,0,0,4.1,12c-.15,1-.31,2.07-.43,3.11a92,92,0,0,1,3.11,13.42,26.17,26.17,0,0,1,.34,4.42c-.12,5.19-1.06,6.31-6.19,7.45a17.65,17.65,0,0,0-9.28-3.32c2.88.52,5.76.68,8,2.72,1.29,3.24-.6,5.79-2,8.32-1.91,3.53-4.11,6.8-4.29,11.1a7.3,7.3,0,0,1-3.76,5.77c-1.73,5-1.87,11.06-8.32,13.09-.42,2-2.12,1.41-3.4,1.66Z"/><path class="cls-2" d="M127.61,49.53l8.87-3.89.18.22-2.2,2.34a11.71,11.71,0,0,0,2.72.7c13.26.24,17,5.36,11.93,17.88-2.19,5.37,1,7.28,4.16,7.79,13.49,2.18,6,10.58,5.39,16.89-.07.73-1.47,1.37-1.48,2.07-.42,22-18.71,9.17-27.77,14.25-.79-.56-2.56-.16-2.1-1.92.37-1.41,1.69-1.12,2.76-1.11.64,0,1.56.68,1.85-.13,1.47-4,5.67-2.79,8.21-4.43a6.77,6.77,0,0,1-1,.29c-1.63.43-3.06,1.65-4.91,1.08a2.7,2.7,0,0,1-.29-2.48c1.44-3.35.32-6-2-8.43-.3-.54-.36-1.28-.9-1.61-2.26-1.35-1.24-3-.23-4.32,1.21-1.63,2.79-1.08,4.49-.51,5.13,1.73,7.8,6.09,11,9.89.79.92,1.28,2.35,2.85,1.93,1.37-.37,1.69-1.72,2.07-2.9,2.54-7.81-.63-13.34-8.78-14.88-2.65-.5-5.09-1.57-7.68-2.22-3.59-.9-7.29-.16-10.91-1-1.93-.45-3.72-1-4.92-2.38-2.67-3-1.31-6.12,2.62-7.3,2.59-.77,5.06-2,7.76-2.42.23,0,.46,0,.64,0a3.89,3.89,0,0,0-.63.22c-1.74.53-3.63.22-5.3,1.44-1.26.91-3.13,1.28-4.17-.56-1.27-2.27-2.23-1.2-3.22.12-2.32,3.09-4.09,6.54-6.23,9.75a15.66,15.66,0,0,1-1.64,2.48c-1.62,1.67-3.49,3.11-5.91,2.33S101,75.44,101,73.55c0-1.64-.47-3.5,1.13-4.82,2.19.13,2-1.89,2.82-3.07,4.56-.2,6.17-4.34,9-6.8a4.72,4.72,0,0,0,1.52-5.18c-.62-2-2.51-1.66-4.08-1.82a4.15,4.15,0,0,1-.8-.71,3.11,3.11,0,0,0-.71-.82l-1-.54-1-.56a27.87,27.87,0,0,0-7.3-4.14c-1.86-.76-2.71-3.56-5.4-2.75-2.72-1.09-3.92-4.06-6.54-5.3-.5-.19-1-.36-1.51-.51A10.77,10.77,0,0,1,85.6,36c-2.25-3.55-2.11-4.28,1.62-5.43,4.11-1.27,8.11-2.88,12.3-3.79,1.76-.51,2,.67,2.28,2.28-1.18-4.21-1.11-4.5,2.87-4.4,2.1.06,3.46-1.73,5.48-1.49a3,3,0,0,1,2.27,1c.28.34.54.69.81,1,.32,1-.29,2-.25,3,.4,1,4.14,3,4.75,2.44.09-.07-.41-.07-.58-.19a1.71,1.71,0,0,1-.77-2.5c.66-1.25,1.59-.89,2.7-.76,3.1.35,5.74,1.26,7,4.42.71,1.15,2.81,1.37,2.22,3.38A20.36,20.36,0,0,0,128.4,38c.94-.93,3,.19,3.34-1.82.82-2.37-1.45-1.86-2.4-2.57a8.31,8.31,0,0,1-1.34-.53c-.94-.22-1.47-1-2.09-1.65-1.39-2-2.74-3.35-5.56-3.9a15.6,15.6,0,0,1-11.57-9.58c.12-1.25-1.77-2-.88-3.44a3,3,0,0,1-.41.28c-2.3-.63-2.36-2.54-2.53-4.37l18.88-2c4.6.62,9.28.68,13.75,2.05,2.18.66,3.77-.83,5.66-1.22,12.86-1,21.69,7.27,30.77,14.13,14,10.56,25.59,23.3,32.47,39.83,1.56,3.76-.14,5.68-2.68,7.65-4,.39-7.95,2.57-11.91-.69-1.64-1.35-1.3-3.15-2.24-4.55h-.31l0-.32c-1.44-1.82-.72-4.54-2.69-6.22-.49-.42-.66-1.2-1.53-1.14L177,47.17a.36.36,0,0,0-.6-.1c-15.5-10.66-31.09-12.49-46.76-.35a16,16,0,0,0-2.21,2.61C127.16,49.71,127.24,49.76,127.61,49.53Z"/><path class="cls-4" d="M103.62,70.1q.24,3.11.46,6.23c1.55-1.3,3.4-2.38,4.6-3.94,3.16-4.1,5.92-8.5,9.08-12.6,1.6-2.07,4.07-4.35,6.56-2.08,2.64,2.4-2.3,2.72-2.18,4.78,4.84.36,11.83-5.11,13.67.21,1.27,3.68-7.38.86-10.82,3.3-1.64,1.16-5.44.93-4.37,4,1.31,3.78,5.27,3.82,8.8,4.35,8.12,1.21,16.61,1.49,23.36,7.14,3.5,2.94.4,19.27-3.93,19.37-4.75.1-3.38-6.86-7.24-8.93-2-1-3.38-3.13-5.24-4.47-1-.71-2.38-.85-3.59-1.24.46,1.23.92,2.46,1.39,3.68-.18,1.94-1.8,2.13-3.15,2.36a15.42,15.42,0,0,0-7.72,3.33c1.56-1.66,3.72-2.32,5.69-3.2,1.25-.57,2.95-.27,3.13,1.45.26,2.59,2.06,4.14,3.39,6,1.88,1.22,3,0,4.12-1.28,1.39-.76,2.36.4,3.5.76l-13.72,8.42-21.74,3.84c-3.4.71-7.33-1.59-8.84,5.07-1,4.15-5.7-3.25-9.44-1.74C93,108,96.74,101.1,100,94c1.13-2.44,1.06-5.44,1.53-8.18l-6.91,4.43c-.41,1.39-2.84,2-1.58,4-2.79,4.3-6,6.48-10.65,2.26-2.81-2.57-5.63.33-8.44,0-1.65-.55-3.33-1.07-2.92-3.39.52-1.06,2.16-2.49-1-2.09-.8.11-1.56-1-2.18-1.72-2.25-1.78-4.37-2.62-6.5.28a6.52,6.52,0,0,1-3.71,2,10.4,10.4,0,0,1-1.12.15c-2,.14-4.37,2.35-5.76,0s1.54-3.53,2.89-4.93c2.55-2.64,4.6-5.34,4.71-9.3a17.88,17.88,0,0,1,2-6.69c.76-.6,1.7-1.59,2.58-.94,3.81,2.84,5.86.07,8.08-2.31A17.25,17.25,0,0,1,72.29,66a5.55,5.55,0,0,1,1-.22c2.86-.68,4.37.52,5.4,3.23a11.16,11.16,0,0,1-.47,10A3.92,3.92,0,0,0,77.4,82a39.45,39.45,0,0,0,8.9-8.22c2.13-2.62,2.86-2.56,5.51-.16a13.1,13.1,0,0,1,1.82,2.32,1.64,1.64,0,0,1,.06,1.15c-.59,2.09-3,1.77-4.16,3.18-.52.66-1.31,1.35-.56,2.17s1.32,0,1.9-.42c.11-.13.24-.24.35-.37,3.35-5.06,3.35-5.06.13-8.48-2.08-1.63-4.13-3.3-6.33-4.77a7.4,7.4,0,0,0-3.4-1.34c-1.92-.18-4,.71-5.55-1.49-.41-.6-1.88.14-2.88.19-2.64-.22-5.28-.21-7.88-.63-1.36-1.78-2.64-3.6-2.83-5.93,2.19-1.49,1.94-3.27.35-4.88A14,14,0,0,1,60,49.2a3.73,3.73,0,0,1,.65-4.15,3.48,3.48,0,0,1,4.17-.46c2,1,4.2,1.61,5.8,3.29a2.9,2.9,0,0,0,1.16.93c4.24,1,7.9,2.47,10.06,6.8.73,1.46,2.91.87,4.09-.69,1.57-.87-.07-3.66,2.36-3.9,3-.23,6-.38,8.39,2.08a15.78,15.78,0,0,1,3.06,5.45.75.75,0,0,1-.15.68c0-.2.23-.34.23-.5,0-1.85-2-2.81-2.13-4.59-1-2.5.32-4.5,2.78-4.11a4.27,4.27,0,0,1,2.06.73c2.18,2,5,2.5,7.59,3.43a2.17,2.17,0,0,0,.42-.07c.37-.29.39-.75.51-1.18.87-1-1.91-2.79.78-3.33L120,52.74c-5,4.39-6,13-14.43,13.86C105.42,68,103.31,68.38,103.62,70.1Z"/><path class="cls-4" d="M146.59,207.18c-4,4.37-9.65,5.21-15,5.75-11.83,1.2-22.18,10.93-35,6-10.52-20.27,3.85-43.34-7.14-63.56,6.56,16.2,22.34,9.69,33.83,13.71.67-.75,1.27-1.62,2.46-1.48a58,58,0,0,1,9.08,1.63c.71.2.87.8.86,1.46-3,4.82-7.22,3.31-11.14,1.74-5.16-2.07-11.68-7-15.24-1.17-3,4.85,4.71,8.23,8.28,11.45,6.72,6,14.14,11.34,23,14.12C146.6,198.87,145.64,199.13,146.59,207.18Z"/><path class="cls-2" d="M203.25,126c-.27-.86-.54-1.71-.8-2.57,0-2.39,3.45-.15,3.22-2.17-.17-1.5-1.88-2.54-2.51-4.07-.9-2.18-1.82-4.39-4.13-5.56-1-5.9-5.69-5.47-9.82-5.41-18.16.28-24.57-6.33-23.18-24.5.41-5.34,3.42-7.37,8.67-5.43,1,.25,1.6.79,1,1.85a3.41,3.41,0,0,1-1.52,1.59c-8.09,2.5-2.91,8.77-3.8,13.3a2.47,2.47,0,0,0,.46,1.49,1.49,1.49,0,0,1,.45-1.35,6.88,6.88,0,0,1,2-1,1.65,1.65,0,0,1,2.14,1.29,4.21,4.21,0,0,0,2,2.47c.31.13.61.27.92.39a4.64,4.64,0,0,1,1.81.85c1.18.51,2.44,1.86,3.63.78,1.36-1.26,1.14-3.08.39-4.75-.46-2.24-2.09-2.71-3.93-2.24-2.72.7-5.5,1.07-8.24,1.74-.14,0-.31.09-.39,0-2.75-2.06-2.07-10.35,1.09-11.34,3.88-1.23,7.7-2.75,11.76-3.38,2.54-.39,4.91-.1,6.35,2.47.28.51.52,1,1.22,1.15,3.22.43,3.32,2.85,3.34,5.3a41.83,41.83,0,0,1,2.17,10.91c.59,2.69,2.9,4.23,4.94,2.79a6.1,6.1,0,0,1,4.72-1.08c2.38.35,3.86-1.62,6-1.84a2,2,0,0,1-.22-.09.54.54,0,0,0-.63,0c-.29-.15-.57-.25-.84-.42a10.81,10.81,0,0,0-3.64-1.85c-3.05-1.06-4-3.46-2.9-6.71.11-.24.23-.5.32-.75a1.76,1.76,0,0,1-.16-.4c-2-.9-4.28-.75-6.45-1.07-3.48-1.82-4.75-4.63-4-8.46a2.7,2.7,0,0,0-.28-1.47c-.83-1.68-1.64-3.58.81-4.62,3.57-1.5,5.23-.9,6.87,2.08,0-.13,0-.07-.07-.16-.29-1.65.4-2.13,1.85-1.7C220.42,83,224.21,98,217.84,116.29c-.87-.09-1.63.38-1.46,1.13.42,1.89-.11,3.92.85,5.72.09.1.2.19.31.29a5,5,0,0,0,1.28.07c4.92,4.77,3.86,13.55,11.2,16.7q-1.76,4.06-3.5,8.13c-3.94,1.77-4.67,5-4,8.82l-.28,1.69c-2.56,2.13-2.82,5.53-4.51,8.13-1.32,1.07-2.1,2.33-1.45,4.1-8.37,6.31-11.27,17.9-21.6,22.3a.53.53,0,0,1-.44-.69c1.54-1.77,3.07-3.55,4.6-5.32a4.83,4.83,0,0,0,.11-4.88c-1.45-3.41-.07-6.9,1.09-10,1.31-3.58,1.87-6.86.36-10.47-1-2.4-1.1-4.87,1.33-6.72l.37-.36a16,16,0,0,1,6.86-6.06c.91-.41,2-1.08,2.11-2,.77-4.31,2.88-8.49,2-13-.57-2.87-2.92-4.23-5.72-4.55A4.5,4.5,0,0,1,203.25,126Z"/><path class="cls-2" d="M61.67,70.68c-1.44,6.69-.84,13.94-7.49,18.9-2.38,1.77.77.89,1.5,1a8.14,8.14,0,0,0,1.48,0c1.48.39,1,1.42.82,2.39-.31,1.72-1.61,3.07-1.09,5.2.34,1.4-1.67,1.79-3.08,1.72C52,99.81,50.56,98.72,48.3,98c3.62,3.11,7,6,3.81,10.76L52,110.68c-1.51,2.85-3.91,3.82-7,4.85-7.81,2.62-10.65,11.94-5,19.43a9.93,9.93,0,0,1,1.28,1.58l.12,1.14a4,4,0,0,1-1.2,3.28c-1.09,1-1.84,2.55-.18,3.5s1.36,2,1.23,3.35c-.23,2.35-.19,4.71-.28,7.07-.18,4.21.46,8.1,4.08,10.88a1.62,1.62,0,0,0,0,.44c2.57.61,4.07,2,3.54,4.87a1.48,1.48,0,0,0,.4,1.44c3.18,3.53,3.49,8.36,5.46,12.44.64,1.34,1.05,2.34,0,3.36-1.27,1.26-2.38.16-3.38-.58s-1.76-2.17-2.87-3l-.58-.63c-1.89-1.88-3.85-3.64-6.49-4.41l-1-.84,0,0C28.6,173,26.53,160.42,20.17,150.93a5.29,5.29,0,0,1,3.57-4c2.32-.85,3.37-2.14,2.15-4.85-2.3-5.14-.46-10.18,1.34-15,1.61-4.27,2.95-8.66,4.71-12.84,1.17-2.76,1.72-6.62,6-7a3.7,3.7,0,0,0,.42-.17c-.17.22-.38.1-.64.08-1-.07-1.79.62-2.73.69a1.86,1.86,0,0,1-.89-.43c-.58-.76-.19-1.84-.85-2.54l1.77-9c.48-.18,1-.42,1-1,.46-3.76,1.52-7,5.08-9.22a7.67,7.67,0,0,0,3.84-7.6c-.29-2.69,1.14-5.07,1.8-7.59,0-.18.05-.35.07-.53.39-7.67,1-15.25,5.71-21.81.6-.84,1-1.71,2.05-1.67s1.67.87,2,1.88c.87,2.38.87,4.88,1,7.35s.23,4.83,2,6.7a9.54,9.54,0,0,1,.1,2.67c.27,1.66-1.27,1.84-2,2.52.09,0,0,0,.08-.07.7-.73,1.5-.37,2.24-.38a2.42,2.42,0,0,1,1.59.59C62.37,68.72,63.85,69.69,61.67,70.68Z"/><path class="cls-3" d="M49.65,69.7C49.46,81.05,43.41,89.12,35,95.86c3.68-17.34,12-33.57,15.84-50.26,3.74-16,16.69-13.79,24.36-20.92C83.49,17,92.84,10.58,105,10.39l3.84,3.12.13.13,1.38,4c-1.18,2.19-3.12,2.66-5.39,2.38a6,6,0,0,1-4.15-1.16,9.21,9.21,0,0,0-4.5-1.53c-2.85-.06-4,1.31-3.44,4.13.21,1,.59,1.88-.08,2.8-1.15.53.28,3.27-2.29,2.68-.23,0-.27-.7-.33-.2s-.18-.37.13,0a.77.77,0,0,0,.68.25c2.8-.39,5.49-1.64,8.37-1.32.9.1,2.65.29,1.22,2.05-4.29,2.65-11.18.26-13.42,6.89-1.2,3-3.72,2.28-6,2.17-2.2-.45-4.39-3.55-6.65-.07a7.93,7.93,0,0,1-1.54,0,5.26,5.26,0,0,0-4.24,1.94C66.38,41,65,44,61,44.77c-2.1.43-1.22,3.47-.15,5.53,1.46,2.82,3.77,5.4,3.1,9v5.78a47.42,47.42,0,0,1,6.71.62c1,.18,1.71.31,1.95,1.37a1.22,1.22,0,0,1-.64.9c.2,4.27-3.46,5.83-6.15,7-3,1.35-2.34-3.18-4.17-4.3l-1.43-1.59c-.43-.48-.55-1.13-.93-1.63a1.31,1.31,0,0,1-.09-.91,3.66,3.66,0,0,0,.18-.92c0-.31,0-.62,0-.93.17-1.29-.15-1.86-1.45-1-3.32-2.48-1.49-6.35-2.55-9.44-.54-1.58-1-3.21-1.46-4.81-.89,1.3-2.37,2.51-2.57,3.9-.79,5.43-1.18,10.92-1.71,16.39Z"/><path class="cls-4" d="M203.25,126c14.66.07,12.59,11.52,12.16,20-.16,3.27-6.77,6.11-10.19,9.4-.89.85-.84,2.68-1.23,4.06v0L202.07,158a14.52,14.52,0,0,0,.12,3.5c2.6,9.1,1.13,17.65-3.3,25.84.14-3-.75-3.84-3.64-2.23-1.16.65-2.86.33-4.31.45,2-1.42-1.36-5.83,3.24-5.8l.09-.1-3.68-3.52,9.06-25.56c0-1,.82-.83,1.45-.86,11.1-5.58,1.52-13.62,2.42-20.42A15.76,15.76,0,0,0,203.25,126Z"/><path class="cls-4" d="M101.12,140.84c0,7,.08,14-.1,21-.07,2.57-1.41,3.08-3,.81-4.25-6-8.45-12-12.68-17.95-2.24-10.13,4.47-18.85,4.47-28.63,3.77,2.19,8.65,3,10.22,8C102.25,129.51,103.93,135,101.12,140.84Z"/><path class="cls-4" d="M173.87,92.87l-3.42,6.56c-.61-2.81-2.1-5.77-1.65-8.4.73-4.23-4.53-10.14,3.14-12.68,1-.34,1.85-1.37,2.76-2.07L178,75c4.7-4.55,7.37-4.31,12.38,1.1q1.17,2.15,2.33,4.29c-.24-1.73-.38-3.48-.74-5.18-.69-3.22-1.51-6.41-2.28-9.62,3.05,6.24,9.26,4,14.15,5.24,0,.43,0,.87-.05,1.3-.17,1.17-.34,2.34-.52,3.52l0,0c-2.65.48-4.81-5.69-6.38-1.94-1.16,2.77-2,8.1,1.84,11.33-.48,1.24.89.9,1.23,1.44a1.24,1.24,0,0,1,.63,1c0,.4.07.8.07,1.2-.48,3.3-2.74,1.94-4.55,1.75a6.76,6.76,0,0,1-1-.63,2.81,2.81,0,0,1-.52-1.07,5.69,5.69,0,0,1-.16-1.17c-1.38-6.41-6-8.87-11.4-6.61-4,1.67-12.18-1.8-11.35,7.4.13,1.5.24,3.13,2.49,2.81A1.2,1.2,0,0,1,173.87,92.87Z"/><path class="cls-3" d="M35.43,105.6l7.54,0c-1.08,1.76-2,3.6-3.28,5.25a12.06,12.06,0,0,1-2.6,2v-4.65c-3.8,9.64-6.91,18.07-10.46,26.3-2,4.71,4.11,4.19,4.26,8,.35,8.41-7.6,5.23-10.72,8.55,1.17-14,6.28-27,11.09-40,.73-2,1.3-4,1.95-6l2.23.71Z"/><path class="cls-4" d="M41.27,136.54c-2-.4-5.86-.8-5.86-1.21C35.38,126,32.72,115,47,113c1.73-.24,3.3-1.53,4.94-2.33.85,5.94,5,.55,7.26,2.07.75.52,2,.25,3.09.33-.95.74-2,2.24-2.81,2.11-6.53-1.11-10.87,4.83-17.05,5-2.71.09-2.53,2.25-.56,3.85a12.8,12.8,0,0,0,3,2.1c4.3,1.82,4.37,2.91-.15,4.78C43.12,131.64,42.42,134.61,41.27,136.54Z"/><path class="cls-4" d="M48.2,184.7,53,186c-.64-2-1.16-4-2-5.89-1.94-4.66-4-9.26-6-13.88,10.27-5.36,6.63,5.85,6.9,7.47,1.29,7.83,10,13.29,6.84,22.42-.83,2.39-1.25,5-3.94,5.07-2.94.06-2.65-3.14-3.3-5.1C50.3,192.31,49.3,188.49,48.2,184.7Z"/><path class="cls-4" d="M52.11,108.79c-2-3.88-1.49-10-8.5-9.49-.39,0-1-.65-1.2-1.13a1.41,1.41,0,0,1,.46-1.29c2.14-.73,5.38-2.58,6.32-1.78,7.38,6.3,5-3.67,8-4.51l0,0c2-.44,4-.45,5.72-2.35C64,87,66.35,87.77,68,89a2.83,2.83,0,0,1,.26,3,3.55,3.55,0,0,1-3.08,3.46c-.91.22-1.93.32-2.34,1.39a1.17,1.17,0,0,0,.36.8,1,1,0,0,1,.6,1.07L65.48,104l-.3.29-2.8-1.72,0,0C55.74,99.29,56.32,108,52.11,108.79Z"/><path class="cls-4" d="M45,165.76c-6.35.36-5.18-5.15-5.26-8.12-.18-6.63-5.32-13.88,1.61-19.95-1,5.61-.12,9,6.52,5.23a30.27,30.27,0,0,0-.73,3.94C46.87,153.21,41.09,158.94,45,165.76Z"/><path class="cls-2" d="M61.67,99c-2.45-1.38-2.45-1.38,5.39-6.65a4.56,4.56,0,0,0,.92-.57,2.5,2.5,0,0,1,2-.5,5.85,5.85,0,0,1,1.08.2,5.16,5.16,0,0,1,.75.8,3.13,3.13,0,0,1,0,1.1c.72,1.06,1.43,2.12,2.14,3.19l-7,1.64c-1.12-.06-2.26-.24-3.23.56h0l-1.5.17A.35.35,0,0,1,61.67,99Z"/><path class="cls-4" d="M94.87,218.87c-6.11,3.95-12.32.8-18.48.23C82.53,217.41,88.69,217.79,94.87,218.87Z"/><path class="cls-4" d="M218.82,123.5c.33,2.22-.29,3.85-2.79,4-.23,0-.55-1.12-.83-1.72h0c1.58-3-3-7.66,2.63-9.52Q218.32,119.91,218.82,123.5Z"/><path class="cls-3" d="M222.57,157.15c-4-5.3-3-8.41,4-8.82Z"/><path class="cls-4" d="M178.87,190.91l3.4-1.66c1.32,2.85.21,5.34-1.55,7.43-.69.82-2.83,2.43-3.27-.13C177.15,194.81,178.34,192.8,178.87,190.91Z"/><path class="cls-3" d="M143.25,9.19c-6.69,4.81-12.93-.77-19.41-.83Z"/><path class="cls-4" d="M63.7,226.66l-3.54.24c-1.1-1-1.21-2,.28-2.68,1.05-.48,1.65-1.62,2.83-1.86L65.34,221c.52.93,2.25-.73,2.34,1.11C69.82,226.71,66.13,226.13,63.7,226.66Z"/><path class="cls-3" d="M67.68,222.15,65.34,221l9.75-1.31C74.1,225.08,70.85,223.49,67.68,222.15Z"/><path class="cls-4" d="M73.29,106.09c-1.62.64-2.57,1.37-3.05,1.13a11.91,11.91,0,0,1-2.6-2.25c.81-.55,1.72-1.66,2.41-1.54C71,103.59,71.71,104.72,73.29,106.09Z"/><path class="cls-4" d="M41.13,179.66c3.29-.18,5.75.86,6.49,4.41Z"/><path class="cls-2" d="M63.27,222.36l-3.11,4.54-4.53-.06C58.1,225.22,59.5,221.77,63.27,222.36Z"/><path class="cls-3" d="M217.4,167.16c1.76-2.7,1.13-6.79,4.89-8.32l-4.53,10.66C216.07,169,216.38,168.11,217.4,167.16Z"/><path class="cls-4" d="M217.4,167.16l.36,2.34c-.48.53-1,1.05-1.43,1.58l-1.84-3.14Z"/><path class="cls-4" d="M194.29,192.68c.15.23.3.46.44.69l-3.36,2.56a8.72,8.72,0,0,1-.54-1.06C192,194.1,193.13,193.39,194.29,192.68Z"/><path class="cls-4" d="M167.14,198.47l.08-.87a.81.81,0,0,1,0-1.26l.8-.48q0,9.28-.07,18.59l-.83-1A88.85,88.85,0,0,1,167.14,198.47Z"/><path class="cls-4" d="M80.23,109.19,82.12,106l1.12,1.11-2.75,2.45Z"/><path class="cls-4" d="M80.92,136.9l-1.17-5.2.88-.23,1.45,5.13Z"/><path class="cls-2" d="M93.06,94.26c-3.77-3,.35-3,1.58-4Z"/><path class="cls-4" d="M86.26,100.5l-2.62,2.28a9.91,9.91,0,0,1-.41-1.2c1.08-.5,2.2-.93,3.31-1.37Z"/><path class="cls-4" d="M63.78,98.74,67,98.18Z"/><path class="cls-4" d="M80.49,109.51l-1.58.49,1.32-.81Z"/><path class="cls-4" d="M40.11,178.8l0,0Z"/><path class="cls-4" d="M86.54,100.21l0,.25-.25,0Z"/><path class="cls-4" d="M65.48,104l0,.27-.28,0Z"/><path class="cls-3" d="M135.71,170.71l-12.4-1.61c1-4.46-3.83-11,1-13.06,6-2.59,12.46-.1,17.19,5.64,3.07,3.71,7.17,6.57,10.8,9.81C146.64,174,141.25,170.79,135.71,170.71Z"/><path class="cls-4" d="M157.65,198.94c-2.48-4-6.7-.89-9.82-2.37-2.23-1-5.53.66-6.75-3.09-2.42-7.39,1.12-10,7.77-9.77,4.27.13,9-1.16,12.3,3.31L158,188.08l5,1.68-3.24,2.29c1.16.86,4,2.76,3.92,2.93-3.62,6.16-8.72,10.45-16,11.58-1.11-2,.19-2.92,1.63-3.8A33.68,33.68,0,0,1,157.65,198.94Z"/><path class="cls-4" d="M123.26,151.51l30.9-4.35c3,2.14,3.15,2.61,1.78,4.82l-6,.14-2.44.67a.75.75,0,0,1-1.24-.41c-9.38-2.17-18.5,1-27.77,1.38-2.33.08-4.64,2.17-6.88-.23,2-.4,3.89-.85,5.85-1.19S121.32,151.79,123.26,151.51Z"/><path class="cls-3" d="M101.12,140.84q-.56-8.4-1.13-16.8c5.69,1.59,11.35,15.85,9,20.51-1,2-6-2.4-3.81,3C98.08,149.31,107.64,139.44,101.12,140.84Z"/><path class="cls-1" d="M157.65,198.94l-10,7.62-1.1.62c-5.81-1.23-1.51-8.34-6-10.33Z"/><path class="cls-4" d="M203.31,225.49c5.05,4.77,10,8.53,11.91,14.74a4.41,4.41,0,0,1-1.83,1q-5.88-6.37-11.51-13C201.68,228,202.6,226.81,203.31,225.49Z"/><path class="cls-1" d="M222.82,228.39l7.5,7.83.23.24c.6,1,1.21,1.92,1.81,2.89-.34,1.26-1,2-2.45,1.62l-7.13-9.64C221.91,230.34,220.75,229.34,222.82,228.39Z"/><path class="cls-4" d="M222.82,228.39c0,1,0,2,0,3-.45-.2-1-.27-1.33-.6-1.92-2-3.79-4-5.67-5.94Z"/><path class="cls-4" d="M70.94,231.77l1.36-1.88c.6.91,1.5,1.77,1.69,2.77.1.56-1,1.34-1.5,2Z"/><path class="cls-4" d="M229.91,241l2.45-1.63,1.53,4.45Z"/><path class="cls-3" d="M167.14,198.47q0,7.49,0,15Q167.15,205.95,167.14,198.47Z"/><path class="cls-4" d="M121.24,227.37l5.93.58h-6Z"/><path class="cls-4" d="M96,221.64l1.16,1c-.27.1-.56.3-.82.26a3.29,3.29,0,0,1-.89-.46Z"/><path class="cls-3" d="M157,172c.1,0,.23,0,.29,0s.07.18.09.27h-.47Z"/><polygon class="cls-4" points="230.55 236.46 230.29 236.49 230.32 236.22 230.53 236.25 230.55 236.46"/><path class="cls-3" d="M167.25,196.34c0,.43,0,.85,0,1.26C167.23,197.18,167.24,196.76,167.25,196.34Z"/><path class="cls-3" d="M146.23,152.38l1.24.41Z"/><path class="cls-3" d="M81.85,242.59l0,0Z"/><path class="cls-2" d="M190.35,76.07c-4-2.18-8.2-1.35-12.38-1.1-.91-5.6-1.86-11.2-2.69-16.82-.26-1.71-1.62-4.08.85-4.83,1-.29,2.93,1.4,3.87,2.62C184.67,62,189.28,68.14,190.35,76.07Z"/><path class="cls-2" d="M155.94,152c-.59-1.61-1.19-3.21-1.78-4.82,6.9-2.24,12.78.1,18.3,4.06a8.58,8.58,0,0,1,1.13,1.2,4.86,4.86,0,0,1-1.38.39C166.79,152.56,161.37,152.26,155.94,152Z"/><path class="cls-4" d="M199,111.62c8.94,0,7.31,9.52,12.07,13.29l-8.65-1.49Z"/><path class="cls-2" d="M171.24,61.49l-1.63,5c-.64-3.52-1.34-7-1.84-10.56-.07-.53,1.12-1.78,1.24-1.72C172,55.7,170.26,58.59,171.24,61.49Z"/><path class="cls-2" d="M202.53,138.27l-23.31-4.6C187.28,133.7,194.27,134.19,202.53,138.27Z"/><path class="cls-2" d="M201.1,149.74l-1.45.86a30.71,30.71,0,0,1-3.33-.27c-3.41-.62-6.81-1.33-10.22-2,.53-.61,1-1.61,1.6-1.75C192.63,145.54,197,147,201.1,149.74Z"/><path class="cls-2" d="M174.86,154.2c.88,1.48,2.29,2.91,2.46,4.47.09.86-1.85,2.06-3.06,2.81-.28.18-1.29-.8-2-1.25C174,158.71,174.53,156.79,174.86,154.2Z"/><path class="cls-2" d="M189.1,168.94l-6,6.51-.83-.77,6-6.46Z"/><path class="cls-4" d="M185.11,57.89l1.3-1.55q1.47,4.45,2.92,8.91Z"/><path class="cls-4" d="M142.81,42.33l9.62-1.84.21,1.26-9.77,1.44A.83.83,0,0,1,142.81,42.33Z"/><path class="cls-2" d="M142.81,42.33l.06.86-6.21,2.67-.18-.22Z"/><path class="cls-4" d="M176.39,47.07l1.4-1.92c-.27.67-.53,1.35-.8,2C176.79,47.13,176.59,47.09,176.39,47.07Z"/><path class="cls-2" d="M173,173.7c-.09.06-.18.14-.24.12s-.08-.15-.12-.22Z"/><path class="cls-4" d="M104.48,19l5.83-1.35c2.85,7.26,12.59,6.59,15.67,13.59,0,.34-.22.44-.54.33-1.34-3.3-4.6-1.89-6.92-2.8a33.56,33.56,0,0,1,3,4,12.9,12.9,0,0,1,.83,3.37c-1.27-.41-3.51-.61-3.64-1.25-.93-4.59-4.6-3.52-7.54-4.12a9.14,9.14,0,0,1-2.41-1.37l2.62-1c1.16-.5,1.25-1.23.45-2.15l-.31.05c-.83-.47-1.65-1.12-2.57-.15-3.61.51-7.23.9-8.41,5.38-.13.46-2.51,2.2-3,0-.33-1.61,4-.79,3-3.73a8.39,8.39,0,0,0-2.74-.42c-8.31,1.57-8.3,1.6-6.52-3.73,1.5-.25,2.41-1.42,3.46-2.33a2.75,2.75,0,0,1,2.68-.92C100.09,21.27,102.23,20,104.48,19Z"/><path class="cls-4" d="M72.64,34.72l1.81,1c1.33-1.11,3.19-1,4.58-2.08.68-.53,1.56.15,1.91,1.05l6.17-.1L89,35l-.22-.63.06.67c4.25-.41,4.27,4.07,6.69,5.78-.09,2.33-.15,4.5,2.09,6.22,1.43,1.09.51,2.79-.12,4.22-4.29,0-8.64.31-12.69-1.59-.9-3.38-4.12-3.38-6.56-4.1-1.94-.57-4-.69-5.63-2.09a11.89,11.89,0,0,0-1.28-1.73c-.14-.12-.28-.24-.43-.35l-.24-.52a5.64,5.64,0,0,1,0-1.16C71.05,37.9,70.89,36,72.64,34.72Z"/><path class="cls-1" d="M135.51,99.88c-3.44.48-7.7,2.16-6.26-4.38.06-.27-.51-1-.58-.94-1.45.58-2.84,1.3-4.3,1.86-1.74.68-3.54,1.25-5.31,1.86,1.15-1.29,2.06-3.08,3.5-3.77,3.74-1.8,7.72-3.11,11.6-4.62C139,92.63,138.69,96.06,135.51,99.88Z"/><path class="cls-1" d="M97.14,49.24c-1.57-2.63-5.08-4.89-1.6-8.46l13.94,7a.51.51,0,0,1,.75.18l.83.69c.29-.27.47-.21.55.18l.17.73.66,5.09a16.83,16.83,0,0,1-7.66-2.42c-1.92-1.21-3.72-2.19-5.78-1.94C97.71,50.49,97.58,49.89,97.14,49.24Z"/><path class="cls-4" d="M134.9,23.27A26.56,26.56,0,0,1,145,35.57c0,.09-2.8,1.45-4.29,2.22-2.19-4.41-4.39-8.81-6.51-13.26C134.09,24.26,134.69,23.64,134.9,23.27Z"/><path class="cls-4" d="M110.37,37.5A6.42,6.42,0,0,1,118.83,40c1.34,2.3-.34,4.89-3.93,3.07-1.54-.79-3-1.7-4.53-2.55l-.1-.44a2.26,2.26,0,0,1,0-2.13Z"/><path class="cls-1" d="M125.44,31.52a.83.83,0,0,0,.54-.33l2.24.3c.65-.63,1.1-2.08,2.29-.59l4.24,5.48-2.1.2c-1.87.66-3.86,2.18-5.27-.7Q126.42,33.71,125.44,31.52Z"/><path class="cls-4" d="M127.38,35.88l5.27.7-3.32,6.19C127.33,40.85,125.58,38.87,127.38,35.88Z"/><path class="cls-4" d="M108.85,37.48c-1.67-3.85-4.42.05-6.3-1-.39-.21.33-2.45.54-3.76l6.56,1.55-.84,3.23Z"/><path class="cls-4" d="M182,39.26c-1.94,1.18-3.55,2.23-5.25,3.11-.19.1-.87-.76-1.33-1.17l4.69-4.15Z"/><path class="cls-4" d="M158.34,26.58l1.14-1.84c1.28,2.34,2.58,4.66,3.79,7,.09.18-.52.73-.81,1.11C161.08,30.78,159.71,28.67,158.34,26.58Z"/><path class="cls-4" d="M195,54l2.52,5.8a7.67,7.67,0,0,1-1.57.29c-.84-2.1-1.63-4.23-2.28-6.39-.1-.32.55-.85.86-1.29.16.53.32,1,.47,1.58Z"/><path class="cls-1" d="M143.13,99.36l-3.5-.76c.2-1.56.41-3.12.61-4.67Z"/><path class="cls-4" d="M177.55,33.58c-4.25,1.77-5.24,2.55-6,2.36-.55-.14-1-1.52-1.07-2.38,0-.59.68-1.73,1.08-1.74C172.53,31.8,173.49,32.32,177.55,33.58Z"/><path class="cls-3" d="M130.43,17.34l.37,2.28c-2.09-1-4.35-1.85-4.44-4.73a1.61,1.61,0,0,1,2,.24l-.13,0C128.87,15.92,130.41,15.88,130.43,17.34Z"/><path class="cls-1" d="M103.62,70.1c-1.51-2.4-1.72-4,2-3.49C107.16,69,106.76,70.33,103.62,70.1Z"/><path class="cls-4" d="M137.49,14.8A25.75,25.75,0,0,1,139,17.57c.12.32-.16.79-.26,1.19A10.27,10.27,0,0,1,137,17.15C136.77,16.88,137.15,16.2,137.49,14.8Z"/><path class="cls-4" d="M166.86,21.57l4.89,3.13c-.25.22-.63.66-.72.61-1.72-1-3.41-2.12-5.11-3.19C166,21.52,166.3,21.33,166.86,21.57Z"/><path class="cls-3" d="M111.82,26.21l3.73,2-4.19.16C111.52,27.64,111.67,26.93,111.82,26.21Z"/><path class="cls-3" d="M108.8,13.51c.88-.8,1.76-1.6-.38.35,2.71-1.14,1.61-.68.51-.22Z"/><path class="cls-4" d="M199.58,54.25a10.79,10.79,0,0,1,1.16,2c.07.22-.49.64-.76,1a8.29,8.29,0,0,1-1.28-1.58C198.6,55.46,199.13,54.94,199.58,54.25Z"/><path class="cls-4" d="M165.92,22.12l-.71-1.67,1.65,1.12Z"/><path class="cls-4" d="M130.43,17.34l-2.22-2.25Z"/><path class="cls-4" d="M108.81,37.52l1.56,0-.05,0a2.92,2.92,0,0,1,0,3.08l.05,0-1.52-3Z"/><path class="cls-4" d="M158.52,17.81,160.18,20l-2.44-1.59C157.71,17.78,158,17.59,158.52,17.81Z"/><path class="cls-4" d="M130.51,30.9l-2.29.59Z"/><path class="cls-3" d="M108.94,26.11c1-2.57,1.77-.83,2.57.15Z"/><path class="cls-4" d="M157.74,18.37l-.6-1.33,1.38.77Z"/><polygon class="cls-4" points="136.88 103.88 136.95 103.62 137.15 103.8 136.88 103.88"/><path class="cls-3" d="M127.61,49.53l-.4.41.21-.61Z"/><path class="cls-4" d="M128.34,15.13l-2-.24Z"/><path class="cls-3" d="M88.85,35,89,35Z"/><path class="cls-4" d="M111.61,48.88a1.32,1.32,0,0,1-.55-.18Z"/><path class="cls-4" d="M110.23,48l-.75-.18Z"/><polygon class="cls-4" points="161.62 21.29 161.68 21.49 161.5 21.46 161.62 21.29"/><path class="cls-2" d="M97.14,49.24c6.14-1.11,10.73,2.15,15.3,5.46-.9,1.1,2.39,3.25-.94,3.74l-.75.58.36-.88c-2.57-4.13-7.68-3.46-11.15-5.9L98.47,55a.71.71,0,0,1-1.08-.39l-8.76-2.17c-3,1.09.05,2.62-.29,3.91-1.78,4.32-6.08,5.41-8,2.14-3.2-5.38-9.69-5.38-13-10-1.15-1.59-4.1-2.43-5.47-.27-.57.9.76,3.9,2,4.9,3,2.3,2.51,4.09.11,6.2C62,55,60,50.82,58.15,46.5A7,7,0,0,1,58,42.81c5.81-1.06,7-10.39,14.6-8.09.07,1.92.15,3.84.23,5.76v0h.76l0,0,0,2.35c-.23,1.83,1.26,2.23,2.41,2.3,3.42.19,6.27,2.2,9.55,2.77Z"/><path class="cls-1" d="M90.85,73.44c-4.88,1.16-7,5.67-9.4,9.06-3.31,4.67-8.56,4.26-10.44,2.24-3.3-3.56,2.51-3.39,4.15-5,3.54-3.56,2.54-7.5,1.13-11.41-.21-.56-1.86-.6-2.84-.87-1.73-1.42-.6-2.13.7-2.79,7.84-1.71,14,.22,17.45,8l.08.35a.52.52,0,0,1-.48.48Z"/><path class="cls-1" d="M133.59,77.41c.76.12,9.67.35,9,4.09-1,5.67-7.87.14-12.16.7-5.11.67-10.14,1.89-15.23,2.78a11,11,0,0,1-2.77-.25c.47-.79.74-1.9,1.43-2.3C118.66,79.6,123.3,76.28,133.59,77.41Z"/><path class="cls-1" d="M91.6,72.69c4.05-.81,6.88-.21,5.11,4.9a44.32,44.32,0,0,1-2.85,5.57h0l.57,1.52c-3.48.13-7,.28-10.46.3-.11,0-.61-1.81-.29-2.12,2.3-2.24,4.77-4.3,7.18-6.43l.22.17-.2-.18,0-3,0,0c.26-.25.52-.48.75-.75Z"/><path class="cls-1" d="M97.39,54.58l1.08.39c3.19,2,6.56,3.9,2.6,8.18-1.08,1.17-4.45.07-7-3.53C91.78,56.42,100.24,59,97.39,54.58Z"/><path class="cls-2" d="M66.87,89.12c-3.72-2.48-5.51,7.35-9.75,1.52C60.39,86.59,64,84,69,88.12,68.79,89.57,68.08,89.87,66.87,89.12Z"/><path class="cls-1" d="M66.87,89.12l2.1-1c1.11.52,2.21,1.09,3.36,1.53,2,.79,4,1.5,6,2.24l-6.53,1.46h-.06c.16-.22.23-.46.16-.48-.57-.15-.36.23-.32.49l-.28,0h-.28c-1.2.2-2.45.6-3.35-.68l-.65-.38C67,91.25,66.93,90.18,66.87,89.12Z"/><path class="cls-2" d="M74.15,64.64c-.23.93-.47,1.86-.7,2.79l.18-.05a1.42,1.42,0,0,1-1.92.06L64,65Z"/><path class="cls-2" d="M93.5,63.19l3.22,1.88c-.57.39-1.19,1.15-1.72,1.09a26.47,26.47,0,0,1-4.06-1Z"/><path class="cls-1" d="M105.12,60,108,58.94c.24.78.83,1.68.62,2.29s-1.31.7-2,1c.06-.54-.52-.57-.73-.9l.07.08C105.4,61.11,105.56,60.4,105.12,60Z"/><path class="cls-1" d="M88.34,56.32l-4-3.77,4.28-.14C88.53,53.71,88.44,55,88.34,56.32Z"/><path class="cls-2" d="M87,88.27a8.83,8.83,0,0,1,.64,1.64,7.64,7.64,0,0,1-2.24,1c-.27.07-.67-.41-1-.65Z"/><path class="cls-1" d="M111.5,58.44h-.32l-.07-.31A1.14,1.14,0,0,1,111.5,58.44Z"/><path class="cls-2" d="M105.12,60l.79,1.43Z"/><path class="cls-2" d="M105.84,61.37l.73.89Z"/><path class="cls-1" d="M71.71,67.44l1.92-.06L72,68A1,1,0,0,1,71.71,67.44Z"/><path class="cls-4" d="M213.69,95.87c2.28.21,4.79,1.06,4.34,3.54-.71,3.85-2.91-1.24-3.95.17-4,5.42-9.75,2-14.59,3-2.73.55-3.82-1.68-4.08-4.16a22.63,22.63,0,0,0-.4-3.76c0-.67.48-1.57.93-1.44,4.46,1.26,6.27-2.65,9.12-4.52a.84.84,0,0,1,.79.46c-.62,6,7.19,2.18,7.82,6.71a.47.47,0,0,1-.73,0c-.3-.4.08.11-.21-.29l.21.29A.51.51,0,0,0,213.69,95.87Z"/><path class="cls-1" d="M173.87,92.87c.06-.57.13-1.14.2-1.72,4.11-2.28,8.14-3.91,11.32,1.38.11.73.87,1.34.4,2.17-2.56.59-4.1,2.71-6.12,4.13l-.51-.11-1.84.15a1.17,1.17,0,0,1-1.39,0C173.47,97.48,173.54,95.22,173.87,92.87Z"/><path class="cls-4" d="M183.41,93.12l2-.59c2.32.41,3.8,2,2.16,3.83-2.05,2.25-4.51,5.54-8.39,2.36l.06.09a4.13,4.13,0,0,0,2.83-3.38C182.21,94.51,182.33,93.52,183.41,93.12Z"/><path class="cls-1" d="M205.85,89.13v0c-2.33.39-5,2.09-6.33-1.54v.06a3.86,3.86,0,0,1-.77-.89c0-.58-.05-1.15-.08-1.73L208,86.43c.68.67.86,1.33-.07,1.94Z"/><path class="cls-3" d="M195.55,94.31c-.05,1.36-.1,2.72-.14,4.09q-.54-5.43-1.07-10.86l.81.47a5.06,5.06,0,0,1,.68,0l-.68,0v1.31C196.91,90.91,197.49,92.51,195.55,94.31Z"/><path class="cls-4" d="M210.29,113.06c1.1,1.7,1.91,2.87,2.61,4.1.09.17-.4.66-.63,1-1-1-2-2.07-2.91-3.2C209.23,114.8,209.76,114.1,210.29,113.06Z"/><path class="cls-4" d="M203.24,75.62c2.75-1.11,2.61,1.49,3.44,2.76.17.26-.29.92-.46,1.4-1-1.37-2-2.75-3-4.12Z"/><path class="cls-4" d="M207.93,88.37c0-.65,0-1.3.07-1.94l2.65,1.21c-.24.53-.53,1.51-.71,1.49A8,8,0,0,1,207.93,88.37Z"/><path class="cls-4" d="M204.52,109.59,203,107.9a6.45,6.45,0,0,1,2.09-1.23c.41-.06,1,.79,1.46,1.23Z"/><polygon class="cls-4" points="196.51 103.57 196.75 103.73 196.47 103.84 196.51 103.57"/><polygon class="cls-4" points="203.99 159.46 204.06 159.6 203.99 159.43 203.99 159.46"/><path class="cls-4" d="M175.93,98.88h0Z"/><path class="cls-4" d="M58,63.7l2-4.46c.29.17.84.36.83.5-.17,1.82-.42,3.62-.65,5.43.51.28.5.53,0,.78h0a3.81,3.81,0,0,1-.89.71,1.07,1.07,0,0,1-1-.41Z"/><path class="cls-4" d="M55.19,81.85a19.64,19.64,0,0,1-2.83,2.06c-.25.12-.92-.59-1.4-.92a20.16,20.16,0,0,1,2.21-2.48C53.3,80.39,54.2,81.18,55.19,81.85Z"/><path class="cls-3" d="M38.94,105.1c-.57-1.43-1.15-2.16-1-2.7A9.49,9.49,0,0,1,39.4,100c.57.77,1.51,1.51,1.58,2.33C41,103,40,103.72,38.94,105.1Z"/><path class="cls-3" d="M58.24,66.26l.75,0c.45-.16.7,0,.76.47s.3,1.19-.61,1.26l-2.72,1.62,0,0Z"/><path class="cls-3" d="M56.42,69.66c-1,.52-2,1-.16.09-2,.46-.92.21.2,0Z"/><path class="cls-4" d="M59.14,68,59,66.31a.9.9,0,0,1,1.09.41l.15,2.37Z"/><path class="cls-3" d="M49.7,69.74l.17-.5a.9.9,0,0,1,0,.24,2.09,2.09,0,0,1-.2.22Z"/><path class="cls-2" d="M104.48,19l1.57,2.54a14.69,14.69,0,0,0-3.35,1c-3.68,2-7.51,1.94-11.43,1.12-.82-2-4.49-4-1.55-6.26C94.84,13.37,100,14.32,104.48,19Z"/><path class="cls-2" d="M80.94,34.7l-6.49,1C76.48,34.55,78.12,30.89,80.94,34.7Z"/><path class="cls-2" d="M69.62,30.25l1.93,1.11c-.57.54-1.07,1.36-1.73,1.52-.47.12-1.17-.64-1.76-1Z"/><path class="cls-2" d="M60.17,66l0-.78Z"/><path class="cls-2" d="M60.09,66.72,59,66.31h0L60.14,66C60.13,66.21,60.11,66.47,60.09,66.72Z"/><path class="cls-1" d="M199.59,167.26c-.83.55-1.43,1.18-1.65,1.07a13.28,13.28,0,0,1-2.11-1.57c.36-.4.87-1.2,1-1.13A20.53,20.53,0,0,1,199.59,167.26Z"/><path class="cls-1" d="M194.27,179.68l-.09.1Z"/><path class="cls-2" d="M195.55,94.31c-.14-1.63-.27-3.26-.4-4.89l4.38-1.81,6.33,1.54C205.61,97.22,202,98.51,195.55,94.31Z"/><path class="cls-2" d="M195.15,88.11v0Z"/><path class="cls-2" d="M198.75,86.78l.77.89Z"/><path class="cls-2" d="M168.54,82.65l.44-.46C169.19,82.68,169,82.83,168.54,82.65Z"/><path class="cls-2" d="M169,82.19l-.44.46Z"/><polygon class="cls-2" points="35.42 105.6 35.33 105.66 35.44 105.6 35.42 105.6"/><polygon class="cls-1" points="62.4 102.64 62.54 102.5 62.38 102.61 62.4 102.64"/><path class="cls-1" d="M61.67,99a5.93,5.93,0,0,1,.59-.07Z"/><path class="cls-4" d="M67.71,92.7l3.35.68C69.69,94.39,68.19,96,67.71,92.7Z"/><polygon class="cls-4" points="71.62 93.37 71.7 93.21 71.78 93.36 71.62 93.37"/><path class="cls-2" d="M215.21,125.81h0Z"/><path class="cls-3" d="M85.59,47.9c-5,2.23-9.07-.23-12.9-3-1.75-1.25-.76-2,.94-2.11C77.78,44.15,82.87,43.24,85.59,47.9Z"/><path class="cls-2" d="M73.64,40.51l0,0Z"/><path class="cls-2" d="M110.32,40.53v0Z"/><path class="cls-2" d="M195,54h0Z"/><path class="cls-4" d="M62.17,46.3c-.06-.09-.17-.21-.15-.27s.18-.13.28-.19l.21.46Z"/><path class="cls-4" d="M72.88,40.5v0Z"/><path class="cls-4" d="M91.62,72.66l-.75.75Z"/><path class="cls-4" d="M90.87,76.41l.29.07-.31-.06Z"/><path class="cls-4" d="M93.85,83.15h0Z"/><path class="cls-2" d="M200.59,99.69l-.3.07.2-.38Z"/><polygon class="cls-2" points="212.98 95.87 212.83 95.63 213.01 95.83 212.98 95.87"/><path class="cls-2" d="M213.69,95.87H213l0,0a4.85,4.85,0,0,1,.66,0Z"/><path class="cls-2" d="M183.41,93.12c-.44,2.6-.35,5.59-4.19,5.69C182.49,98.29,178.15,92.18,183.41,93.12Z"/></g></g></svg>