<svg xmlns="http://www.w3.org/2000/svg" viewBox="0 0 1468.39 996.35"><defs><style>.cls-1{fill:#2cd8c6;}.cls-1,.cls-2{stroke:#000;stroke-miterlimit:10;}.cls-2{fill:#fff;}.cls-3{fill:#e5e9e8;}.cls-4{fill:#95171a;}.cls-5{fill:#fefefe;}</style></defs><title>blood_bag</title><g id="Layer_2" data-name="Layer 2"><g id="Layer_1-2" data-name="Layer 1"><path class="cls-1" d="M1.89,523.48Q1.89,264.22,2.07,5C2.07,3.46,4.89.64,6.39.64q728.52-.29,1457,0c1.5,0,4.31,2.82,4.31,4.32q.29,490.52,0,981c0,1.5-2.81,4.31-4.31,4.31q-112.26.33-224.51.19c5.67-3.42,11-8.9,17-9.93,44.36-7.55,78-30.62,95.77-71.6,11.34-26.14,16.54-55,24.23-82.64,1.67-6,3.58-12.42,3.13-18.48-3-40.93-8.46-81.77-9.64-122.74-1.09-38,2.52-76.13,3.36-114.22.82-37.39-.47-74.85,1.48-112.16,1.59-30.45,2.82-59.54-25.5-79.87a19,19,0,0,0-3.46-1.56,10.51,10.51,0,0,1-1,2.55c-1.54,2.17-3.37,6.11-4.83,6-3.86-.3-7.58-2.37-11.36-3.73l7-16.25c-15.23-5.22-8.5-38.87-36.54-28.07-3.64,1.4-8.79-1.14-13.25-1.85,3.93-.51,7.89-.81,11.76-1.6,2.07-.43,4-1.68,5.94-2.56-2-.77-4-2.39-5.89-2.17-11.58,1.37-18.86.36-17.85-15.2a381.25,381.25,0,0,0-1.19-65.52c-.72-6.57-10.08-13.19-16.86-17.75-4.23-2.85-11.22-3.2-16.63-2.37-9.19,1.41-25.77,4.2-25.94,7.18-1.65,28.59-.39,57.34-.35,86,0,3.13-2.86,9.1-3.59,9-8.4-1.43-23.63-3.2-23.85-6-2.25-27.32-1.5-54.87-3.13-82.27-.2-3.28-9.42-6.22-14.77-8.62-.4-.18-4.78,5.21-4.85,8.07-.71,28-.73,56-1.57,83.92-.07,2.19-5,6.11-7.44,6-5.77-.34-16.32-2.45-16.4-4.21-.93-21.77-2.16-43.81.23-65.39,6.86-61.81-8.85-117.27-50-162.81C1009.5,7.28,856.65,10.08,778.09,111c-59,75.86-75.69,163.14-64,256.11,6.81,54.31,20.85,107.69,29,161.88,4.42,29.35,5.19,59.58,4.38,89.33-1.75,64.49-49.94,125.13-111.83,139.88-76.38,18.2-131.54-20-178.73-73.31-44.33-50.14-83.72-105-130.88-152.2-51.41-51.42-118-69.85-189.41-53.81C90.69,489.25,46.73,508.32,1.89,523.48Z"/><path class="cls-1" d="M1065.92,990.5q-529.77,0-1059.53-.19c-1.5,0-4.32-2.81-4.32-4.31q-.3-213.25-.18-426.52c32.75-11.17,65.76-21.65,98.19-33.68,53.07-19.68,105.91-27.63,160-3.84,60,26.39,99,75.54,138.72,124.61,31.32,38.69,61.54,79.39,98.46,112.22,73.21,65.09,169.67,55.56,227.12-18.67,35-45.17,47-97.62,39.44-153.86-6.6-49.09-13.9-98.19-23.53-146.76-11.54-58.19-20.15-116-8.53-175.27,10.43-53.22,30-102.12,67.84-141.64C862.06,57.34,943,41.67,1026,77.35c58.35,25.07,92.46,71.12,101,132.21,4.92,35-1.89,71.6-3.48,107.48,0,.69-.68,1.36-1,2-.51-.71-1.44-1.39-1.47-2.11-.54-13.27.38-26.77-1.75-39.77-2.86-17.44,18.36-41.6-15.63-51.11-21.07-5.9-44.23.59-43.57,16.23,1,24.28,1.7,48.6,1.44,72.89-.07,7.05-2.29,15.21-6.36,20.79-4.49,6.17-13.31,9.06-18.32,15-7.12,8.44-12.23,18.55-18.66,27.61-10.89,15.37-28.37,29.15-32,46-7.58,35.49-9.42,72.46-11,108.93-1.75,41.93,1.46,84.12-1.18,126-4.6,73.07-12.1,145.95-18.24,218.93-2.23,26.43,15.7,54.64,39.21,67.71C1019.4,959.64,1042.36,975.6,1065.92,990.5Z"/><path class="cls-2" d="M1065.92,990.5c-23.56-14.9-46.52-30.86-70.84-44.39-23.51-13.07-41.44-41.28-39.21-67.71,6.14-73,13.64-145.86,18.24-218.93,2.64-41.84-.57-84,1.18-126,1.53-36.47,3.37-73.44,11-108.93,3.6-16.83,21.08-30.61,32-46,6.43-9.06,11.54-19.17,18.66-27.61,5-5.93,13.83-8.82,18.32-15,4.07-5.58,6.29-13.74,6.36-20.79.26-24.29-.41-48.61-1.44-72.89-.66-15.64,22.5-22.13,43.57-16.23,34,9.51,12.77,33.67,15.63,51.11,2.13,13,1.21,26.5,1.75,39.77,0,.72,1,1.4,1.47,2.11.36-.68,1-1.35,1-2,1.59-35.88,8.4-72.51,3.48-107.48-8.59-61.09-42.7-107.14-101-132.21-83-35.68-163.94-20-226.36,45.24-37.8,39.52-57.41,88.42-67.84,141.64-11.62,59.28-3,117.08,8.53,175.27,9.63,48.57,16.93,97.67,23.53,146.76,7.55,56.24-4.49,108.69-39.44,153.86C667,814.35,570.51,823.88,497.3,758.79c-36.92-32.83-67.14-73.53-98.46-112.22C359.13,597.5,320.15,548.35,260.12,522c-54.13-23.79-107-15.84-160,3.84-32.43,12-65.44,22.51-98.19,33.68v-36c44.84-15.16,88.8-34.23,134.73-44.56,71.36-16,138,2.39,189.41,53.81,47.16,47.19,86.55,102.06,130.88,152.2,47.19,53.36,102.35,91.51,178.73,73.31,61.89-14.75,110.08-75.39,111.83-139.88.81-29.75,0-60-4.38-89.33-8.17-54.19-22.21-107.57-29-161.88-11.67-93,5-180.25,64-256.11C856.65,10.08,1009.5,7.28,1093,99.68c41.14,45.54,56.85,101,50,162.81-2.39,21.58-1.16,43.62-.23,65.39.08,1.76,10.63,3.87,16.4,4.21,2.47.14,7.37-3.78,7.44-6,.84-28,.86-55.95,1.57-83.92.07-2.86,4.45-8.25,4.85-8.07,5.35,2.4,14.57,5.34,14.77,8.62,1.63,27.4.88,54.95,3.13,82.27.22,2.76,15.45,4.53,23.85,6,.73.12,3.59-5.85,3.59-9,0-28.7-1.3-57.45.35-86,.17-3,16.75-5.77,25.94-7.18,5.41-.83,12.4-.48,16.63,2.37,6.78,4.56,16.14,11.18,16.86,17.75a381.25,381.25,0,0,1,1.19,65.52c-1,15.56,6.27,16.57,17.85,15.2,1.85-.22,3.92,1.4,5.89,2.17-2,.88-3.87,2.13-5.94,2.56-3.87.79-7.83,1.09-11.76,1.6,4.46.71,9.61,3.25,13.25,1.85,28-10.8,21.31,22.85,36.54,28.07l-7,16.25c3.78,1.36,7.5,3.43,11.36,3.73,1.46.11,3.29-3.83,4.83-6a10.51,10.51,0,0,0,1-2.55,19,19,0,0,1,3.46,1.56c28.32,20.33,27.09,49.42,25.5,79.87-2,37.31-.66,74.77-1.48,112.16-.84,38.09-4.45,76.21-3.36,114.22,1.18,41,6.59,81.81,9.64,122.74.45,6.06-1.46,12.47-3.13,18.48-7.69,27.69-12.89,56.5-24.23,82.64-17.76,41-51.41,64-95.77,71.6-6.07,1-11.38,6.51-17,9.93Zm192.35-754.64-17,2.9c6.54.34,13.08.71,19.62,1,.62,0,1.26-.81,1.9-1.24Zm-10,54.94,12.59-2.27c-1.33-.34-2.7-1.06-4-.94-4.05.38-8.07,1.07-12.1,1.64Zm5.28,8,7.46-1.53a25.11,25.11,0,0,0-5.24-.72c-3.42.25-6.81.88-10.21,1.35Zm-153.06-63.26-3.19,1.61a49.34,49.34,0,0,0,5.61,2.3c.63.18,1.55-.63,2.34-1ZM1358.36,392l-3.59-2.68c-.61.84-1.79,1.76-1.68,2.5a3.32,3.32,0,0,0,2.23,2.06C1355.94,394.06,1356.86,393,1358.36,392Z"/><path class="cls-2" d="M1258.27,235.86l4.51,2.61c-.64.43-1.28,1.27-1.9,1.24-6.54-.24-13.08-.61-19.62-1Z"/><path class="cls-2" d="M1248.29,290.8l-3.51-1.57c4-.57,8-1.26,12.1-1.64,1.3-.12,2.67.6,4,.94Z"/><path class="cls-2" d="M1253.57,298.8l-8-.9c3.4-.47,6.79-1.1,10.21-1.35a25.11,25.11,0,0,1,5.24.72Z"/><path class="cls-2" d="M1100.51,235.54l4.76,2.92c-.79.36-1.71,1.17-2.34,1a49.34,49.34,0,0,1-5.61-2.3Z"/><path class="cls-2" d="M1358.36,392c-1.5,1-2.42,2-3,1.88a3.32,3.32,0,0,1-2.23-2.06c-.11-.74,1.07-1.66,1.68-2.5Z"/><path class="cls-3" d="M1069.86,996.35c-10.21-11-18.14-24-32.36-31.25-12.39-6.33-26.32-9.05-38-16.6-12.21-7.93-23-16.6-28.86-31.68-4-10.27-7.21-21.09-7.78-31-.62-10.85-1.89-22.14.59-34,3.69-17.65,8.89-35.63,6.29-54.73-1.85-13.62-2.38-27.92,2.87-41.82,2.64-7,2.07-15.37,2.05-23.11,0-19.21.25-38.35,2.48-57.47,1.9-16.15.77-32.36.28-48.58-.38-12.87.63-25.82,1.71-38.68A120.14,120.14,0,0,0,978,556.78c-1.07-6-.62-11.65,1.41-16.32,4.8-11.09,1.41-22.22,2.1-33.28.21-3.41-.52-6.87-.6-10.32-.39-16.45-1.92-33-.71-49.34,1.42-19.3,5.89-37.45,23.7-50.19,14-10,22.93-25.17,30.78-40.55,4-7.82,6.81-16.84,19-14.53,4.82.91,6.17-3.29,6.15-7.62,0-12.5.73-25.05-.21-37.47-1.18-15.6,3.46-30.8,1.86-46.5-.58-5.74,4.73-11.47,12.2-12.18,3.46-.32,7-.39,10.37-1,12.25-2.37,22.25,3.42,32.23,8.89,6.1,3.35,4.26,9.94,3.25,14.5-5.41,24.51-.11,49-.71,73.45-.07,2.92,1.14,4.3,4.15,4.22,2.22-.05,3.14-1.2,2.77-3.15-1.85-9.83.46-19.62.1-29.46-1-26.55,1.79-53,2.47-79.54a44.9,44.9,0,0,0-.47-5.4c3.33,3.2,7.37,3.44,11.93,2.8-3.19.19-.21,4.68-2.22,3.75-7.48-3.45-8.72.06-8.25,6.37.37,5.15-3.08,12.58,7.18,11.78.47,0,1.07,1.33,1.55,2.09,0,.06-.38.41-.58.63-2.74-3.74-3.49,3.4-6.16,1.12-.65-.56-2.72-.83-2.57.94s.86,3.79,2.07,4.66c1.6,1.15,2.17-.42,2-2a25.54,25.54,0,0,1,4.15-.44c.35,0,1.1,1.48.89,1.84-1.42,2.55-1.06-1.9-1.93-.59-1.7,2.56-4.3,2.14-6.73,2.82s.36,2.54.5,3.93c.11,1.11.29,2.25,1.48.54,1.53-2.21,3.56-2.26,5.64-1a2.2,2.2,0,0,1,.68,2c-1.33,2.33-3.73,1.5-5.8,1.79-1.21.16-3-2.15-3.6.54-.5,2.28,1.3,3,3.06,3.84,2.16,1,4.54-1.82,6.51.54-2.31.19-4.61.34-6.92.57-1.19.12-2.69.52-2.49,1.86.24,1.65.8,4,2,4.61,2.68,1.4,1.25-1.59,2-2.35,1.33-1.45,3.11-.35,4.61.09.45.13.74,1.33.79,2.06,0,.54-.18,1.33-1.2.62-3.19-2.23-5.1,3.16-8.25,1.46.21,1.72.42,3.43.71,5.73,1.71-2.58,3.58-3.58,6-2.59a2,2,0,0,1,1.34,2.77c-1.06,2.56-3.39,1.39-5.23,1.68-1.14.17-3.09-.95-3.06,1.2,0,1.69,1.94,1.39,3.17,1.66,2.15.49,6-.86,4.26,4.37-2.55-6.92-3.45,2.64-5.81.14-.48-.52-2.31.06-2,1.35.66,2.48,3.12,2,4.91,2.19,1.57.19,3.69-.76,3.61,1.91-.06,2.31-1.94,2.34-3.7,2.1-4.72-.64-6,1.71-5.85,6,.31,7.49.37,15,.29,22.48,0,3.15.61,5.65,4.21,4.91,2.94-.61,7.75,1.86,7.41-5.16a348.3,348.3,0,0,1,1.37-53.84q0,26.49.07,53c0,11,1.62,12.48,12.65,11.57.33,0,.65-.16,1-.22,12.13-2.07,12.25-2.06,12.33-17.09.11-23,.63-46-.24-69-.35-9.17,3.27-10.92,10.94-11.74,7.5-.8,9.4.84,9.65,8.94.86,27.13.45,54.25.63,81.37,0,3.26.93,5,4.52,4.95,1.79,0,3.58.74,5.38.87,20.29,1.41,22.21-1,20.17-22.84-1.08-11.54-1.45-23.16-2-34.75-.46-10-.53-19.93-1.11-29.87-.23-4.05,1.29-7.58,2.66-11,1.26-3.11,4.54-6,8-4.18,6.25,3.36,12.81,4,19.73,4.45-4.4,2-9.22,1.06-13.72,2.39-3.32,1-4.48,2.81-4.46,5.42,0,4.11,2.34.77,3.65.79a2,2,0,0,1,2.11,2.3c-.77,7.28,3.76,7.76,9.15,7.36a24.81,24.81,0,0,1,4.18.55c-4.5,3.2-12-1-12.81,5.31-.63,4.58,5.31,2.07,8.38,3.94-3.18,2.75-13.12,2-7.81,8.27,3.49,4.12,2.11,17.27,14.39,11-2.58,4.85-6.2,5.16-11.27,1.17-3.57-2.81-7.29,0-10.89-.66,0,1.42-.16,2.84-.15,4.26,0,1.08.52,2.28,1.73,1.85,9.67-3.41,19.71.62,29.52-1.47,2.17-.46,6.69-4.84,7-.26.32,4.11-5.38,1.68-8.29,1.89-9.38.7-18.81.85-28.21,1.24-1.24.05-2.46.49-2.38,2s1.26,2,2.53,1.7c11.84-2.57,23.22,2.83,35.06,1.95,5.48-.41,1-5,4.41-6,.5,6.49,1.48,13.07,1.41,19.64a135.33,135.33,0,0,0,2.24,24.73c.74,4.21,2.61,7.82,8,8.09,1.87.09,3.67,1.6,5.21,3.87-2.72,0-5.45,0-8.18,0-3.43,0-5.27,3.29-3.72,4.73,3.45,3.2,4.3,8,8.35,10.89,5,3.65,10.86,7,11.57,14.83a11.53,11.53,0,0,0,7.72,9.61c5.78,2,11.08,4.34,15.82,8.65,10.17,9.25,21.15,17.43,30.72,27.59,7.28,7.72,13.27,17.11,22.88,22.63,6.39,3.68,3.32,9.91,3.27,14.92-.12,12.42-1.48,24.83-1.68,37.26-.31,19.58-.09,39.17-.09,58.75,0,32.08.38,64.17-.18,96.24-.26,14.69-2.88,29.34-3.49,44a164.61,164.61,0,0,0,4,42.46c3.84,17.3,3.4,34.95,5.85,52.29,3,21.15-1.76,40.56-10.24,59.48a69.17,69.17,0,0,1-11.61,17.89c-10,11.24-14.57,25.84-23.37,37.85-6.7,9.14-10.49,20.15-16.72,29.37-7.37,10.9-19,18-32,21.32-24.37,6.26-44.46,21.29-66.84,31.57-1.11.51-1.64,2.3-2.44,3.49Zm143-235.92a6.65,6.65,0,0,0,0,6.92,1.92,1.92,0,0,0,3,0c2.4-2.3,2.68-4.6,0-6.89C1214.84,759.16,1213.84,759.54,1212.84,760.43Zm-170.26-38.84a3.29,3.29,0,0,0,.48.57s.25-.12.38-.19l-.66-.5c-.74-1.17,1.35-3.87-1.84-3.65-2.3.15-.6,2.07-.76,2.95C1039.59,724,1042,720.43,1042.58,721.59Zm111.3-122.18c1.95-2,1.4-3.77-.85-4.93-1.41-.73-3.56-1.48-4.07.78-.44,1.92-1.23,4.67.7,6,1.31.9,4,1.25,4.32-1.93Zm45,161c-2.49,1.89-2.12,4.21-.87,6.55a2.17,2.17,0,0,0,3.41.77c2.26-2.15,1.26-4.82.46-7.34C1200.85,760,1199.85,759.3,1198.85,760.44ZM1060.43,608l-1.89-1c-3-4-4.2,3.3-6.69,1,1.74,4.59,5.58,3.83,9.24,3.41,1-.11,1.82,2.07,2.65.3a4.8,4.8,0,0,0,0-3.38C1063,606.57,1061.59,607.68,1060.43,608Zm121.4-19.63c2.87,1.26,5.91,4.43,8.27-.63,1-2-2.25-3-1.59-4.36s1.85-2.53-.33-3.28a5.35,5.35,0,0,0-3.68.17,2.49,2.49,0,0,0-1,3.81c1.46,2.28-.44,3.16-1.61,4.38-8.23,1.5-2.55-6.42-6.51-9.06a33.68,33.68,0,0,1-.06,5.32c-.26,1.4,1.33,3.69-1.76,4-7.36.72-2.13-6.55-5.79-8.92.33,3.82-1.73,9.47.92,9.85C1172.7,590.24,1177.92,592.52,1181.83,588.39ZM1084.26,596c3.61.27,1.63-1,.42-1.73a2.72,2.72,0,0,0-3.53,1.05c-1.17,1.56,1.46,3.84-.77,5.39,1.17.45,2.35,1.33,3.5,1.29,3.11-.13,5.87-2.79,10.16-.25-1.49-3.25-2.27-6.89-3.38-7-2.66-.25-1.65,3.64-3.33,5l-3.61-3.22Zm28.61,160.35c4-1.14.86,3.33,3.2,3.8a10.14,10.14,0,0,1,.58-3.18c.37-.66,1.84-1.49,2.18-1.26,1.87,1.22,2.1,3,.83,4.86a2.75,2.75,0,0,1,.24-.41c1.85-2.47,2.57,1.17,3.95.74,2.15-.67,4.21-1.63,6.38-2.22.52-.14,1.34,1.06,2,1,2.79-.23.56-2.26,1.07-3.35-1.53-.36-4.2-1.34-4.41-1-1.23,2.23-2.61.08-2.92.21-4.31,1.85-9-2.69-13,.8-3.53-2.24-4.31,1.26-5.73,3.15-1.6-1.47.68-4.66-2.72-4.71-1.19,0-2.48-.1-2.48,1.62,0,1.13.2,2.26.31,3.39C1105.68,758.31,1111.21,763.24,1112.87,756.39Zm-60.06,120.93c7.62,5.86,16.75,7.94,25.75,10.42,30,8.3,60.58,13.73,91.75,14.78,19.14.65,38.17-1.83,57.09-4.43,10.26-1.41,20.55-4.16,28.78-11.05,14.3-12,20.91-30.52,35.87-42.21,3.73-2.91,6-2.35,9.2-1.12,3.71,1.45,3.18,5,1.83,7.17-3.78,6-.45,13-3.25,19.11-1,2.11.61,3.81,3.4,3.11,31.21-7.8,54.86-29.16,52.72-65.34-1.94-32.76-3.54-65.51-4.28-98.33-1.09-48.81-.9-97.6-.61-146.41.2-33.71,3.6-67.63-6.85-100.76-3.51-11.1-6.47-21.77-17.37-28.11-1.93-1.12-2.79-1.63-2.6.79.37,4.59-3.29,5.77-6,5.86-9,.29-9.4,8.06-9.82,13-1.23,14.74.24,29.69-4.36,44.17-.76,2.39,1,4,3.93,4.57a122.1,122.1,0,0,1,16.18,4.21C1328,508,1330,511,1330,515.18c0,8.32-.13,16.66.09,25,1.61,61.19-6,122.29-1.13,183.55,1.76,22,.63,44.27.86,66.41,0,4.13-.4,9-4.34,10.26-8.18,2.69-15.42,7.54-24.92,7.37-34-.64-67.94-.22-101.92-.21-27.48,0-55,1-82.44-.31-26.89-1.29-54.15,4.87-80.77-4.42-5.83-2-8.45-3.93-8.41-9.75q.1-15.22,0-30.46c0-5.85-1.79-12.36.21-17.38,2.74-6.85,10.38-1.21,15.54-3.05.22-.08.45-.14,1.89-.57-5.71,0-10.21,0-14.7,0-1.49,0-3.07.14-3.12-2.14-.41-16.58-.36-33.2-.31-49.75,0-11.64,2.17-23.52,1.82-35.21-1.37-46.33,1-92.58,1.76-138.86.07-3.89,1.61-7.32,5.3-8.17,5.21-1.21,9.91-3.85,15.6-3.88,42.32-.21,84.64-.95,127-1.16,34.15-.17,68.31.24,102.47.12,2.54,0,7.44,2.46,7.57-3.42a314.93,314.93,0,0,0-2.77-49.95c-.3-2.16-.63-3.55-3.08-4.62-1.39-.62-4.38-1.7-4.11-4.25.81-7.47-3.66-13.61-5.16-20.5a7.75,7.75,0,0,0-9.06-5.42,9.34,9.34,0,0,1-9.66-5c-1.23-2.41-2-5.13,1.07-6.68,8.34-4.25,10.81-9.8,4.61-17.78a3.11,3.11,0,0,1-.24-2.43c1.61-5.53-7-7.55-4.54-13.31-1.1-.2-2.45-.9-3.27-.5-4.58,2.21-9.12.7-13.67.16-1.15-.14-2.39-.9-2.64,1-1,7.14-6.38,10.23-11.69,14-7.6,5.33-18.93,5.32-23,16.1-.44,1.15-5,6.81-6.84,3.79-3.68-6-7.33-14.73-7-19.81.5-8.84-5.28-7.55-8.7-9.79-4.23-2.76-11.63-1.55-12.83.85-3.19,6.45-8.88,8.88-13.88,12.65s-11.56,1.82-13.09-4.29c-.73-2.91-1.87-4.83-3.94-4.67,3.39,1.32,5-.24,4.21-4.91a78.84,78.84,0,0,1-.49-9c-.29-6.94-.55-13.89-.83-20.83-.2-4.9-3.56-5.3-7.34-5.18-4.45.14-2.21,3.57-2.16,5.2.32,9.51-1.12,18.85-2.2,28.22-.81,7.09-4.26,12.88-11,15.82-3.33,1.44-5.63,2.48-4,6.78.82,2.21-.23,2-2.32,1.31-6.44-2.15-4.47-6.6-5-11.54-1.84-19.14-7.73-37.77-7.69-57.23,0-3-1.18-5.65-4.91-5.67-4,0-9.13-1.62-10.93,3.42-3.79,10.65-3.18,22.25-3.37,33.1-.38,21.85-3.27,41.25-23.26,54.23-6.69,4.34-12.87,9.46-19.3,14.21-22.08,16.29-31,39.95-31.37,65.58-.62,40.74,2.6,81.49,2.38,122.32-.35,67.28.36,134.56-4,201.77-1,15.25,4.38,28.6,15.13,39.95,10.29,10.87,24.16,15,36.93,21.22l-.36.6Zm37.94-636.81c-3.17,0-5.49-.51-7.47.1-6.38,2-15.87-2.17-17.81,9.07-.38,2.2-2.07,4.06-.29,6.33.81,1,1.79,1.73,3,1.11,2.5-1.3,1.48-3.78,1.69-5.82.15-1.49,0-3.4,2.1-3.29s1.86,2,1.89,3.5c.06,2.19-.19,4.68,2.89,4.88a114.33,114.33,0,0,0,11.85.27c3.84-.16,7.4-1,7.34-6.11,0-1.47,1-2,2.31-2,1,0,2.39,0,2.13,1.33-.44,2.23.27,4,2.31,4.12,2.48.1,2.9-2.88,4.3-4.4s-.39-2.81-1.26-4.19C1101.75,239.13,1095.44,240.91,1090.75,240.51Zm55.09,458.68c3.32-4.9,7.37-1.24,9.65-.53,4.16,1.29,5.58.21,6.46-3.25,2.42-9.61-4.6-7.16-9.65-7.75-3.22-.38-.43,3.4-2.62,3.15-1.87.22-2.36-7.79-5.23-.78,0,0-1.23-.21-1.48-.59-3.69-5.79-5.59-1.21-8,1.6-1.47-2.76-3.68-5.43-6.54-3.83-3.16,1.77-1,5.7-1.49,8.63-.22,1.24-.61,3.22,1.7,3.48,3.24.37,5.3-1.15,6.28-5.46,3.32,8.67,6.58,5.53,9.86.77C1145.24,696.5,1145.51,697.73,1145.84,699.19Zm-43.25,36c.05-1.65,2.78-3.82.31-4.63-8.94-2.93-18.28,1-27.37-1.21-1.62-.39-3.39.37-3.32,3,.06,2.06.6,3.71,2.54,3.2,5-1.29,11.35,2.76,15-4,.72-1.34,2.53-.51,3.53.36.39.33.16,1.43.13,2.17,0,.15-.37.28-.56.42.61.34,1.35,1.07,1.81.92,1.07-.33,2.36.26,3.24-1.4.62-1.16.41-4,2.42-3.33C1101.42,731.11,1101.85,733.63,1102.59,735.17Zm76.84-411.29.29,0c-.35-4.41-.9-8.82-1-13.24,0-1.83-.43-3.13-2.06-3.28-2-.18-2.23,1.78-2.42,3.15-.71,4.91-1.72,9.84-1.66,14.76,0,3.37-3.74,9.51,3.39,9.56,6.33,0,2.29-5.87,3.38-8.95A6.47,6.47,0,0,0,1179.43,323.88Zm-112.09,370c.14,11.7,8.89.92,11.84,5.51,4.37-3.47,2.19-7.73,2.37-13.06-3.29,3.95.33,10.11-3.38,10-4.18-.08,0-6.42-2.73-9.27-.36,1.14-1.82,1.14-7,.12-.38,1.15-.78,2.34-1.41,4.2-1.56-2.73-3-5.88-5.63-4.62-3,1.4-2.44,5-2.56,8-.1,2.44,1.14,4,3.11,4.44C1065.43,700.08,1065.67,696.76,1067.34,693.9ZM1244.09,782c-7.15.06-6.78.08-7.23,7.43-.33,5.24,2.52,4.58,6,5,6.34.79,6.59-2.38,6.79-7.4C1249.87,781.45,1247.08,781.5,1244.09,782Zm26.75,5.92c1.27-5-.61-6.13-5.72-6.48-7.41-.51-6.17,3.76-6.44,8.19-.24,3.93,1.25,4.81,4.82,4.51C1267.63,793.75,1273,795.35,1270.84,787.88Zm-225.27-58.64c-2-.64-3.21-.33-3.46,1a8,8,0,0,0,.28,4.25c.49,1.24,1.88,1.29,2.94.36,4.15-3.65,9.4,5.1,13.29-1.2.78.71,1.53,2,2.36,2s3.43.58,2.9-1c-1.05-3.16-2.76-6-7.26-5.49C1052.76,729.61,1048.8,729.24,1045.57,729.24Zm-11.22-137.8c2.12-1,2.79-3.2,4.69-2.53,5.13,1.79,11.6,6.59,10.16-5.14-.17-1.39-.11-2.5-1.22-3.07a2.77,2.77,0,0,0-3.9,1,3.16,3.16,0,0,0,.37,4.11c.67.64,1.94.65,2.62,1.28,1.24,1.14.56,2.67-.76,1.9-1.72-1-5,.48-5.3-3.25-.14-1.71-.09-4.45-2.48-4.65-.69,0-1.76,2.88-2.43,4.53S1035.08,589,1034.35,591.44Zm.07,9.19c6,2.81,11.66-.26,18.63,2-4.12-3.35-2.82-5.59-1.28-8.41C1046.87,598.94,1036.17,589.14,1034.42,600.63Zm54.13,158c-.82-2-1.15-3.52-1.53-3.53a151.32,151.32,0,0,0-15.36,0c-1.29.09-1.89,2.17-1.08,3.77s2.16,2.43,3.6,1.4,2.55-.28,4-.18C1081.4,760.41,1084.76,759.31,1088.55,758.68ZM1242.43,321c-.92-.72,2.75-3.59-.25-4.21-2.77-.56-2.92,2.87-3.52,4.66a52.37,52.37,0,0,0-1.91,9.7c-.19,1.42-.28,3.17,1.4,3.94,2,.92,4,.1,5.71-.87,1.88-1.06.44-2.63.21-4C1243.58,327.46,1243.09,324.69,1242.43,321Zm8,446.12c-2.15-1.23-.61-4.21-3.42-3.85.19.83.8,1.91.49,2.44-.94,1.59-2.39,2.22-4.16,1-2-1.42-2-3.35-1.2-5.3,1.24-2.86,3.42-2.39,5.69-1.28-2-1.78-4.15-2.06-6,.06a4.77,4.77,0,0,0-.47,5.6c1.2,2.12,3.21,2,5.63,1.6,3.52-.55,7-4.73,11.66.36l-4.07-9.92C1253,761.42,1251.73,764.18,1250.44,767.11Zm-124-167.55-3.42-5.32c-1.16,2.22-2.31,4.44-3.47,6.65,2.77-2.2,4.94.06,7,.47,3.22.62,6.18.93,7-3.12.41-2.14-.79-3.79-3.18-4.2C1125.26,593.16,1128.43,597.89,1126.46,599.56Zm-28.39-14.2c.67,1.67-2,5.53,3,5.21,2.22-.14,5.28-.36,4.38-3.13-.78-2.44,2.08-7.24-3.93-7.32C1097.41,580.07,1098,582.54,1098.07,585.36Zm-43.41,168.92c-1.21,4.21-.91,6.27,4,5.44.72-.12,2.66-1.73,4,.36.8,1.21,2.87,1,3.81-.54a3.08,3.08,0,0,0-.32-4.07c-1.27-1.25-2.48-.43-3.93-.26C1059.83,755.49,1057,758.14,1054.66,754.28Zm88.55-109.19h.63V622.5l-.63,0Zm-27.29-43.32c-.35-1.92-4.1-1.46-2.47-2.76,2.06-1.65,2.18-4.5,1.36-4.57-2.27-.2-4.72.89-7,1.77a2.15,2.15,0,0,0-.87,3.64C1109.34,602.63,1112.58,601.51,1115.92,601.77ZM1071.43,600c2.14-1,5-.58,3.75-4-.47-1.32-.58-1.59-1.86-1.77-4.27-.59-1.57,3.67-3.56,5.09l-1.19-5.83c-.54,2.26-.8,3.32-1.1,4.56l-3.56-4.21v6.53c3.95-1.48,7.8,3.55,12,.58Zm-36,155.36,1.3,0c.12.73.19,1.48.35,2.21,1.63,7.06,6.09-.36,9,1.66,1.09.77.54-1.27.61-1.95.45-4.29-2.62-2.54-4.65-2.64-3.2-.14-6.4-.35-11.53-.64,4.15,1.31,2.55,4.09,4.26,6C1035.06,758.11,1035.26,756.75,1035.46,755.4Zm87.19-55.63c-2.3-4.65,1.14-9-2.49-12.21-.86-.76-4.26-.45-4.49.14-1.41,3.61-1.16,7.42-.37,11.25,2.66-.72,0-4.66,3.24-4.34C1121,694.86,1119.11,698,1122.65,699.77Zm-10.25-12.26c-1.38-.45-4.53-1.65-5,1.26-.64,3.6-1.9,7.93.93,11.22.67.77,3.29-.15,5-.29-1.56-2.31-1.09-7.06-1.23-7.12C1103.24,688.73,1115.09,690.09,1112.4,687.51Zm11.48-102c-.16-3.1-1.33-5.5-4.53-5.58s-4.51,2.54-4.59,5.33.8,5.34,4.36,5.32S1123.42,588.15,1123.88,585.52Zm-38.66,107.64,3.9,6.12c2.36-2.55.53-5.62,1-8.42.19-1.14.75-3.05-1.08-3.26-2.28-.26.07,3.15-1.92,3.35l-2.83-3.39c-.32.48-.91,1-.93,1.43-.08,3.34,0,6.69,0,10l1.27.05C1084.78,697.26,1085,695.44,1085.22,693.16Zm48.72-107.86c-.09-2.89-1-5.37-4.45-5.3s-4.48,2.68-4.45,5.52c0,2.57.87,5,4.21,5S1133.74,588.35,1133.94,585.3Zm-49.45.35c.85,1.41-2.08,4.92,2.68,5,3.54.06,5.36-1.61,5.43-4.94.06-3.06-.89-5.38-4.77-5.52C1083.52,580,1084.76,583,1084.49,585.65Zm80.14,113c-1-4.77,4.47-2.44,5.3-5.2,1.53-5.1-2.2-9.56-5.13-6.26C1162.2,690.14,1164,694.56,1164.63,698.66Zm46.16-142.72h.58V527.84h-.58Zm-91.07,89.34.65,0V622.62h-.65Zm-45.79-55c-.87-3.31,1.82-6.91-1.17-9.55-1-.89-4.66-.77-5,0-1.57,3-1.19,6.36-.3,10.06,1.18-1.73,1.81-3.71,2.91-4C1072.84,586,1071.43,589.85,1073.93,590.31Zm61.7-4.61c1,1.46-1.73,5.07,3.07,4.81,3.64-.21,5-2.13,5-5.33,0-3-1.25-4.84-4.67-5.09C1134.21,579.73,1136.32,583.31,1135.63,585.7Zm30.06-5c-2.19-1-5.39-1.62-6.15.18a12.22,12.22,0,0,0,0,8.65c.81,2,3.93.81,6.21.49-.93-2.76-4.57,0-4.7-2.81-.11-2.34,3.34-.34,3.9-2.35-1.09-1.22-3.78.44-3.66-1.78C1161.38,580.62,1164.65,582.77,1165.69,580.67Zm-112,13c.43,3.49-1,5.9.94,8,1.56-1.81,4.46,1.82,5.71-1.48C1062.93,593.51,1056.16,596.88,1053.73,593.64ZM1244.56,528l-.57-.23v28.48h.57Zm-124.9,204.41c.19,1.47-.39,4.25,2.14,3.15,2.29-1,6.47,1.29,6.83-2.83.54-6.35-5-.56-7.18-3.09C1120.16,728.12,1119.88,731.06,1119.66,732.38Zm-81.85,1c2,.65,3.27,1.38,3.23-1.35-.06-5.15-4-2.52-6.08-3.19-3-.94-2.93,1.75-2.55,3.31C1033.36,736,1036.88,731.17,1037.81,733.4Zm119.81-147c-2.64.87-3.65,3.51-5.68,1.75a3.72,3.72,0,0,1-.84-4.55c1-2.21,2.53-2.32,4.34-.88.59.46,1.37.62,1.24-.42a2.79,2.79,0,0,0-1.33-1.87c-2.47-1.15-4.37-.52-5.72,2a6.23,6.23,0,0,0,1.88,8.38C1154.19,592.52,1155.89,589.63,1157.62,586.36Zm25.79,147.24c-.45-.53,3.72-3.14.47-4.25-2-.67-4.68.69-7,1.4-.15,0,0,3.18.71,3.52,2.85,1.39,3.83-1.13,5-4.55C1183.19,732.47,1183.44,733.78,1183.41,733.6ZM1053,687.1c-.54,4.15-1.14,8.43,2,11.8a16.77,16.77,0,0,0,2.76-11c0-.09-.2-.17-.65-.53-.68,1.55-1.31,3-2.27,5.18C1054.07,690.22,1053.54,688.66,1053,687.1ZM1063,581c-3.51-.33-5.68-1.66-6.35,1.52-.43,2-1,4.13,2.44,3.47.22,0,1,1.08.89,1.42a2.5,2.5,0,0,1-1.47,1.45c-.86.19-2.86-2.11-2.18,1,.3,1.38,1.86,1.57,3.35.94a3.5,3.5,0,0,0,2.28-2.92c.57-2.87-1.94-3.39-3.58-4.81Zm109.58,63.9h.58V622.64h-.58Zm-2.07-22.28-.56.08v22.21h.56ZM1131.44,645h.6V622.63h-.6Zm23.48-22.43-.62,0V645h.62ZM1185.05,645l.64-.09V622.39l-.64,0Zm-77.54,42.37c-4.07,0-7.2-1.67-7.68,1-.67,3.75-2,8.16.89,11.64.59.72,3.15.89,4.42-.78.61-.78.77-1.74-.24-1.92-8.48-1.48-1.66-2.85,0-4.17-.55-1.89-4-.31-3.41-2.53C1101.79,689.65,1104.18,689.15,1107.51,687.41Zm-23-106.19c-4.06-1-7-2-7.91.16a11.56,11.56,0,0,0-.16,8.19c.92,2.25,3.82.9,6.22.68-1.08-2.45-4.34-.42-4.48-2.73s3.09-.34,3.71-2.34c-.72-1.59-3.52.33-3.78-2.41Zm22.78-1.94c.23,4.48-.09,7.81.81,10.76.31,1,3.7,1,7.41-1.41C1105.46,590.06,1111.28,582.82,1107.26,579.28Zm166.28,134.39c-1-4.47-4.77-4.59-8.1-5-1.76-.2-.79,1.75-1,2.72-.06.33-.63,2.28,1,.88,2.13-1.9,5.08,2.31,6.87-1.07Zm-46-428.88c3-.54,5.17.16,4.93-2.17s-1.32-4.16-4.06-4.08c-1.62,0-4.09.21-3.8,2S1226.12,285.11,1227.58,284.79Zm-194.89,438c1.66-6.29,3.38-2.36,5.22-.91-1.4-2.33,2.66-7.43-3.32-6.84C1030,715.46,1033.31,719.44,1032.69,722.76Zm14.73-3.53c-.94,3.12,1.43,3.38,3.35,3.56,2.52.24,3.68-1.6,3.64-3.77s-.94-4.12-3.58-3.8C1048.67,715.49,1046.46,716.15,1047.42,719.23Zm203,1.16c-1.67,7.28,3.46,4.9,6.56,5.16.72.06,1.51-.62,2.27-1-.65-1.28-1-2.85-2-3.74-.84-.75-1.87.24-2,1.36-.24,2-1.48,2.56-3.14,2.28C1249.39,724.05,1251.38,721.67,1250.38,720.39ZM1238,722.3c0,1.71-.51,3.68,2.21,3.53a3.23,3.23,0,0,0,3.2-3.19c.23-2.47-1.86-2.79-3.63-3.12C1236.82,719,1238.39,721.33,1238,722.3ZM1223.65,528l-.41.06v27.86h.41ZM1094.9,699.83c1.93-3.92-.48-8,3-11,1.16-1-1.1-1.89-2.39-1.76s-4.23.45-3.43,1.17C1095.58,691.5,1092.5,695.85,1094.9,699.83Zm-60.71,89.92c1.65-1.17.1-3.54,2.33-4.16,1.87,1.14-1,5.44,3.11,4.71.39-.06.77-3.36.22-4.81-.9-2.37-3.74-1.21-5-.9C1031.33,785.48,1035.3,788.13,1034.19,789.75Zm113.11-57.24c.32.73-.84,2.76,1,2,.92-.41,3.72,1.6,3.18-1.86-.25-1.59,0-3-2.08-3.17C1146.91,729.22,1147.53,731.16,1147.3,732.51ZM1040.05,604.82c-.93,1.9-1.81,3-1.93,4.11-.16,1.46.35,3.05,2.25,3.08.63,0,1.86-1,1.79-1.23C1041.72,609.05,1041,607.39,1040.05,604.82Zm19.81,181.55c-.11-.68-2.34-1.79-4.51-1.21-3.06.81-.89,3.39-1.42,5.47C1056.55,789.71,1056.32,782.09,1059.86,786.37ZM1047,790.85c-.74-2.58,1.15-5.12-1.89-6.12a2,2,0,0,0-2.83,1.14C1040.17,791,1045.63,788.23,1047,790.85ZM1137.26,594c-3-.32-2.58,1.89-2.54,3.62s-.74,4.26,2.62,4.09c2.56-.13,3.48-1.69,3.53-3.89S1139.67,594.11,1137.26,594Zm-84.55,160.45c-.86,2.07-1.33,4.56-2,4.62-2.7.24-.3-3.36-2.58-4.1,0,2.32-1.16,5.39,2.33,5.4C1054.2,760.36,1052.44,757.18,1052.71,754.43Zm118.41-20c-.33-1.43-.22-3.42-1.12-4.15s-3.41-1.14-4.35-.48c-1.41,1-1,3.09-.43,4.79C1167.07,734.07,1168.86,730.09,1171.12,734.39Zm-109.47-19.85c-2.12,3.58-5.61,6,0,8Zm95.54-69.34h.42V622.56h-.42Zm-17.55-22.83h-.43V645h.43Zm-93.11-12.29c-.46.85-.14.47,0,0,.34-1.56.48-3.46,2.35-.88,0,0,0,.08,0,0-1.59-.63-.34-4-2.42-3.44C1043.92,606.52,1047.63,609.58,1046.53,610.08Zm3.52,179.61-1.71-4.6c-.56,2.31-1,4.17.75,5.43a2.84,2.84,0,0,0,2.61.1c1.81-1.25,1.17-3.13.78-5C1050.92,786.61,1052.61,789.16,1050.05,789.69Zm91.59-60.27c-2.17,0-1.78,1.58-1.63,2.8s-1.06,3.34,1.64,3.22c2.22-.1,1.87-1.76,1.93-3.28S1143.49,729.49,1141.64,729.42Zm-77.31-14a6.69,6.69,0,0,0-.56,6.44c.66,1.71,2.67,1.21,5.81-.16C1063,722.17,1065.76,718,1064.33,715.46Zm8.21,7.09,2.72-6.66c-1.61,3.94-3.63.42-5.61-.23C1070.75,718.27,1071.58,720.26,1072.54,722.55Zm72.73-128.27c-.54-.1-2.41-1-2.91.87a9.7,9.7,0,0,0,.23,5.77c.56,1.39,2.45.91,3.46.44C1143.89,599,1145.3,596.74,1145.27,594.28Zm119.53-45.44c-.79-2.67-3.7,1.66-4.15-1.38-.2.58-.66,1.23-.55,1.75.51,2.52,3.47-1.72,3.89,1.35C1264.25,550,1264.52,549.42,1264.8,548.84ZM1118.2,732.71c-2.57.13,2-3.9-1.83-3.33-.55.08-1.5,1-1.42,1.28a11.43,11.43,0,0,0,2.17,4.22C1117.61,735.36,1118.78,734.24,1118.2,732.71ZM1074.06,791c-1.07-1.72-1.78-2.86-1.22-4.53.18-.53-2.61-1.05-3,.23C1069.16,789.11,1071.09,790.16,1074.06,791Zm63.14-61.67c-2.82.36-2.3,2.34-2.38,3.81s.85,3.18,2.15,2.3c1.53-1-1.86-3.76.81-5.24C1137.55,729.84,1137.33,729.5,1137.2,729.3Zm91.53-474.76c0-1.46.1-2.61-1.22-2.72-1.69-.14-1.64,1.25-1.61,2.34s-.47,2.66,1.17,2.57C1227.74,256.7,1228.33,255.1,1228.73,254.54ZM1063.8,788.17c0,1.46-.16,3.57,1.94,2.79.77-.28.34-3.25.9-4.83.48-1.36-.49-.8-.82-.84C1063.37,785,1063.85,786.77,1063.8,788.17Zm108-55.64c.19,1.05-.3,3.45,1.84,2.82,2.53-.74-1.69-3.69,1-5.21,1-.58-.31-.77-.68-.81C1171.65,729.06,1171.92,730.79,1171.82,732.53Zm-106.23-471.2c1.17.6,1.64,1,2.1,1a4.6,4.6,0,0,0,1.55-.69c-.41-.35-.78-.91-1.24-1S1066.93,260.93,1065.59,261.33Zm44.49,468.51v6.22C1111,732.92,1113.28,731.27,1110.08,729.84Z"/><path class="cls-4" d="M1139.79,274.79a348.3,348.3,0,0,0-1.37,53.84c.34,7-4.47,4.55-7.41,5.16-3.6.74-4.24-1.76-4.21-4.91.08-7.49,0-15-.29-22.48-.17-4.34,1.13-6.69,5.85-6,1.76.24,3.64.21,3.7-2.1.08-2.67-2-1.72-3.61-1.91-1.79-.22-4.25.29-4.91-2.19-.35-1.29,1.48-1.87,2-1.35,2.36,2.5,3.26-7.06,5.81-.14,1.72-5.23-2.11-3.88-4.26-4.37-1.23-.27-3.15,0-3.17-1.66,0-2.15,1.92-1,3.06-1.2,1.84-.29,4.17.88,5.23-1.68a2,2,0,0,0-1.34-2.77c-2.46-1-4.33,0-6,2.59-.29-2.3-.5-4-.71-5.73,3.15,1.7,5.06-3.69,8.25-1.46,1,.71,1.24-.08,1.2-.62,0-.73-.34-1.93-.79-2.06-1.5-.44-3.28-1.54-4.61-.09-.7.76.73,3.75-2,2.35-1.17-.62-1.73-3-2-4.61-.2-1.34,1.3-1.74,2.49-1.86,2.31-.23,4.61-.38,6.92-.57-2-2.36-4.35.48-6.51-.54-1.76-.83-3.56-1.56-3.06-3.84.59-2.69,2.39-.38,3.6-.54,2.07-.29,4.47.54,5.8-1.79a2.2,2.2,0,0,0-.68-2c-2.08-1.24-4.11-1.19-5.64,1-1.19,1.71-1.37.57-1.48-.54-.14-1.39-3-3.21-.5-3.93s5-.26,6.73-2.82c.87-1.31.51,3.14,1.93.59.21-.36-.54-1.82-.89-1.84a25.54,25.54,0,0,0-4.15.44c.22,1.58-.35,3.15-2,2-1.21-.87-1.92-3-2.07-4.66s1.92-1.5,2.57-.94c2.67,2.28,3.42-4.86,6.16-1.12.2-.22.62-.57.58-.63-.48-.76-1.08-2.13-1.55-2.09-10.26.8-6.81-6.63-7.18-11.78-.47-6.31.77-9.82,8.25-6.37,2,.93-1-3.56,2.22-3.75-4.56.64-8.6.4-11.93-2.8-1.39-22.83-9.3-43.64-19.78-63.65-11.56-27.26-29.71-49.27-53.57-66.6-42.45-30.85-90.08-43.43-142-37.61-53.35,6-95.85,32-128.51,74.26-34.77,44.94-52.46,96.64-59.17,152.47-2.34,19.49-3.88,39.06-2.28,58.73l.12,1.93q.49,7.56,1,15.13c1.62,31.65,8,62.58,14.54,93.45,8.08,38,17,75.86,21.66,114.52q.89,13.62,1.76,27.25c0,.93,0,1.87,0,2.8-.86,21.13-2,42.22-7.8,62.74-14.52,51.49-43.62,91.06-93.62,112.92-29.4,12.86-60.15,16.42-91.83,10.07-54.67-11-95.18-43.78-130.15-84.79-28.45-33.38-51.38-71.11-81.45-103.27-21.56-23.07-41.88-47.15-68.71-64.78-50.62-33.26-105.38-40.47-163.47-27.59-34.42,7.63-67.08,20.62-99.33,34.67C16.85,537.26,9.32,543,0,544.44v-14c4.26.11,7.42-2.7,11.08-4.18a4,4,0,0,0,3.75-1.74l.29-.09c1.6.1,3-.24,3.86-1.78l.24-.08a11.37,11.37,0,0,0,7-2.84h0l2.65-1.16.3-.09a5,5,0,0,0,4.73-1.88l1.16-.41a20,20,0,0,0,3.83-.77,473.57,473.57,0,0,1,85.74-25.89C176.43,479,226.19,484.62,274,507.27q10.23,4.85,20.49,9.64l.06.06c.26,2,1.23,3,3.35,2.19l1.36.73,1.25,1,.09.13c0,1.5.95,1.78,2.22,1.52l.16.09c.21,1.38,1,1.81,2.34,1.53l.22.08.84.63.25.2,1,.7.09.07,1.09.84C357.34,563,391.68,612,427.65,659.54c26.74,35.36,56,68.09,95.29,90.18,8.69,4.89,17.64,9.29,27.28,12.09a4.56,4.56,0,0,0,5.54,1.83l-.17,0c-2.11,1.23-.43,2.14.48,2.1,4.26-.21,7.3,2.87,11.26,3.82,28.06,6.78,55.4,5,82.09-5.67,15.61-6.21,30-14.58,41.32-27.35l.26-.18a6.89,6.89,0,0,0,5.07-4.67l.07-.08,1-.84.13-.1.9-.89.11-.12c.29-.31.59-.61.88-.91l.09-.08.92-1,0,0,1-1,0,0,1-1,.08-.08a5.61,5.61,0,0,0,3.74-4l.12-.18.65-.82H707v-.28l.68-.76.33-.13,0-.35c1.31-.36,2.27-1,2.25-2.55l1.07-1.54.85-1.2.12-.17c1.21-.14,1.61-.92,1.59-2l.19-.32.54-.67.31,0,0-.31.54-.74.86-1.5.86-1.27-.16-.24.19.22,1.65-2.11.17-.17.58-.89c23.38-37.15,31-78,28.24-121.21,0-1.66-.26-3.4.13-5,1.49-5.89-4.82-12.47,1.61-18,.28-.24-.31-2.36-1-2.69-5.83-3-2.7-8.92-4.37-13.25-.66-1.73-2-4.67,1.76-5.57a2.13,2.13,0,0,0,1.73-2.65c-.68-2.41-1.76.28-2.36-.08a6.36,6.36,0,0,1-2.73-2.57c-.81-1.94.93-2.15,2.24-2.22,3-.17,2.43-1.9,1.81-3.82l-2,2.37a28.83,28.83,0,0,1-3-3.09c-1-1.33.11-1.78,1.13-2.58s2.17-2.43,2.1-3.62c-.14-2-2.1-.82-3.26-.93s-2-.38-2-1.63a8.15,8.15,0,0,1,.55-2.66c.8-2.14,4.76,1.86,4.59-2.32-1.75.19-3.5.47-5.25.5-.52,0-1-.72-1.57-1.11l-2.76-15.07c-.74-3,1.7-2.95,3.44-3.68,1.06-.45,2.12-1.23,1.74-2.64-.14-.52-.82-.89-1.26-1.34-1.14,3.82-3.55,0-5.19.87-.36-1.06-.73-2.11-1.09-3.16,2-1.43,6.55-.16,6.29-3.43-.33-4.35-4.44-.29-6.5-1.64a7.36,7.36,0,0,0-.89-.44c-6.26-29.87-13-59.64-17.23-89.9-1-7.23-1.93-14.47-2.89-21.7-.59-14-1.1-27.94-1.81-41.9-.26-5,1.89-6.66,6.59-5.65a25.73,25.73,0,0,0,2.77.28,13.83,13.83,0,0,0-.07-3.41c-.05-.23-1.7-.25-2.55-.08-2.69.52-6.1,1.2-6.4-2.34-.43-5.09-.43-10.52,1-15.35,1-3.49,5.81.4,8.51-1.84-2.66-.42-2.08-4.58-5.36-4.34-1.11.09-3.23.85-2.71-1.43.38-1.68,1.49-3.9,2.87-4.5,2.06-.89,1.17,1.37,1.52,2.44.54,1.64,2.25,1.1,3.47,1.1,2.24,0,2.08-1.62,2-2.83-4,.69-6.39-2.43-9.33-3.94-.19-.1.55-3.33,1.61-4.19s1.63.85,2.18,1.84c1,1.83,2.86,1.37,4.47,1.21,1.26-.13,1.59-1.15,1.39-2.22-.42-2.15-2.57-1.7-3.87-2.53-1.54-1-5.27,1.85-4.71-2.09.53-3.78,3.91-2.42,6.5-2.33,1.06,0,2.18,1.87,3.71-.48-2.73-.49-5.17-.83-7.54-1.41-1.41-.35-2.5-1.5-1.89-3,.71-1.69,1.59-3.87,3-4.54,1.68-.79,1.41.87,1.45,2.37.06,1.94,2.35,1.17,3.68,1.39a1.34,1.34,0,0,0,1.56-1.87c-1-1.88-1.86,1.31-1.78.53.45-4.42-11-2.79-4.75-9.92,1.14,2.43,2.84,4.16,5.69,3.47a2.8,2.8,0,0,0,1.67-2.1c0-1.83-1.79-2-3.11-2.68-1.53-.77-4.78.42-4.48-1.71.39-2.79,3.31-.53,5.07-.91a14.32,14.32,0,0,0,3.29-.65c.4-.2.31-1.47.3-2.25,0-.15-.82-.51-1-.39-3.37,2.31-3.28-3.66-6.11-2.53l-.21-1.73a36.2,36.2,0,0,1,5.79-.1c1.63.22,3.18.5,3.53-1.45s-1.06-2.42-2.75-2.75c-2.82-.56-5.89-.61-4.72-5.37,13.55-55,41.17-101.84,81.54-141.36,3.26-3.19,7.68-4.7,10.89-7.54a167.11,167.11,0,0,1,34.56-23.65c46.82-23.88,96-27.35,146.67-15.16,21,5.06,40.33,14.23,59,24.82a.36.36,0,0,0,.57.24,3.54,3.54,0,0,0,3.24,2.11l.21.1a10,10,0,0,0,5.77,3.93l.18.1c1.42,2.26,3.64,3.48,6,4.54a.55.55,0,0,0,.64.55l2.29,1.68.12.13.9.82.27.16,1.8,1.65a.45.45,0,0,0,.61.35l0,.31.32-.06a.58.58,0,0,0,.51.63l.65.64a.47.47,0,0,0,.59.4l4.28,3.89a225.44,225.44,0,0,1,55.14,101.8,153.25,153.25,0,0,1,3.53,48.61C1139.7,256.13,1140,265.48,1139.79,274.79Z"/><path class="cls-3" d="M0,544.44c9.32-1.49,16.85-7.18,25.24-10.84,32.25-14.05,64.91-27,99.33-34.67,58.09-12.88,112.85-5.67,163.47,27.59,26.83,17.63,47.15,41.71,68.71,64.78,30.07,32.16,53,69.89,81.45,103.27,35,41,75.48,73.84,130.15,84.79,31.68,6.35,62.43,2.79,91.83-10.07,50-21.86,79.1-61.43,93.62-112.92,5.79-20.52,6.94-41.61,7.8-62.74,3.36.36,3.32,3.32,3.12,5.28-1.53,15-.43,30.12-2.34,45.24a292.09,292.09,0,0,1-7.94,39.68,171.16,171.16,0,0,1-43.71,76.32c-18.65,19-39.8,34-65.68,41.7-24.79,7.4-49.53,6.39-74.76,2-26.64-4.61-49.06-16.63-69.95-33.21-11.55-9.16-23.15-18.44-33.13-29-8.26-8.73-16.77-17.54-24.12-27.35-5.34-7.13-10.8-14.39-17.52-20.77A39.81,39.81,0,0,1,415,675.24c-1.89-7.21-7.12-14-13.7-19-7.06-5.33-11.66-12.91-17.09-19.73-7.66-9.61-15.15-19.39-23.33-28.54-9.13-10.2-18.71-20-28.53-29.58a274.25,274.25,0,0,0-52.49-40C264,529.13,247.06,522.8,229.59,518c-15.16-4.14-30.69-5.36-46.73-5.09-31,.5-59.38,9.87-87.93,19.91-25,8.81-50.18,17.23-75.28,25.83L0,565.43Z"/><path class="cls-3" d="M1052.85,74.27c-18.7-10.59-38-19.76-59-24.82C943.15,37.26,894,40.73,847.15,64.61a167.11,167.11,0,0,0-34.56,23.65c-3.21,2.84-7.63,4.35-10.89,7.54-40.37,39.52-68,86.35-81.54,141.36-1.17,4.76,1.9,4.81,4.72,5.37,1.69.33,3.08.9,2.75,2.75s-1.9,1.67-3.53,1.45a36.2,36.2,0,0,0-5.79.1l.21,1.73c2.83-1.13,2.74,4.84,6.11,2.53.17-.12,1,.24,1,.39,0,.78.1,2.05-.3,2.25a14.32,14.32,0,0,1-3.29.65c-1.76.38-4.68-1.88-5.07.91-.3,2.13,2.95.94,4.48,1.71,1.32.67,3.09.85,3.11,2.68a2.8,2.8,0,0,1-1.67,2.1c-2.85.69-4.55-1-5.69-3.47-6.25,7.13,5.2,5.5,4.75,9.92-.08.78.82-2.41,1.78-.53a1.34,1.34,0,0,1-1.56,1.87c-1.33-.22-3.62.55-3.68-1.39,0-1.5.23-3.16-1.45-2.37-1.42.67-2.3,2.85-3,4.54-.61,1.48.48,2.63,1.89,3,2.37.58,4.81.92,7.54,1.41-1.53,2.35-2.65.52-3.71.48-2.59-.09-6-1.45-6.5,2.33-.56,3.94,3.17,1.1,4.71,2.09,1.3.83,3.45.38,3.87,2.53.2,1.07-.13,2.09-1.39,2.22-1.61.16-3.44.62-4.47-1.21-.55-1-1-2.8-2.18-1.84s-1.8,4.09-1.61,4.19c2.94,1.51,5.34,4.63,9.33,3.94.1,1.21.26,2.84-2,2.83-1.22,0-2.93.54-3.47-1.1-.35-1.07.54-3.33-1.52-2.44-1.38.6-2.49,2.82-2.87,4.5-.52,2.28,1.6,1.52,2.71,1.43,3.28-.24,2.7,3.92,5.36,4.34-2.7,2.24-7.52-1.65-8.51,1.84-1.38,4.83-1.38,10.26-1,15.35.3,3.54,3.71,2.86,6.4,2.34.85-.17,2.5-.15,2.55.08a13.83,13.83,0,0,1,.07,3.41,25.73,25.73,0,0,1-2.77-.28c-4.7-1-6.85.62-6.59,5.65.71,14,1.22,27.93,1.81,41.9-3.72-10.08-2-20.71-2.58-31A334.2,334.2,0,0,1,715,253.61c8.25-41.29,22.61-80.62,46.25-116a241.65,241.65,0,0,1,29.5-35.92C798.39,94,806,86.26,814.73,80c11.33-8.12,23.21-15.84,35.74-21.9,30.46-14.72,63-20,96.73-18.55,36.95,1.58,71,12.63,102.66,31.62C1051,71.9,1051.86,73.23,1052.85,74.27ZM793.39,103.1l0,.74c.09-.11.23-.2.25-.32S793.49,103.28,793.39,103.1Z"/><path class="cls-3" d="M294.49,516.91q-10.25-4.81-20.49-9.64c-47.81-22.65-97.57-28.31-149.38-17.74a473.57,473.57,0,0,0-85.74,25.89,20,20,0,0,1-3.83.77C42.51,510.08,52,508.13,60.63,505c26.23-9.4,52.92-17.78,80.54-22,35.06-5.31,69.8-3.43,103.62,8.3,16.69,5.79,32.8,12.75,47.5,22.69C293.34,514.75,294.87,515.11,294.49,516.91Z"/><path class="cls-3" d="M690.74,736.49c-11.35,12.77-25.71,21.14-41.32,27.35-26.69,10.63-54,12.45-82.09,5.67-4-1-7-4-11.26-3.82-.91,0-2.59-.87-.48-2.1,10.39.75,20.27,4.22,30.72,5.12a144.48,144.48,0,0,0,58.62-7.33c15.59-5.17,29.36-13.61,42.36-23.43C688.36,737.14,689.21,736.09,690.74,736.49Z"/><path class="cls-3" d="M738.08,511.45c.52.39,1,1.11,1.57,1.11,1.75,0,3.5-.31,5.25-.5.17,4.18-3.79.18-4.59,2.32a8.15,8.15,0,0,0-.55,2.66c0,1.25.86,1.52,2,1.63s3.12-1,3.26.93c.07,1.19-1,2.79-2.1,3.62s-2.09,1.25-1.13,2.58a28.83,28.83,0,0,0,3,3.09l2-2.37c.62,1.92,1.21,3.65-1.81,3.82-1.31.07-3,.28-2.24,2.22a6.36,6.36,0,0,0,2.73,2.57c.6.36,1.68-2.33,2.36.08a2.13,2.13,0,0,1-1.73,2.65c-3.75.9-2.42,3.84-1.76,5.57,1.67,4.33-1.46,10.26,4.37,13.25.66.33,1.25,2.45,1,2.69-6.43,5.49-.12,12.07-1.61,18-.39,1.56-.1,3.3-.13,5C745,572.89,746,563,744.4,553.41c-2.11-13-3.84-26.06-6.43-39A12.41,12.41,0,0,1,738.08,511.45Z"/><path class="cls-3" d="M731.86,480.92a7.36,7.36,0,0,1,.89.44c2.06,1.35,6.17-2.71,6.5,1.64.26,3.27-4.26,2-6.29,3.43C731.14,484.88,732.07,482.79,731.86,480.92Z"/><path class="cls-3" d="M1266.31,287.72V270.27l.92,0V287.7Z"/><path class="cls-3" d="M734.05,489.59c1.64-.82,4.05,3,5.19-.87.44.45,1.12.82,1.26,1.34.38,1.41-.68,2.19-1.74,2.64-1.74.73-4.18.68-3.44,3.68C732.73,494.52,734.21,491.9,734.05,489.59Z"/><path class="cls-3" d="M1068.79,85.29c-2.33-1.06-4.55-2.28-6-4.54C1065.57,81.27,1068,82.25,1068.79,85.29Z"/><path class="cls-3" d="M696.07,731.64a6.89,6.89,0,0,1-5.07,4.67C691.54,733.51,693.05,731.76,696.07,731.64Z"/><path class="cls-3" d="M1062.64,80.65a10,10,0,0,1-5.77-3.93C1059.87,76.46,1061.34,78.43,1062.64,80.65Z"/><path class="cls-3" d="M1081.74,96.44l-4.28-3.89C1079.91,92.74,1081.16,94.22,1081.74,96.44Z"/><path class="cls-3" d="M705.93,721.54a5.61,5.61,0,0,1-3.74,4C702,722.91,703.44,721.73,705.93,721.54Z"/><path class="cls-3" d="M26.18,519.73a11.37,11.37,0,0,1-7,2.84C20.73,519.63,23.42,519.6,26.18,519.73Z"/><path class="cls-3" d="M555.76,763.64a4.56,4.56,0,0,1-5.54-1.83C552.48,761.16,554.46,761.37,555.76,763.64Z"/><path class="cls-3" d="M297.9,519.16c-2.12.8-3.09-.16-3.35-2.19C296.66,516.17,297.64,517.11,297.9,519.16Z"/><path class="cls-3" d="M33.89,516.6a5,5,0,0,1-4.73,1.88C30,516.08,32,516.3,33.89,516.6Z"/><path class="cls-3" d="M1056.66,76.62a3.54,3.54,0,0,1-3.24-2.11C1055,74.4,1056.29,74.82,1056.66,76.62Z"/><path class="cls-3" d="M19,522.65c-.85,1.54-2.26,1.88-3.86,1.78C15.81,522.53,17.22,522.21,19,522.65Z"/><path class="cls-3" d="M710.22,716.46c0,1.52-.94,2.19-2.25,2.55C707.72,717.28,708.31,716.29,710.22,716.46Z"/><path class="cls-3" d="M14.83,524.52a4,4,0,0,1-3.75,1.74C11.45,523.79,13.29,524.48,14.83,524.52Z"/><path class="cls-3" d="M302.82,522.49c-1.27.26-2.17,0-2.22-1.52C302.12,520.33,302.84,520.87,302.82,522.49Z"/><path class="cls-3" d="M1074.81,90.28l-1.8-1.65C1074.21,88.53,1074.79,89.1,1074.81,90.28Z"/><path class="cls-3" d="M713.85,711.52c0,1.11-.38,1.89-1.59,2C711.83,712.12,712.44,711.51,713.85,711.52Z"/><path class="cls-3" d="M305.32,524.11c-1.29.28-2.13-.15-2.34-1.53C304.13,522.52,305.57,522,305.32,524.11Z"/><path class="cls-3" d="M718.87,704.56l-1.65,2.11A1.82,1.82,0,0,1,718.87,704.56Z"/><path class="cls-3" d="M1071.72,87.52l-2.29-1.68A2,2,0,0,1,1071.72,87.52Z"/><path class="cls-3" d="M28.86,518.57l-2.65,1.16C26.59,518.21,27.72,518.37,28.86,518.57Z"/><path class="cls-3" d="M307.62,525.72l-1-.7Z"/><path class="cls-3" d="M308.8,526.63l-1.09-.84Z"/><path class="cls-3" d="M300.51,520.84l-1.25-1Z"/><path class="cls-3" d="M712.14,713.72l-.85,1.2Z"/><path class="cls-3" d="M699.12,728.7c-.29.3-.59.6-.88.91C698.53,729.3,698.83,729,699.12,728.7Z"/><polygon class="cls-3" points="1075.71 90.88 1075.39 90.94 1075.42 90.63 1075.71 90.88"/><path class="cls-3" d="M698.13,729.73l-.9.89Z"/><path class="cls-3" d="M700.13,727.65l-.92,1Z"/><path class="cls-3" d="M707.67,719.49l-.68.76Z"/><path class="cls-3" d="M697.1,730.72l-1,.84Z"/><path class="cls-3" d="M714.58,710.53l-.54.67A.56.56,0,0,1,714.58,710.53Z"/><path class="cls-3" d="M715.47,709.46l-.54.74Z"/><path class="cls-3" d="M706.7,720.54l-.65.82C706.27,721.09,706.49,720.82,706.7,720.54Z"/><path class="cls-3" d="M717.19,706.69l-.86,1.27Z"/><path class="cls-3" d="M306.38,524.82l-.84-.63Z"/><path class="cls-3" d="M1072.74,88.47l-.9-.82Z"/><path class="cls-3" d="M702.11,725.66l-1,1Z"/><path class="cls-3" d="M719.62,703.5l-.58.89Z"/><path class="cls-3" d="M701.11,726.66l-1,1Z"/><path class="cls-3" d="M1076.87,92.15l-.65-.64A.77.77,0,0,1,1076.87,92.15Z"/><path class="cls-3" d="M722.58,338.55c-1.6-19.67-.06-39.24,2.28-58.73C731.57,224,749.26,172.29,784,127.35c32.66-42.22,75.16-68.28,128.51-74.26,51.9-5.82,99.53,6.76,142,37.61,23.86,17.33,42,39.34,53.57,66.6-3.11.24-3.57-2.21-4.64-4.29a113.49,113.49,0,0,0-11.59-18.76c-9.73-12.2-19.79-24.23-33.29-33.13a234.4,234.4,0,0,0-64.88-29.87c-26.37-7.55-53.43-8.73-80.78-5-23,3.09-44.71,9.7-64.93,20.88C827,98.7,807.81,113,792.65,131.79,782,145,771,158.34,763,173.14a313.81,313.81,0,0,0-19.72,44.17c-3.41,9.48-6.88,19.17-9,28.78s-4.77,18.9-6.54,28.51C724,295,723.6,315.45,723.81,336,723.82,336.86,723,337.71,722.58,338.55Z"/><path class="cls-3" d="M761.64,590.83q-.89-13.62-1.76-27.25C763.58,572.46,762,581.69,761.64,590.83Z"/><path class="cls-3" d="M723.68,355.61q-.49-7.58-1-15.13C725.13,345.38,723.66,350.54,723.68,355.61Z"/><path class="cls-4" d="M1052.9,877.39c-12.77-6.26-26.64-10.34-36.93-21.21-10.75-11.35-16.12-24.7-15.13-39.95,4.4-67.21,3.69-134.49,4-201.77.22-40.83-3-81.58-2.38-122.32.39-25.63,9.29-49.29,31.37-65.58,6.43-4.75,12.61-9.87,19.3-14.21,20-13,22.88-32.38,23.26-54.23.19-10.85-.42-22.45,3.37-33.1,1.8-5,6.91-3.44,10.93-3.42,3.73,0,4.91,2.62,4.91,5.67,0,19.46,5.85,38.09,7.69,57.23.48,4.94-1.49,9.39,5,11.54,2.09.69,3.14.9,2.32-1.31-1.6-4.3.7-5.34,4-6.78,6.75-2.94,10.2-8.73,11-15.82,1.08-9.37,2.52-18.71,2.2-28.22,0-1.63-2.29-5.06,2.16-5.2,3.78-.12,7.14.28,7.34,5.18.28,6.94.54,13.89.83,20.83a78.84,78.84,0,0,0,.49,9c.74,4.67-.82,6.23-4.21,4.91,2.07-.16,3.21,1.76,3.94,4.67,1.53,6.11,8.11,8,13.09,4.29s10.69-6.2,13.88-12.65c1.2-2.4,8.6-3.61,12.83-.85,3.42,2.24,9.2.95,8.7,9.79-.28,5.08,3.37,13.82,7,19.81,1.86,3,6.4-2.64,6.84-3.79,4.09-10.78,15.42-10.77,23-16.1,5.31-3.73,10.71-6.82,11.69-14,.25-1.87,1.49-1.11,2.64-1,4.55.54,9.09,2,13.67-.16.82-.4,2.17.3,3.27.5-2.45,5.76,6.15,7.78,4.54,13.31a3.11,3.11,0,0,0,.24,2.43c6.2,8,3.73,13.53-4.61,17.78-3.06,1.55-2.3,4.27-1.07,6.68a9.34,9.34,0,0,0,9.66,5,7.75,7.75,0,0,1,9.06,5.42c1.5,6.89,6,13,5.16,20.5-.27,2.55,2.72,3.63,4.11,4.25,2.45,1.07,2.78,2.46,3.08,4.62a314.93,314.93,0,0,1,2.77,49.95c-.13,5.88-5,3.42-7.57,3.42-34.16.12-68.32-.29-102.47-.12-42.32.21-84.64.95-127,1.16-5.69,0-10.39,2.67-15.6,3.88-3.69.85-5.23,4.28-5.3,8.17-.79,46.28-3.13,92.53-1.76,138.86.35,11.69-1.78,23.57-1.82,35.21,0,16.55-.1,33.17.31,49.75.05,2.28,1.63,2.13,3.12,2.14,4.49,0,9,0,14.7,0-1.44.43-1.67.49-1.89.57-5.16,1.84-12.8-3.8-15.54,3.05-2,5-.22,11.53-.21,17.38q0,15.23,0,30.46c0,5.82,2.58,7.72,8.41,9.75,26.62,9.29,53.88,3.13,80.77,4.42,27.42,1.33,55,.31,82.44.31,34,0,68-.43,101.92.21,9.5.17,16.74-4.68,24.92-7.37,3.94-1.29,4.39-6.13,4.34-10.26-.23-22.14.9-44.39-.86-66.41-4.89-61.26,2.74-122.36,1.13-183.55-.22-8.32-.12-16.66-.09-25,0-4.2-2-7.21-5.76-8.46a122.1,122.1,0,0,0-16.18-4.21c-3-.55-4.69-2.18-3.93-4.57,4.6-14.48,3.13-29.43,4.36-44.17.42-4.91.85-12.68,9.82-13,2.69-.09,6.35-1.27,6-5.86-.19-2.42.67-1.91,2.6-.79,10.9,6.34,13.86,17,17.37,28.11,10.45,33.13,7,67,6.85,100.76-.29,48.81-.48,97.6.61,146.41.74,32.82,2.34,65.57,4.28,98.33,2.14,36.18-21.51,57.54-52.72,65.34-2.79.7-4.36-1-3.4-3.11,2.8-6.12-.53-13.09,3.25-19.11,1.35-2.16,1.88-5.72-1.83-7.17-3.16-1.23-5.47-1.79-9.2,1.12-15,11.69-21.57,30.24-35.87,42.21-8.23,6.89-18.52,9.64-28.78,11.05-18.92,2.6-38,5.08-57.09,4.43-31.17-1-61.7-6.48-91.75-14.78-9-2.48-18.13-4.56-25.75-10.42Z"/><path class="cls-5" d="M1090.75,240.51c4.69.4,11-1.38,15,4.89.87,1.38,2.75,2.56,1.26,4.19s-1.82,4.5-4.3,4.4c-2-.08-2.75-1.89-2.31-4.12.26-1.38-1.16-1.32-2.13-1.33-1.33,0-2.33.54-2.31,2,.06,5.07-3.5,5.95-7.34,6.11a114.33,114.33,0,0,1-11.85-.27c-3.08-.2-2.83-2.69-2.89-4.88,0-1.48.09-3.39-1.89-3.5s-2,1.8-2.1,3.29c-.21,2,.81,4.52-1.69,5.82-1.2.62-2.18-.09-3-1.11-1.78-2.27-.09-4.13.29-6.33,1.94-11.24,11.43-7.09,17.81-9.07C1085.26,240,1087.58,240.51,1090.75,240.51Z"/><path class="cls-4" d="M1145.84,699.19c-.33-1.46-.6-2.69-1-4.56-3.28,4.76-6.54,7.9-9.86-.77-1,4.31-3,5.83-6.28,5.46-2.31-.26-1.92-2.24-1.7-3.48.53-2.93-1.67-6.86,1.49-8.63,2.86-1.6,5.07,1.07,6.54,3.83,2.37-2.81,4.27-7.39,8-1.6.25.38,1.48.6,1.48.59,2.87-7,3.36,1,5.23.78,2.19.25-.6-3.53,2.62-3.15,5,.59,12.07-1.86,9.65,7.75-.88,3.46-2.3,4.54-6.46,3.25C1153.21,698,1149.16,694.29,1145.84,699.19Zm-3.81-5.9c-.14-1.59.19-3.68-2-3.88s-2.32,1.89-2.38,3.49-.24,3.67,2,3.86S1141.91,695,1142,693.29Zm18.33-.62c-.57-1.17.13-3.55-2.44-3.27-2.16.22-2.12,2.16-2.11,3.82s.25,3.62,2.45,3.5S1160,694.39,1160.36,692.67Zm-31.4.41c.37,1.25-.83,3.45,1.47,3.53s2.22-2.07,2.21-3.69-.15-3.37-2.12-3.32C1128.18,689.65,1129.28,691.78,1129,693.08Z"/><path class="cls-4" d="M1102.59,735.17c-.74-1.54-1.17-4.06-2.28-4.41-2-.65-1.8,2.17-2.42,3.33-.88,1.66-2.17,1.07-3.24,1.4-.46.15-1.2-.58-1.81-.92.19-.14.56-.27.56-.42,0-.74.26-1.84-.13-2.17-1-.87-2.81-1.7-3.53-.36-3.64,6.72-10,2.67-15,4-1.94.51-2.48-1.14-2.54-3.2-.07-2.68,1.7-3.44,3.32-3,9.09,2.19,18.43-1.72,27.37,1.21C1105.37,731.35,1102.64,733.52,1102.59,735.17Z"/><path class="cls-4" d="M1179.43,323.88a6.47,6.47,0,0,1,0,2c-1.09,3.08,2.95,9-3.38,8.95-7.13-.05-3.34-6.19-3.39-9.56-.06-4.92.95-9.85,1.66-14.76.19-1.37.47-3.33,2.42-3.15,1.63.15,2,1.45,2.06,3.28,0,4.42.6,8.83,1,13.24Z"/><path class="cls-4" d="M1067.34,693.9c-1.67,2.86-1.91,6.18-5.35,5.38-2-.45-3.21-2-3.11-4.44.12-3-.42-6.62,2.56-8,2.68-1.26,4.07,1.89,5.63,4.62.63-1.86,1-3.05,1.41-4.2,5.14,1,6.6,1,7-.12,2.7,2.85-1.45,9.19,2.73,9.27,3.71.07.09-6.09,3.38-10-.18,5.33,2,9.59-2.37,13.06C1076.23,694.82,1067.48,705.6,1067.34,693.9Zm-2.5-1c-.36-1.25-.08-3.33-1.95-3.36-2.22,0-2.13,2.12-2.13,3.7,0,1.41,0,3.43,1.82,3.48C1064.81,696.77,1064.55,694.57,1064.84,692.89Z"/><path class="cls-4" d="M1244.09,782c3-.46,5.78-.51,5.57,5-.2,5-.45,8.19-6.79,7.4-3.49-.43-6.34.23-6-5C1237.31,782,1236.94,782,1244.09,782Z"/><path class="cls-4" d="M1270.84,787.88c2.13,7.47-3.21,5.87-7.34,6.22-3.57.3-5.06-.58-4.82-4.51.27-4.43-1-8.7,6.44-8.19C1270.23,781.75,1272.11,782.88,1270.84,787.88Z"/><path class="cls-4" d="M1045.57,729.24c3.23,0,7.19.37,11-.1,4.5-.54,6.21,2.33,7.26,5.49.53,1.58-2,1.06-2.9,1s-1.58-1.29-2.36-2c-3.89,6.3-9.14-2.45-13.29,1.2-1.06.93-2.45.88-2.94-.36a8,8,0,0,1-.28-4.25C1042.36,728.91,1043.61,728.6,1045.57,729.24Z"/><path class="cls-4" d="M1034.35,591.44c.73-2.44,1.1-4.17,1.75-5.78s1.74-4.58,2.43-4.53c2.39.2,2.34,2.94,2.48,4.65.3,3.73,3.58,2.23,5.3,3.25,1.32.77,2-.76.76-1.9-.68-.63-2-.64-2.62-1.28a3.16,3.16,0,0,1-.37-4.11,2.77,2.77,0,0,1,3.9-1c1.11.57,1,1.68,1.22,3.07,1.44,11.73-5,6.93-10.16,5.14C1037.14,588.24,1036.47,590.47,1034.35,591.44Zm14.12-7.62c-.68-.55-1.1-1.12-1.61-1.23-.31-.07-.78.59-1.17.92a6.08,6.08,0,0,0,1.43.94C1047.39,584.54,1047.82,584.14,1048.47,583.82Z"/><path class="cls-4" d="M1034.42,600.63c1.75-11.49,12.45-1.69,17.35-6.46-1.54,2.82-2.84,5.06,1.28,8.41C1046.08,600.37,1040.45,603.44,1034.42,600.63Z"/><path class="cls-4" d="M1088.55,758.68c-3.79.63-7.15,1.73-10.42,1.5-1.4-.1-2.42-.9-4,.18s-2.82.13-3.6-1.4-.21-3.68,1.08-3.77a151.32,151.32,0,0,1,15.36,0C1087.4,755.16,1087.73,756.72,1088.55,758.68Z"/><path class="cls-4" d="M1112.91,756.42c4.06-3.49,8.72,1.05,13-.8.31-.13,1.69,2,2.92-.21.21-.38,2.88.6,4.41,1-.51,1.09,1.72,3.12-1.07,3.35-.63.06-1.45-1.14-2-1-2.17.59-4.23,1.55-6.38,2.22-1.38.43-2.1-3.21-3.95-.74a2.75,2.75,0,0,0-.24.41c1.27-1.89,1-3.64-.83-4.86-.34-.23-1.81.6-2.18,1.26a10.14,10.14,0,0,0-.58,3.18c-2.34-.47.83-4.94-3.2-3.8Z"/><path class="cls-4" d="M1242.43,321c.66,3.7,1.15,6.47,1.64,9.23.23,1.36,1.67,2.93-.21,4-1.72,1-3.69,1.79-5.71.87-1.68-.77-1.59-2.52-1.4-3.94a52.37,52.37,0,0,1,1.91-9.7c.6-1.79.75-5.22,3.52-4.66C1245.18,317.4,1241.51,320.27,1242.43,321Z"/><path class="cls-4" d="M1250.44,767.11c1.29-2.93,2.51-5.69,4.12-9.32l4.07,9.92c-4.63-5.09-8.14-.91-11.66-.36-2.42.37-4.43.52-5.63-1.6a4.77,4.77,0,0,1,.47-5.6c1.88-2.12,4-1.84,6-.06-2.27-1.11-4.45-1.58-5.69,1.28-.85,2-.79,3.88,1.2,5.3,1.77,1.25,3.22.62,4.16-1,.31-.53-.3-1.61-.49-2.44C1249.83,762.9,1248.29,765.88,1250.44,767.11Z"/><path class="cls-4" d="M1126.46,599.56c2-1.67-1.2-6.4,3.93-5.52,2.39.41,3.59,2.06,3.18,4.2-.79,4-3.75,3.74-7,3.12-2.09-.41-4.26-2.67-7-.47,1.16-2.21,2.31-4.43,3.47-6.65Z"/><path class="cls-4" d="M1083.72,596.58l3.61,3.22c1.68-1.37.67-5.26,3.33-5,1.11.11,1.89,3.75,3.38,7-4.29-2.54-7,.12-10.16.25-1.15,0-2.33-.84-3.5-1.29,2.23-1.55-.4-3.83.77-5.39a2.72,2.72,0,0,1,3.53-1.05c1.21.68,3.19,2-.42,1.73l-1.32-.22Z"/><path class="cls-4" d="M1098.07,585.36c0-2.82-.66-5.29,3.48-5.24,6,.08,3.15,4.88,3.93,7.32.9,2.77-2.16,3-4.38,3.13C1096.06,590.89,1098.74,587,1098.07,585.36Z"/><path class="cls-4" d="M1054.66,754.28c2.37,3.86,5.17,1.21,7.56.93,1.45-.17,2.66-1,3.93.26a3.08,3.08,0,0,1,.32,4.07c-.94,1.51-3,1.75-3.81.54-1.38-2.09-3.32-.48-4-.36C1053.75,760.55,1053.45,758.49,1054.66,754.28Z"/><path class="cls-4" d="M1143.21,645.09V622.52l.63,0v22.58Z"/><path class="cls-4" d="M1181.92,588.48c1.17-1.22,3.07-2.1,1.61-4.38a2.49,2.49,0,0,1,1-3.81,5.35,5.35,0,0,1,3.68-.17c2.18.75,1,1.8.33,3.28s2.54,2.34,1.59,4.36c-2.36,5.06-5.4,1.89-8.27.63Z"/><path class="cls-4" d="M1181.83,588.39c-3.91,4.13-9.13,1.85-13.11,1.28-2.65-.38-.59-6-.92-9.85,3.66,2.37-1.57,9.64,5.79,8.92,3.09-.31,1.5-2.6,1.76-4a33.68,33.68,0,0,0,.06-5.32c4,2.64-1.72,10.56,6.51,9.06Z"/><path class="cls-4" d="M1115.92,601.77c-3.34-.26-6.58.86-9-1.92a2.15,2.15,0,0,1,.87-3.64c2.27-.88,4.72-2,7-1.77.82.07.7,2.92-1.36,4.57C1111.82,600.31,1115.57,599.85,1115.92,601.77Z"/><path class="cls-4" d="M1071.43,600l4.49,1c-4.21,3-8.06-2.06-12-.58v-6.53l3.56,4.21c.3-1.24.56-2.3,1.1-4.56l1.19,5.83c2-1.42-.71-5.68,3.56-5.09,1.28.18,1.39.45,1.86,1.77C1076.41,599.46,1073.57,599.06,1071.43,600Z"/><path class="cls-4" d="M1035.46,755.4c-.2,1.35-.4,2.71-.68,4.63-1.71-1.88-.11-4.66-4.26-6,5.13.29,8.33.5,11.53.64,2,.1,5.1-1.65,4.65,2.64-.07.68.48,2.72-.61,1.95-2.89-2-7.35,5.4-9-1.66-.16-.73-.23-1.48-.35-2.21Z"/><path class="cls-4" d="M1122.65,699.77c-3.54-1.75-1.61-4.91-4.11-5.16-3.2-.32-.58,3.62-3.24,4.34-.79-3.83-1-7.64.37-11.25.23-.59,3.63-.9,4.49-.14C1123.79,690.78,1120.35,695.12,1122.65,699.77Z"/><path class="cls-4" d="M1112.4,687.51c2.69,2.58-9.16,1.22-.32,5.07.14.06-.33,4.81,1.23,7.12-1.73.14-4.35,1.06-5,.29-2.83-3.29-1.57-7.62-.93-11.22C1107.87,685.86,1111,687.06,1112.4,687.51Z"/><path class="cls-4" d="M1060.43,608c1.16-.34,2.56-1.45,3.27.37a4.8,4.8,0,0,1,0,3.38c-.83,1.77-1.68-.41-2.65-.3-3.66.42-7.5,1.18-9.24-3.41,2.49,2.28,3.67-5,6.7-1,.49,1.37-2.64,2.45-.7,3.53C1060.29,611.93,1060,609.39,1060.43,608Zm-3.3-1,.34.34.15-.7c-.11,0-.25,0-.32,0S1057.18,606.94,1057.13,607.06Z"/><path class="cls-4" d="M1123.88,585.52c-.46,2.63-1.35,5.06-4.76,5.07s-4.44-2.55-4.36-5.32,1.27-5.43,4.59-5.33S1123.72,582.42,1123.88,585.52Zm-2-.07c.08-1.84-.44-3.49-2.52-3.49s-2.51,1.81-2.56,3.52.36,3.06,2.28,3.16C1121.22,588.76,1121.81,587.28,1121.86,585.45Z"/><path class="cls-4" d="M1085.22,693.16c-.24,2.28-.44,4.1-.64,5.91l-1.27-.05c0-3.34,0-6.69,0-10,0-.48.61-1,.93-1.43l2.83,3.39c2-.2-.36-3.61,1.92-3.35,1.83.21,1.27,2.12,1.08,3.26-.46,2.8,1.37,5.87-1,8.42Z"/><path class="cls-4" d="M1133.94,585.3c-.2,3.05-1.26,5.27-4.69,5.26s-4.17-2.47-4.21-5c0-2.84,1.12-5.44,4.45-5.52S1133.85,582.41,1133.94,585.3Zm-1.88-.06c0-1.81-.45-3.4-2.66-3.29-1.84.08-2.39,1.56-2.45,3.12-.06,1.73.28,3.49,2.44,3.56S1132,587,1132.06,585.24Z"/><path class="cls-4" d="M1084.49,585.65c.27-2.66-1-5.61,3.34-5.46,3.88.14,4.83,2.46,4.77,5.52-.07,3.33-1.89,5-5.43,4.94C1082.41,590.57,1085.34,587.06,1084.49,585.65Zm1.85,0c.3,1.1-.4,3,2,2.88,2-.14,2.26-1.73,2.22-3.19s-.27-3.1-2.32-3.09C1085.92,582.29,1086.6,584.18,1086.34,585.69Z"/><path class="cls-4" d="M1164.63,698.66c-.61-4.1-2.43-8.52.17-11.46,2.93-3.3,6.66,1.16,5.13,6.26C1169.1,696.22,1163.64,693.89,1164.63,698.66Z"/><path class="cls-4" d="M1210.79,555.94V527.85h.58V556Z"/><path class="cls-4" d="M1119.72,645.28V622.61h.65V645.3Z"/><path class="cls-4" d="M1073.93,590.31c-2.5-.46-1.09-4.28-3.61-3.55-1.1.32-1.73,2.3-2.91,4-.89-3.7-1.27-7.08.3-10.06.39-.74,4-.86,5,0C1075.75,583.4,1073.06,587,1073.93,590.31Z"/><path class="cls-4" d="M1112.87,756.39c-1.66,6.85-7.19,1.92-10.59,3.48-.11-1.13-.31-2.26-.31-3.39,0-1.72,1.29-1.64,2.48-1.62,3.4,0,1.12,3.24,2.72,4.71,1.42-1.89,2.2-5.39,5.74-3.15Z"/><path class="cls-4" d="M1135.63,585.7c.69-2.39-1.42-6,3.45-5.61,3.42.25,4.71,2.06,4.67,5.09,0,3.2-1.41,5.12-5,5.33C1133.9,590.77,1136.62,587.16,1135.63,585.7Zm3.63-3.64c-2.16,0-1.67,1.84-1.65,3.18s-.84,3.26,1.64,3.25c2.15,0,2.6-1.55,2.62-3.38S1141.33,582.25,1139.26,582.06Z"/><path class="cls-4" d="M1165.69,580.67c-1,2.1-4.31,0-4.45,2.38-.12,2.22,2.57.56,3.66,1.78-.56,2-4,0-3.9,2.35.13,2.8,3.77.05,4.7,2.81-2.28.32-5.4,1.47-6.21-.49a12.22,12.22,0,0,1,0-8.65C1160.3,579.05,1163.5,579.67,1165.69,580.67Z"/><path class="cls-4" d="M1053.73,593.64c2.43,3.24,9.2-.13,6.65,6.56-1.25,3.3-4.15-.33-5.71,1.48C1052.75,599.54,1054.16,597.13,1053.73,593.64Z"/><path class="cls-4" d="M1244.56,528v28.25H1244V527.74Z"/><path class="cls-4" d="M1119.67,732.37c.21-1.31.49-4.25,1.78-2.76,2.19,2.53,7.72-3.26,7.18,3.09-.36,4.12-4.54,1.84-6.83,2.83C1119.27,736.63,1119.85,733.85,1119.67,732.37Z"/><path class="cls-4" d="M1037.81,733.4c-.93-2.23-4.45,2.63-5.4-1.23-.38-1.56-.45-4.25,2.55-3.31,2.12.67,6-2,6.08,3.19C1041.08,734.78,1039.85,734.05,1037.81,733.4Z"/><path class="cls-4" d="M1157.62,586.36c-1.73,3.27-3.43,6.16-6.11,4.41a6.23,6.23,0,0,1-1.88-8.38c1.35-2.52,3.25-3.15,5.72-2a2.79,2.79,0,0,1,1.33,1.87c.13,1-.65.88-1.24.42-1.81-1.44-3.36-1.33-4.34.88a3.72,3.72,0,0,0,.84,4.55C1154,589.87,1155,587.23,1157.62,586.36Z"/><path class="cls-4" d="M1183.41,733.6c0,.18-.22-1.13-.76-3.88-1.21,3.42-2.19,5.94-5,4.55-.69-.34-.86-3.47-.71-3.52,2.3-.71,5-2.07,7-1.4C1187.13,730.46,1183,733.07,1183.41,733.6Z"/><path class="cls-4" d="M1053,687.1c.54,1.56,1.07,3.12,1.86,5.42,1-2.18,1.59-3.63,2.27-5.18.45.36.64.44.65.53a16.77,16.77,0,0,1-2.76,11C1051.86,695.53,1052.46,691.25,1053,687.1Z"/><path class="cls-4" d="M1063,581l-4.62,2c1.64,1.42,4.15,1.94,3.58,4.81a3.5,3.5,0,0,1-2.28,2.92c-1.49.63-3,.44-3.35-.94-.68-3.07,1.32-.77,2.18-1a2.5,2.5,0,0,0,1.47-1.45c.12-.34-.67-1.46-.89-1.42-3.48.66-2.87-1.45-2.44-3.47C1057.32,579.34,1059.49,580.67,1063,581Z"/><path class="cls-4" d="M1172.58,644.9V622.64h.58v22.27Z"/><path class="cls-4" d="M1170.51,622.62V644.9H1170V622.7Z"/><path class="cls-4" d="M1131.44,645V622.63h.6V645Z"/><path class="cls-4" d="M1154.92,622.53V645h-.62V622.55Z"/><path class="cls-4" d="M1185.05,645V622.42l.64,0V645Z"/><path class="cls-4" d="M1107.51,687.41c-3.33,1.74-5.72,2.24-6,3.26-.54,2.22,2.86.64,3.41,2.53-1.71,1.32-8.53,2.69,0,4.17,1,.18.85,1.14.24,1.92-1.27,1.67-3.83,1.5-4.42.78-2.87-3.48-1.56-7.89-.89-11.64C1100.31,685.74,1103.44,687.44,1107.51,687.41Z"/><path class="cls-4" d="M1084.48,581.22l-6.4,1.55c.26,2.74,3.06.82,3.78,2.41-.62,2-3.85,0-3.71,2.34s3.4.28,4.48,2.73c-2.4.22-5.3,1.57-6.22-.68a11.56,11.56,0,0,1,.16-8.19C1077.52,579.18,1080.42,580.26,1084.48,581.22Z"/><path class="cls-4" d="M1107.26,579.28c4,3.54-1.8,10.78,8.22,9.35-3.71,2.44-7.1,2.42-7.41,1.41C1107.17,587.09,1107.49,583.76,1107.26,579.28Z"/><path class="cls-4" d="M1273.54,713.67l-1.27-2.45c-1.79,3.38-4.74-.83-6.87,1.07-1.58,1.4-1-.55-1-.88.2-1-.77-2.92,1-2.72C1268.77,709.08,1272.59,709.2,1273.54,713.67Z"/><path class="cls-5" d="M1227.58,284.79c-1.46.32-2.62-2.32-2.93-4.23s2.18-2,3.8-2c2.74-.08,3.85,1.88,4.06,4.08S1230.62,284.25,1227.58,284.79Z"/><path class="cls-4" d="M1032.69,722.76c.62-3.32-2.68-7.3,1.9-7.75,6-.59,1.92,4.51,3.32,6.84C1036.07,720.4,1034.35,716.47,1032.69,722.76Z"/><path class="cls-4" d="M1047.42,719.23c-1-3.08,1.25-3.74,3.41-4,2.64-.32,3.55,1.73,3.58,3.8s-1.12,4-3.64,3.77C1048.85,722.61,1046.48,722.35,1047.42,719.23Zm5.47-.65c-.12-.88-.42-2.12-1.87-2.12-1.7,0-2.17,1.31-2.06,2.73.09,1.21.64,2.34,2.12,2.2S1052.9,720.18,1052.89,718.58Z"/><path class="cls-4" d="M1250.38,720.39c1,1.28-1,3.66,1.66,4.1,1.66.28,2.9-.32,3.14-2.28.13-1.12,1.16-2.11,2-1.36,1,.89,1.38,2.46,2,3.74-.76.34-1.55,1-2.27,1C1253.84,725.29,1248.71,727.67,1250.38,720.39Z"/><path class="cls-4" d="M1238,722.3c.41-1-1.16-3.33,1.78-2.78,1.77.33,3.86.65,3.63,3.12a3.23,3.23,0,0,1-3.2,3.19C1237.47,726,1238,724,1238,722.3Z"/><path class="cls-4" d="M1223.65,528v27.92h-.41V528.07Z"/><path class="cls-4" d="M1094.9,699.83c-2.4-4,.68-8.33-2.85-11.54-.8-.72,2.14-1,3.43-1.17s3.55.76,2.39,1.76C1094.42,691.84,1096.83,695.91,1094.9,699.83Z"/><path class="cls-4" d="M1034.19,789.75c1.11-1.62-2.86-4.27.67-5.16,1.25-.31,4.09-1.47,5,.9.55,1.45.17,4.75-.22,4.81-4.14.73-1.24-3.57-3.11-4.71C1034.29,786.21,1035.84,788.58,1034.19,789.75Z"/><path class="cls-4" d="M1147.29,732.5c.24-1.34-.38-3.28,2.1-3.07,2,.18,1.83,1.58,2.08,3.17.54,3.46-2.26,1.45-3.18,1.86C1146.46,735.27,1147.62,733.24,1147.29,732.5Z"/><path class="cls-4" d="M1040.05,604.82c1,2.57,1.67,4.23,2.11,6,.07.26-1.16,1.23-1.79,1.23-1.9,0-2.41-1.62-2.25-3.08C1038.24,607.79,1039.12,606.72,1040.05,604.82Z"/><path class="cls-4" d="M1059.86,786.37c-3.54-4.28-3.31,3.34-5.93,4.26.53-2.08-1.64-4.66,1.42-5.47C1057.52,784.58,1059.75,785.69,1059.86,786.37Z"/><path class="cls-4" d="M1201.85,760.42c.8,2.52,1.8,5.19-.46,7.34A2.17,2.17,0,0,1,1198,767c-1.25-2.34-1.62-4.66.87-6.55l0-.08c-.9,2.39-1.44,4.8.38,7a1.81,1.81,0,0,0,1.76,0c2-1.85,1.1-4.26,1-6.51a1.69,1.69,0,0,0-.12-.48Z"/><path class="cls-4" d="M1047,790.85c-1.35-2.62-6.81.12-4.72-5a2,2,0,0,1,2.83-1.14C1048.13,785.73,1046.24,788.27,1047,790.85Z"/><path class="cls-4" d="M1137.26,594c2.41.13,3.66,1.48,3.61,3.82s-1,3.76-3.53,3.89c-3.36.17-2.56-2.29-2.62-4.09S1134.25,593.66,1137.26,594Zm.72,6.37c.46-.72,1.37-1.55,1.51-2.5a2,2,0,0,0-2-2.34c-1.36,0-1.42,1.13-1.42,2.12S1135.8,600.06,1138,600.35Z"/><path class="cls-4" d="M1052.71,754.43c-.27,2.75,1.49,5.93-2.27,5.92-3.49,0-2.38-3.08-2.33-5.4,2.28.74-.12,4.34,2.58,4.1C1051.38,759,1051.85,756.5,1052.71,754.43Z"/><path class="cls-4" d="M1154,599.31c-.3,3.18-3,2.83-4.32,1.93-1.93-1.31-1.14-4.06-.7-6,.51-2.26,2.66-1.51,4.07-.78,2.25,1.16,2.8,2.9.85,4.93-.41-1.64,0-4.16-2.67-3.85-1.69.2-1.41,2.11-1.07,3.34C1151,602.09,1152.7,599,1154,599.31Z"/><path class="cls-4" d="M1171.12,734.39c-2.26-4.3-4-.32-5.9.16-.56-1.7-1-3.78.43-4.79.94-.66,3.35-.33,4.35.48S1170.79,733,1171.12,734.39Z"/><path class="cls-4" d="M1061.65,714.54v8C1056,720.5,1059.53,718.12,1061.65,714.54Z"/><ellipse class="cls-4" cx="1157.4" cy="633.88" rx="0.3" ry="16.01"/><ellipse class="cls-4" cx="1139.42" cy="633.69" rx="0.3" ry="16"/><path class="cls-4" d="M1046.53,610.08c1.1-.5-2.61-3.56-.11-4.26,2.08-.57.83,2.81,2.42,3.44,0,0,0,0,0,0-1.87-2.58-2-.68-2.35.88C1046.39,610.55,1046.07,610.93,1046.53,610.08Z"/><path class="cls-4" d="M1050.05,789.69c2.56-.53.87-3.08,2.43-4.11.39,1.91,1,3.79-.78,5a2.84,2.84,0,0,1-2.61-.1c-1.73-1.26-1.31-3.12-.75-5.43Z"/><path class="cls-4" d="M1141.65,729.42c1.84.07,2,1.23,1.93,2.74s.29,3.18-1.93,3.28c-2.7.12-1.49-2-1.64-3.22S1139.47,729.39,1141.65,729.42Z"/><path class="cls-4" d="M1064.33,715.46c1.43,2.49-1.32,6.71,5.25,6.28-3.14,1.37-5.15,1.87-5.81.16A6.69,6.69,0,0,1,1064.33,715.46Z"/><path class="cls-4" d="M1072.54,722.55c-1-2.29-1.79-4.28-2.89-6.89,2,.65,4,4.17,5.61.23Z"/><path class="cls-4" d="M1145.27,594.28c0,2.46-1.38,4.73.78,7.08-1,.47-2.9.95-3.46-.44a9.7,9.7,0,0,1-.23-5.77C1142.86,593.28,1144.73,594.18,1145.27,594.28Z"/><path class="cls-4" d="M1264.8,548.84c-.28.58-.55,1.15-.81,1.72-.42-3.07-3.38,1.17-3.89-1.35-.11-.52.35-1.17.55-1.75C1261.1,550.5,1264,546.17,1264.8,548.84Z"/><path class="cls-4" d="M1118.2,732.71c.58,1.53-.59,2.65-1.08,2.17a11.43,11.43,0,0,1-2.17-4.22c-.08-.24.87-1.2,1.42-1.28C1120.18,728.81,1115.63,732.84,1118.2,732.71Z"/><path class="cls-4" d="M1074.06,791c-3-.81-4.9-1.86-4.2-4.3.37-1.28,3.16-.76,3-.23C1072.28,788.11,1073,789.25,1074.06,791Z"/><path class="cls-4" d="M1137.2,729.3c.13.2.35.54.58.87-2.67,1.48.72,4.2-.81,5.24-1.3.88-2.23-.9-2.15-2.3S1134.38,729.66,1137.2,729.3Z"/><path class="cls-5" d="M1228.73,254.54c-.4.56-1,2.16-1.66,2.19-1.64.09-1.14-1.56-1.17-2.57s-.08-2.48,1.61-2.34C1228.83,251.93,1228.72,253.08,1228.73,254.54Z"/><path class="cls-4" d="M1063.8,788.17c0-1.4-.43-3.2,2-2.88.33,0,1.3-.52.82.84-.56,1.58-.13,4.55-.9,4.83C1063.64,791.74,1063.8,789.63,1063.8,788.17Z"/><path class="cls-4" d="M1171.82,732.53c.1-1.74-.17-3.47,2.17-3.2.37,0,1.72.23.68.81-2.7,1.52,1.52,4.47-1,5.21C1171.52,736,1172,733.58,1171.82,732.53Z"/><path class="cls-4" d="M1042.57,721.59c-.56-1.16-3,2.39-2.39-.82.16-.88-1.54-2.8.76-2.95,3.19-.22,1.1,2.48,1.84,3.65Z"/><path class="cls-4" d="M1215.82,760.45c2.69,2.29,2.41,4.59,0,6.89l.05.09c1.25-2.36,1.48-4.72,0-7.07Z"/><path class="cls-5" d="M1065.59,261.33c1.34-.4,1.91-.76,2.41-.67s.83.65,1.24,1a4.6,4.6,0,0,1-1.55.69C1067.23,262.36,1066.76,261.93,1065.59,261.33Z"/><path class="cls-4" d="M1110.08,729.84c3.2,1.43.89,3.08,0,6.22Z"/><path class="cls-4" d="M1212.84,767.35a6.65,6.65,0,0,1,0-6.92l0-.07v7.07Z"/><path class="cls-4" d="M1212.84,760.43c1-.89,2-1.27,3,0l0-.09h-3.07Z"/><path class="cls-4" d="M1215.83,767.34a1.92,1.92,0,0,1-3,0l0,.08h3.08Z"/><path class="cls-4" d="M1198.85,760.44c1-1.14,2-.46,3,0l0-.07h-3.07Z"/><path class="cls-4" d="M1042.78,721.47l.66.5c-.13.07-.35.23-.38.19a3.87,3.87,0,0,1-.49-.57Z"/><path class="cls-4" d="M1052.81,877.32l-.27.68.36-.61Z"/><path class="cls-5" d="M793.39,103.1c.1.18.22.31.21.42s-.16.21-.25.32Z"/><path class="cls-3" d="M1142,693.29c-.12,1.66-.08,3.67-2.42,3.47s-2-2.25-2-3.86,0-3.7,2.38-3.49S1141.89,691.7,1142,693.29Z"/><path class="cls-3" d="M1160.36,692.67c-.37,1.72.23,3.92-2.1,4.05s-2.44-1.77-2.45-3.5,0-3.6,2.11-3.82C1160.49,689.12,1159.79,691.5,1160.36,692.67Z"/><path class="cls-3" d="M1129,693.06c.32-1.28-.78-3.41,1.56-3.46,2-.05,2.11,1.84,2.12,3.32s.09,3.77-2.21,3.69S1129.33,694.33,1129,693.06Z"/><path class="cls-3" d="M1064.84,692.89c-.29,1.68,0,3.88-2.26,3.82-1.82-.05-1.83-2.07-1.82-3.48,0-1.58-.09-3.74,2.13-3.7C1064.76,689.56,1064.48,691.64,1064.84,692.89Z"/><path class="cls-3" d="M1048.47,583.82c-.65.32-1.08.72-1.35.63a6.08,6.08,0,0,1-1.43-.94c.39-.33.86-1,1.17-.92C1047.37,582.7,1047.79,583.27,1048.47,583.82Z"/><path class="cls-3" d="M1083.72,596.58l-.78-.76,1.32.22Z"/><path class="cls-3" d="M1060.43,608c-.39,1.37-.14,3.91-2.58,2.54-1.94-1.08,1.19-2.16.7-3.53Z"/><path class="cls-3" d="M1057.13,607.06c0-.12.08-.27.17-.34s.21,0,.32,0l-.15.7Z"/><path class="cls-3" d="M1121.86,585.45c0,1.83-.64,3.31-2.8,3.19-1.92-.1-2.33-1.58-2.28-3.16s.46-3.52,2.56-3.52S1121.94,583.61,1121.86,585.45Z"/><path class="cls-3" d="M1132.06,585.24c-.07,1.79-.53,3.45-2.67,3.39s-2.5-1.83-2.44-3.56c.06-1.56.61-3,2.45-3.12C1131.61,581.84,1132.05,583.43,1132.06,585.24Z"/><path class="cls-3" d="M1086.34,585.69c.26-1.51-.42-3.4,1.93-3.4,2,0,2.28,1.65,2.32,3.09s-.25,3-2.22,3.19C1085.94,588.74,1086.64,586.79,1086.34,585.69Z"/><path class="cls-3" d="M1139.26,582.06c2.07.19,2.62,1.36,2.61,3.05s-.47,3.37-2.62,3.38c-2.48,0-1.62-2-1.64-3.25S1137.1,582.1,1139.26,582.06Z"/><path class="cls-3" d="M1052.89,718.58c0,1.6-.42,2.67-1.81,2.81s-2-1-2.12-2.2c-.11-1.42.36-2.74,2.06-2.73C1052.47,716.46,1052.77,717.7,1052.89,718.58Z"/><path class="cls-3" d="M1198.81,760.36h3.07a1.69,1.69,0,0,1,.12.48c0,2.25.94,4.66-1,6.51a1.81,1.81,0,0,1-1.76,0C1197.37,765.16,1197.91,762.75,1198.81,760.36Z"/><path class="cls-3" d="M1138,600.35c-2.18-.29-1.91-1.61-1.92-2.72s.06-2.16,1.42-2.12a2,2,0,0,1,2,2.34C1139.35,598.8,1138.44,599.63,1138,600.35Z"/><path class="cls-3" d="M1154,599.31c-1.28-.3-3,2.78-3.84-.41-.34-1.23-.62-3.14,1.07-3.34,2.68-.31,2.26,2.21,2.67,3.85Z"/><path class="cls-3" d="M1215.88,767.43h-3.08v-7.07h3.07C1217.36,762.71,1217.13,765.07,1215.88,767.43Z"/></g></g></svg>